M48
; DRILL file {KiCad 9.0.2} date 2025-07-01T22:27:41-1000
; FORMAT={-:-/ absolute / metric / decimal}
; #@! TF.CreationDate,2025-07-01T22:27:41-10:00
; #@! TF.GenerationSoftware,Kicad,Pcbnew,9.0.2
; #@! TF.FileFunction,NonPlated,1,2,NPTH
FMAT,2
METRIC
; #@! TA.AperFunction,NonPlated,NPTH,ComponentDrill
T1C1.750
; #@! TA.AperFunction,NonPlated,NPTH,ComponentDrill
T2C4.000
%
G90
G05
T1
X68.583Y-99.0
X68.583Y-79.95
X68.583Y-118.05
X78.743Y-99.0
X78.743Y-79.95
X78.743Y-118.05
X87.633Y-77.568
X87.633Y-96.619
X87.633Y-115.669
X97.793Y-77.568
X97.793Y-96.619
X97.793Y-115.669
X106.684Y-70.424
X106.684Y-108.525
X106.684Y-89.475
X116.209Y-127.576
X116.844Y-70.424
X116.844Y-108.525
X116.844Y-89.475
X125.734Y-84.712
X125.734Y-103.763
X125.734Y-65.662
X126.369Y-127.576
X135.259Y-129.957
X135.894Y-84.712
X135.894Y-103.763
X135.894Y-65.662
X144.784Y-91.856
X144.784Y-110.907
X144.784Y-72.806
X145.419Y-129.957
X154.31Y-134.72
X154.944Y-91.856
X154.944Y-110.907
X154.944Y-72.806
X163.835Y-77.568
X163.835Y-96.619
X163.835Y-115.669
X164.47Y-134.72
X173.995Y-77.568
X173.995Y-96.619
X173.995Y-115.669
X179.29Y-133.451
X188.383Y-137.984
X198.193Y-144.093
X206.28Y-150.242
T2
X73.663Y-99.0
X73.663Y-79.95
X73.663Y-118.05
X92.713Y-77.568
X92.713Y-96.619
X92.713Y-115.669
X111.764Y-70.424
X111.764Y-108.525
X111.764Y-89.475
X121.289Y-127.576
X130.814Y-84.712
X130.814Y-103.763
X130.814Y-65.662
X140.339Y-129.957
X149.864Y-91.856
X149.864Y-110.907
X149.864Y-72.806
X159.39Y-134.72
X168.915Y-77.568
X168.915Y-96.619
X168.915Y-115.669
X183.836Y-135.718
X202.236Y-147.168
M30
