%TF.GenerationSoftware,KiCad,Pcbnew,9.0.2*%
%TF.CreationDate,2025-07-01T22:27:43-10:00*%
%TF.ProjectId,jug,6a75672e-6b69-4636-9164-5f7063625858,rev?*%
%TF.SameCoordinates,Original*%
%TF.FileFunction,Legend,Top*%
%TF.FilePolarity,Positive*%
%FSLAX46Y46*%
G04 Gerber Fmt 4.6, Leading zero omitted, Abs format (unit mm)*
G04 Created by KiCad (PCBNEW 9.0.2) date 2025-07-01 22:27:43*
%MOMM*%
%LPD*%
G01*
G04 APERTURE LIST*
%ADD10C,0.100000*%
%ADD11C,0.150000*%
%ADD12C,0.000000*%
%ADD13C,0.120000*%
G04 APERTURE END LIST*
D10*
X192617877Y-110689079D02*
X192665496Y-110736699D01*
X192665496Y-110736699D02*
X192617877Y-110784318D01*
X192617877Y-110784318D02*
X192570258Y-110736699D01*
X192570258Y-110736699D02*
X192617877Y-110689079D01*
X192617877Y-110689079D02*
X192617877Y-110784318D01*
X192617877Y-110165270D02*
X192665496Y-110212889D01*
X192665496Y-110212889D02*
X192617877Y-110260508D01*
X192617877Y-110260508D02*
X192570258Y-110212889D01*
X192570258Y-110212889D02*
X192617877Y-110165270D01*
X192617877Y-110165270D02*
X192617877Y-110260508D01*
X193094067Y-110784318D02*
X193094067Y-109784318D01*
X193094067Y-109784318D02*
X193332162Y-109784318D01*
X193332162Y-109784318D02*
X193475019Y-109831937D01*
X193475019Y-109831937D02*
X193570257Y-109927175D01*
X193570257Y-109927175D02*
X193617876Y-110022413D01*
X193617876Y-110022413D02*
X193665495Y-110212889D01*
X193665495Y-110212889D02*
X193665495Y-110355746D01*
X193665495Y-110355746D02*
X193617876Y-110546222D01*
X193617876Y-110546222D02*
X193570257Y-110641460D01*
X193570257Y-110641460D02*
X193475019Y-110736699D01*
X193475019Y-110736699D02*
X193332162Y-110784318D01*
X193332162Y-110784318D02*
X193094067Y-110784318D01*
X188192630Y-90304756D02*
X188240249Y-90161899D01*
X188240249Y-90161899D02*
X188287868Y-90114280D01*
X188287868Y-90114280D02*
X188383106Y-90066661D01*
X188383106Y-90066661D02*
X188525963Y-90066661D01*
X188525963Y-90066661D02*
X188621201Y-90114280D01*
X188621201Y-90114280D02*
X188668821Y-90161899D01*
X188668821Y-90161899D02*
X188716440Y-90257137D01*
X188716440Y-90257137D02*
X188716440Y-90638089D01*
X188716440Y-90638089D02*
X187716440Y-90638089D01*
X187716440Y-90638089D02*
X187716440Y-90304756D01*
X187716440Y-90304756D02*
X187764059Y-90209518D01*
X187764059Y-90209518D02*
X187811678Y-90161899D01*
X187811678Y-90161899D02*
X187906916Y-90114280D01*
X187906916Y-90114280D02*
X188002154Y-90114280D01*
X188002154Y-90114280D02*
X188097392Y-90161899D01*
X188097392Y-90161899D02*
X188145011Y-90209518D01*
X188145011Y-90209518D02*
X188192630Y-90304756D01*
X188192630Y-90304756D02*
X188192630Y-90638089D01*
X188716440Y-89638089D02*
X188049773Y-89638089D01*
X188240249Y-89638089D02*
X188145011Y-89590470D01*
X188145011Y-89590470D02*
X188097392Y-89542851D01*
X188097392Y-89542851D02*
X188049773Y-89447613D01*
X188049773Y-89447613D02*
X188049773Y-89352375D01*
X188716440Y-89019041D02*
X188049773Y-89019041D01*
X187716440Y-89019041D02*
X187764059Y-89066660D01*
X187764059Y-89066660D02*
X187811678Y-89019041D01*
X187811678Y-89019041D02*
X187764059Y-88971422D01*
X187764059Y-88971422D02*
X187716440Y-89019041D01*
X187716440Y-89019041D02*
X187811678Y-89019041D01*
X188716440Y-88114280D02*
X187716440Y-88114280D01*
X188668821Y-88114280D02*
X188716440Y-88209518D01*
X188716440Y-88209518D02*
X188716440Y-88399994D01*
X188716440Y-88399994D02*
X188668821Y-88495232D01*
X188668821Y-88495232D02*
X188621201Y-88542851D01*
X188621201Y-88542851D02*
X188525963Y-88590470D01*
X188525963Y-88590470D02*
X188240249Y-88590470D01*
X188240249Y-88590470D02*
X188145011Y-88542851D01*
X188145011Y-88542851D02*
X188097392Y-88495232D01*
X188097392Y-88495232D02*
X188049773Y-88399994D01*
X188049773Y-88399994D02*
X188049773Y-88209518D01*
X188049773Y-88209518D02*
X188097392Y-88114280D01*
X188049773Y-87209518D02*
X188859297Y-87209518D01*
X188859297Y-87209518D02*
X188954535Y-87257137D01*
X188954535Y-87257137D02*
X189002154Y-87304756D01*
X189002154Y-87304756D02*
X189049773Y-87399994D01*
X189049773Y-87399994D02*
X189049773Y-87542851D01*
X189049773Y-87542851D02*
X189002154Y-87638089D01*
X188668821Y-87209518D02*
X188716440Y-87304756D01*
X188716440Y-87304756D02*
X188716440Y-87495232D01*
X188716440Y-87495232D02*
X188668821Y-87590470D01*
X188668821Y-87590470D02*
X188621201Y-87638089D01*
X188621201Y-87638089D02*
X188525963Y-87685708D01*
X188525963Y-87685708D02*
X188240249Y-87685708D01*
X188240249Y-87685708D02*
X188145011Y-87638089D01*
X188145011Y-87638089D02*
X188097392Y-87590470D01*
X188097392Y-87590470D02*
X188049773Y-87495232D01*
X188049773Y-87495232D02*
X188049773Y-87304756D01*
X188049773Y-87304756D02*
X188097392Y-87209518D01*
X188668821Y-86352375D02*
X188716440Y-86447613D01*
X188716440Y-86447613D02*
X188716440Y-86638089D01*
X188716440Y-86638089D02*
X188668821Y-86733327D01*
X188668821Y-86733327D02*
X188573582Y-86780946D01*
X188573582Y-86780946D02*
X188192630Y-86780946D01*
X188192630Y-86780946D02*
X188097392Y-86733327D01*
X188097392Y-86733327D02*
X188049773Y-86638089D01*
X188049773Y-86638089D02*
X188049773Y-86447613D01*
X188049773Y-86447613D02*
X188097392Y-86352375D01*
X188097392Y-86352375D02*
X188192630Y-86304756D01*
X188192630Y-86304756D02*
X188287868Y-86304756D01*
X188287868Y-86304756D02*
X188383106Y-86780946D01*
X188049773Y-85114279D02*
X188906916Y-85114279D01*
X188906916Y-85114279D02*
X189002154Y-85161898D01*
X189002154Y-85161898D02*
X189049773Y-85257136D01*
X189049773Y-85257136D02*
X189049773Y-85304755D01*
X187716440Y-85114279D02*
X187764059Y-85161898D01*
X187764059Y-85161898D02*
X187811678Y-85114279D01*
X187811678Y-85114279D02*
X187764059Y-85066660D01*
X187764059Y-85066660D02*
X187716440Y-85114279D01*
X187716440Y-85114279D02*
X187811678Y-85114279D01*
X188049773Y-84209518D02*
X188716440Y-84209518D01*
X188049773Y-84638089D02*
X188573582Y-84638089D01*
X188573582Y-84638089D02*
X188668821Y-84590470D01*
X188668821Y-84590470D02*
X188716440Y-84495232D01*
X188716440Y-84495232D02*
X188716440Y-84352375D01*
X188716440Y-84352375D02*
X188668821Y-84257137D01*
X188668821Y-84257137D02*
X188621201Y-84209518D01*
X188716440Y-83733327D02*
X188049773Y-83733327D01*
X188145011Y-83733327D02*
X188097392Y-83685708D01*
X188097392Y-83685708D02*
X188049773Y-83590470D01*
X188049773Y-83590470D02*
X188049773Y-83447613D01*
X188049773Y-83447613D02*
X188097392Y-83352375D01*
X188097392Y-83352375D02*
X188192630Y-83304756D01*
X188192630Y-83304756D02*
X188716440Y-83304756D01*
X188192630Y-83304756D02*
X188097392Y-83257137D01*
X188097392Y-83257137D02*
X188049773Y-83161899D01*
X188049773Y-83161899D02*
X188049773Y-83019042D01*
X188049773Y-83019042D02*
X188097392Y-82923803D01*
X188097392Y-82923803D02*
X188192630Y-82876184D01*
X188192630Y-82876184D02*
X188716440Y-82876184D01*
X188049773Y-82399994D02*
X189049773Y-82399994D01*
X188097392Y-82399994D02*
X188049773Y-82304756D01*
X188049773Y-82304756D02*
X188049773Y-82114280D01*
X188049773Y-82114280D02*
X188097392Y-82019042D01*
X188097392Y-82019042D02*
X188145011Y-81971423D01*
X188145011Y-81971423D02*
X188240249Y-81923804D01*
X188240249Y-81923804D02*
X188525963Y-81923804D01*
X188525963Y-81923804D02*
X188621201Y-81971423D01*
X188621201Y-81971423D02*
X188668821Y-82019042D01*
X188668821Y-82019042D02*
X188716440Y-82114280D01*
X188716440Y-82114280D02*
X188716440Y-82304756D01*
X188716440Y-82304756D02*
X188668821Y-82399994D01*
X188668821Y-81114280D02*
X188716440Y-81209518D01*
X188716440Y-81209518D02*
X188716440Y-81399994D01*
X188716440Y-81399994D02*
X188668821Y-81495232D01*
X188668821Y-81495232D02*
X188573582Y-81542851D01*
X188573582Y-81542851D02*
X188192630Y-81542851D01*
X188192630Y-81542851D02*
X188097392Y-81495232D01*
X188097392Y-81495232D02*
X188049773Y-81399994D01*
X188049773Y-81399994D02*
X188049773Y-81209518D01*
X188049773Y-81209518D02*
X188097392Y-81114280D01*
X188097392Y-81114280D02*
X188192630Y-81066661D01*
X188192630Y-81066661D02*
X188287868Y-81066661D01*
X188287868Y-81066661D02*
X188383106Y-81542851D01*
X188716440Y-80638089D02*
X188049773Y-80638089D01*
X188240249Y-80638089D02*
X188145011Y-80590470D01*
X188145011Y-80590470D02*
X188097392Y-80542851D01*
X188097392Y-80542851D02*
X188049773Y-80447613D01*
X188049773Y-80447613D02*
X188049773Y-80352375D01*
X188668821Y-80066660D02*
X188716440Y-79971422D01*
X188716440Y-79971422D02*
X188716440Y-79780946D01*
X188716440Y-79780946D02*
X188668821Y-79685708D01*
X188668821Y-79685708D02*
X188573582Y-79638089D01*
X188573582Y-79638089D02*
X188525963Y-79638089D01*
X188525963Y-79638089D02*
X188430725Y-79685708D01*
X188430725Y-79685708D02*
X188383106Y-79780946D01*
X188383106Y-79780946D02*
X188383106Y-79923803D01*
X188383106Y-79923803D02*
X188335487Y-80019041D01*
X188335487Y-80019041D02*
X188240249Y-80066660D01*
X188240249Y-80066660D02*
X188192630Y-80066660D01*
X188192630Y-80066660D02*
X188097392Y-80019041D01*
X188097392Y-80019041D02*
X188049773Y-79923803D01*
X188049773Y-79923803D02*
X188049773Y-79780946D01*
X188049773Y-79780946D02*
X188097392Y-79685708D01*
X190326384Y-91447613D02*
X190278765Y-91542851D01*
X190278765Y-91542851D02*
X190231145Y-91590470D01*
X190231145Y-91590470D02*
X190135907Y-91638089D01*
X190135907Y-91638089D02*
X189850193Y-91638089D01*
X189850193Y-91638089D02*
X189754955Y-91590470D01*
X189754955Y-91590470D02*
X189707336Y-91542851D01*
X189707336Y-91542851D02*
X189659717Y-91447613D01*
X189659717Y-91447613D02*
X189659717Y-91304756D01*
X189659717Y-91304756D02*
X189707336Y-91209518D01*
X189707336Y-91209518D02*
X189754955Y-91161899D01*
X189754955Y-91161899D02*
X189850193Y-91114280D01*
X189850193Y-91114280D02*
X190135907Y-91114280D01*
X190135907Y-91114280D02*
X190231145Y-91161899D01*
X190231145Y-91161899D02*
X190278765Y-91209518D01*
X190278765Y-91209518D02*
X190326384Y-91304756D01*
X190326384Y-91304756D02*
X190326384Y-91447613D01*
X189659717Y-90685708D02*
X190326384Y-90685708D01*
X189754955Y-90685708D02*
X189707336Y-90638089D01*
X189707336Y-90638089D02*
X189659717Y-90542851D01*
X189659717Y-90542851D02*
X189659717Y-90399994D01*
X189659717Y-90399994D02*
X189707336Y-90304756D01*
X189707336Y-90304756D02*
X189802574Y-90257137D01*
X189802574Y-90257137D02*
X190326384Y-90257137D01*
X190278765Y-89066660D02*
X190326384Y-88971422D01*
X190326384Y-88971422D02*
X190326384Y-88780946D01*
X190326384Y-88780946D02*
X190278765Y-88685708D01*
X190278765Y-88685708D02*
X190183526Y-88638089D01*
X190183526Y-88638089D02*
X190135907Y-88638089D01*
X190135907Y-88638089D02*
X190040669Y-88685708D01*
X190040669Y-88685708D02*
X189993050Y-88780946D01*
X189993050Y-88780946D02*
X189993050Y-88923803D01*
X189993050Y-88923803D02*
X189945431Y-89019041D01*
X189945431Y-89019041D02*
X189850193Y-89066660D01*
X189850193Y-89066660D02*
X189802574Y-89066660D01*
X189802574Y-89066660D02*
X189707336Y-89019041D01*
X189707336Y-89019041D02*
X189659717Y-88923803D01*
X189659717Y-88923803D02*
X189659717Y-88780946D01*
X189659717Y-88780946D02*
X189707336Y-88685708D01*
X190326384Y-88209517D02*
X189659717Y-88209517D01*
X189326384Y-88209517D02*
X189374003Y-88257136D01*
X189374003Y-88257136D02*
X189421622Y-88209517D01*
X189421622Y-88209517D02*
X189374003Y-88161898D01*
X189374003Y-88161898D02*
X189326384Y-88209517D01*
X189326384Y-88209517D02*
X189421622Y-88209517D01*
X190326384Y-87304756D02*
X189326384Y-87304756D01*
X190278765Y-87304756D02*
X190326384Y-87399994D01*
X190326384Y-87399994D02*
X190326384Y-87590470D01*
X190326384Y-87590470D02*
X190278765Y-87685708D01*
X190278765Y-87685708D02*
X190231145Y-87733327D01*
X190231145Y-87733327D02*
X190135907Y-87780946D01*
X190135907Y-87780946D02*
X189850193Y-87780946D01*
X189850193Y-87780946D02*
X189754955Y-87733327D01*
X189754955Y-87733327D02*
X189707336Y-87685708D01*
X189707336Y-87685708D02*
X189659717Y-87590470D01*
X189659717Y-87590470D02*
X189659717Y-87399994D01*
X189659717Y-87399994D02*
X189707336Y-87304756D01*
X190278765Y-86447613D02*
X190326384Y-86542851D01*
X190326384Y-86542851D02*
X190326384Y-86733327D01*
X190326384Y-86733327D02*
X190278765Y-86828565D01*
X190278765Y-86828565D02*
X190183526Y-86876184D01*
X190183526Y-86876184D02*
X189802574Y-86876184D01*
X189802574Y-86876184D02*
X189707336Y-86828565D01*
X189707336Y-86828565D02*
X189659717Y-86733327D01*
X189659717Y-86733327D02*
X189659717Y-86542851D01*
X189659717Y-86542851D02*
X189707336Y-86447613D01*
X189707336Y-86447613D02*
X189802574Y-86399994D01*
X189802574Y-86399994D02*
X189897812Y-86399994D01*
X189897812Y-86399994D02*
X189993050Y-86876184D01*
X189659717Y-85304755D02*
X190326384Y-85114279D01*
X190326384Y-85114279D02*
X189850193Y-84923803D01*
X189850193Y-84923803D02*
X190326384Y-84733327D01*
X190326384Y-84733327D02*
X189659717Y-84542851D01*
X190326384Y-84161898D02*
X189659717Y-84161898D01*
X189326384Y-84161898D02*
X189374003Y-84209517D01*
X189374003Y-84209517D02*
X189421622Y-84161898D01*
X189421622Y-84161898D02*
X189374003Y-84114279D01*
X189374003Y-84114279D02*
X189326384Y-84161898D01*
X189326384Y-84161898D02*
X189421622Y-84161898D01*
X189659717Y-83828565D02*
X189659717Y-83447613D01*
X189326384Y-83685708D02*
X190183526Y-83685708D01*
X190183526Y-83685708D02*
X190278765Y-83638089D01*
X190278765Y-83638089D02*
X190326384Y-83542851D01*
X190326384Y-83542851D02*
X190326384Y-83447613D01*
X190326384Y-83114279D02*
X189326384Y-83114279D01*
X190326384Y-82685708D02*
X189802574Y-82685708D01*
X189802574Y-82685708D02*
X189707336Y-82733327D01*
X189707336Y-82733327D02*
X189659717Y-82828565D01*
X189659717Y-82828565D02*
X189659717Y-82971422D01*
X189659717Y-82971422D02*
X189707336Y-83066660D01*
X189707336Y-83066660D02*
X189754955Y-83114279D01*
X190326384Y-81447612D02*
X189326384Y-81447612D01*
X189326384Y-81447612D02*
X190040669Y-81114279D01*
X190040669Y-81114279D02*
X189326384Y-80780946D01*
X189326384Y-80780946D02*
X190326384Y-80780946D01*
X190231145Y-79733327D02*
X190278765Y-79780946D01*
X190278765Y-79780946D02*
X190326384Y-79923803D01*
X190326384Y-79923803D02*
X190326384Y-80019041D01*
X190326384Y-80019041D02*
X190278765Y-80161898D01*
X190278765Y-80161898D02*
X190183526Y-80257136D01*
X190183526Y-80257136D02*
X190088288Y-80304755D01*
X190088288Y-80304755D02*
X189897812Y-80352374D01*
X189897812Y-80352374D02*
X189754955Y-80352374D01*
X189754955Y-80352374D02*
X189564479Y-80304755D01*
X189564479Y-80304755D02*
X189469241Y-80257136D01*
X189469241Y-80257136D02*
X189374003Y-80161898D01*
X189374003Y-80161898D02*
X189326384Y-80019041D01*
X189326384Y-80019041D02*
X189326384Y-79923803D01*
X189326384Y-79923803D02*
X189374003Y-79780946D01*
X189374003Y-79780946D02*
X189421622Y-79733327D01*
X189326384Y-79304755D02*
X190135907Y-79304755D01*
X190135907Y-79304755D02*
X190231145Y-79257136D01*
X190231145Y-79257136D02*
X190278765Y-79209517D01*
X190278765Y-79209517D02*
X190326384Y-79114279D01*
X190326384Y-79114279D02*
X190326384Y-78923803D01*
X190326384Y-78923803D02*
X190278765Y-78828565D01*
X190278765Y-78828565D02*
X190231145Y-78780946D01*
X190231145Y-78780946D02*
X190135907Y-78733327D01*
X190135907Y-78733327D02*
X189326384Y-78733327D01*
X194916840Y-114563845D02*
X195726363Y-114563845D01*
X195726363Y-114563845D02*
X195821601Y-114516226D01*
X195821601Y-114516226D02*
X195869221Y-114468607D01*
X195869221Y-114468607D02*
X195916840Y-114373369D01*
X195916840Y-114373369D02*
X195916840Y-114182893D01*
X195916840Y-114182893D02*
X195869221Y-114087655D01*
X195869221Y-114087655D02*
X195821601Y-114040036D01*
X195821601Y-114040036D02*
X195726363Y-113992417D01*
X195726363Y-113992417D02*
X194916840Y-113992417D01*
X195869221Y-113563845D02*
X195916840Y-113420988D01*
X195916840Y-113420988D02*
X195916840Y-113182893D01*
X195916840Y-113182893D02*
X195869221Y-113087655D01*
X195869221Y-113087655D02*
X195821601Y-113040036D01*
X195821601Y-113040036D02*
X195726363Y-112992417D01*
X195726363Y-112992417D02*
X195631125Y-112992417D01*
X195631125Y-112992417D02*
X195535887Y-113040036D01*
X195535887Y-113040036D02*
X195488268Y-113087655D01*
X195488268Y-113087655D02*
X195440649Y-113182893D01*
X195440649Y-113182893D02*
X195393030Y-113373369D01*
X195393030Y-113373369D02*
X195345411Y-113468607D01*
X195345411Y-113468607D02*
X195297792Y-113516226D01*
X195297792Y-113516226D02*
X195202554Y-113563845D01*
X195202554Y-113563845D02*
X195107316Y-113563845D01*
X195107316Y-113563845D02*
X195012078Y-113516226D01*
X195012078Y-113516226D02*
X194964459Y-113468607D01*
X194964459Y-113468607D02*
X194916840Y-113373369D01*
X194916840Y-113373369D02*
X194916840Y-113135274D01*
X194916840Y-113135274D02*
X194964459Y-112992417D01*
X195393030Y-112230512D02*
X195440649Y-112087655D01*
X195440649Y-112087655D02*
X195488268Y-112040036D01*
X195488268Y-112040036D02*
X195583506Y-111992417D01*
X195583506Y-111992417D02*
X195726363Y-111992417D01*
X195726363Y-111992417D02*
X195821601Y-112040036D01*
X195821601Y-112040036D02*
X195869221Y-112087655D01*
X195869221Y-112087655D02*
X195916840Y-112182893D01*
X195916840Y-112182893D02*
X195916840Y-112563845D01*
X195916840Y-112563845D02*
X194916840Y-112563845D01*
X194916840Y-112563845D02*
X194916840Y-112230512D01*
X194916840Y-112230512D02*
X194964459Y-112135274D01*
X194964459Y-112135274D02*
X195012078Y-112087655D01*
X195012078Y-112087655D02*
X195107316Y-112040036D01*
X195107316Y-112040036D02*
X195202554Y-112040036D01*
X195202554Y-112040036D02*
X195297792Y-112087655D01*
X195297792Y-112087655D02*
X195345411Y-112135274D01*
X195345411Y-112135274D02*
X195393030Y-112230512D01*
X195393030Y-112230512D02*
X195393030Y-112563845D01*
X195916840Y-110659083D02*
X195869221Y-110754321D01*
X195869221Y-110754321D02*
X195821601Y-110801940D01*
X195821601Y-110801940D02*
X195726363Y-110849559D01*
X195726363Y-110849559D02*
X195440649Y-110849559D01*
X195440649Y-110849559D02*
X195345411Y-110801940D01*
X195345411Y-110801940D02*
X195297792Y-110754321D01*
X195297792Y-110754321D02*
X195250173Y-110659083D01*
X195250173Y-110659083D02*
X195250173Y-110516226D01*
X195250173Y-110516226D02*
X195297792Y-110420988D01*
X195297792Y-110420988D02*
X195345411Y-110373369D01*
X195345411Y-110373369D02*
X195440649Y-110325750D01*
X195440649Y-110325750D02*
X195726363Y-110325750D01*
X195726363Y-110325750D02*
X195821601Y-110373369D01*
X195821601Y-110373369D02*
X195869221Y-110420988D01*
X195869221Y-110420988D02*
X195916840Y-110516226D01*
X195916840Y-110516226D02*
X195916840Y-110659083D01*
X195250173Y-109897178D02*
X195916840Y-109897178D01*
X195345411Y-109897178D02*
X195297792Y-109849559D01*
X195297792Y-109849559D02*
X195250173Y-109754321D01*
X195250173Y-109754321D02*
X195250173Y-109611464D01*
X195250173Y-109611464D02*
X195297792Y-109516226D01*
X195297792Y-109516226D02*
X195393030Y-109468607D01*
X195393030Y-109468607D02*
X195916840Y-109468607D01*
X195250173Y-108373368D02*
X195250173Y-107992416D01*
X194916840Y-108230511D02*
X195773982Y-108230511D01*
X195773982Y-108230511D02*
X195869221Y-108182892D01*
X195869221Y-108182892D02*
X195916840Y-108087654D01*
X195916840Y-108087654D02*
X195916840Y-107992416D01*
X195916840Y-107516225D02*
X195869221Y-107611463D01*
X195869221Y-107611463D02*
X195821601Y-107659082D01*
X195821601Y-107659082D02*
X195726363Y-107706701D01*
X195726363Y-107706701D02*
X195440649Y-107706701D01*
X195440649Y-107706701D02*
X195345411Y-107659082D01*
X195345411Y-107659082D02*
X195297792Y-107611463D01*
X195297792Y-107611463D02*
X195250173Y-107516225D01*
X195250173Y-107516225D02*
X195250173Y-107373368D01*
X195250173Y-107373368D02*
X195297792Y-107278130D01*
X195297792Y-107278130D02*
X195345411Y-107230511D01*
X195345411Y-107230511D02*
X195440649Y-107182892D01*
X195440649Y-107182892D02*
X195726363Y-107182892D01*
X195726363Y-107182892D02*
X195821601Y-107230511D01*
X195821601Y-107230511D02*
X195869221Y-107278130D01*
X195869221Y-107278130D02*
X195916840Y-107373368D01*
X195916840Y-107373368D02*
X195916840Y-107516225D01*
X195250173Y-106754320D02*
X196250173Y-106754320D01*
X195297792Y-106754320D02*
X195250173Y-106659082D01*
X195250173Y-106659082D02*
X195250173Y-106468606D01*
X195250173Y-106468606D02*
X195297792Y-106373368D01*
X195297792Y-106373368D02*
X195345411Y-106325749D01*
X195345411Y-106325749D02*
X195440649Y-106278130D01*
X195440649Y-106278130D02*
X195726363Y-106278130D01*
X195726363Y-106278130D02*
X195821601Y-106325749D01*
X195821601Y-106325749D02*
X195869221Y-106373368D01*
X195869221Y-106373368D02*
X195916840Y-106468606D01*
X195916840Y-106468606D02*
X195916840Y-106659082D01*
X195916840Y-106659082D02*
X195869221Y-106754320D01*
X197526784Y-112682893D02*
X197479165Y-112778131D01*
X197479165Y-112778131D02*
X197431545Y-112825750D01*
X197431545Y-112825750D02*
X197336307Y-112873369D01*
X197336307Y-112873369D02*
X197050593Y-112873369D01*
X197050593Y-112873369D02*
X196955355Y-112825750D01*
X196955355Y-112825750D02*
X196907736Y-112778131D01*
X196907736Y-112778131D02*
X196860117Y-112682893D01*
X196860117Y-112682893D02*
X196860117Y-112540036D01*
X196860117Y-112540036D02*
X196907736Y-112444798D01*
X196907736Y-112444798D02*
X196955355Y-112397179D01*
X196955355Y-112397179D02*
X197050593Y-112349560D01*
X197050593Y-112349560D02*
X197336307Y-112349560D01*
X197336307Y-112349560D02*
X197431545Y-112397179D01*
X197431545Y-112397179D02*
X197479165Y-112444798D01*
X197479165Y-112444798D02*
X197526784Y-112540036D01*
X197526784Y-112540036D02*
X197526784Y-112682893D01*
X196860117Y-112063845D02*
X196860117Y-111682893D01*
X197526784Y-111920988D02*
X196669641Y-111920988D01*
X196669641Y-111920988D02*
X196574403Y-111873369D01*
X196574403Y-111873369D02*
X196526784Y-111778131D01*
X196526784Y-111778131D02*
X196526784Y-111682893D01*
X197526784Y-110587654D02*
X196526784Y-110587654D01*
X196526784Y-110587654D02*
X196526784Y-110206702D01*
X196526784Y-110206702D02*
X196574403Y-110111464D01*
X196574403Y-110111464D02*
X196622022Y-110063845D01*
X196622022Y-110063845D02*
X196717260Y-110016226D01*
X196717260Y-110016226D02*
X196860117Y-110016226D01*
X196860117Y-110016226D02*
X196955355Y-110063845D01*
X196955355Y-110063845D02*
X197002974Y-110111464D01*
X197002974Y-110111464D02*
X197050593Y-110206702D01*
X197050593Y-110206702D02*
X197050593Y-110587654D01*
X197431545Y-109016226D02*
X197479165Y-109063845D01*
X197479165Y-109063845D02*
X197526784Y-109206702D01*
X197526784Y-109206702D02*
X197526784Y-109301940D01*
X197526784Y-109301940D02*
X197479165Y-109444797D01*
X197479165Y-109444797D02*
X197383926Y-109540035D01*
X197383926Y-109540035D02*
X197288688Y-109587654D01*
X197288688Y-109587654D02*
X197098212Y-109635273D01*
X197098212Y-109635273D02*
X196955355Y-109635273D01*
X196955355Y-109635273D02*
X196764879Y-109587654D01*
X196764879Y-109587654D02*
X196669641Y-109540035D01*
X196669641Y-109540035D02*
X196574403Y-109444797D01*
X196574403Y-109444797D02*
X196526784Y-109301940D01*
X196526784Y-109301940D02*
X196526784Y-109206702D01*
X196526784Y-109206702D02*
X196574403Y-109063845D01*
X196574403Y-109063845D02*
X196622022Y-109016226D01*
X197002974Y-108254321D02*
X197050593Y-108111464D01*
X197050593Y-108111464D02*
X197098212Y-108063845D01*
X197098212Y-108063845D02*
X197193450Y-108016226D01*
X197193450Y-108016226D02*
X197336307Y-108016226D01*
X197336307Y-108016226D02*
X197431545Y-108063845D01*
X197431545Y-108063845D02*
X197479165Y-108111464D01*
X197479165Y-108111464D02*
X197526784Y-108206702D01*
X197526784Y-108206702D02*
X197526784Y-108587654D01*
X197526784Y-108587654D02*
X196526784Y-108587654D01*
X196526784Y-108587654D02*
X196526784Y-108254321D01*
X196526784Y-108254321D02*
X196574403Y-108159083D01*
X196574403Y-108159083D02*
X196622022Y-108111464D01*
X196622022Y-108111464D02*
X196717260Y-108063845D01*
X196717260Y-108063845D02*
X196812498Y-108063845D01*
X196812498Y-108063845D02*
X196907736Y-108111464D01*
X196907736Y-108111464D02*
X196955355Y-108159083D01*
X196955355Y-108159083D02*
X197002974Y-108254321D01*
X197002974Y-108254321D02*
X197002974Y-108587654D01*
D11*
X158151496Y-127126798D02*
X158294353Y-127174417D01*
X158294353Y-127174417D02*
X158532448Y-127174417D01*
X158532448Y-127174417D02*
X158627686Y-127126798D01*
X158627686Y-127126798D02*
X158675305Y-127079178D01*
X158675305Y-127079178D02*
X158722924Y-126983940D01*
X158722924Y-126983940D02*
X158722924Y-126888702D01*
X158722924Y-126888702D02*
X158675305Y-126793464D01*
X158675305Y-126793464D02*
X158627686Y-126745845D01*
X158627686Y-126745845D02*
X158532448Y-126698226D01*
X158532448Y-126698226D02*
X158341972Y-126650607D01*
X158341972Y-126650607D02*
X158246734Y-126602988D01*
X158246734Y-126602988D02*
X158199115Y-126555369D01*
X158199115Y-126555369D02*
X158151496Y-126460131D01*
X158151496Y-126460131D02*
X158151496Y-126364893D01*
X158151496Y-126364893D02*
X158199115Y-126269655D01*
X158199115Y-126269655D02*
X158246734Y-126222036D01*
X158246734Y-126222036D02*
X158341972Y-126174417D01*
X158341972Y-126174417D02*
X158580067Y-126174417D01*
X158580067Y-126174417D02*
X158722924Y-126222036D01*
X159103877Y-126269655D02*
X159151496Y-126222036D01*
X159151496Y-126222036D02*
X159246734Y-126174417D01*
X159246734Y-126174417D02*
X159484829Y-126174417D01*
X159484829Y-126174417D02*
X159580067Y-126222036D01*
X159580067Y-126222036D02*
X159627686Y-126269655D01*
X159627686Y-126269655D02*
X159675305Y-126364893D01*
X159675305Y-126364893D02*
X159675305Y-126460131D01*
X159675305Y-126460131D02*
X159627686Y-126602988D01*
X159627686Y-126602988D02*
X159056258Y-127174417D01*
X159056258Y-127174417D02*
X159675305Y-127174417D01*
X160627686Y-127174417D02*
X160056258Y-127174417D01*
X160341972Y-127174417D02*
X160341972Y-126174417D01*
X160341972Y-126174417D02*
X160246734Y-126317274D01*
X160246734Y-126317274D02*
X160151496Y-126412512D01*
X160151496Y-126412512D02*
X160056258Y-126460131D01*
X129575896Y-77119499D02*
X129718753Y-77167118D01*
X129718753Y-77167118D02*
X129956848Y-77167118D01*
X129956848Y-77167118D02*
X130052086Y-77119499D01*
X130052086Y-77119499D02*
X130099705Y-77071879D01*
X130099705Y-77071879D02*
X130147324Y-76976641D01*
X130147324Y-76976641D02*
X130147324Y-76881403D01*
X130147324Y-76881403D02*
X130099705Y-76786165D01*
X130099705Y-76786165D02*
X130052086Y-76738546D01*
X130052086Y-76738546D02*
X129956848Y-76690927D01*
X129956848Y-76690927D02*
X129766372Y-76643308D01*
X129766372Y-76643308D02*
X129671134Y-76595689D01*
X129671134Y-76595689D02*
X129623515Y-76548070D01*
X129623515Y-76548070D02*
X129575896Y-76452832D01*
X129575896Y-76452832D02*
X129575896Y-76357594D01*
X129575896Y-76357594D02*
X129623515Y-76262356D01*
X129623515Y-76262356D02*
X129671134Y-76214737D01*
X129671134Y-76214737D02*
X129766372Y-76167118D01*
X129766372Y-76167118D02*
X130004467Y-76167118D01*
X130004467Y-76167118D02*
X130147324Y-76214737D01*
X131099705Y-77167118D02*
X130528277Y-77167118D01*
X130813991Y-77167118D02*
X130813991Y-76167118D01*
X130813991Y-76167118D02*
X130718753Y-76309975D01*
X130718753Y-76309975D02*
X130623515Y-76405213D01*
X130623515Y-76405213D02*
X130528277Y-76452832D01*
X131718753Y-76167118D02*
X131813991Y-76167118D01*
X131813991Y-76167118D02*
X131909229Y-76214737D01*
X131909229Y-76214737D02*
X131956848Y-76262356D01*
X131956848Y-76262356D02*
X132004467Y-76357594D01*
X132004467Y-76357594D02*
X132052086Y-76548070D01*
X132052086Y-76548070D02*
X132052086Y-76786165D01*
X132052086Y-76786165D02*
X132004467Y-76976641D01*
X132004467Y-76976641D02*
X131956848Y-77071879D01*
X131956848Y-77071879D02*
X131909229Y-77119499D01*
X131909229Y-77119499D02*
X131813991Y-77167118D01*
X131813991Y-77167118D02*
X131718753Y-77167118D01*
X131718753Y-77167118D02*
X131623515Y-77119499D01*
X131623515Y-77119499D02*
X131575896Y-77071879D01*
X131575896Y-77071879D02*
X131528277Y-76976641D01*
X131528277Y-76976641D02*
X131480658Y-76786165D01*
X131480658Y-76786165D02*
X131480658Y-76548070D01*
X131480658Y-76548070D02*
X131528277Y-76357594D01*
X131528277Y-76357594D02*
X131575896Y-76262356D01*
X131575896Y-76262356D02*
X131623515Y-76214737D01*
X131623515Y-76214737D02*
X131718753Y-76167118D01*
X148626297Y-84263398D02*
X148769154Y-84311017D01*
X148769154Y-84311017D02*
X149007249Y-84311017D01*
X149007249Y-84311017D02*
X149102487Y-84263398D01*
X149102487Y-84263398D02*
X149150106Y-84215778D01*
X149150106Y-84215778D02*
X149197725Y-84120540D01*
X149197725Y-84120540D02*
X149197725Y-84025302D01*
X149197725Y-84025302D02*
X149150106Y-83930064D01*
X149150106Y-83930064D02*
X149102487Y-83882445D01*
X149102487Y-83882445D02*
X149007249Y-83834826D01*
X149007249Y-83834826D02*
X148816773Y-83787207D01*
X148816773Y-83787207D02*
X148721535Y-83739588D01*
X148721535Y-83739588D02*
X148673916Y-83691969D01*
X148673916Y-83691969D02*
X148626297Y-83596731D01*
X148626297Y-83596731D02*
X148626297Y-83501493D01*
X148626297Y-83501493D02*
X148673916Y-83406255D01*
X148673916Y-83406255D02*
X148721535Y-83358636D01*
X148721535Y-83358636D02*
X148816773Y-83311017D01*
X148816773Y-83311017D02*
X149054868Y-83311017D01*
X149054868Y-83311017D02*
X149197725Y-83358636D01*
X150150106Y-84311017D02*
X149578678Y-84311017D01*
X149864392Y-84311017D02*
X149864392Y-83311017D01*
X149864392Y-83311017D02*
X149769154Y-83453874D01*
X149769154Y-83453874D02*
X149673916Y-83549112D01*
X149673916Y-83549112D02*
X149578678Y-83596731D01*
X151102487Y-84311017D02*
X150531059Y-84311017D01*
X150816773Y-84311017D02*
X150816773Y-83311017D01*
X150816773Y-83311017D02*
X150721535Y-83453874D01*
X150721535Y-83453874D02*
X150626297Y-83549112D01*
X150626297Y-83549112D02*
X150531059Y-83596731D01*
X148626297Y-103313798D02*
X148769154Y-103361417D01*
X148769154Y-103361417D02*
X149007249Y-103361417D01*
X149007249Y-103361417D02*
X149102487Y-103313798D01*
X149102487Y-103313798D02*
X149150106Y-103266178D01*
X149150106Y-103266178D02*
X149197725Y-103170940D01*
X149197725Y-103170940D02*
X149197725Y-103075702D01*
X149197725Y-103075702D02*
X149150106Y-102980464D01*
X149150106Y-102980464D02*
X149102487Y-102932845D01*
X149102487Y-102932845D02*
X149007249Y-102885226D01*
X149007249Y-102885226D02*
X148816773Y-102837607D01*
X148816773Y-102837607D02*
X148721535Y-102789988D01*
X148721535Y-102789988D02*
X148673916Y-102742369D01*
X148673916Y-102742369D02*
X148626297Y-102647131D01*
X148626297Y-102647131D02*
X148626297Y-102551893D01*
X148626297Y-102551893D02*
X148673916Y-102456655D01*
X148673916Y-102456655D02*
X148721535Y-102409036D01*
X148721535Y-102409036D02*
X148816773Y-102361417D01*
X148816773Y-102361417D02*
X149054868Y-102361417D01*
X149054868Y-102361417D02*
X149197725Y-102409036D01*
X150150106Y-103361417D02*
X149578678Y-103361417D01*
X149864392Y-103361417D02*
X149864392Y-102361417D01*
X149864392Y-102361417D02*
X149769154Y-102504274D01*
X149769154Y-102504274D02*
X149673916Y-102599512D01*
X149673916Y-102599512D02*
X149578678Y-102647131D01*
X150483440Y-102361417D02*
X151150106Y-102361417D01*
X151150106Y-102361417D02*
X150721535Y-103361417D01*
X120050696Y-119982898D02*
X120193553Y-120030517D01*
X120193553Y-120030517D02*
X120431648Y-120030517D01*
X120431648Y-120030517D02*
X120526886Y-119982898D01*
X120526886Y-119982898D02*
X120574505Y-119935278D01*
X120574505Y-119935278D02*
X120622124Y-119840040D01*
X120622124Y-119840040D02*
X120622124Y-119744802D01*
X120622124Y-119744802D02*
X120574505Y-119649564D01*
X120574505Y-119649564D02*
X120526886Y-119601945D01*
X120526886Y-119601945D02*
X120431648Y-119554326D01*
X120431648Y-119554326D02*
X120241172Y-119506707D01*
X120241172Y-119506707D02*
X120145934Y-119459088D01*
X120145934Y-119459088D02*
X120098315Y-119411469D01*
X120098315Y-119411469D02*
X120050696Y-119316231D01*
X120050696Y-119316231D02*
X120050696Y-119220993D01*
X120050696Y-119220993D02*
X120098315Y-119125755D01*
X120098315Y-119125755D02*
X120145934Y-119078136D01*
X120145934Y-119078136D02*
X120241172Y-119030517D01*
X120241172Y-119030517D02*
X120479267Y-119030517D01*
X120479267Y-119030517D02*
X120622124Y-119078136D01*
X121574505Y-120030517D02*
X121003077Y-120030517D01*
X121288791Y-120030517D02*
X121288791Y-119030517D01*
X121288791Y-119030517D02*
X121193553Y-119173374D01*
X121193553Y-119173374D02*
X121098315Y-119268612D01*
X121098315Y-119268612D02*
X121003077Y-119316231D01*
X122050696Y-120030517D02*
X122241172Y-120030517D01*
X122241172Y-120030517D02*
X122336410Y-119982898D01*
X122336410Y-119982898D02*
X122384029Y-119935278D01*
X122384029Y-119935278D02*
X122479267Y-119792421D01*
X122479267Y-119792421D02*
X122526886Y-119601945D01*
X122526886Y-119601945D02*
X122526886Y-119220993D01*
X122526886Y-119220993D02*
X122479267Y-119125755D01*
X122479267Y-119125755D02*
X122431648Y-119078136D01*
X122431648Y-119078136D02*
X122336410Y-119030517D01*
X122336410Y-119030517D02*
X122145934Y-119030517D01*
X122145934Y-119030517D02*
X122050696Y-119078136D01*
X122050696Y-119078136D02*
X122003077Y-119125755D01*
X122003077Y-119125755D02*
X121955458Y-119220993D01*
X121955458Y-119220993D02*
X121955458Y-119459088D01*
X121955458Y-119459088D02*
X122003077Y-119554326D01*
X122003077Y-119554326D02*
X122050696Y-119601945D01*
X122050696Y-119601945D02*
X122145934Y-119649564D01*
X122145934Y-119649564D02*
X122336410Y-119649564D01*
X122336410Y-119649564D02*
X122431648Y-119601945D01*
X122431648Y-119601945D02*
X122479267Y-119554326D01*
X122479267Y-119554326D02*
X122526886Y-119459088D01*
X111001686Y-62831698D02*
X111144543Y-62879317D01*
X111144543Y-62879317D02*
X111382638Y-62879317D01*
X111382638Y-62879317D02*
X111477876Y-62831698D01*
X111477876Y-62831698D02*
X111525495Y-62784078D01*
X111525495Y-62784078D02*
X111573114Y-62688840D01*
X111573114Y-62688840D02*
X111573114Y-62593602D01*
X111573114Y-62593602D02*
X111525495Y-62498364D01*
X111525495Y-62498364D02*
X111477876Y-62450745D01*
X111477876Y-62450745D02*
X111382638Y-62403126D01*
X111382638Y-62403126D02*
X111192162Y-62355507D01*
X111192162Y-62355507D02*
X111096924Y-62307888D01*
X111096924Y-62307888D02*
X111049305Y-62260269D01*
X111049305Y-62260269D02*
X111001686Y-62165031D01*
X111001686Y-62165031D02*
X111001686Y-62069793D01*
X111001686Y-62069793D02*
X111049305Y-61974555D01*
X111049305Y-61974555D02*
X111096924Y-61926936D01*
X111096924Y-61926936D02*
X111192162Y-61879317D01*
X111192162Y-61879317D02*
X111430257Y-61879317D01*
X111430257Y-61879317D02*
X111573114Y-61926936D01*
X111906448Y-61879317D02*
X112525495Y-61879317D01*
X112525495Y-61879317D02*
X112192162Y-62260269D01*
X112192162Y-62260269D02*
X112335019Y-62260269D01*
X112335019Y-62260269D02*
X112430257Y-62307888D01*
X112430257Y-62307888D02*
X112477876Y-62355507D01*
X112477876Y-62355507D02*
X112525495Y-62450745D01*
X112525495Y-62450745D02*
X112525495Y-62688840D01*
X112525495Y-62688840D02*
X112477876Y-62784078D01*
X112477876Y-62784078D02*
X112430257Y-62831698D01*
X112430257Y-62831698D02*
X112335019Y-62879317D01*
X112335019Y-62879317D02*
X112049305Y-62879317D01*
X112049305Y-62879317D02*
X111954067Y-62831698D01*
X111954067Y-62831698D02*
X111906448Y-62784078D01*
X72900887Y-72356896D02*
X73043744Y-72404515D01*
X73043744Y-72404515D02*
X73281839Y-72404515D01*
X73281839Y-72404515D02*
X73377077Y-72356896D01*
X73377077Y-72356896D02*
X73424696Y-72309276D01*
X73424696Y-72309276D02*
X73472315Y-72214038D01*
X73472315Y-72214038D02*
X73472315Y-72118800D01*
X73472315Y-72118800D02*
X73424696Y-72023562D01*
X73424696Y-72023562D02*
X73377077Y-71975943D01*
X73377077Y-71975943D02*
X73281839Y-71928324D01*
X73281839Y-71928324D02*
X73091363Y-71880705D01*
X73091363Y-71880705D02*
X72996125Y-71833086D01*
X72996125Y-71833086D02*
X72948506Y-71785467D01*
X72948506Y-71785467D02*
X72900887Y-71690229D01*
X72900887Y-71690229D02*
X72900887Y-71594991D01*
X72900887Y-71594991D02*
X72948506Y-71499753D01*
X72948506Y-71499753D02*
X72996125Y-71452134D01*
X72996125Y-71452134D02*
X73091363Y-71404515D01*
X73091363Y-71404515D02*
X73329458Y-71404515D01*
X73329458Y-71404515D02*
X73472315Y-71452134D01*
X74424696Y-72404515D02*
X73853268Y-72404515D01*
X74138982Y-72404515D02*
X74138982Y-71404515D01*
X74138982Y-71404515D02*
X74043744Y-71547372D01*
X74043744Y-71547372D02*
X73948506Y-71642610D01*
X73948506Y-71642610D02*
X73853268Y-71690229D01*
X180153058Y-102722417D02*
X180153058Y-103436702D01*
X180153058Y-103436702D02*
X180105439Y-103579559D01*
X180105439Y-103579559D02*
X180010201Y-103674798D01*
X180010201Y-103674798D02*
X179867344Y-103722417D01*
X179867344Y-103722417D02*
X179772106Y-103722417D01*
X180629249Y-103722417D02*
X180629249Y-102722417D01*
X180629249Y-102722417D02*
X181010201Y-102722417D01*
X181010201Y-102722417D02*
X181105439Y-102770036D01*
X181105439Y-102770036D02*
X181153058Y-102817655D01*
X181153058Y-102817655D02*
X181200677Y-102912893D01*
X181200677Y-102912893D02*
X181200677Y-103055750D01*
X181200677Y-103055750D02*
X181153058Y-103150988D01*
X181153058Y-103150988D02*
X181105439Y-103198607D01*
X181105439Y-103198607D02*
X181010201Y-103246226D01*
X181010201Y-103246226D02*
X180629249Y-103246226D01*
X182153058Y-103722417D02*
X181581630Y-103722417D01*
X181867344Y-103722417D02*
X181867344Y-102722417D01*
X181867344Y-102722417D02*
X181772106Y-102865274D01*
X181772106Y-102865274D02*
X181676868Y-102960512D01*
X181676868Y-102960512D02*
X181581630Y-103008131D01*
X180153058Y-106122416D02*
X180153058Y-106836701D01*
X180153058Y-106836701D02*
X180105439Y-106979558D01*
X180105439Y-106979558D02*
X180010201Y-107074797D01*
X180010201Y-107074797D02*
X179867344Y-107122416D01*
X179867344Y-107122416D02*
X179772106Y-107122416D01*
X180629249Y-107122416D02*
X180629249Y-106122416D01*
X180629249Y-106122416D02*
X181010201Y-106122416D01*
X181010201Y-106122416D02*
X181105439Y-106170035D01*
X181105439Y-106170035D02*
X181153058Y-106217654D01*
X181153058Y-106217654D02*
X181200677Y-106312892D01*
X181200677Y-106312892D02*
X181200677Y-106455749D01*
X181200677Y-106455749D02*
X181153058Y-106550987D01*
X181153058Y-106550987D02*
X181105439Y-106598606D01*
X181105439Y-106598606D02*
X181010201Y-106646225D01*
X181010201Y-106646225D02*
X180629249Y-106646225D01*
X182105439Y-106122416D02*
X181629249Y-106122416D01*
X181629249Y-106122416D02*
X181581630Y-106598606D01*
X181581630Y-106598606D02*
X181629249Y-106550987D01*
X181629249Y-106550987D02*
X181724487Y-106503368D01*
X181724487Y-106503368D02*
X181962582Y-106503368D01*
X181962582Y-106503368D02*
X182057820Y-106550987D01*
X182057820Y-106550987D02*
X182105439Y-106598606D01*
X182105439Y-106598606D02*
X182153058Y-106693844D01*
X182153058Y-106693844D02*
X182153058Y-106931939D01*
X182153058Y-106931939D02*
X182105439Y-107027177D01*
X182105439Y-107027177D02*
X182057820Y-107074797D01*
X182057820Y-107074797D02*
X181962582Y-107122416D01*
X181962582Y-107122416D02*
X181724487Y-107122416D01*
X181724487Y-107122416D02*
X181629249Y-107074797D01*
X181629249Y-107074797D02*
X181581630Y-107027177D01*
X188149211Y-116411464D02*
X187673020Y-116744797D01*
X188149211Y-116982892D02*
X187149211Y-116982892D01*
X187149211Y-116982892D02*
X187149211Y-116601940D01*
X187149211Y-116601940D02*
X187196830Y-116506702D01*
X187196830Y-116506702D02*
X187244449Y-116459083D01*
X187244449Y-116459083D02*
X187339687Y-116411464D01*
X187339687Y-116411464D02*
X187482544Y-116411464D01*
X187482544Y-116411464D02*
X187577782Y-116459083D01*
X187577782Y-116459083D02*
X187625401Y-116506702D01*
X187625401Y-116506702D02*
X187673020Y-116601940D01*
X187673020Y-116601940D02*
X187673020Y-116982892D01*
X187244449Y-116030511D02*
X187196830Y-115982892D01*
X187196830Y-115982892D02*
X187149211Y-115887654D01*
X187149211Y-115887654D02*
X187149211Y-115649559D01*
X187149211Y-115649559D02*
X187196830Y-115554321D01*
X187196830Y-115554321D02*
X187244449Y-115506702D01*
X187244449Y-115506702D02*
X187339687Y-115459083D01*
X187339687Y-115459083D02*
X187434925Y-115459083D01*
X187434925Y-115459083D02*
X187577782Y-115506702D01*
X187577782Y-115506702D02*
X188149211Y-116078130D01*
X188149211Y-116078130D02*
X188149211Y-115459083D01*
X91951287Y-89025999D02*
X92094144Y-89073618D01*
X92094144Y-89073618D02*
X92332239Y-89073618D01*
X92332239Y-89073618D02*
X92427477Y-89025999D01*
X92427477Y-89025999D02*
X92475096Y-88978379D01*
X92475096Y-88978379D02*
X92522715Y-88883141D01*
X92522715Y-88883141D02*
X92522715Y-88787903D01*
X92522715Y-88787903D02*
X92475096Y-88692665D01*
X92475096Y-88692665D02*
X92427477Y-88645046D01*
X92427477Y-88645046D02*
X92332239Y-88597427D01*
X92332239Y-88597427D02*
X92141763Y-88549808D01*
X92141763Y-88549808D02*
X92046525Y-88502189D01*
X92046525Y-88502189D02*
X91998906Y-88454570D01*
X91998906Y-88454570D02*
X91951287Y-88359332D01*
X91951287Y-88359332D02*
X91951287Y-88264094D01*
X91951287Y-88264094D02*
X91998906Y-88168856D01*
X91998906Y-88168856D02*
X92046525Y-88121237D01*
X92046525Y-88121237D02*
X92141763Y-88073618D01*
X92141763Y-88073618D02*
X92379858Y-88073618D01*
X92379858Y-88073618D02*
X92522715Y-88121237D01*
X93094144Y-88502189D02*
X92998906Y-88454570D01*
X92998906Y-88454570D02*
X92951287Y-88406951D01*
X92951287Y-88406951D02*
X92903668Y-88311713D01*
X92903668Y-88311713D02*
X92903668Y-88264094D01*
X92903668Y-88264094D02*
X92951287Y-88168856D01*
X92951287Y-88168856D02*
X92998906Y-88121237D01*
X92998906Y-88121237D02*
X93094144Y-88073618D01*
X93094144Y-88073618D02*
X93284620Y-88073618D01*
X93284620Y-88073618D02*
X93379858Y-88121237D01*
X93379858Y-88121237D02*
X93427477Y-88168856D01*
X93427477Y-88168856D02*
X93475096Y-88264094D01*
X93475096Y-88264094D02*
X93475096Y-88311713D01*
X93475096Y-88311713D02*
X93427477Y-88406951D01*
X93427477Y-88406951D02*
X93379858Y-88454570D01*
X93379858Y-88454570D02*
X93284620Y-88502189D01*
X93284620Y-88502189D02*
X93094144Y-88502189D01*
X93094144Y-88502189D02*
X92998906Y-88549808D01*
X92998906Y-88549808D02*
X92951287Y-88597427D01*
X92951287Y-88597427D02*
X92903668Y-88692665D01*
X92903668Y-88692665D02*
X92903668Y-88883141D01*
X92903668Y-88883141D02*
X92951287Y-88978379D01*
X92951287Y-88978379D02*
X92998906Y-89025999D01*
X92998906Y-89025999D02*
X93094144Y-89073618D01*
X93094144Y-89073618D02*
X93284620Y-89073618D01*
X93284620Y-89073618D02*
X93379858Y-89025999D01*
X93379858Y-89025999D02*
X93427477Y-88978379D01*
X93427477Y-88978379D02*
X93475096Y-88883141D01*
X93475096Y-88883141D02*
X93475096Y-88692665D01*
X93475096Y-88692665D02*
X93427477Y-88597427D01*
X93427477Y-88597427D02*
X93379858Y-88549808D01*
X93379858Y-88549808D02*
X93284620Y-88502189D01*
X186091211Y-110650931D02*
X186805496Y-110650931D01*
X186805496Y-110650931D02*
X186948353Y-110698550D01*
X186948353Y-110698550D02*
X187043592Y-110793788D01*
X187043592Y-110793788D02*
X187091211Y-110936645D01*
X187091211Y-110936645D02*
X187091211Y-111031883D01*
X187091211Y-109650931D02*
X187091211Y-110222359D01*
X187091211Y-109936645D02*
X186091211Y-109936645D01*
X186091211Y-109936645D02*
X186234068Y-110031883D01*
X186234068Y-110031883D02*
X186329306Y-110127121D01*
X186329306Y-110127121D02*
X186376925Y-110222359D01*
X149102488Y-65212998D02*
X149245345Y-65260617D01*
X149245345Y-65260617D02*
X149483440Y-65260617D01*
X149483440Y-65260617D02*
X149578678Y-65212998D01*
X149578678Y-65212998D02*
X149626297Y-65165378D01*
X149626297Y-65165378D02*
X149673916Y-65070140D01*
X149673916Y-65070140D02*
X149673916Y-64974902D01*
X149673916Y-64974902D02*
X149626297Y-64879664D01*
X149626297Y-64879664D02*
X149578678Y-64832045D01*
X149578678Y-64832045D02*
X149483440Y-64784426D01*
X149483440Y-64784426D02*
X149292964Y-64736807D01*
X149292964Y-64736807D02*
X149197726Y-64689188D01*
X149197726Y-64689188D02*
X149150107Y-64641569D01*
X149150107Y-64641569D02*
X149102488Y-64546331D01*
X149102488Y-64546331D02*
X149102488Y-64451093D01*
X149102488Y-64451093D02*
X149150107Y-64355855D01*
X149150107Y-64355855D02*
X149197726Y-64308236D01*
X149197726Y-64308236D02*
X149292964Y-64260617D01*
X149292964Y-64260617D02*
X149531059Y-64260617D01*
X149531059Y-64260617D02*
X149673916Y-64308236D01*
X150578678Y-64260617D02*
X150102488Y-64260617D01*
X150102488Y-64260617D02*
X150054869Y-64736807D01*
X150054869Y-64736807D02*
X150102488Y-64689188D01*
X150102488Y-64689188D02*
X150197726Y-64641569D01*
X150197726Y-64641569D02*
X150435821Y-64641569D01*
X150435821Y-64641569D02*
X150531059Y-64689188D01*
X150531059Y-64689188D02*
X150578678Y-64736807D01*
X150578678Y-64736807D02*
X150626297Y-64832045D01*
X150626297Y-64832045D02*
X150626297Y-65070140D01*
X150626297Y-65070140D02*
X150578678Y-65165378D01*
X150578678Y-65165378D02*
X150531059Y-65212998D01*
X150531059Y-65212998D02*
X150435821Y-65260617D01*
X150435821Y-65260617D02*
X150197726Y-65260617D01*
X150197726Y-65260617D02*
X150102488Y-65212998D01*
X150102488Y-65212998D02*
X150054869Y-65165378D01*
X168152887Y-69975598D02*
X168295744Y-70023217D01*
X168295744Y-70023217D02*
X168533839Y-70023217D01*
X168533839Y-70023217D02*
X168629077Y-69975598D01*
X168629077Y-69975598D02*
X168676696Y-69927978D01*
X168676696Y-69927978D02*
X168724315Y-69832740D01*
X168724315Y-69832740D02*
X168724315Y-69737502D01*
X168724315Y-69737502D02*
X168676696Y-69642264D01*
X168676696Y-69642264D02*
X168629077Y-69594645D01*
X168629077Y-69594645D02*
X168533839Y-69547026D01*
X168533839Y-69547026D02*
X168343363Y-69499407D01*
X168343363Y-69499407D02*
X168248125Y-69451788D01*
X168248125Y-69451788D02*
X168200506Y-69404169D01*
X168200506Y-69404169D02*
X168152887Y-69308931D01*
X168152887Y-69308931D02*
X168152887Y-69213693D01*
X168152887Y-69213693D02*
X168200506Y-69118455D01*
X168200506Y-69118455D02*
X168248125Y-69070836D01*
X168248125Y-69070836D02*
X168343363Y-69023217D01*
X168343363Y-69023217D02*
X168581458Y-69023217D01*
X168581458Y-69023217D02*
X168724315Y-69070836D01*
X169581458Y-69023217D02*
X169390982Y-69023217D01*
X169390982Y-69023217D02*
X169295744Y-69070836D01*
X169295744Y-69070836D02*
X169248125Y-69118455D01*
X169248125Y-69118455D02*
X169152887Y-69261312D01*
X169152887Y-69261312D02*
X169105268Y-69451788D01*
X169105268Y-69451788D02*
X169105268Y-69832740D01*
X169105268Y-69832740D02*
X169152887Y-69927978D01*
X169152887Y-69927978D02*
X169200506Y-69975598D01*
X169200506Y-69975598D02*
X169295744Y-70023217D01*
X169295744Y-70023217D02*
X169486220Y-70023217D01*
X169486220Y-70023217D02*
X169581458Y-69975598D01*
X169581458Y-69975598D02*
X169629077Y-69927978D01*
X169629077Y-69927978D02*
X169676696Y-69832740D01*
X169676696Y-69832740D02*
X169676696Y-69594645D01*
X169676696Y-69594645D02*
X169629077Y-69499407D01*
X169629077Y-69499407D02*
X169581458Y-69451788D01*
X169581458Y-69451788D02*
X169486220Y-69404169D01*
X169486220Y-69404169D02*
X169295744Y-69404169D01*
X169295744Y-69404169D02*
X169200506Y-69451788D01*
X169200506Y-69451788D02*
X169152887Y-69499407D01*
X169152887Y-69499407D02*
X169105268Y-69594645D01*
X167676697Y-108076398D02*
X167819554Y-108124017D01*
X167819554Y-108124017D02*
X168057649Y-108124017D01*
X168057649Y-108124017D02*
X168152887Y-108076398D01*
X168152887Y-108076398D02*
X168200506Y-108028778D01*
X168200506Y-108028778D02*
X168248125Y-107933540D01*
X168248125Y-107933540D02*
X168248125Y-107838302D01*
X168248125Y-107838302D02*
X168200506Y-107743064D01*
X168200506Y-107743064D02*
X168152887Y-107695445D01*
X168152887Y-107695445D02*
X168057649Y-107647826D01*
X168057649Y-107647826D02*
X167867173Y-107600207D01*
X167867173Y-107600207D02*
X167771935Y-107552588D01*
X167771935Y-107552588D02*
X167724316Y-107504969D01*
X167724316Y-107504969D02*
X167676697Y-107409731D01*
X167676697Y-107409731D02*
X167676697Y-107314493D01*
X167676697Y-107314493D02*
X167724316Y-107219255D01*
X167724316Y-107219255D02*
X167771935Y-107171636D01*
X167771935Y-107171636D02*
X167867173Y-107124017D01*
X167867173Y-107124017D02*
X168105268Y-107124017D01*
X168105268Y-107124017D02*
X168248125Y-107171636D01*
X169200506Y-108124017D02*
X168629078Y-108124017D01*
X168914792Y-108124017D02*
X168914792Y-107124017D01*
X168914792Y-107124017D02*
X168819554Y-107266874D01*
X168819554Y-107266874D02*
X168724316Y-107362112D01*
X168724316Y-107362112D02*
X168629078Y-107409731D01*
X169771935Y-107552588D02*
X169676697Y-107504969D01*
X169676697Y-107504969D02*
X169629078Y-107457350D01*
X169629078Y-107457350D02*
X169581459Y-107362112D01*
X169581459Y-107362112D02*
X169581459Y-107314493D01*
X169581459Y-107314493D02*
X169629078Y-107219255D01*
X169629078Y-107219255D02*
X169676697Y-107171636D01*
X169676697Y-107171636D02*
X169771935Y-107124017D01*
X169771935Y-107124017D02*
X169962411Y-107124017D01*
X169962411Y-107124017D02*
X170057649Y-107171636D01*
X170057649Y-107171636D02*
X170105268Y-107219255D01*
X170105268Y-107219255D02*
X170152887Y-107314493D01*
X170152887Y-107314493D02*
X170152887Y-107362112D01*
X170152887Y-107362112D02*
X170105268Y-107457350D01*
X170105268Y-107457350D02*
X170057649Y-107504969D01*
X170057649Y-107504969D02*
X169962411Y-107552588D01*
X169962411Y-107552588D02*
X169771935Y-107552588D01*
X169771935Y-107552588D02*
X169676697Y-107600207D01*
X169676697Y-107600207D02*
X169629078Y-107647826D01*
X169629078Y-107647826D02*
X169581459Y-107743064D01*
X169581459Y-107743064D02*
X169581459Y-107933540D01*
X169581459Y-107933540D02*
X169629078Y-108028778D01*
X169629078Y-108028778D02*
X169676697Y-108076398D01*
X169676697Y-108076398D02*
X169771935Y-108124017D01*
X169771935Y-108124017D02*
X169962411Y-108124017D01*
X169962411Y-108124017D02*
X170057649Y-108076398D01*
X170057649Y-108076398D02*
X170105268Y-108028778D01*
X170105268Y-108028778D02*
X170152887Y-107933540D01*
X170152887Y-107933540D02*
X170152887Y-107743064D01*
X170152887Y-107743064D02*
X170105268Y-107647826D01*
X170105268Y-107647826D02*
X170057649Y-107600207D01*
X170057649Y-107600207D02*
X169962411Y-107552588D01*
X139101097Y-122364198D02*
X139243954Y-122411817D01*
X139243954Y-122411817D02*
X139482049Y-122411817D01*
X139482049Y-122411817D02*
X139577287Y-122364198D01*
X139577287Y-122364198D02*
X139624906Y-122316578D01*
X139624906Y-122316578D02*
X139672525Y-122221340D01*
X139672525Y-122221340D02*
X139672525Y-122126102D01*
X139672525Y-122126102D02*
X139624906Y-122030864D01*
X139624906Y-122030864D02*
X139577287Y-121983245D01*
X139577287Y-121983245D02*
X139482049Y-121935626D01*
X139482049Y-121935626D02*
X139291573Y-121888007D01*
X139291573Y-121888007D02*
X139196335Y-121840388D01*
X139196335Y-121840388D02*
X139148716Y-121792769D01*
X139148716Y-121792769D02*
X139101097Y-121697531D01*
X139101097Y-121697531D02*
X139101097Y-121602293D01*
X139101097Y-121602293D02*
X139148716Y-121507055D01*
X139148716Y-121507055D02*
X139196335Y-121459436D01*
X139196335Y-121459436D02*
X139291573Y-121411817D01*
X139291573Y-121411817D02*
X139529668Y-121411817D01*
X139529668Y-121411817D02*
X139672525Y-121459436D01*
X140053478Y-121507055D02*
X140101097Y-121459436D01*
X140101097Y-121459436D02*
X140196335Y-121411817D01*
X140196335Y-121411817D02*
X140434430Y-121411817D01*
X140434430Y-121411817D02*
X140529668Y-121459436D01*
X140529668Y-121459436D02*
X140577287Y-121507055D01*
X140577287Y-121507055D02*
X140624906Y-121602293D01*
X140624906Y-121602293D02*
X140624906Y-121697531D01*
X140624906Y-121697531D02*
X140577287Y-121840388D01*
X140577287Y-121840388D02*
X140005859Y-122411817D01*
X140005859Y-122411817D02*
X140624906Y-122411817D01*
X141243954Y-121411817D02*
X141339192Y-121411817D01*
X141339192Y-121411817D02*
X141434430Y-121459436D01*
X141434430Y-121459436D02*
X141482049Y-121507055D01*
X141482049Y-121507055D02*
X141529668Y-121602293D01*
X141529668Y-121602293D02*
X141577287Y-121792769D01*
X141577287Y-121792769D02*
X141577287Y-122030864D01*
X141577287Y-122030864D02*
X141529668Y-122221340D01*
X141529668Y-122221340D02*
X141482049Y-122316578D01*
X141482049Y-122316578D02*
X141434430Y-122364198D01*
X141434430Y-122364198D02*
X141339192Y-122411817D01*
X141339192Y-122411817D02*
X141243954Y-122411817D01*
X141243954Y-122411817D02*
X141148716Y-122364198D01*
X141148716Y-122364198D02*
X141101097Y-122316578D01*
X141101097Y-122316578D02*
X141053478Y-122221340D01*
X141053478Y-122221340D02*
X141005859Y-122030864D01*
X141005859Y-122030864D02*
X141005859Y-121792769D01*
X141005859Y-121792769D02*
X141053478Y-121602293D01*
X141053478Y-121602293D02*
X141101097Y-121507055D01*
X141101097Y-121507055D02*
X141148716Y-121459436D01*
X141148716Y-121459436D02*
X141243954Y-121411817D01*
X72424697Y-110457698D02*
X72567554Y-110505317D01*
X72567554Y-110505317D02*
X72805649Y-110505317D01*
X72805649Y-110505317D02*
X72900887Y-110457698D01*
X72900887Y-110457698D02*
X72948506Y-110410078D01*
X72948506Y-110410078D02*
X72996125Y-110314840D01*
X72996125Y-110314840D02*
X72996125Y-110219602D01*
X72996125Y-110219602D02*
X72948506Y-110124364D01*
X72948506Y-110124364D02*
X72900887Y-110076745D01*
X72900887Y-110076745D02*
X72805649Y-110029126D01*
X72805649Y-110029126D02*
X72615173Y-109981507D01*
X72615173Y-109981507D02*
X72519935Y-109933888D01*
X72519935Y-109933888D02*
X72472316Y-109886269D01*
X72472316Y-109886269D02*
X72424697Y-109791031D01*
X72424697Y-109791031D02*
X72424697Y-109695793D01*
X72424697Y-109695793D02*
X72472316Y-109600555D01*
X72472316Y-109600555D02*
X72519935Y-109552936D01*
X72519935Y-109552936D02*
X72615173Y-109505317D01*
X72615173Y-109505317D02*
X72853268Y-109505317D01*
X72853268Y-109505317D02*
X72996125Y-109552936D01*
X73948506Y-110505317D02*
X73377078Y-110505317D01*
X73662792Y-110505317D02*
X73662792Y-109505317D01*
X73662792Y-109505317D02*
X73567554Y-109648174D01*
X73567554Y-109648174D02*
X73472316Y-109743412D01*
X73472316Y-109743412D02*
X73377078Y-109791031D01*
X74281840Y-109505317D02*
X74900887Y-109505317D01*
X74900887Y-109505317D02*
X74567554Y-109886269D01*
X74567554Y-109886269D02*
X74710411Y-109886269D01*
X74710411Y-109886269D02*
X74805649Y-109933888D01*
X74805649Y-109933888D02*
X74853268Y-109981507D01*
X74853268Y-109981507D02*
X74900887Y-110076745D01*
X74900887Y-110076745D02*
X74900887Y-110314840D01*
X74900887Y-110314840D02*
X74853268Y-110410078D01*
X74853268Y-110410078D02*
X74805649Y-110457698D01*
X74805649Y-110457698D02*
X74710411Y-110505317D01*
X74710411Y-110505317D02*
X74424697Y-110505317D01*
X74424697Y-110505317D02*
X74329459Y-110457698D01*
X74329459Y-110457698D02*
X74281840Y-110410078D01*
X184489213Y-97459083D02*
X183489213Y-97459083D01*
X183489213Y-97459083D02*
X183489213Y-97220988D01*
X183489213Y-97220988D02*
X183536832Y-97078131D01*
X183536832Y-97078131D02*
X183632070Y-96982893D01*
X183632070Y-96982893D02*
X183727308Y-96935274D01*
X183727308Y-96935274D02*
X183917784Y-96887655D01*
X183917784Y-96887655D02*
X184060641Y-96887655D01*
X184060641Y-96887655D02*
X184251117Y-96935274D01*
X184251117Y-96935274D02*
X184346355Y-96982893D01*
X184346355Y-96982893D02*
X184441594Y-97078131D01*
X184441594Y-97078131D02*
X184489213Y-97220988D01*
X184489213Y-97220988D02*
X184489213Y-97459083D01*
X183584451Y-96506702D02*
X183536832Y-96459083D01*
X183536832Y-96459083D02*
X183489213Y-96363845D01*
X183489213Y-96363845D02*
X183489213Y-96125750D01*
X183489213Y-96125750D02*
X183536832Y-96030512D01*
X183536832Y-96030512D02*
X183584451Y-95982893D01*
X183584451Y-95982893D02*
X183679689Y-95935274D01*
X183679689Y-95935274D02*
X183774927Y-95935274D01*
X183774927Y-95935274D02*
X183917784Y-95982893D01*
X183917784Y-95982893D02*
X184489213Y-96554321D01*
X184489213Y-96554321D02*
X184489213Y-95935274D01*
X183489213Y-95030512D02*
X183489213Y-95506702D01*
X183489213Y-95506702D02*
X183965403Y-95554321D01*
X183965403Y-95554321D02*
X183917784Y-95506702D01*
X183917784Y-95506702D02*
X183870165Y-95411464D01*
X183870165Y-95411464D02*
X183870165Y-95173369D01*
X183870165Y-95173369D02*
X183917784Y-95078131D01*
X183917784Y-95078131D02*
X183965403Y-95030512D01*
X183965403Y-95030512D02*
X184060641Y-94982893D01*
X184060641Y-94982893D02*
X184298736Y-94982893D01*
X184298736Y-94982893D02*
X184393974Y-95030512D01*
X184393974Y-95030512D02*
X184441594Y-95078131D01*
X184441594Y-95078131D02*
X184489213Y-95173369D01*
X184489213Y-95173369D02*
X184489213Y-95411464D01*
X184489213Y-95411464D02*
X184441594Y-95506702D01*
X184441594Y-95506702D02*
X184393974Y-95554321D01*
X111001687Y-81882098D02*
X111144544Y-81929717D01*
X111144544Y-81929717D02*
X111382639Y-81929717D01*
X111382639Y-81929717D02*
X111477877Y-81882098D01*
X111477877Y-81882098D02*
X111525496Y-81834478D01*
X111525496Y-81834478D02*
X111573115Y-81739240D01*
X111573115Y-81739240D02*
X111573115Y-81644002D01*
X111573115Y-81644002D02*
X111525496Y-81548764D01*
X111525496Y-81548764D02*
X111477877Y-81501145D01*
X111477877Y-81501145D02*
X111382639Y-81453526D01*
X111382639Y-81453526D02*
X111192163Y-81405907D01*
X111192163Y-81405907D02*
X111096925Y-81358288D01*
X111096925Y-81358288D02*
X111049306Y-81310669D01*
X111049306Y-81310669D02*
X111001687Y-81215431D01*
X111001687Y-81215431D02*
X111001687Y-81120193D01*
X111001687Y-81120193D02*
X111049306Y-81024955D01*
X111049306Y-81024955D02*
X111096925Y-80977336D01*
X111096925Y-80977336D02*
X111192163Y-80929717D01*
X111192163Y-80929717D02*
X111430258Y-80929717D01*
X111430258Y-80929717D02*
X111573115Y-80977336D01*
X112049306Y-81929717D02*
X112239782Y-81929717D01*
X112239782Y-81929717D02*
X112335020Y-81882098D01*
X112335020Y-81882098D02*
X112382639Y-81834478D01*
X112382639Y-81834478D02*
X112477877Y-81691621D01*
X112477877Y-81691621D02*
X112525496Y-81501145D01*
X112525496Y-81501145D02*
X112525496Y-81120193D01*
X112525496Y-81120193D02*
X112477877Y-81024955D01*
X112477877Y-81024955D02*
X112430258Y-80977336D01*
X112430258Y-80977336D02*
X112335020Y-80929717D01*
X112335020Y-80929717D02*
X112144544Y-80929717D01*
X112144544Y-80929717D02*
X112049306Y-80977336D01*
X112049306Y-80977336D02*
X112001687Y-81024955D01*
X112001687Y-81024955D02*
X111954068Y-81120193D01*
X111954068Y-81120193D02*
X111954068Y-81358288D01*
X111954068Y-81358288D02*
X112001687Y-81453526D01*
X112001687Y-81453526D02*
X112049306Y-81501145D01*
X112049306Y-81501145D02*
X112144544Y-81548764D01*
X112144544Y-81548764D02*
X112335020Y-81548764D01*
X112335020Y-81548764D02*
X112430258Y-81501145D01*
X112430258Y-81501145D02*
X112477877Y-81453526D01*
X112477877Y-81453526D02*
X112525496Y-81358288D01*
X183953057Y-102722417D02*
X183953057Y-103436702D01*
X183953057Y-103436702D02*
X183905438Y-103579559D01*
X183905438Y-103579559D02*
X183810200Y-103674798D01*
X183810200Y-103674798D02*
X183667343Y-103722417D01*
X183667343Y-103722417D02*
X183572105Y-103722417D01*
X184429248Y-103722417D02*
X184429248Y-102722417D01*
X184429248Y-102722417D02*
X184810200Y-102722417D01*
X184810200Y-102722417D02*
X184905438Y-102770036D01*
X184905438Y-102770036D02*
X184953057Y-102817655D01*
X184953057Y-102817655D02*
X185000676Y-102912893D01*
X185000676Y-102912893D02*
X185000676Y-103055750D01*
X185000676Y-103055750D02*
X184953057Y-103150988D01*
X184953057Y-103150988D02*
X184905438Y-103198607D01*
X184905438Y-103198607D02*
X184810200Y-103246226D01*
X184810200Y-103246226D02*
X184429248Y-103246226D01*
X185381629Y-102817655D02*
X185429248Y-102770036D01*
X185429248Y-102770036D02*
X185524486Y-102722417D01*
X185524486Y-102722417D02*
X185762581Y-102722417D01*
X185762581Y-102722417D02*
X185857819Y-102770036D01*
X185857819Y-102770036D02*
X185905438Y-102817655D01*
X185905438Y-102817655D02*
X185953057Y-102912893D01*
X185953057Y-102912893D02*
X185953057Y-103008131D01*
X185953057Y-103008131D02*
X185905438Y-103150988D01*
X185905438Y-103150988D02*
X185334010Y-103722417D01*
X185334010Y-103722417D02*
X185953057Y-103722417D01*
D10*
X186264228Y-128073345D02*
X186370828Y-128179704D01*
X186370828Y-128179704D02*
X186583908Y-128285941D01*
X186583908Y-128285941D02*
X186690387Y-128285821D01*
X186690387Y-128285821D02*
X186754251Y-128264452D01*
X186754251Y-128264452D02*
X186839362Y-128200468D01*
X186839362Y-128200468D02*
X186881857Y-128115236D01*
X186881857Y-128115236D02*
X186881736Y-128008757D01*
X186881736Y-128008757D02*
X186860367Y-127944893D01*
X186860367Y-127944893D02*
X186796383Y-127859782D01*
X186796383Y-127859782D02*
X186647167Y-127732176D01*
X186647167Y-127732176D02*
X186583183Y-127647065D01*
X186583183Y-127647065D02*
X186561814Y-127583202D01*
X186561814Y-127583202D02*
X186561693Y-127476722D01*
X186561693Y-127476722D02*
X186604188Y-127391491D01*
X186604188Y-127391491D02*
X186689299Y-127327506D01*
X186689299Y-127327506D02*
X186753163Y-127306138D01*
X186753163Y-127306138D02*
X186859642Y-127306017D01*
X186859642Y-127306017D02*
X187072722Y-127412255D01*
X187072722Y-127412255D02*
X187179322Y-127518613D01*
X187499002Y-127731209D02*
X187562865Y-127709841D01*
X187562865Y-127709841D02*
X187669345Y-127709720D01*
X187669345Y-127709720D02*
X187882424Y-127815957D01*
X187882424Y-127815957D02*
X187946409Y-127901068D01*
X187946409Y-127901068D02*
X187967777Y-127964932D01*
X187967777Y-127964932D02*
X187967898Y-128071411D01*
X187967898Y-128071411D02*
X187925403Y-128156643D01*
X187925403Y-128156643D02*
X187819044Y-128263243D01*
X187819044Y-128263243D02*
X187052683Y-128519664D01*
X187052683Y-128519664D02*
X187606690Y-128795882D01*
X188351320Y-128156159D02*
X188415184Y-128134791D01*
X188415184Y-128134791D02*
X188521663Y-128134670D01*
X188521663Y-128134670D02*
X188734743Y-128240908D01*
X188734743Y-128240908D02*
X188798727Y-128326019D01*
X188798727Y-128326019D02*
X188820095Y-128389882D01*
X188820095Y-128389882D02*
X188820216Y-128496361D01*
X188820216Y-128496361D02*
X188777721Y-128581593D01*
X188777721Y-128581593D02*
X188671363Y-128688194D01*
X188671363Y-128688194D02*
X187905002Y-128944614D01*
X187905002Y-128944614D02*
X188459009Y-129220832D01*
D11*
X91951286Y-69975597D02*
X92094143Y-70023216D01*
X92094143Y-70023216D02*
X92332238Y-70023216D01*
X92332238Y-70023216D02*
X92427476Y-69975597D01*
X92427476Y-69975597D02*
X92475095Y-69927977D01*
X92475095Y-69927977D02*
X92522714Y-69832739D01*
X92522714Y-69832739D02*
X92522714Y-69737501D01*
X92522714Y-69737501D02*
X92475095Y-69642263D01*
X92475095Y-69642263D02*
X92427476Y-69594644D01*
X92427476Y-69594644D02*
X92332238Y-69547025D01*
X92332238Y-69547025D02*
X92141762Y-69499406D01*
X92141762Y-69499406D02*
X92046524Y-69451787D01*
X92046524Y-69451787D02*
X91998905Y-69404168D01*
X91998905Y-69404168D02*
X91951286Y-69308930D01*
X91951286Y-69308930D02*
X91951286Y-69213692D01*
X91951286Y-69213692D02*
X91998905Y-69118454D01*
X91998905Y-69118454D02*
X92046524Y-69070835D01*
X92046524Y-69070835D02*
X92141762Y-69023216D01*
X92141762Y-69023216D02*
X92379857Y-69023216D01*
X92379857Y-69023216D02*
X92522714Y-69070835D01*
X92903667Y-69118454D02*
X92951286Y-69070835D01*
X92951286Y-69070835D02*
X93046524Y-69023216D01*
X93046524Y-69023216D02*
X93284619Y-69023216D01*
X93284619Y-69023216D02*
X93379857Y-69070835D01*
X93379857Y-69070835D02*
X93427476Y-69118454D01*
X93427476Y-69118454D02*
X93475095Y-69213692D01*
X93475095Y-69213692D02*
X93475095Y-69308930D01*
X93475095Y-69308930D02*
X93427476Y-69451787D01*
X93427476Y-69451787D02*
X92856048Y-70023216D01*
X92856048Y-70023216D02*
X93475095Y-70023216D01*
X189739213Y-97459083D02*
X188739213Y-97459083D01*
X188739213Y-97459083D02*
X188739213Y-97220988D01*
X188739213Y-97220988D02*
X188786832Y-97078131D01*
X188786832Y-97078131D02*
X188882070Y-96982893D01*
X188882070Y-96982893D02*
X188977308Y-96935274D01*
X188977308Y-96935274D02*
X189167784Y-96887655D01*
X189167784Y-96887655D02*
X189310641Y-96887655D01*
X189310641Y-96887655D02*
X189501117Y-96935274D01*
X189501117Y-96935274D02*
X189596355Y-96982893D01*
X189596355Y-96982893D02*
X189691594Y-97078131D01*
X189691594Y-97078131D02*
X189739213Y-97220988D01*
X189739213Y-97220988D02*
X189739213Y-97459083D01*
X188834451Y-96506702D02*
X188786832Y-96459083D01*
X188786832Y-96459083D02*
X188739213Y-96363845D01*
X188739213Y-96363845D02*
X188739213Y-96125750D01*
X188739213Y-96125750D02*
X188786832Y-96030512D01*
X188786832Y-96030512D02*
X188834451Y-95982893D01*
X188834451Y-95982893D02*
X188929689Y-95935274D01*
X188929689Y-95935274D02*
X189024927Y-95935274D01*
X189024927Y-95935274D02*
X189167784Y-95982893D01*
X189167784Y-95982893D02*
X189739213Y-96554321D01*
X189739213Y-96554321D02*
X189739213Y-95935274D01*
X188739213Y-95601940D02*
X188739213Y-94935274D01*
X188739213Y-94935274D02*
X189739213Y-95363845D01*
X130052088Y-58069099D02*
X130194945Y-58116718D01*
X130194945Y-58116718D02*
X130433040Y-58116718D01*
X130433040Y-58116718D02*
X130528278Y-58069099D01*
X130528278Y-58069099D02*
X130575897Y-58021479D01*
X130575897Y-58021479D02*
X130623516Y-57926241D01*
X130623516Y-57926241D02*
X130623516Y-57831003D01*
X130623516Y-57831003D02*
X130575897Y-57735765D01*
X130575897Y-57735765D02*
X130528278Y-57688146D01*
X130528278Y-57688146D02*
X130433040Y-57640527D01*
X130433040Y-57640527D02*
X130242564Y-57592908D01*
X130242564Y-57592908D02*
X130147326Y-57545289D01*
X130147326Y-57545289D02*
X130099707Y-57497670D01*
X130099707Y-57497670D02*
X130052088Y-57402432D01*
X130052088Y-57402432D02*
X130052088Y-57307194D01*
X130052088Y-57307194D02*
X130099707Y-57211956D01*
X130099707Y-57211956D02*
X130147326Y-57164337D01*
X130147326Y-57164337D02*
X130242564Y-57116718D01*
X130242564Y-57116718D02*
X130480659Y-57116718D01*
X130480659Y-57116718D02*
X130623516Y-57164337D01*
X131480659Y-57450051D02*
X131480659Y-58116718D01*
X131242564Y-57069099D02*
X131004469Y-57783384D01*
X131004469Y-57783384D02*
X131623516Y-57783384D01*
X91475098Y-108076399D02*
X91617955Y-108124018D01*
X91617955Y-108124018D02*
X91856050Y-108124018D01*
X91856050Y-108124018D02*
X91951288Y-108076399D01*
X91951288Y-108076399D02*
X91998907Y-108028779D01*
X91998907Y-108028779D02*
X92046526Y-107933541D01*
X92046526Y-107933541D02*
X92046526Y-107838303D01*
X92046526Y-107838303D02*
X91998907Y-107743065D01*
X91998907Y-107743065D02*
X91951288Y-107695446D01*
X91951288Y-107695446D02*
X91856050Y-107647827D01*
X91856050Y-107647827D02*
X91665574Y-107600208D01*
X91665574Y-107600208D02*
X91570336Y-107552589D01*
X91570336Y-107552589D02*
X91522717Y-107504970D01*
X91522717Y-107504970D02*
X91475098Y-107409732D01*
X91475098Y-107409732D02*
X91475098Y-107314494D01*
X91475098Y-107314494D02*
X91522717Y-107219256D01*
X91522717Y-107219256D02*
X91570336Y-107171637D01*
X91570336Y-107171637D02*
X91665574Y-107124018D01*
X91665574Y-107124018D02*
X91903669Y-107124018D01*
X91903669Y-107124018D02*
X92046526Y-107171637D01*
X92998907Y-108124018D02*
X92427479Y-108124018D01*
X92713193Y-108124018D02*
X92713193Y-107124018D01*
X92713193Y-107124018D02*
X92617955Y-107266875D01*
X92617955Y-107266875D02*
X92522717Y-107362113D01*
X92522717Y-107362113D02*
X92427479Y-107409732D01*
X93856050Y-107457351D02*
X93856050Y-108124018D01*
X93617955Y-107076399D02*
X93379860Y-107790684D01*
X93379860Y-107790684D02*
X93998907Y-107790684D01*
X72900886Y-91407298D02*
X73043743Y-91454917D01*
X73043743Y-91454917D02*
X73281838Y-91454917D01*
X73281838Y-91454917D02*
X73377076Y-91407298D01*
X73377076Y-91407298D02*
X73424695Y-91359678D01*
X73424695Y-91359678D02*
X73472314Y-91264440D01*
X73472314Y-91264440D02*
X73472314Y-91169202D01*
X73472314Y-91169202D02*
X73424695Y-91073964D01*
X73424695Y-91073964D02*
X73377076Y-91026345D01*
X73377076Y-91026345D02*
X73281838Y-90978726D01*
X73281838Y-90978726D02*
X73091362Y-90931107D01*
X73091362Y-90931107D02*
X72996124Y-90883488D01*
X72996124Y-90883488D02*
X72948505Y-90835869D01*
X72948505Y-90835869D02*
X72900886Y-90740631D01*
X72900886Y-90740631D02*
X72900886Y-90645393D01*
X72900886Y-90645393D02*
X72948505Y-90550155D01*
X72948505Y-90550155D02*
X72996124Y-90502536D01*
X72996124Y-90502536D02*
X73091362Y-90454917D01*
X73091362Y-90454917D02*
X73329457Y-90454917D01*
X73329457Y-90454917D02*
X73472314Y-90502536D01*
X73805648Y-90454917D02*
X74472314Y-90454917D01*
X74472314Y-90454917D02*
X74043743Y-91454917D01*
X183953058Y-106122416D02*
X183953058Y-106836701D01*
X183953058Y-106836701D02*
X183905439Y-106979558D01*
X183905439Y-106979558D02*
X183810201Y-107074797D01*
X183810201Y-107074797D02*
X183667344Y-107122416D01*
X183667344Y-107122416D02*
X183572106Y-107122416D01*
X184429249Y-107122416D02*
X184429249Y-106122416D01*
X184429249Y-106122416D02*
X184810201Y-106122416D01*
X184810201Y-106122416D02*
X184905439Y-106170035D01*
X184905439Y-106170035D02*
X184953058Y-106217654D01*
X184953058Y-106217654D02*
X185000677Y-106312892D01*
X185000677Y-106312892D02*
X185000677Y-106455749D01*
X185000677Y-106455749D02*
X184953058Y-106550987D01*
X184953058Y-106550987D02*
X184905439Y-106598606D01*
X184905439Y-106598606D02*
X184810201Y-106646225D01*
X184810201Y-106646225D02*
X184429249Y-106646225D01*
X185857820Y-106122416D02*
X185667344Y-106122416D01*
X185667344Y-106122416D02*
X185572106Y-106170035D01*
X185572106Y-106170035D02*
X185524487Y-106217654D01*
X185524487Y-106217654D02*
X185429249Y-106360511D01*
X185429249Y-106360511D02*
X185381630Y-106550987D01*
X185381630Y-106550987D02*
X185381630Y-106931939D01*
X185381630Y-106931939D02*
X185429249Y-107027177D01*
X185429249Y-107027177D02*
X185476868Y-107074797D01*
X185476868Y-107074797D02*
X185572106Y-107122416D01*
X185572106Y-107122416D02*
X185762582Y-107122416D01*
X185762582Y-107122416D02*
X185857820Y-107074797D01*
X185857820Y-107074797D02*
X185905439Y-107027177D01*
X185905439Y-107027177D02*
X185953058Y-106931939D01*
X185953058Y-106931939D02*
X185953058Y-106693844D01*
X185953058Y-106693844D02*
X185905439Y-106598606D01*
X185905439Y-106598606D02*
X185857820Y-106550987D01*
X185857820Y-106550987D02*
X185762582Y-106503368D01*
X185762582Y-106503368D02*
X185572106Y-106503368D01*
X185572106Y-106503368D02*
X185476868Y-106550987D01*
X185476868Y-106550987D02*
X185429249Y-106598606D01*
X185429249Y-106598606D02*
X185381630Y-106693844D01*
X110525496Y-100932497D02*
X110668353Y-100980116D01*
X110668353Y-100980116D02*
X110906448Y-100980116D01*
X110906448Y-100980116D02*
X111001686Y-100932497D01*
X111001686Y-100932497D02*
X111049305Y-100884877D01*
X111049305Y-100884877D02*
X111096924Y-100789639D01*
X111096924Y-100789639D02*
X111096924Y-100694401D01*
X111096924Y-100694401D02*
X111049305Y-100599163D01*
X111049305Y-100599163D02*
X111001686Y-100551544D01*
X111001686Y-100551544D02*
X110906448Y-100503925D01*
X110906448Y-100503925D02*
X110715972Y-100456306D01*
X110715972Y-100456306D02*
X110620734Y-100408687D01*
X110620734Y-100408687D02*
X110573115Y-100361068D01*
X110573115Y-100361068D02*
X110525496Y-100265830D01*
X110525496Y-100265830D02*
X110525496Y-100170592D01*
X110525496Y-100170592D02*
X110573115Y-100075354D01*
X110573115Y-100075354D02*
X110620734Y-100027735D01*
X110620734Y-100027735D02*
X110715972Y-99980116D01*
X110715972Y-99980116D02*
X110954067Y-99980116D01*
X110954067Y-99980116D02*
X111096924Y-100027735D01*
X112049305Y-100980116D02*
X111477877Y-100980116D01*
X111763591Y-100980116D02*
X111763591Y-99980116D01*
X111763591Y-99980116D02*
X111668353Y-100122973D01*
X111668353Y-100122973D02*
X111573115Y-100218211D01*
X111573115Y-100218211D02*
X111477877Y-100265830D01*
X112954067Y-99980116D02*
X112477877Y-99980116D01*
X112477877Y-99980116D02*
X112430258Y-100456306D01*
X112430258Y-100456306D02*
X112477877Y-100408687D01*
X112477877Y-100408687D02*
X112573115Y-100361068D01*
X112573115Y-100361068D02*
X112811210Y-100361068D01*
X112811210Y-100361068D02*
X112906448Y-100408687D01*
X112906448Y-100408687D02*
X112954067Y-100456306D01*
X112954067Y-100456306D02*
X113001686Y-100551544D01*
X113001686Y-100551544D02*
X113001686Y-100789639D01*
X113001686Y-100789639D02*
X112954067Y-100884877D01*
X112954067Y-100884877D02*
X112906448Y-100932497D01*
X112906448Y-100932497D02*
X112811210Y-100980116D01*
X112811210Y-100980116D02*
X112573115Y-100980116D01*
X112573115Y-100980116D02*
X112477877Y-100932497D01*
X112477877Y-100932497D02*
X112430258Y-100884877D01*
D10*
X206047459Y-140110347D02*
X206132350Y-140234722D01*
X206132350Y-140234722D02*
X206321874Y-140378840D01*
X206321874Y-140378840D02*
X206426508Y-140398582D01*
X206426508Y-140398582D02*
X206493236Y-140389501D01*
X206493236Y-140389501D02*
X206588788Y-140342514D01*
X206588788Y-140342514D02*
X206646435Y-140266705D01*
X206646435Y-140266705D02*
X206666177Y-140162072D01*
X206666177Y-140162072D02*
X206657096Y-140095343D01*
X206657096Y-140095343D02*
X206610110Y-139999791D01*
X206610110Y-139999791D02*
X206487314Y-139846592D01*
X206487314Y-139846592D02*
X206440328Y-139751040D01*
X206440328Y-139751040D02*
X206431246Y-139684312D01*
X206431246Y-139684312D02*
X206450988Y-139579679D01*
X206450988Y-139579679D02*
X206508635Y-139503869D01*
X206508635Y-139503869D02*
X206604187Y-139456883D01*
X206604187Y-139456883D02*
X206670916Y-139447802D01*
X206670916Y-139447802D02*
X206775549Y-139467544D01*
X206775549Y-139467544D02*
X206965073Y-139611661D01*
X206965073Y-139611661D02*
X207049964Y-139736037D01*
X207324380Y-140004530D02*
X207391108Y-139995449D01*
X207391108Y-139995449D02*
X207495741Y-140015191D01*
X207495741Y-140015191D02*
X207685266Y-140159308D01*
X207685266Y-140159308D02*
X207732252Y-140254860D01*
X207732252Y-140254860D02*
X207741333Y-140321589D01*
X207741333Y-140321589D02*
X207721591Y-140426222D01*
X207721591Y-140426222D02*
X207663944Y-140502032D01*
X207663944Y-140502032D02*
X207539568Y-140586923D01*
X207539568Y-140586923D02*
X206738828Y-140695899D01*
X206738828Y-140695899D02*
X207231591Y-141070604D01*
X208102219Y-140476367D02*
X208594982Y-140851073D01*
X208594982Y-140851073D02*
X208099060Y-140952547D01*
X208099060Y-140952547D02*
X208212775Y-141039018D01*
X208212775Y-141039018D02*
X208259761Y-141134570D01*
X208259761Y-141134570D02*
X208268842Y-141201298D01*
X208268842Y-141201298D02*
X208249100Y-141305931D01*
X208249100Y-141305931D02*
X208104982Y-141495455D01*
X208104982Y-141495455D02*
X208009430Y-141542442D01*
X208009430Y-141542442D02*
X207942702Y-141551523D01*
X207942702Y-141551523D02*
X207838069Y-141531781D01*
X207838069Y-141531781D02*
X207610640Y-141358840D01*
X207610640Y-141358840D02*
X207563653Y-141263288D01*
X207563653Y-141263288D02*
X207554572Y-141196559D01*
D11*
X167676697Y-89025998D02*
X167819554Y-89073617D01*
X167819554Y-89073617D02*
X168057649Y-89073617D01*
X168057649Y-89073617D02*
X168152887Y-89025998D01*
X168152887Y-89025998D02*
X168200506Y-88978378D01*
X168200506Y-88978378D02*
X168248125Y-88883140D01*
X168248125Y-88883140D02*
X168248125Y-88787902D01*
X168248125Y-88787902D02*
X168200506Y-88692664D01*
X168200506Y-88692664D02*
X168152887Y-88645045D01*
X168152887Y-88645045D02*
X168057649Y-88597426D01*
X168057649Y-88597426D02*
X167867173Y-88549807D01*
X167867173Y-88549807D02*
X167771935Y-88502188D01*
X167771935Y-88502188D02*
X167724316Y-88454569D01*
X167724316Y-88454569D02*
X167676697Y-88359331D01*
X167676697Y-88359331D02*
X167676697Y-88264093D01*
X167676697Y-88264093D02*
X167724316Y-88168855D01*
X167724316Y-88168855D02*
X167771935Y-88121236D01*
X167771935Y-88121236D02*
X167867173Y-88073617D01*
X167867173Y-88073617D02*
X168105268Y-88073617D01*
X168105268Y-88073617D02*
X168248125Y-88121236D01*
X169200506Y-89073617D02*
X168629078Y-89073617D01*
X168914792Y-89073617D02*
X168914792Y-88073617D01*
X168914792Y-88073617D02*
X168819554Y-88216474D01*
X168819554Y-88216474D02*
X168724316Y-88311712D01*
X168724316Y-88311712D02*
X168629078Y-88359331D01*
X169581459Y-88168855D02*
X169629078Y-88121236D01*
X169629078Y-88121236D02*
X169724316Y-88073617D01*
X169724316Y-88073617D02*
X169962411Y-88073617D01*
X169962411Y-88073617D02*
X170057649Y-88121236D01*
X170057649Y-88121236D02*
X170105268Y-88168855D01*
X170105268Y-88168855D02*
X170152887Y-88264093D01*
X170152887Y-88264093D02*
X170152887Y-88359331D01*
X170152887Y-88359331D02*
X170105268Y-88502188D01*
X170105268Y-88502188D02*
X169533840Y-89073617D01*
X169533840Y-89073617D02*
X170152887Y-89073617D01*
X129575897Y-96169899D02*
X129718754Y-96217518D01*
X129718754Y-96217518D02*
X129956849Y-96217518D01*
X129956849Y-96217518D02*
X130052087Y-96169899D01*
X130052087Y-96169899D02*
X130099706Y-96122279D01*
X130099706Y-96122279D02*
X130147325Y-96027041D01*
X130147325Y-96027041D02*
X130147325Y-95931803D01*
X130147325Y-95931803D02*
X130099706Y-95836565D01*
X130099706Y-95836565D02*
X130052087Y-95788946D01*
X130052087Y-95788946D02*
X129956849Y-95741327D01*
X129956849Y-95741327D02*
X129766373Y-95693708D01*
X129766373Y-95693708D02*
X129671135Y-95646089D01*
X129671135Y-95646089D02*
X129623516Y-95598470D01*
X129623516Y-95598470D02*
X129575897Y-95503232D01*
X129575897Y-95503232D02*
X129575897Y-95407994D01*
X129575897Y-95407994D02*
X129623516Y-95312756D01*
X129623516Y-95312756D02*
X129671135Y-95265137D01*
X129671135Y-95265137D02*
X129766373Y-95217518D01*
X129766373Y-95217518D02*
X130004468Y-95217518D01*
X130004468Y-95217518D02*
X130147325Y-95265137D01*
X131099706Y-96217518D02*
X130528278Y-96217518D01*
X130813992Y-96217518D02*
X130813992Y-95217518D01*
X130813992Y-95217518D02*
X130718754Y-95360375D01*
X130718754Y-95360375D02*
X130623516Y-95455613D01*
X130623516Y-95455613D02*
X130528278Y-95503232D01*
X131956849Y-95217518D02*
X131766373Y-95217518D01*
X131766373Y-95217518D02*
X131671135Y-95265137D01*
X131671135Y-95265137D02*
X131623516Y-95312756D01*
X131623516Y-95312756D02*
X131528278Y-95455613D01*
X131528278Y-95455613D02*
X131480659Y-95646089D01*
X131480659Y-95646089D02*
X131480659Y-96027041D01*
X131480659Y-96027041D02*
X131528278Y-96122279D01*
X131528278Y-96122279D02*
X131575897Y-96169899D01*
X131575897Y-96169899D02*
X131671135Y-96217518D01*
X131671135Y-96217518D02*
X131861611Y-96217518D01*
X131861611Y-96217518D02*
X131956849Y-96169899D01*
X131956849Y-96169899D02*
X132004468Y-96122279D01*
X132004468Y-96122279D02*
X132052087Y-96027041D01*
X132052087Y-96027041D02*
X132052087Y-95788946D01*
X132052087Y-95788946D02*
X132004468Y-95693708D01*
X132004468Y-95693708D02*
X131956849Y-95646089D01*
X131956849Y-95646089D02*
X131861611Y-95598470D01*
X131861611Y-95598470D02*
X131671135Y-95598470D01*
X131671135Y-95598470D02*
X131575897Y-95646089D01*
X131575897Y-95646089D02*
X131528278Y-95693708D01*
X131528278Y-95693708D02*
X131480659Y-95788946D01*
X184399211Y-116411464D02*
X183923020Y-116744797D01*
X184399211Y-116982892D02*
X183399211Y-116982892D01*
X183399211Y-116982892D02*
X183399211Y-116601940D01*
X183399211Y-116601940D02*
X183446830Y-116506702D01*
X183446830Y-116506702D02*
X183494449Y-116459083D01*
X183494449Y-116459083D02*
X183589687Y-116411464D01*
X183589687Y-116411464D02*
X183732544Y-116411464D01*
X183732544Y-116411464D02*
X183827782Y-116459083D01*
X183827782Y-116459083D02*
X183875401Y-116506702D01*
X183875401Y-116506702D02*
X183923020Y-116601940D01*
X183923020Y-116601940D02*
X183923020Y-116982892D01*
X183732544Y-115554321D02*
X184399211Y-115554321D01*
X183351592Y-115792416D02*
X184065877Y-116030511D01*
X184065877Y-116030511D02*
X184065877Y-115411464D01*
D12*
%TO.C,G\u002A\u002A\u002A*%
G36*
X189142104Y-70370918D02*
G01*
X189205452Y-70386191D01*
X189225495Y-70396084D01*
X189269229Y-70419692D01*
X189334967Y-70456055D01*
X189421022Y-70504217D01*
X189525708Y-70563220D01*
X189647338Y-70632107D01*
X189784226Y-70709919D01*
X189934684Y-70795700D01*
X190097026Y-70888491D01*
X190269565Y-70987335D01*
X190450615Y-71091275D01*
X190638488Y-71199352D01*
X190691282Y-71229762D01*
X190916663Y-71359684D01*
X191117999Y-71475906D01*
X191296699Y-71579271D01*
X191454169Y-71670622D01*
X191591817Y-71750804D01*
X191711049Y-71820659D01*
X191813274Y-71881031D01*
X191899898Y-71932763D01*
X191972328Y-71976698D01*
X192031972Y-72013679D01*
X192080237Y-72044551D01*
X192118530Y-72070157D01*
X192148258Y-72091339D01*
X192170829Y-72108941D01*
X192187649Y-72123807D01*
X192194549Y-72130692D01*
X192212931Y-72149207D01*
X192229415Y-72165358D01*
X192244103Y-72180754D01*
X192257093Y-72197004D01*
X192268484Y-72215716D01*
X192278376Y-72238499D01*
X192286869Y-72266961D01*
X192294063Y-72302712D01*
X192300055Y-72347359D01*
X192304947Y-72402512D01*
X192308838Y-72469779D01*
X192311826Y-72550769D01*
X192314013Y-72647090D01*
X192315496Y-72760351D01*
X192316376Y-72892160D01*
X192316751Y-73044127D01*
X192316723Y-73217859D01*
X192316389Y-73414966D01*
X192315850Y-73637056D01*
X192315205Y-73885737D01*
X192314748Y-74074202D01*
X192310844Y-75781612D01*
X192276206Y-75858224D01*
X192243992Y-75914222D01*
X192201704Y-75969064D01*
X192180938Y-75990353D01*
X192161176Y-76004181D01*
X192117948Y-76031408D01*
X192053237Y-76070884D01*
X191969024Y-76121461D01*
X191867294Y-76181990D01*
X191750029Y-76251324D01*
X191619212Y-76328313D01*
X191476826Y-76411809D01*
X191324854Y-76500663D01*
X191165278Y-76593728D01*
X191000081Y-76689853D01*
X190831247Y-76787891D01*
X190660758Y-76886694D01*
X190490597Y-76985112D01*
X190322747Y-77081998D01*
X190159191Y-77176202D01*
X190001911Y-77266576D01*
X189852892Y-77351971D01*
X189714114Y-77431240D01*
X189587562Y-77503233D01*
X189475218Y-77566803D01*
X189379065Y-77620799D01*
X189301085Y-77664075D01*
X189243263Y-77695480D01*
X189207580Y-77713868D01*
X189198445Y-77717899D01*
X189137505Y-77731318D01*
X189062430Y-77736278D01*
X188986730Y-77732743D01*
X188923915Y-77720678D01*
X188917826Y-77718635D01*
X188897780Y-77708689D01*
X188854383Y-77685134D01*
X188789617Y-77649112D01*
X188705460Y-77601765D01*
X188603894Y-77544237D01*
X188486898Y-77477671D01*
X188356452Y-77403209D01*
X188214537Y-77321994D01*
X188063133Y-77235170D01*
X187904219Y-77143880D01*
X187739776Y-77049265D01*
X187571783Y-76952470D01*
X187402222Y-76854637D01*
X187233072Y-76756908D01*
X187066313Y-76660428D01*
X186903925Y-76566338D01*
X186747889Y-76475783D01*
X186600184Y-76389903D01*
X186462791Y-76309844D01*
X186337689Y-76236747D01*
X186226860Y-76171755D01*
X186132282Y-76116012D01*
X186055936Y-76070659D01*
X185999802Y-76036841D01*
X185965860Y-76015701D01*
X185957180Y-76009743D01*
X185923349Y-75975092D01*
X185902486Y-75946902D01*
X187377031Y-75946902D01*
X187381618Y-76010160D01*
X187386205Y-76073419D01*
X188214306Y-76552843D01*
X188357029Y-76635389D01*
X188492321Y-76713477D01*
X188618042Y-76785882D01*
X188732053Y-76851380D01*
X188832215Y-76908745D01*
X188916388Y-76956755D01*
X188982431Y-76994183D01*
X189028207Y-77019806D01*
X189051576Y-77032399D01*
X189054128Y-77033513D01*
X189074106Y-77028205D01*
X189106677Y-77013633D01*
X189109091Y-77012396D01*
X189138552Y-76994249D01*
X189152215Y-76980092D01*
X189152333Y-76979235D01*
X189140043Y-76970654D01*
X189104819Y-76948883D01*
X189049128Y-76915358D01*
X188975437Y-76871519D01*
X188886216Y-76818803D01*
X188783930Y-76758648D01*
X188671049Y-76692492D01*
X188550039Y-76621773D01*
X188423368Y-76547929D01*
X188293504Y-76472398D01*
X188162915Y-76396618D01*
X188034068Y-76322028D01*
X187909432Y-76250064D01*
X187791472Y-76182165D01*
X187682658Y-76119769D01*
X187585457Y-76064314D01*
X187502337Y-76017238D01*
X187477899Y-76003496D01*
X187377031Y-75946902D01*
X185902486Y-75946902D01*
X185886420Y-75925193D01*
X185858247Y-75877842D01*
X185810613Y-75786380D01*
X185810613Y-74052126D01*
X185810613Y-72552713D01*
X186470163Y-72552713D01*
X186470307Y-74049910D01*
X186470450Y-75547106D01*
X186525269Y-75578568D01*
X186580088Y-75610030D01*
X186581502Y-75020659D01*
X187378876Y-75020659D01*
X188672327Y-75767836D01*
X189965778Y-76515013D01*
X190079367Y-76450876D01*
X190129827Y-76421385D01*
X190168773Y-76396722D01*
X190190410Y-76380645D01*
X190192956Y-76377202D01*
X190180591Y-76369118D01*
X190144820Y-76347537D01*
X190087626Y-76313608D01*
X190010993Y-76268482D01*
X189916905Y-76213309D01*
X189807346Y-76149241D01*
X189684300Y-76077428D01*
X189549751Y-75999020D01*
X189405683Y-75915168D01*
X189254080Y-75827023D01*
X189096926Y-75735735D01*
X188936204Y-75642454D01*
X188773899Y-75548332D01*
X188611995Y-75454519D01*
X188452475Y-75362165D01*
X188297324Y-75272422D01*
X188148525Y-75186439D01*
X188008063Y-75105368D01*
X187877921Y-75030358D01*
X187760083Y-74962561D01*
X187656534Y-74903127D01*
X187569257Y-74853207D01*
X187500235Y-74813951D01*
X187451454Y-74786510D01*
X187427921Y-74773617D01*
X187378876Y-74747617D01*
X187378876Y-74884138D01*
X187378876Y-75020659D01*
X186581502Y-75020659D01*
X186581830Y-74884138D01*
X186583819Y-74055563D01*
X186584274Y-73844654D01*
X186584611Y-73642074D01*
X186584663Y-73596661D01*
X187380593Y-73596661D01*
X187381075Y-73649955D01*
X187382010Y-73688541D01*
X187386205Y-73830610D01*
X188932483Y-74721475D01*
X189130453Y-74835637D01*
X189322520Y-74946598D01*
X189507020Y-75053386D01*
X189682290Y-75155030D01*
X189846666Y-75250560D01*
X189998486Y-75339003D01*
X190136085Y-75419388D01*
X190257802Y-75490744D01*
X190361971Y-75552100D01*
X190446930Y-75602484D01*
X190511016Y-75640925D01*
X190552565Y-75666452D01*
X190567748Y-75676402D01*
X190619569Y-75718724D01*
X190667692Y-75766472D01*
X190699658Y-75806483D01*
X190742581Y-75872502D01*
X190746927Y-75761151D01*
X190748039Y-75702689D01*
X190746921Y-75652397D01*
X190743821Y-75620303D01*
X190743398Y-75618426D01*
X190725795Y-75580001D01*
X190692095Y-75529872D01*
X190648327Y-75475566D01*
X190600518Y-75424610D01*
X190558238Y-75387228D01*
X190540143Y-75375637D01*
X190498877Y-75350698D01*
X190436302Y-75313488D01*
X190354281Y-75265089D01*
X190254675Y-75206579D01*
X190139347Y-75139038D01*
X190010158Y-75063546D01*
X189868971Y-74981182D01*
X189717648Y-74893026D01*
X189558052Y-74800158D01*
X189392043Y-74703656D01*
X189221484Y-74604601D01*
X189048238Y-74504073D01*
X188874166Y-74403150D01*
X188701130Y-74302912D01*
X188530993Y-74204439D01*
X188365617Y-74108811D01*
X188206863Y-74017107D01*
X188056595Y-73930407D01*
X187916673Y-73849789D01*
X187788960Y-73776335D01*
X187675318Y-73711123D01*
X187577610Y-73655233D01*
X187497697Y-73609744D01*
X187437441Y-73575737D01*
X187398705Y-73554291D01*
X187383350Y-73546484D01*
X187383244Y-73546471D01*
X187381334Y-73560068D01*
X187380593Y-73596661D01*
X186584663Y-73596661D01*
X186584832Y-73449737D01*
X186584939Y-73269558D01*
X186584935Y-73103451D01*
X186584821Y-72953331D01*
X186584601Y-72821113D01*
X186584276Y-72708709D01*
X186583848Y-72618036D01*
X186583320Y-72551007D01*
X186582694Y-72509537D01*
X186582002Y-72495548D01*
X186567267Y-72498815D01*
X186536894Y-72513627D01*
X186523309Y-72521357D01*
X186470163Y-72552713D01*
X185810613Y-72552713D01*
X185810613Y-72421480D01*
X187381490Y-72421480D01*
X187384813Y-72512600D01*
X187408273Y-72585844D01*
X187453439Y-72646022D01*
X187455439Y-72647958D01*
X187474172Y-72661132D01*
X187516688Y-72687947D01*
X187581356Y-72727442D01*
X187666543Y-72778654D01*
X187770615Y-72840622D01*
X187891939Y-72912385D01*
X188028884Y-72992979D01*
X188179816Y-73081443D01*
X188343102Y-73176815D01*
X188517110Y-73278134D01*
X188700206Y-73384438D01*
X188890759Y-73494764D01*
X189004790Y-73560644D01*
X189199361Y-73673054D01*
X189387741Y-73782064D01*
X189568269Y-73886702D01*
X189739285Y-73985998D01*
X189899126Y-74078982D01*
X190046133Y-74164684D01*
X190178644Y-74242134D01*
X190294997Y-74310361D01*
X190393533Y-74368395D01*
X190472589Y-74415266D01*
X190530505Y-74450003D01*
X190565621Y-74471637D01*
X190574774Y-74477716D01*
X190623765Y-74520506D01*
X190672053Y-74573349D01*
X190693003Y-74601195D01*
X190719733Y-74639835D01*
X190739144Y-74666469D01*
X190746245Y-74674656D01*
X190747868Y-74661273D01*
X190749122Y-74625133D01*
X190749823Y-74572795D01*
X190749909Y-74544794D01*
X190749338Y-74481636D01*
X190745867Y-74438050D01*
X190736857Y-74404298D01*
X190719670Y-74370639D01*
X190691666Y-74327335D01*
X190690539Y-74325647D01*
X190649148Y-74271520D01*
X190600896Y-74219708D01*
X190562293Y-74186226D01*
X190540969Y-74172559D01*
X190495863Y-74145234D01*
X190428606Y-74105199D01*
X190340828Y-74053407D01*
X190234160Y-73990808D01*
X190110232Y-73918354D01*
X189970676Y-73836994D01*
X189817122Y-73747681D01*
X189651201Y-73651365D01*
X189474543Y-73548996D01*
X189288779Y-73441526D01*
X189095540Y-73329907D01*
X188939811Y-73240076D01*
X187386205Y-72344441D01*
X187381490Y-72421480D01*
X185810613Y-72421480D01*
X185810613Y-72317872D01*
X185858247Y-72226410D01*
X185890731Y-72172561D01*
X185927770Y-72123635D01*
X185957180Y-72093943D01*
X185976265Y-72081474D01*
X186018775Y-72055559D01*
X186082718Y-72017352D01*
X186166100Y-71968007D01*
X186266928Y-71908678D01*
X186383208Y-71840520D01*
X186512948Y-71764686D01*
X186580153Y-71725490D01*
X187904750Y-71725490D01*
X188334340Y-71973418D01*
X188424181Y-72025240D01*
X188535812Y-72089588D01*
X188665611Y-72164375D01*
X188809956Y-72247516D01*
X188965224Y-72336924D01*
X189127794Y-72430516D01*
X189294044Y-72526203D01*
X189460351Y-72621902D01*
X189623092Y-72715525D01*
X189641910Y-72726349D01*
X189827553Y-72833312D01*
X189989428Y-72927066D01*
X190129315Y-73008779D01*
X190248991Y-73079619D01*
X190350236Y-73140751D01*
X190434828Y-73193344D01*
X190504546Y-73238565D01*
X190561168Y-73277581D01*
X190606473Y-73311560D01*
X190642240Y-73341669D01*
X190670248Y-73369074D01*
X190692274Y-73394944D01*
X190710098Y-73420446D01*
X190717161Y-73432009D01*
X190742581Y-73475187D01*
X190747126Y-73353270D01*
X190748164Y-73286674D01*
X190746735Y-73222658D01*
X190743152Y-73173601D01*
X190742424Y-73168132D01*
X190721708Y-73103657D01*
X190693909Y-73063442D01*
X190675845Y-73050369D01*
X190634138Y-73023779D01*
X190570578Y-72984730D01*
X190486957Y-72934282D01*
X190385065Y-72873492D01*
X190266691Y-72803419D01*
X190133627Y-72725121D01*
X189987663Y-72639655D01*
X189830590Y-72548081D01*
X189664197Y-72451457D01*
X189490276Y-72350840D01*
X189405427Y-72301887D01*
X188156214Y-71581801D01*
X188030482Y-71653646D01*
X187904750Y-71725490D01*
X186580153Y-71725490D01*
X186654155Y-71682330D01*
X186804835Y-71594607D01*
X186962995Y-71502670D01*
X187126641Y-71407673D01*
X187293782Y-71310771D01*
X187462422Y-71213117D01*
X187612455Y-71126343D01*
X188958197Y-71126343D01*
X188958834Y-71130293D01*
X188972825Y-71138904D01*
X189010343Y-71161036D01*
X189069505Y-71195599D01*
X189148425Y-71241500D01*
X189245221Y-71297649D01*
X189358006Y-71362955D01*
X189484898Y-71436325D01*
X189624013Y-71516669D01*
X189773465Y-71602896D01*
X189931371Y-71693913D01*
X190031733Y-71751719D01*
X190196153Y-71846604D01*
X190354826Y-71938578D01*
X190505683Y-72026418D01*
X190646656Y-72108901D01*
X190775677Y-72184804D01*
X190890677Y-72252906D01*
X190989590Y-72311983D01*
X191070345Y-72360813D01*
X191130876Y-72398173D01*
X191169115Y-72422840D01*
X191179552Y-72430284D01*
X191284821Y-72529703D01*
X191376425Y-72650256D01*
X191450127Y-72785323D01*
X191501692Y-72928281D01*
X191504162Y-72937635D01*
X191508143Y-72956142D01*
X191511638Y-72980100D01*
X191514677Y-73011375D01*
X191517290Y-73051832D01*
X191519508Y-73103336D01*
X191521362Y-73167753D01*
X191522881Y-73246949D01*
X191524096Y-73342787D01*
X191525038Y-73457136D01*
X191525737Y-73591858D01*
X191526223Y-73748820D01*
X191526527Y-73929888D01*
X191526679Y-74136926D01*
X191526712Y-74320514D01*
X191526712Y-75616037D01*
X191589003Y-75579251D01*
X191651294Y-75542465D01*
X191654648Y-74049806D01*
X191658002Y-72557146D01*
X190358769Y-71808540D01*
X189059536Y-71059934D01*
X189004039Y-71090332D01*
X188972673Y-71110607D01*
X188958197Y-71126343D01*
X187612455Y-71126343D01*
X187630570Y-71115866D01*
X187796232Y-71020172D01*
X187957415Y-70927188D01*
X188112125Y-70838069D01*
X188258370Y-70753968D01*
X188394156Y-70676041D01*
X188517490Y-70605440D01*
X188626379Y-70543319D01*
X188718829Y-70490834D01*
X188792848Y-70449138D01*
X188846442Y-70419384D01*
X188877619Y-70402728D01*
X188881184Y-70400977D01*
X188959715Y-70376013D01*
X189050994Y-70365797D01*
X189142104Y-70370918D01*
G37*
D13*
%TO.C,S21*%
X152289591Y-127619598D02*
X152289591Y-128209598D01*
X152289591Y-131079598D02*
X152289591Y-141819598D01*
X152289591Y-141819598D02*
X166489591Y-141819598D01*
X159589591Y-132019598D02*
X157619591Y-132019598D01*
X160919592Y-127819598D02*
X158389591Y-127819598D01*
X163489591Y-127819598D02*
X162899592Y-127819598D01*
X166489591Y-127619598D02*
X152289591Y-127619598D01*
X166489591Y-127619598D02*
X166489591Y-130679599D01*
X166489591Y-141819598D02*
X166489590Y-133679598D01*
X159589591Y-132019598D02*
G75*
G02*
X161589591Y-134019598I3J-1999997D01*
G01*
X163489591Y-127819598D02*
G75*
G02*
X165489591Y-129819598I0J-2000000D01*
G01*
%TO.C,S10*%
X123713991Y-77612299D02*
X123713991Y-78202299D01*
X123713991Y-81072299D02*
X123713991Y-91812299D01*
X123713991Y-91812299D02*
X137913991Y-91812299D01*
X131013991Y-82012299D02*
X129043991Y-82012299D01*
X132343992Y-77812299D02*
X129813991Y-77812299D01*
X134913991Y-77812299D02*
X134323992Y-77812299D01*
X137913991Y-77612299D02*
X123713991Y-77612299D01*
X137913991Y-77612299D02*
X137913991Y-80672300D01*
X137913991Y-91812299D02*
X137913990Y-83672299D01*
X131013991Y-82012299D02*
G75*
G02*
X133013991Y-84012299I3J-1999997D01*
G01*
X134913991Y-77812299D02*
G75*
G02*
X136913991Y-79812299I0J-2000000D01*
G01*
%TO.C,S11*%
X142764392Y-84756198D02*
X142764392Y-85346198D01*
X142764392Y-88216198D02*
X142764392Y-98956198D01*
X142764392Y-98956198D02*
X156964392Y-98956198D01*
X150064392Y-89156198D02*
X148094392Y-89156198D01*
X151394393Y-84956198D02*
X148864392Y-84956198D01*
X153964392Y-84956198D02*
X153374393Y-84956198D01*
X156964392Y-84756198D02*
X142764392Y-84756198D01*
X156964392Y-84756198D02*
X156964392Y-87816199D01*
X156964392Y-98956198D02*
X156964391Y-90816198D01*
X150064392Y-89156198D02*
G75*
G02*
X152064392Y-91156198I3J-1999997D01*
G01*
X153964392Y-84956198D02*
G75*
G02*
X155964392Y-86956198I0J-2000000D01*
G01*
D10*
%TO.C,D23*%
X195193373Y-155058435D02*
X195509649Y-155303322D01*
X195509649Y-155303322D02*
X196228951Y-155354378D01*
X195739177Y-155986929D02*
X195509649Y-155303322D01*
X195846372Y-154868444D02*
X195172930Y-155738202D01*
X195984064Y-155670654D02*
X196379408Y-155976762D01*
X196228951Y-155354378D02*
X195739177Y-155986929D01*
D13*
%TO.C,S17*%
X142764392Y-103806598D02*
X142764392Y-104396598D01*
X142764392Y-107266598D02*
X142764392Y-118006598D01*
X142764392Y-118006598D02*
X156964392Y-118006598D01*
X150064392Y-108206598D02*
X148094392Y-108206598D01*
X151394393Y-104006598D02*
X148864392Y-104006598D01*
X153964392Y-104006598D02*
X153374393Y-104006598D01*
X156964392Y-103806598D02*
X142764392Y-103806598D01*
X156964392Y-103806598D02*
X156964392Y-106866599D01*
X156964392Y-118006598D02*
X156964391Y-109866598D01*
X150064392Y-108206598D02*
G75*
G02*
X152064392Y-110206598I3J-1999997D01*
G01*
X153964392Y-104006598D02*
G75*
G02*
X155964392Y-106006598I0J-2000000D01*
G01*
D10*
%TO.C,D4*%
X139789191Y-66011899D02*
X140889191Y-66011899D01*
X139939192Y-65411899D02*
X140739191Y-65411899D01*
X140339191Y-65411898D02*
X140339191Y-64911899D01*
X140339191Y-66011900D02*
X139939192Y-65411899D01*
X140339191Y-66411899D02*
X140339191Y-66011900D01*
X140739191Y-65411899D02*
X140339191Y-66011900D01*
%TO.C,D19*%
X130263992Y-127925698D02*
X131363992Y-127925698D01*
X130413993Y-127325698D02*
X131213992Y-127325698D01*
X130813992Y-127325697D02*
X130813992Y-126825698D01*
X130813992Y-127925699D02*
X130413993Y-127325698D01*
X130813992Y-128325698D02*
X130813992Y-127925699D01*
X131213992Y-127325698D02*
X130813992Y-127925699D01*
%TO.C,D8*%
X101688392Y-96968797D02*
X102788392Y-96968797D01*
X101838393Y-96368797D02*
X102638392Y-96368797D01*
X102238392Y-96368796D02*
X102238392Y-95868797D01*
X102238392Y-96968798D02*
X101838393Y-96368797D01*
X102238392Y-97368797D02*
X102238392Y-96968798D01*
X102638392Y-96368797D02*
X102238392Y-96968798D01*
D13*
%TO.C,S19*%
X114188791Y-120475698D02*
X114188791Y-121065698D01*
X114188791Y-123935698D02*
X114188791Y-134675698D01*
X114188791Y-134675698D02*
X128388791Y-134675698D01*
X121488791Y-124875698D02*
X119518791Y-124875698D01*
X122818792Y-120675698D02*
X120288791Y-120675698D01*
X125388791Y-120675698D02*
X124798792Y-120675698D01*
X128388791Y-120475698D02*
X114188791Y-120475698D01*
X128388791Y-120475698D02*
X128388791Y-123535699D01*
X128388791Y-134675698D02*
X128388790Y-126535698D01*
X121488791Y-124875698D02*
G75*
G02*
X123488791Y-126875698I3J-1999997D01*
G01*
X125388791Y-120675698D02*
G75*
G02*
X127388791Y-122675698I0J-2000000D01*
G01*
%TO.C,S3*%
X104663591Y-63324498D02*
X104663591Y-63914498D01*
X104663591Y-66784498D02*
X104663591Y-77524498D01*
X104663591Y-77524498D02*
X118863591Y-77524498D01*
X111963591Y-67724498D02*
X109993591Y-67724498D01*
X113293592Y-63524498D02*
X110763591Y-63524498D01*
X115863591Y-63524498D02*
X115273592Y-63524498D01*
X118863591Y-63324498D02*
X104663591Y-63324498D01*
X118863591Y-63324498D02*
X118863591Y-66384499D01*
X118863591Y-77524498D02*
X118863590Y-69384498D01*
X111963591Y-67724498D02*
G75*
G02*
X113963591Y-69724498I3J-1999997D01*
G01*
X115863591Y-63524498D02*
G75*
G02*
X117863591Y-65524498I0J-2000000D01*
G01*
%TO.C,S1*%
X66562792Y-72849696D02*
X66562792Y-73439696D01*
X66562792Y-76309696D02*
X66562792Y-87049696D01*
X66562792Y-87049696D02*
X80762792Y-87049696D01*
X73862792Y-77249696D02*
X71892792Y-77249696D01*
X75192793Y-73049696D02*
X72662792Y-73049696D01*
X77762792Y-73049696D02*
X77172793Y-73049696D01*
X80762792Y-72849696D02*
X66562792Y-72849696D01*
X80762792Y-72849696D02*
X80762792Y-75909697D01*
X80762792Y-87049696D02*
X80762791Y-78909696D01*
X73862792Y-77249696D02*
G75*
G02*
X75862792Y-79249696I3J-1999997D01*
G01*
X77762792Y-73049696D02*
G75*
G02*
X79762792Y-75049696I0J-2000000D01*
G01*
%TO.C,JP1*%
X179586392Y-104067599D02*
X182386392Y-104067598D01*
X179586392Y-106067598D02*
X179586392Y-104067599D01*
X182386392Y-104067598D02*
X182386392Y-106067597D01*
X182386392Y-106067597D02*
X179586392Y-106067598D01*
%TO.C,JP5*%
X179586392Y-107467598D02*
X182386392Y-107467597D01*
X179586392Y-109467597D02*
X179586392Y-107467598D01*
X182386392Y-107467597D02*
X182386392Y-109467596D01*
X182386392Y-109467596D02*
X179586392Y-109467597D01*
%TO.C,R2*%
X184954393Y-115517734D02*
X184954393Y-116971862D01*
X186774393Y-115517734D02*
X186774393Y-116971862D01*
D10*
%TO.C,D14*%
X101688391Y-116019198D02*
X102788391Y-116019198D01*
X101838392Y-115419198D02*
X102638391Y-115419198D01*
X102238391Y-115419197D02*
X102238391Y-114919198D01*
X102238391Y-116019199D02*
X101838392Y-115419198D01*
X102238391Y-116419198D02*
X102238391Y-116019199D01*
X102638391Y-115419198D02*
X102238391Y-116019199D01*
%TO.C,D5*%
X158839591Y-73155798D02*
X159939591Y-73155798D01*
X158989592Y-72555798D02*
X159789591Y-72555798D01*
X159389591Y-72555797D02*
X159389591Y-72055798D01*
X159389591Y-73155799D02*
X158989592Y-72555798D01*
X159389591Y-73555798D02*
X159389591Y-73155799D01*
X159789591Y-72555798D02*
X159389591Y-73155799D01*
%TO.C,D11*%
X158839591Y-92206198D02*
X159939591Y-92206198D01*
X158989592Y-91606198D02*
X159789591Y-91606198D01*
X159389591Y-91606197D02*
X159389591Y-91106198D01*
X159389591Y-92206199D02*
X158989592Y-91606198D01*
X159389591Y-92606198D02*
X159389591Y-92206199D01*
X159789591Y-91606198D02*
X159389591Y-92206199D01*
%TO.C,D13*%
X82637992Y-118400498D02*
X83737992Y-118400498D01*
X82787993Y-117800498D02*
X83587992Y-117800498D01*
X83187992Y-117800497D02*
X83187992Y-117300498D01*
X83187992Y-118400499D02*
X82787993Y-117800498D01*
X83187992Y-118800498D02*
X83187992Y-118400499D01*
X83587992Y-117800498D02*
X83187992Y-118400499D01*
%TO.C,D20*%
X149314392Y-130306998D02*
X150414392Y-130306998D01*
X149464393Y-129706998D02*
X150264392Y-129706998D01*
X149864392Y-129706997D02*
X149864392Y-129206998D01*
X149864392Y-130306999D02*
X149464393Y-129706998D01*
X149864392Y-130706998D02*
X149864392Y-130306999D01*
X150264392Y-129706998D02*
X149864392Y-130306999D01*
%TO.C,D2*%
X101688392Y-77918399D02*
X102788392Y-77918399D01*
X101838393Y-77318399D02*
X102638392Y-77318399D01*
X102238392Y-77318398D02*
X102238392Y-76818399D01*
X102238392Y-77918400D02*
X101838393Y-77318399D01*
X102238392Y-78318399D02*
X102238392Y-77918400D01*
X102638392Y-77318399D02*
X102238392Y-77918400D01*
D13*
%TO.C,S8*%
X85613192Y-89518799D02*
X85613192Y-90108799D01*
X85613192Y-92978799D02*
X85613192Y-103718799D01*
X85613192Y-103718799D02*
X99813192Y-103718799D01*
X92913192Y-93918799D02*
X90943192Y-93918799D01*
X94243193Y-89718799D02*
X91713192Y-89718799D01*
X96813192Y-89718799D02*
X96223193Y-89718799D01*
X99813192Y-89518799D02*
X85613192Y-89518799D01*
X99813192Y-89518799D02*
X99813192Y-92578800D01*
X99813192Y-103718799D02*
X99813191Y-95578799D01*
X92913192Y-93918799D02*
G75*
G02*
X94913192Y-95918799I3J-1999997D01*
G01*
X96813192Y-89718799D02*
G75*
G02*
X98813192Y-91718799I0J-2000000D01*
G01*
D10*
%TO.C,D9*%
X120738791Y-89824899D02*
X121838791Y-89824899D01*
X120888792Y-89224899D02*
X121688791Y-89224899D01*
X121288791Y-89224898D02*
X121288791Y-88724899D01*
X121288791Y-89824900D02*
X120888792Y-89224899D01*
X121288791Y-90224899D02*
X121288791Y-89824900D01*
X121688791Y-89224899D02*
X121288791Y-89824900D01*
%TO.C,D3*%
X120738792Y-67201398D02*
X121838792Y-67201398D01*
X120888793Y-66601398D02*
X121688792Y-66601398D01*
X121288792Y-66601397D02*
X121288792Y-66101398D01*
X121288792Y-67201399D02*
X120888793Y-66601398D01*
X121288792Y-67601398D02*
X121288792Y-67201399D01*
X121688792Y-66601398D02*
X121288792Y-67201399D01*
D13*
%TO.C,J1*%
X187226391Y-114717598D02*
X187226391Y-112917598D01*
X187446390Y-116977598D02*
X187446393Y-103657598D01*
X187446390Y-116977598D02*
X190776392Y-116977598D01*
X187446393Y-103657598D02*
X190776392Y-103657599D01*
X194296392Y-103657598D02*
X202406392Y-103657598D01*
X202406392Y-103007598D02*
X202406392Y-103657598D01*
X202406392Y-116977598D02*
X194296392Y-116977598D01*
X202406392Y-116977598D02*
X202406392Y-117627598D01*
X202406392Y-117627598D02*
X202926391Y-117627597D01*
X202926391Y-117627597D02*
X202926392Y-103007598D01*
X202926392Y-103007598D02*
X202406392Y-103007598D01*
%TO.C,S5*%
X142764393Y-65705798D02*
X142764393Y-66295798D01*
X142764393Y-69165798D02*
X142764393Y-79905798D01*
X142764393Y-79905798D02*
X156964393Y-79905798D01*
X150064393Y-70105798D02*
X148094393Y-70105798D01*
X151394394Y-65905798D02*
X148864393Y-65905798D01*
X153964393Y-65905798D02*
X153374394Y-65905798D01*
X156964393Y-65705798D02*
X142764393Y-65705798D01*
X156964393Y-65705798D02*
X156964393Y-68765799D01*
X156964393Y-79905798D02*
X156964392Y-71765798D01*
X150064393Y-70105798D02*
G75*
G02*
X152064393Y-72105798I3J-1999997D01*
G01*
X153964393Y-65905798D02*
G75*
G02*
X155964393Y-67905798I0J-2000000D01*
G01*
%TO.C,S6*%
X161814792Y-70468398D02*
X161814792Y-71058398D01*
X161814792Y-73928398D02*
X161814792Y-84668398D01*
X161814792Y-84668398D02*
X176014792Y-84668398D01*
X169114792Y-74868398D02*
X167144792Y-74868398D01*
X170444793Y-70668398D02*
X167914792Y-70668398D01*
X173014792Y-70668398D02*
X172424793Y-70668398D01*
X176014792Y-70468398D02*
X161814792Y-70468398D01*
X176014792Y-70468398D02*
X176014792Y-73528399D01*
X176014792Y-84668398D02*
X176014791Y-76528398D01*
X169114792Y-74868398D02*
G75*
G02*
X171114792Y-76868398I3J-1999997D01*
G01*
X173014792Y-70668398D02*
G75*
G02*
X175014792Y-72668398I0J-2000000D01*
G01*
%TO.C,S18*%
X161814792Y-108569198D02*
X161814792Y-109159198D01*
X161814792Y-112029198D02*
X161814792Y-122769198D01*
X161814792Y-122769198D02*
X176014792Y-122769198D01*
X169114792Y-112969198D02*
X167144792Y-112969198D01*
X170444793Y-108769198D02*
X167914792Y-108769198D01*
X173014792Y-108769198D02*
X172424793Y-108769198D01*
X176014792Y-108569198D02*
X161814792Y-108569198D01*
X176014792Y-108569198D02*
X176014792Y-111629199D01*
X176014792Y-122769198D02*
X176014791Y-114629198D01*
X169114792Y-112969198D02*
G75*
G02*
X171114792Y-114969198I3J-1999997D01*
G01*
X173014792Y-108769198D02*
G75*
G02*
X175014792Y-110769198I0J-2000000D01*
G01*
%TO.C,S20*%
X133239192Y-122856998D02*
X133239192Y-123446998D01*
X133239192Y-126316998D02*
X133239192Y-137056998D01*
X133239192Y-137056998D02*
X147439192Y-137056998D01*
X140539192Y-127256998D02*
X138569192Y-127256998D01*
X141869193Y-123056998D02*
X139339192Y-123056998D01*
X144439192Y-123056998D02*
X143849193Y-123056998D01*
X147439192Y-122856998D02*
X133239192Y-122856998D01*
X147439192Y-122856998D02*
X147439192Y-125916999D01*
X147439192Y-137056998D02*
X147439191Y-128916998D01*
X140539192Y-127256998D02*
G75*
G02*
X142539192Y-129256998I3J-1999997D01*
G01*
X144439192Y-123056998D02*
G75*
G02*
X146439192Y-125056998I0J-2000000D01*
G01*
%TO.C,S13*%
X66562792Y-110950498D02*
X66562792Y-111540498D01*
X66562792Y-114410498D02*
X66562792Y-125150498D01*
X66562792Y-125150498D02*
X80762792Y-125150498D01*
X73862792Y-115350498D02*
X71892792Y-115350498D01*
X75192793Y-111150498D02*
X72662792Y-111150498D01*
X77762792Y-111150498D02*
X77172793Y-111150498D01*
X80762792Y-110950498D02*
X66562792Y-110950498D01*
X80762792Y-110950498D02*
X80762792Y-114010499D01*
X80762792Y-125150498D02*
X80762791Y-117010498D01*
X73862792Y-115350498D02*
G75*
G02*
X75862792Y-117350498I3J-1999997D01*
G01*
X77762792Y-111150498D02*
G75*
G02*
X79762792Y-113150498I0J-2000000D01*
G01*
D10*
%TO.C,D22*%
X178515191Y-144882948D02*
X178873164Y-145061429D01*
X178873164Y-145061429D02*
X179588605Y-144971171D01*
X179118574Y-144569216D02*
X178627756Y-145553642D01*
X179231646Y-145687121D02*
X178873164Y-145061429D01*
X179410126Y-145329148D02*
X179857593Y-145552246D01*
X179588605Y-144971171D02*
X179231646Y-145687121D01*
D13*
%TO.C,D25*%
X184729393Y-94644798D02*
X184729393Y-98704798D01*
X184729393Y-98704798D02*
X186999393Y-98704798D01*
X186999393Y-98704798D02*
X186999393Y-94644798D01*
%TO.C,S9*%
X104663592Y-82374898D02*
X104663592Y-82964898D01*
X104663592Y-85834898D02*
X104663592Y-96574898D01*
X104663592Y-96574898D02*
X118863592Y-96574898D01*
X111963592Y-86774898D02*
X109993592Y-86774898D01*
X113293593Y-82574898D02*
X110763592Y-82574898D01*
X115863592Y-82574898D02*
X115273593Y-82574898D01*
X118863592Y-82374898D02*
X104663592Y-82374898D01*
X118863592Y-82374898D02*
X118863592Y-85434899D01*
X118863592Y-96574898D02*
X118863591Y-88434898D01*
X111963592Y-86774898D02*
G75*
G02*
X113963592Y-88774898I3J-1999997D01*
G01*
X115863592Y-82574898D02*
G75*
G02*
X117863592Y-84574898I0J-2000000D01*
G01*
D10*
%TO.C,D12*%
X177889993Y-96968798D02*
X178989993Y-96968798D01*
X178039994Y-96368798D02*
X178839993Y-96368798D01*
X178439993Y-96368797D02*
X178439993Y-95868798D01*
X178439993Y-96968799D02*
X178039994Y-96368798D01*
X178439993Y-97368798D02*
X178439993Y-96968799D01*
X178839993Y-96368798D02*
X178439993Y-96968799D01*
%TO.C,D15*%
X120738794Y-108875297D02*
X121838794Y-108875297D01*
X120888795Y-108275297D02*
X121688794Y-108275297D01*
X121288794Y-108275296D02*
X121288794Y-107775297D01*
X121288794Y-108875298D02*
X120888795Y-108275297D01*
X121288794Y-109275297D02*
X121288794Y-108875298D01*
X121688794Y-108275297D02*
X121288794Y-108875298D01*
D13*
%TO.C,JP2*%
X183386391Y-104067599D02*
X186186391Y-104067598D01*
X183386391Y-106067598D02*
X183386391Y-104067599D01*
X186186391Y-104067598D02*
X186186391Y-106067597D01*
X186186391Y-106067597D02*
X183386391Y-106067598D01*
%TO.C,S22*%
X174314354Y-138903627D02*
X187022421Y-145239636D01*
X179102056Y-129300982D02*
X174314354Y-138903627D01*
X180650363Y-126195560D02*
X180400491Y-126696724D01*
X185220113Y-133390515D02*
X183466042Y-132515967D01*
X187022421Y-145239636D02*
X190654472Y-137954871D01*
X188320204Y-130243081D02*
X186020223Y-129096353D01*
X190584388Y-131371962D02*
X190092174Y-131126553D01*
X193358430Y-132531569D02*
X180650363Y-126195560D01*
X193358430Y-132531569D02*
X191993065Y-135270068D01*
X185220113Y-133390515D02*
G75*
G02*
X186117586Y-136072779I-892394J-1789868D01*
G01*
X190584388Y-131371962D02*
G75*
G02*
X191481861Y-134054226I-892396J-1789869D01*
G01*
%TO.C,S2*%
X85613191Y-70468397D02*
X85613191Y-71058397D01*
X85613191Y-73928397D02*
X85613191Y-84668397D01*
X85613191Y-84668397D02*
X99813191Y-84668397D01*
X92913191Y-74868397D02*
X90943191Y-74868397D01*
X94243192Y-70668397D02*
X91713191Y-70668397D01*
X96813191Y-70668397D02*
X96223192Y-70668397D01*
X99813191Y-70468397D02*
X85613191Y-70468397D01*
X99813191Y-70468397D02*
X99813191Y-73528398D01*
X99813191Y-84668397D02*
X99813190Y-76528397D01*
X92913191Y-74868397D02*
G75*
G02*
X94913191Y-76868397I3J-1999997D01*
G01*
X96813191Y-70668397D02*
G75*
G02*
X98813191Y-72668397I0J-2000000D01*
G01*
%TO.C,D27*%
X189979393Y-94644798D02*
X189979393Y-98704798D01*
X189979393Y-98704798D02*
X192249393Y-98704798D01*
X192249393Y-98704798D02*
X192249393Y-94644798D01*
%TO.C,S4*%
X123713993Y-58561899D02*
X123713993Y-59151899D01*
X123713993Y-62021899D02*
X123713993Y-72761899D01*
X123713993Y-72761899D02*
X137913993Y-72761899D01*
X131013993Y-62961899D02*
X129043993Y-62961899D01*
X132343994Y-58761899D02*
X129813993Y-58761899D01*
X134913993Y-58761899D02*
X134323994Y-58761899D01*
X137913993Y-58561899D02*
X123713993Y-58561899D01*
X137913993Y-58561899D02*
X137913993Y-61621900D01*
X137913993Y-72761899D02*
X137913992Y-64621899D01*
X131013993Y-62961899D02*
G75*
G02*
X133013993Y-64961899I3J-1999997D01*
G01*
X134913993Y-58761899D02*
G75*
G02*
X136913993Y-60761899I0J-2000000D01*
G01*
D10*
%TO.C,D10*%
X139789192Y-85062298D02*
X140889192Y-85062298D01*
X139939193Y-84462298D02*
X140739192Y-84462298D01*
X140339192Y-84462297D02*
X140339192Y-83962298D01*
X140339192Y-85062299D02*
X139939193Y-84462298D01*
X140339192Y-85462298D02*
X140339192Y-85062299D01*
X140739192Y-84462298D02*
X140339192Y-85062299D01*
D13*
%TO.C,S14*%
X85613193Y-108569199D02*
X85613193Y-109159199D01*
X85613193Y-112029199D02*
X85613193Y-122769199D01*
X85613193Y-122769199D02*
X99813193Y-122769199D01*
X92913193Y-112969199D02*
X90943193Y-112969199D01*
X94243194Y-108769199D02*
X91713193Y-108769199D01*
X96813193Y-108769199D02*
X96223194Y-108769199D01*
X99813193Y-108569199D02*
X85613193Y-108569199D01*
X99813193Y-108569199D02*
X99813193Y-111629200D01*
X99813193Y-122769199D02*
X99813192Y-114629199D01*
X92913193Y-112969199D02*
G75*
G02*
X94913193Y-114969199I3J-1999997D01*
G01*
X96813193Y-108769199D02*
G75*
G02*
X98813193Y-110769199I0J-2000000D01*
G01*
%TO.C,S7*%
X66562791Y-91900098D02*
X66562791Y-92490098D01*
X66562791Y-95360098D02*
X66562791Y-106100098D01*
X66562791Y-106100098D02*
X80762791Y-106100098D01*
X73862791Y-96300098D02*
X71892791Y-96300098D01*
X75192792Y-92100098D02*
X72662791Y-92100098D01*
X77762791Y-92100098D02*
X77172792Y-92100098D01*
X80762791Y-91900098D02*
X66562791Y-91900098D01*
X80762791Y-91900098D02*
X80762791Y-94960099D01*
X80762791Y-106100098D02*
X80762790Y-97960098D01*
X73862791Y-96300098D02*
G75*
G02*
X75862791Y-98300098I3J-1999997D01*
G01*
X77762791Y-92100098D02*
G75*
G02*
X79762791Y-94100098I0J-2000000D01*
G01*
%TO.C,JP6*%
X183386392Y-107467598D02*
X186186392Y-107467597D01*
X183386392Y-109467597D02*
X183386392Y-107467598D01*
X186186392Y-107467597D02*
X186186392Y-109467596D01*
X186186392Y-109467596D02*
X183386392Y-109467597D01*
D10*
%TO.C,D1*%
X82637992Y-80299699D02*
X83737992Y-80299699D01*
X82787993Y-79699699D02*
X83587992Y-79699699D01*
X83187992Y-79699698D02*
X83187992Y-79199699D01*
X83187992Y-80299700D02*
X82787993Y-79699699D01*
X83187992Y-80699699D02*
X83187992Y-80299700D01*
X83587992Y-79699699D02*
X83187992Y-80299700D01*
D13*
%TO.C,S15*%
X104663591Y-101425297D02*
X104663591Y-102015297D01*
X104663591Y-104885297D02*
X104663591Y-115625297D01*
X104663591Y-115625297D02*
X118863591Y-115625297D01*
X111963591Y-105825297D02*
X109993591Y-105825297D01*
X113293592Y-101625297D02*
X110763591Y-101625297D01*
X115863591Y-101625297D02*
X115273592Y-101625297D01*
X118863591Y-101425297D02*
X104663591Y-101425297D01*
X118863591Y-101425297D02*
X118863591Y-104485298D01*
X118863591Y-115625297D02*
X118863590Y-107485297D01*
X111963591Y-105825297D02*
G75*
G02*
X113963591Y-107825297I3J-1999997D01*
G01*
X115863591Y-101625297D02*
G75*
G02*
X117863591Y-103625297I0J-2000000D01*
G01*
D10*
%TO.C,D18*%
X177889991Y-116019198D02*
X178989991Y-116019198D01*
X178039992Y-115419198D02*
X178839991Y-115419198D01*
X178439991Y-115419197D02*
X178439991Y-114919198D01*
X178439991Y-116019199D02*
X178039992Y-115419198D01*
X178439991Y-116419198D02*
X178439991Y-116019199D01*
X178839991Y-115419198D02*
X178439991Y-116019199D01*
D13*
%TO.C,S23*%
X192287190Y-148521623D02*
X203590419Y-157116798D01*
X198781995Y-139980521D02*
X192287190Y-148521623D01*
X200882365Y-137218394D02*
X200543400Y-137664156D01*
X203590419Y-157116798D02*
X208517512Y-150637341D01*
X204029886Y-145139448D02*
X202469722Y-143953072D01*
X207662644Y-142625495D02*
X205616919Y-141069888D01*
X209676529Y-144156888D02*
X209238728Y-143823976D01*
X212185594Y-145813569D02*
X200882365Y-137218394D01*
X212185594Y-145813569D02*
X210333394Y-148249335D01*
X204029886Y-145139448D02*
G75*
G02*
X204411302Y-147942041I-1210586J-1592004D01*
G01*
X209676529Y-144156888D02*
G75*
G02*
X210057945Y-146959480I-1210588J-1592004D01*
G01*
%TO.C,S12*%
X161814792Y-89518798D02*
X161814792Y-90108798D01*
X161814792Y-92978798D02*
X161814792Y-103718798D01*
X161814792Y-103718798D02*
X176014792Y-103718798D01*
X169114792Y-93918798D02*
X167144792Y-93918798D01*
X170444793Y-89718798D02*
X167914792Y-89718798D01*
X173014792Y-89718798D02*
X172424793Y-89718798D01*
X176014792Y-89518798D02*
X161814792Y-89518798D01*
X176014792Y-89518798D02*
X176014792Y-92578799D01*
X176014792Y-103718798D02*
X176014791Y-95578798D01*
X169114792Y-93918798D02*
G75*
G02*
X171114792Y-95918798I3J-1999997D01*
G01*
X173014792Y-89718798D02*
G75*
G02*
X175014792Y-91718798I0J-2000000D01*
G01*
D10*
%TO.C,D6*%
X177889993Y-77918398D02*
X178989993Y-77918398D01*
X178039994Y-77318398D02*
X178839993Y-77318398D01*
X178439993Y-77318397D02*
X178439993Y-76818398D01*
X178439993Y-77918399D02*
X178039994Y-77318398D01*
X178439993Y-78318398D02*
X178439993Y-77918399D01*
X178839993Y-77318398D02*
X178439993Y-77918399D01*
%TO.C,D21*%
X168364791Y-135069597D02*
X169464791Y-135069597D01*
X168514792Y-134469597D02*
X169314791Y-134469597D01*
X168914791Y-134469596D02*
X168914791Y-133969597D01*
X168914791Y-135069598D02*
X168514792Y-134469597D01*
X168914791Y-135469597D02*
X168914791Y-135069598D01*
X169314791Y-134469597D02*
X168914791Y-135069598D01*
%TO.C,D17*%
X158839592Y-111256598D02*
X159939592Y-111256598D01*
X158989593Y-110656598D02*
X159789592Y-110656598D01*
X159389592Y-110656597D02*
X159389592Y-110156598D01*
X159389592Y-111256599D02*
X158989593Y-110656598D01*
X159389592Y-111656598D02*
X159389592Y-111256599D01*
X159789592Y-110656598D02*
X159389592Y-111256599D01*
%TO.C,D7*%
X82637993Y-99350097D02*
X83737993Y-99350097D01*
X82787994Y-98750097D02*
X83587993Y-98750097D01*
X83187993Y-98750096D02*
X83187993Y-98250097D01*
X83187993Y-99350098D02*
X82787994Y-98750097D01*
X83187993Y-99750097D02*
X83187993Y-99350098D01*
X83587993Y-98750097D02*
X83187993Y-99350098D01*
D13*
%TO.C,S16*%
X123713992Y-96662699D02*
X123713992Y-97252699D01*
X123713992Y-100122699D02*
X123713992Y-110862699D01*
X123713992Y-110862699D02*
X137913992Y-110862699D01*
X131013992Y-101062699D02*
X129043992Y-101062699D01*
X132343993Y-96862699D02*
X129813992Y-96862699D01*
X134913992Y-96862699D02*
X134323993Y-96862699D01*
X137913992Y-96662699D02*
X123713992Y-96662699D01*
X137913992Y-96662699D02*
X137913992Y-99722700D01*
X137913992Y-110862699D02*
X137913991Y-102722699D01*
X131013992Y-101062699D02*
G75*
G02*
X133013992Y-103062699I3J-1999997D01*
G01*
X134913992Y-96862699D02*
G75*
G02*
X136913992Y-98862699I0J-2000000D01*
G01*
D10*
%TO.C,D16*%
X139789192Y-104112698D02*
X140889192Y-104112698D01*
X139939193Y-103512698D02*
X140739192Y-103512698D01*
X140339192Y-103512697D02*
X140339192Y-103012698D01*
X140339192Y-104112699D02*
X139939193Y-103512698D01*
X140339192Y-104512698D02*
X140339192Y-104112699D01*
X140739192Y-103512698D02*
X140339192Y-104112699D01*
D13*
%TO.C,R4*%
X181204393Y-115517734D02*
X181204393Y-116971862D01*
X183024393Y-115517734D02*
X183024393Y-116971862D01*
%TD*%
M02*
