%TF.GenerationSoftware,KiCad,Pcbnew,9.0.2*%
%TF.CreationDate,2025-07-01T22:27:43-10:00*%
%TF.ProjectId,jug,6a75672e-6b69-4636-9164-5f7063625858,rev?*%
%TF.SameCoordinates,Original*%
%TF.FileFunction,Legend,Bot*%
%TF.FilePolarity,Positive*%
%FSLAX46Y46*%
G04 Gerber Fmt 4.6, Leading zero omitted, Abs format (unit mm)*
G04 Created by KiCad (PCBNEW 9.0.2) date 2025-07-01 22:27:43*
%MOMM*%
%LPD*%
G01*
G04 APERTURE LIST*
%ADD10C,0.100000*%
%ADD11C,0.150000*%
%ADD12C,0.000000*%
%ADD13C,0.120000*%
G04 APERTURE END LIST*
D10*
X192617877Y-109884718D02*
X192665496Y-109837099D01*
X192665496Y-109837099D02*
X192617877Y-109789479D01*
X192617877Y-109789479D02*
X192570258Y-109837099D01*
X192570258Y-109837099D02*
X192617877Y-109884718D01*
X192617877Y-109884718D02*
X192617877Y-109789479D01*
X192617877Y-110408527D02*
X192665496Y-110360908D01*
X192665496Y-110360908D02*
X192617877Y-110313289D01*
X192617877Y-110313289D02*
X192570258Y-110360908D01*
X192570258Y-110360908D02*
X192617877Y-110408527D01*
X192617877Y-110408527D02*
X192617877Y-110313289D01*
X193094067Y-109789479D02*
X193094067Y-110789479D01*
X193094067Y-110789479D02*
X193332162Y-110789479D01*
X193332162Y-110789479D02*
X193475019Y-110741860D01*
X193475019Y-110741860D02*
X193570257Y-110646622D01*
X193570257Y-110646622D02*
X193617876Y-110551384D01*
X193617876Y-110551384D02*
X193665495Y-110360908D01*
X193665495Y-110360908D02*
X193665495Y-110218051D01*
X193665495Y-110218051D02*
X193617876Y-110027575D01*
X193617876Y-110027575D02*
X193570257Y-109932337D01*
X193570257Y-109932337D02*
X193475019Y-109837099D01*
X193475019Y-109837099D02*
X193332162Y-109789479D01*
X193332162Y-109789479D02*
X193094067Y-109789479D01*
X188192630Y-79269041D02*
X188240249Y-79411898D01*
X188240249Y-79411898D02*
X188287868Y-79459517D01*
X188287868Y-79459517D02*
X188383106Y-79507136D01*
X188383106Y-79507136D02*
X188525963Y-79507136D01*
X188525963Y-79507136D02*
X188621201Y-79459517D01*
X188621201Y-79459517D02*
X188668821Y-79411898D01*
X188668821Y-79411898D02*
X188716440Y-79316660D01*
X188716440Y-79316660D02*
X188716440Y-78935708D01*
X188716440Y-78935708D02*
X187716440Y-78935708D01*
X187716440Y-78935708D02*
X187716440Y-79269041D01*
X187716440Y-79269041D02*
X187764059Y-79364279D01*
X187764059Y-79364279D02*
X187811678Y-79411898D01*
X187811678Y-79411898D02*
X187906916Y-79459517D01*
X187906916Y-79459517D02*
X188002154Y-79459517D01*
X188002154Y-79459517D02*
X188097392Y-79411898D01*
X188097392Y-79411898D02*
X188145011Y-79364279D01*
X188145011Y-79364279D02*
X188192630Y-79269041D01*
X188192630Y-79269041D02*
X188192630Y-78935708D01*
X188716440Y-79935708D02*
X188049773Y-79935708D01*
X188240249Y-79935708D02*
X188145011Y-79983327D01*
X188145011Y-79983327D02*
X188097392Y-80030946D01*
X188097392Y-80030946D02*
X188049773Y-80126184D01*
X188049773Y-80126184D02*
X188049773Y-80221422D01*
X188716440Y-80554756D02*
X188049773Y-80554756D01*
X187716440Y-80554756D02*
X187764059Y-80507137D01*
X187764059Y-80507137D02*
X187811678Y-80554756D01*
X187811678Y-80554756D02*
X187764059Y-80602375D01*
X187764059Y-80602375D02*
X187716440Y-80554756D01*
X187716440Y-80554756D02*
X187811678Y-80554756D01*
X188716440Y-81459517D02*
X187716440Y-81459517D01*
X188668821Y-81459517D02*
X188716440Y-81364279D01*
X188716440Y-81364279D02*
X188716440Y-81173803D01*
X188716440Y-81173803D02*
X188668821Y-81078565D01*
X188668821Y-81078565D02*
X188621201Y-81030946D01*
X188621201Y-81030946D02*
X188525963Y-80983327D01*
X188525963Y-80983327D02*
X188240249Y-80983327D01*
X188240249Y-80983327D02*
X188145011Y-81030946D01*
X188145011Y-81030946D02*
X188097392Y-81078565D01*
X188097392Y-81078565D02*
X188049773Y-81173803D01*
X188049773Y-81173803D02*
X188049773Y-81364279D01*
X188049773Y-81364279D02*
X188097392Y-81459517D01*
X188049773Y-82364279D02*
X188859297Y-82364279D01*
X188859297Y-82364279D02*
X188954535Y-82316660D01*
X188954535Y-82316660D02*
X189002154Y-82269041D01*
X189002154Y-82269041D02*
X189049773Y-82173803D01*
X189049773Y-82173803D02*
X189049773Y-82030946D01*
X189049773Y-82030946D02*
X189002154Y-81935708D01*
X188668821Y-82364279D02*
X188716440Y-82269041D01*
X188716440Y-82269041D02*
X188716440Y-82078565D01*
X188716440Y-82078565D02*
X188668821Y-81983327D01*
X188668821Y-81983327D02*
X188621201Y-81935708D01*
X188621201Y-81935708D02*
X188525963Y-81888089D01*
X188525963Y-81888089D02*
X188240249Y-81888089D01*
X188240249Y-81888089D02*
X188145011Y-81935708D01*
X188145011Y-81935708D02*
X188097392Y-81983327D01*
X188097392Y-81983327D02*
X188049773Y-82078565D01*
X188049773Y-82078565D02*
X188049773Y-82269041D01*
X188049773Y-82269041D02*
X188097392Y-82364279D01*
X188668821Y-83221422D02*
X188716440Y-83126184D01*
X188716440Y-83126184D02*
X188716440Y-82935708D01*
X188716440Y-82935708D02*
X188668821Y-82840470D01*
X188668821Y-82840470D02*
X188573582Y-82792851D01*
X188573582Y-82792851D02*
X188192630Y-82792851D01*
X188192630Y-82792851D02*
X188097392Y-82840470D01*
X188097392Y-82840470D02*
X188049773Y-82935708D01*
X188049773Y-82935708D02*
X188049773Y-83126184D01*
X188049773Y-83126184D02*
X188097392Y-83221422D01*
X188097392Y-83221422D02*
X188192630Y-83269041D01*
X188192630Y-83269041D02*
X188287868Y-83269041D01*
X188287868Y-83269041D02*
X188383106Y-82792851D01*
X188049773Y-84459518D02*
X188906916Y-84459518D01*
X188906916Y-84459518D02*
X189002154Y-84411899D01*
X189002154Y-84411899D02*
X189049773Y-84316661D01*
X189049773Y-84316661D02*
X189049773Y-84269042D01*
X187716440Y-84459518D02*
X187764059Y-84411899D01*
X187764059Y-84411899D02*
X187811678Y-84459518D01*
X187811678Y-84459518D02*
X187764059Y-84507137D01*
X187764059Y-84507137D02*
X187716440Y-84459518D01*
X187716440Y-84459518D02*
X187811678Y-84459518D01*
X188049773Y-85364279D02*
X188716440Y-85364279D01*
X188049773Y-84935708D02*
X188573582Y-84935708D01*
X188573582Y-84935708D02*
X188668821Y-84983327D01*
X188668821Y-84983327D02*
X188716440Y-85078565D01*
X188716440Y-85078565D02*
X188716440Y-85221422D01*
X188716440Y-85221422D02*
X188668821Y-85316660D01*
X188668821Y-85316660D02*
X188621201Y-85364279D01*
X188716440Y-85840470D02*
X188049773Y-85840470D01*
X188145011Y-85840470D02*
X188097392Y-85888089D01*
X188097392Y-85888089D02*
X188049773Y-85983327D01*
X188049773Y-85983327D02*
X188049773Y-86126184D01*
X188049773Y-86126184D02*
X188097392Y-86221422D01*
X188097392Y-86221422D02*
X188192630Y-86269041D01*
X188192630Y-86269041D02*
X188716440Y-86269041D01*
X188192630Y-86269041D02*
X188097392Y-86316660D01*
X188097392Y-86316660D02*
X188049773Y-86411898D01*
X188049773Y-86411898D02*
X188049773Y-86554755D01*
X188049773Y-86554755D02*
X188097392Y-86649994D01*
X188097392Y-86649994D02*
X188192630Y-86697613D01*
X188192630Y-86697613D02*
X188716440Y-86697613D01*
X188049773Y-87173803D02*
X189049773Y-87173803D01*
X188097392Y-87173803D02*
X188049773Y-87269041D01*
X188049773Y-87269041D02*
X188049773Y-87459517D01*
X188049773Y-87459517D02*
X188097392Y-87554755D01*
X188097392Y-87554755D02*
X188145011Y-87602374D01*
X188145011Y-87602374D02*
X188240249Y-87649993D01*
X188240249Y-87649993D02*
X188525963Y-87649993D01*
X188525963Y-87649993D02*
X188621201Y-87602374D01*
X188621201Y-87602374D02*
X188668821Y-87554755D01*
X188668821Y-87554755D02*
X188716440Y-87459517D01*
X188716440Y-87459517D02*
X188716440Y-87269041D01*
X188716440Y-87269041D02*
X188668821Y-87173803D01*
X188668821Y-88459517D02*
X188716440Y-88364279D01*
X188716440Y-88364279D02*
X188716440Y-88173803D01*
X188716440Y-88173803D02*
X188668821Y-88078565D01*
X188668821Y-88078565D02*
X188573582Y-88030946D01*
X188573582Y-88030946D02*
X188192630Y-88030946D01*
X188192630Y-88030946D02*
X188097392Y-88078565D01*
X188097392Y-88078565D02*
X188049773Y-88173803D01*
X188049773Y-88173803D02*
X188049773Y-88364279D01*
X188049773Y-88364279D02*
X188097392Y-88459517D01*
X188097392Y-88459517D02*
X188192630Y-88507136D01*
X188192630Y-88507136D02*
X188287868Y-88507136D01*
X188287868Y-88507136D02*
X188383106Y-88030946D01*
X188716440Y-88935708D02*
X188049773Y-88935708D01*
X188240249Y-88935708D02*
X188145011Y-88983327D01*
X188145011Y-88983327D02*
X188097392Y-89030946D01*
X188097392Y-89030946D02*
X188049773Y-89126184D01*
X188049773Y-89126184D02*
X188049773Y-89221422D01*
X188668821Y-89507137D02*
X188716440Y-89602375D01*
X188716440Y-89602375D02*
X188716440Y-89792851D01*
X188716440Y-89792851D02*
X188668821Y-89888089D01*
X188668821Y-89888089D02*
X188573582Y-89935708D01*
X188573582Y-89935708D02*
X188525963Y-89935708D01*
X188525963Y-89935708D02*
X188430725Y-89888089D01*
X188430725Y-89888089D02*
X188383106Y-89792851D01*
X188383106Y-89792851D02*
X188383106Y-89649994D01*
X188383106Y-89649994D02*
X188335487Y-89554756D01*
X188335487Y-89554756D02*
X188240249Y-89507137D01*
X188240249Y-89507137D02*
X188192630Y-89507137D01*
X188192630Y-89507137D02*
X188097392Y-89554756D01*
X188097392Y-89554756D02*
X188049773Y-89649994D01*
X188049773Y-89649994D02*
X188049773Y-89792851D01*
X188049773Y-89792851D02*
X188097392Y-89888089D01*
X190326384Y-78126184D02*
X190278765Y-78030946D01*
X190278765Y-78030946D02*
X190231145Y-77983327D01*
X190231145Y-77983327D02*
X190135907Y-77935708D01*
X190135907Y-77935708D02*
X189850193Y-77935708D01*
X189850193Y-77935708D02*
X189754955Y-77983327D01*
X189754955Y-77983327D02*
X189707336Y-78030946D01*
X189707336Y-78030946D02*
X189659717Y-78126184D01*
X189659717Y-78126184D02*
X189659717Y-78269041D01*
X189659717Y-78269041D02*
X189707336Y-78364279D01*
X189707336Y-78364279D02*
X189754955Y-78411898D01*
X189754955Y-78411898D02*
X189850193Y-78459517D01*
X189850193Y-78459517D02*
X190135907Y-78459517D01*
X190135907Y-78459517D02*
X190231145Y-78411898D01*
X190231145Y-78411898D02*
X190278765Y-78364279D01*
X190278765Y-78364279D02*
X190326384Y-78269041D01*
X190326384Y-78269041D02*
X190326384Y-78126184D01*
X189659717Y-78888089D02*
X190326384Y-78888089D01*
X189754955Y-78888089D02*
X189707336Y-78935708D01*
X189707336Y-78935708D02*
X189659717Y-79030946D01*
X189659717Y-79030946D02*
X189659717Y-79173803D01*
X189659717Y-79173803D02*
X189707336Y-79269041D01*
X189707336Y-79269041D02*
X189802574Y-79316660D01*
X189802574Y-79316660D02*
X190326384Y-79316660D01*
X190278765Y-80507137D02*
X190326384Y-80602375D01*
X190326384Y-80602375D02*
X190326384Y-80792851D01*
X190326384Y-80792851D02*
X190278765Y-80888089D01*
X190278765Y-80888089D02*
X190183526Y-80935708D01*
X190183526Y-80935708D02*
X190135907Y-80935708D01*
X190135907Y-80935708D02*
X190040669Y-80888089D01*
X190040669Y-80888089D02*
X189993050Y-80792851D01*
X189993050Y-80792851D02*
X189993050Y-80649994D01*
X189993050Y-80649994D02*
X189945431Y-80554756D01*
X189945431Y-80554756D02*
X189850193Y-80507137D01*
X189850193Y-80507137D02*
X189802574Y-80507137D01*
X189802574Y-80507137D02*
X189707336Y-80554756D01*
X189707336Y-80554756D02*
X189659717Y-80649994D01*
X189659717Y-80649994D02*
X189659717Y-80792851D01*
X189659717Y-80792851D02*
X189707336Y-80888089D01*
X190326384Y-81364280D02*
X189659717Y-81364280D01*
X189326384Y-81364280D02*
X189374003Y-81316661D01*
X189374003Y-81316661D02*
X189421622Y-81364280D01*
X189421622Y-81364280D02*
X189374003Y-81411899D01*
X189374003Y-81411899D02*
X189326384Y-81364280D01*
X189326384Y-81364280D02*
X189421622Y-81364280D01*
X190326384Y-82269041D02*
X189326384Y-82269041D01*
X190278765Y-82269041D02*
X190326384Y-82173803D01*
X190326384Y-82173803D02*
X190326384Y-81983327D01*
X190326384Y-81983327D02*
X190278765Y-81888089D01*
X190278765Y-81888089D02*
X190231145Y-81840470D01*
X190231145Y-81840470D02*
X190135907Y-81792851D01*
X190135907Y-81792851D02*
X189850193Y-81792851D01*
X189850193Y-81792851D02*
X189754955Y-81840470D01*
X189754955Y-81840470D02*
X189707336Y-81888089D01*
X189707336Y-81888089D02*
X189659717Y-81983327D01*
X189659717Y-81983327D02*
X189659717Y-82173803D01*
X189659717Y-82173803D02*
X189707336Y-82269041D01*
X190278765Y-83126184D02*
X190326384Y-83030946D01*
X190326384Y-83030946D02*
X190326384Y-82840470D01*
X190326384Y-82840470D02*
X190278765Y-82745232D01*
X190278765Y-82745232D02*
X190183526Y-82697613D01*
X190183526Y-82697613D02*
X189802574Y-82697613D01*
X189802574Y-82697613D02*
X189707336Y-82745232D01*
X189707336Y-82745232D02*
X189659717Y-82840470D01*
X189659717Y-82840470D02*
X189659717Y-83030946D01*
X189659717Y-83030946D02*
X189707336Y-83126184D01*
X189707336Y-83126184D02*
X189802574Y-83173803D01*
X189802574Y-83173803D02*
X189897812Y-83173803D01*
X189897812Y-83173803D02*
X189993050Y-82697613D01*
X189659717Y-84269042D02*
X190326384Y-84459518D01*
X190326384Y-84459518D02*
X189850193Y-84649994D01*
X189850193Y-84649994D02*
X190326384Y-84840470D01*
X190326384Y-84840470D02*
X189659717Y-85030946D01*
X190326384Y-85411899D02*
X189659717Y-85411899D01*
X189326384Y-85411899D02*
X189374003Y-85364280D01*
X189374003Y-85364280D02*
X189421622Y-85411899D01*
X189421622Y-85411899D02*
X189374003Y-85459518D01*
X189374003Y-85459518D02*
X189326384Y-85411899D01*
X189326384Y-85411899D02*
X189421622Y-85411899D01*
X189659717Y-85745232D02*
X189659717Y-86126184D01*
X189326384Y-85888089D02*
X190183526Y-85888089D01*
X190183526Y-85888089D02*
X190278765Y-85935708D01*
X190278765Y-85935708D02*
X190326384Y-86030946D01*
X190326384Y-86030946D02*
X190326384Y-86126184D01*
X190326384Y-86459518D02*
X189326384Y-86459518D01*
X190326384Y-86888089D02*
X189802574Y-86888089D01*
X189802574Y-86888089D02*
X189707336Y-86840470D01*
X189707336Y-86840470D02*
X189659717Y-86745232D01*
X189659717Y-86745232D02*
X189659717Y-86602375D01*
X189659717Y-86602375D02*
X189707336Y-86507137D01*
X189707336Y-86507137D02*
X189754955Y-86459518D01*
X190326384Y-88126185D02*
X189326384Y-88126185D01*
X189326384Y-88126185D02*
X190040669Y-88459518D01*
X190040669Y-88459518D02*
X189326384Y-88792851D01*
X189326384Y-88792851D02*
X190326384Y-88792851D01*
X190231145Y-89840470D02*
X190278765Y-89792851D01*
X190278765Y-89792851D02*
X190326384Y-89649994D01*
X190326384Y-89649994D02*
X190326384Y-89554756D01*
X190326384Y-89554756D02*
X190278765Y-89411899D01*
X190278765Y-89411899D02*
X190183526Y-89316661D01*
X190183526Y-89316661D02*
X190088288Y-89269042D01*
X190088288Y-89269042D02*
X189897812Y-89221423D01*
X189897812Y-89221423D02*
X189754955Y-89221423D01*
X189754955Y-89221423D02*
X189564479Y-89269042D01*
X189564479Y-89269042D02*
X189469241Y-89316661D01*
X189469241Y-89316661D02*
X189374003Y-89411899D01*
X189374003Y-89411899D02*
X189326384Y-89554756D01*
X189326384Y-89554756D02*
X189326384Y-89649994D01*
X189326384Y-89649994D02*
X189374003Y-89792851D01*
X189374003Y-89792851D02*
X189421622Y-89840470D01*
X189326384Y-90269042D02*
X190135907Y-90269042D01*
X190135907Y-90269042D02*
X190231145Y-90316661D01*
X190231145Y-90316661D02*
X190278765Y-90364280D01*
X190278765Y-90364280D02*
X190326384Y-90459518D01*
X190326384Y-90459518D02*
X190326384Y-90649994D01*
X190326384Y-90649994D02*
X190278765Y-90745232D01*
X190278765Y-90745232D02*
X190231145Y-90792851D01*
X190231145Y-90792851D02*
X190135907Y-90840470D01*
X190135907Y-90840470D02*
X189326384Y-90840470D01*
X194916840Y-106325750D02*
X195726363Y-106325750D01*
X195726363Y-106325750D02*
X195821601Y-106373369D01*
X195821601Y-106373369D02*
X195869221Y-106420988D01*
X195869221Y-106420988D02*
X195916840Y-106516226D01*
X195916840Y-106516226D02*
X195916840Y-106706702D01*
X195916840Y-106706702D02*
X195869221Y-106801940D01*
X195869221Y-106801940D02*
X195821601Y-106849559D01*
X195821601Y-106849559D02*
X195726363Y-106897178D01*
X195726363Y-106897178D02*
X194916840Y-106897178D01*
X195869221Y-107325750D02*
X195916840Y-107468607D01*
X195916840Y-107468607D02*
X195916840Y-107706702D01*
X195916840Y-107706702D02*
X195869221Y-107801940D01*
X195869221Y-107801940D02*
X195821601Y-107849559D01*
X195821601Y-107849559D02*
X195726363Y-107897178D01*
X195726363Y-107897178D02*
X195631125Y-107897178D01*
X195631125Y-107897178D02*
X195535887Y-107849559D01*
X195535887Y-107849559D02*
X195488268Y-107801940D01*
X195488268Y-107801940D02*
X195440649Y-107706702D01*
X195440649Y-107706702D02*
X195393030Y-107516226D01*
X195393030Y-107516226D02*
X195345411Y-107420988D01*
X195345411Y-107420988D02*
X195297792Y-107373369D01*
X195297792Y-107373369D02*
X195202554Y-107325750D01*
X195202554Y-107325750D02*
X195107316Y-107325750D01*
X195107316Y-107325750D02*
X195012078Y-107373369D01*
X195012078Y-107373369D02*
X194964459Y-107420988D01*
X194964459Y-107420988D02*
X194916840Y-107516226D01*
X194916840Y-107516226D02*
X194916840Y-107754321D01*
X194916840Y-107754321D02*
X194964459Y-107897178D01*
X195393030Y-108659083D02*
X195440649Y-108801940D01*
X195440649Y-108801940D02*
X195488268Y-108849559D01*
X195488268Y-108849559D02*
X195583506Y-108897178D01*
X195583506Y-108897178D02*
X195726363Y-108897178D01*
X195726363Y-108897178D02*
X195821601Y-108849559D01*
X195821601Y-108849559D02*
X195869221Y-108801940D01*
X195869221Y-108801940D02*
X195916840Y-108706702D01*
X195916840Y-108706702D02*
X195916840Y-108325750D01*
X195916840Y-108325750D02*
X194916840Y-108325750D01*
X194916840Y-108325750D02*
X194916840Y-108659083D01*
X194916840Y-108659083D02*
X194964459Y-108754321D01*
X194964459Y-108754321D02*
X195012078Y-108801940D01*
X195012078Y-108801940D02*
X195107316Y-108849559D01*
X195107316Y-108849559D02*
X195202554Y-108849559D01*
X195202554Y-108849559D02*
X195297792Y-108801940D01*
X195297792Y-108801940D02*
X195345411Y-108754321D01*
X195345411Y-108754321D02*
X195393030Y-108659083D01*
X195393030Y-108659083D02*
X195393030Y-108325750D01*
X195916840Y-110230512D02*
X195869221Y-110135274D01*
X195869221Y-110135274D02*
X195821601Y-110087655D01*
X195821601Y-110087655D02*
X195726363Y-110040036D01*
X195726363Y-110040036D02*
X195440649Y-110040036D01*
X195440649Y-110040036D02*
X195345411Y-110087655D01*
X195345411Y-110087655D02*
X195297792Y-110135274D01*
X195297792Y-110135274D02*
X195250173Y-110230512D01*
X195250173Y-110230512D02*
X195250173Y-110373369D01*
X195250173Y-110373369D02*
X195297792Y-110468607D01*
X195297792Y-110468607D02*
X195345411Y-110516226D01*
X195345411Y-110516226D02*
X195440649Y-110563845D01*
X195440649Y-110563845D02*
X195726363Y-110563845D01*
X195726363Y-110563845D02*
X195821601Y-110516226D01*
X195821601Y-110516226D02*
X195869221Y-110468607D01*
X195869221Y-110468607D02*
X195916840Y-110373369D01*
X195916840Y-110373369D02*
X195916840Y-110230512D01*
X195250173Y-110992417D02*
X195916840Y-110992417D01*
X195345411Y-110992417D02*
X195297792Y-111040036D01*
X195297792Y-111040036D02*
X195250173Y-111135274D01*
X195250173Y-111135274D02*
X195250173Y-111278131D01*
X195250173Y-111278131D02*
X195297792Y-111373369D01*
X195297792Y-111373369D02*
X195393030Y-111420988D01*
X195393030Y-111420988D02*
X195916840Y-111420988D01*
X195250173Y-112516227D02*
X195250173Y-112897179D01*
X194916840Y-112659084D02*
X195773982Y-112659084D01*
X195773982Y-112659084D02*
X195869221Y-112706703D01*
X195869221Y-112706703D02*
X195916840Y-112801941D01*
X195916840Y-112801941D02*
X195916840Y-112897179D01*
X195916840Y-113373370D02*
X195869221Y-113278132D01*
X195869221Y-113278132D02*
X195821601Y-113230513D01*
X195821601Y-113230513D02*
X195726363Y-113182894D01*
X195726363Y-113182894D02*
X195440649Y-113182894D01*
X195440649Y-113182894D02*
X195345411Y-113230513D01*
X195345411Y-113230513D02*
X195297792Y-113278132D01*
X195297792Y-113278132D02*
X195250173Y-113373370D01*
X195250173Y-113373370D02*
X195250173Y-113516227D01*
X195250173Y-113516227D02*
X195297792Y-113611465D01*
X195297792Y-113611465D02*
X195345411Y-113659084D01*
X195345411Y-113659084D02*
X195440649Y-113706703D01*
X195440649Y-113706703D02*
X195726363Y-113706703D01*
X195726363Y-113706703D02*
X195821601Y-113659084D01*
X195821601Y-113659084D02*
X195869221Y-113611465D01*
X195869221Y-113611465D02*
X195916840Y-113516227D01*
X195916840Y-113516227D02*
X195916840Y-113373370D01*
X195250173Y-114135275D02*
X196250173Y-114135275D01*
X195297792Y-114135275D02*
X195250173Y-114230513D01*
X195250173Y-114230513D02*
X195250173Y-114420989D01*
X195250173Y-114420989D02*
X195297792Y-114516227D01*
X195297792Y-114516227D02*
X195345411Y-114563846D01*
X195345411Y-114563846D02*
X195440649Y-114611465D01*
X195440649Y-114611465D02*
X195726363Y-114611465D01*
X195726363Y-114611465D02*
X195821601Y-114563846D01*
X195821601Y-114563846D02*
X195869221Y-114516227D01*
X195869221Y-114516227D02*
X195916840Y-114420989D01*
X195916840Y-114420989D02*
X195916840Y-114230513D01*
X195916840Y-114230513D02*
X195869221Y-114135275D01*
X197526784Y-108206702D02*
X197479165Y-108111464D01*
X197479165Y-108111464D02*
X197431545Y-108063845D01*
X197431545Y-108063845D02*
X197336307Y-108016226D01*
X197336307Y-108016226D02*
X197050593Y-108016226D01*
X197050593Y-108016226D02*
X196955355Y-108063845D01*
X196955355Y-108063845D02*
X196907736Y-108111464D01*
X196907736Y-108111464D02*
X196860117Y-108206702D01*
X196860117Y-108206702D02*
X196860117Y-108349559D01*
X196860117Y-108349559D02*
X196907736Y-108444797D01*
X196907736Y-108444797D02*
X196955355Y-108492416D01*
X196955355Y-108492416D02*
X197050593Y-108540035D01*
X197050593Y-108540035D02*
X197336307Y-108540035D01*
X197336307Y-108540035D02*
X197431545Y-108492416D01*
X197431545Y-108492416D02*
X197479165Y-108444797D01*
X197479165Y-108444797D02*
X197526784Y-108349559D01*
X197526784Y-108349559D02*
X197526784Y-108206702D01*
X196860117Y-108825750D02*
X196860117Y-109206702D01*
X197526784Y-108968607D02*
X196669641Y-108968607D01*
X196669641Y-108968607D02*
X196574403Y-109016226D01*
X196574403Y-109016226D02*
X196526784Y-109111464D01*
X196526784Y-109111464D02*
X196526784Y-109206702D01*
X197526784Y-110301941D02*
X196526784Y-110301941D01*
X196526784Y-110301941D02*
X196526784Y-110682893D01*
X196526784Y-110682893D02*
X196574403Y-110778131D01*
X196574403Y-110778131D02*
X196622022Y-110825750D01*
X196622022Y-110825750D02*
X196717260Y-110873369D01*
X196717260Y-110873369D02*
X196860117Y-110873369D01*
X196860117Y-110873369D02*
X196955355Y-110825750D01*
X196955355Y-110825750D02*
X197002974Y-110778131D01*
X197002974Y-110778131D02*
X197050593Y-110682893D01*
X197050593Y-110682893D02*
X197050593Y-110301941D01*
X197431545Y-111873369D02*
X197479165Y-111825750D01*
X197479165Y-111825750D02*
X197526784Y-111682893D01*
X197526784Y-111682893D02*
X197526784Y-111587655D01*
X197526784Y-111587655D02*
X197479165Y-111444798D01*
X197479165Y-111444798D02*
X197383926Y-111349560D01*
X197383926Y-111349560D02*
X197288688Y-111301941D01*
X197288688Y-111301941D02*
X197098212Y-111254322D01*
X197098212Y-111254322D02*
X196955355Y-111254322D01*
X196955355Y-111254322D02*
X196764879Y-111301941D01*
X196764879Y-111301941D02*
X196669641Y-111349560D01*
X196669641Y-111349560D02*
X196574403Y-111444798D01*
X196574403Y-111444798D02*
X196526784Y-111587655D01*
X196526784Y-111587655D02*
X196526784Y-111682893D01*
X196526784Y-111682893D02*
X196574403Y-111825750D01*
X196574403Y-111825750D02*
X196622022Y-111873369D01*
X197002974Y-112635274D02*
X197050593Y-112778131D01*
X197050593Y-112778131D02*
X197098212Y-112825750D01*
X197098212Y-112825750D02*
X197193450Y-112873369D01*
X197193450Y-112873369D02*
X197336307Y-112873369D01*
X197336307Y-112873369D02*
X197431545Y-112825750D01*
X197431545Y-112825750D02*
X197479165Y-112778131D01*
X197479165Y-112778131D02*
X197526784Y-112682893D01*
X197526784Y-112682893D02*
X197526784Y-112301941D01*
X197526784Y-112301941D02*
X196526784Y-112301941D01*
X196526784Y-112301941D02*
X196526784Y-112635274D01*
X196526784Y-112635274D02*
X196574403Y-112730512D01*
X196574403Y-112730512D02*
X196622022Y-112778131D01*
X196622022Y-112778131D02*
X196717260Y-112825750D01*
X196717260Y-112825750D02*
X196812498Y-112825750D01*
X196812498Y-112825750D02*
X196907736Y-112778131D01*
X196907736Y-112778131D02*
X196955355Y-112730512D01*
X196955355Y-112730512D02*
X197002974Y-112635274D01*
X197002974Y-112635274D02*
X197002974Y-112301941D01*
D11*
X181819725Y-109722416D02*
X181819725Y-110436701D01*
X181819725Y-110436701D02*
X181867344Y-110579558D01*
X181867344Y-110579558D02*
X181962582Y-110674797D01*
X181962582Y-110674797D02*
X182105439Y-110722416D01*
X182105439Y-110722416D02*
X182200677Y-110722416D01*
X181343534Y-110722416D02*
X181343534Y-109722416D01*
X181343534Y-109722416D02*
X180962582Y-109722416D01*
X180962582Y-109722416D02*
X180867344Y-109770035D01*
X180867344Y-109770035D02*
X180819725Y-109817654D01*
X180819725Y-109817654D02*
X180772106Y-109912892D01*
X180772106Y-109912892D02*
X180772106Y-110055749D01*
X180772106Y-110055749D02*
X180819725Y-110150987D01*
X180819725Y-110150987D02*
X180867344Y-110198606D01*
X180867344Y-110198606D02*
X180962582Y-110246225D01*
X180962582Y-110246225D02*
X181343534Y-110246225D01*
X180438772Y-109722416D02*
X179772106Y-109722416D01*
X179772106Y-109722416D02*
X180200677Y-110722416D01*
X181819725Y-106322417D02*
X181819725Y-107036702D01*
X181819725Y-107036702D02*
X181867344Y-107179559D01*
X181867344Y-107179559D02*
X181962582Y-107274798D01*
X181962582Y-107274798D02*
X182105439Y-107322417D01*
X182105439Y-107322417D02*
X182200677Y-107322417D01*
X181343534Y-107322417D02*
X181343534Y-106322417D01*
X181343534Y-106322417D02*
X180962582Y-106322417D01*
X180962582Y-106322417D02*
X180867344Y-106370036D01*
X180867344Y-106370036D02*
X180819725Y-106417655D01*
X180819725Y-106417655D02*
X180772106Y-106512893D01*
X180772106Y-106512893D02*
X180772106Y-106655750D01*
X180772106Y-106655750D02*
X180819725Y-106750988D01*
X180819725Y-106750988D02*
X180867344Y-106798607D01*
X180867344Y-106798607D02*
X180962582Y-106846226D01*
X180962582Y-106846226D02*
X181343534Y-106846226D01*
X180438772Y-106322417D02*
X179819725Y-106322417D01*
X179819725Y-106322417D02*
X180153058Y-106703369D01*
X180153058Y-106703369D02*
X180010201Y-106703369D01*
X180010201Y-106703369D02*
X179914963Y-106750988D01*
X179914963Y-106750988D02*
X179867344Y-106798607D01*
X179867344Y-106798607D02*
X179819725Y-106893845D01*
X179819725Y-106893845D02*
X179819725Y-107131940D01*
X179819725Y-107131940D02*
X179867344Y-107227178D01*
X179867344Y-107227178D02*
X179914963Y-107274798D01*
X179914963Y-107274798D02*
X180010201Y-107322417D01*
X180010201Y-107322417D02*
X180295915Y-107322417D01*
X180295915Y-107322417D02*
X180391153Y-107274798D01*
X180391153Y-107274798D02*
X180438772Y-107227178D01*
X193399211Y-95030512D02*
X192399211Y-95030512D01*
X192399211Y-95030512D02*
X192399211Y-95268607D01*
X192399211Y-95268607D02*
X192446830Y-95411464D01*
X192446830Y-95411464D02*
X192542068Y-95506702D01*
X192542068Y-95506702D02*
X192637306Y-95554321D01*
X192637306Y-95554321D02*
X192827782Y-95601940D01*
X192827782Y-95601940D02*
X192970639Y-95601940D01*
X192970639Y-95601940D02*
X193161115Y-95554321D01*
X193161115Y-95554321D02*
X193256353Y-95506702D01*
X193256353Y-95506702D02*
X193351592Y-95411464D01*
X193351592Y-95411464D02*
X193399211Y-95268607D01*
X193399211Y-95268607D02*
X193399211Y-95030512D01*
X192494449Y-95982893D02*
X192446830Y-96030512D01*
X192446830Y-96030512D02*
X192399211Y-96125750D01*
X192399211Y-96125750D02*
X192399211Y-96363845D01*
X192399211Y-96363845D02*
X192446830Y-96459083D01*
X192446830Y-96459083D02*
X192494449Y-96506702D01*
X192494449Y-96506702D02*
X192589687Y-96554321D01*
X192589687Y-96554321D02*
X192684925Y-96554321D01*
X192684925Y-96554321D02*
X192827782Y-96506702D01*
X192827782Y-96506702D02*
X193399211Y-95935274D01*
X193399211Y-95935274D02*
X193399211Y-96554321D01*
X192399211Y-97411464D02*
X192399211Y-97220988D01*
X192399211Y-97220988D02*
X192446830Y-97125750D01*
X192446830Y-97125750D02*
X192494449Y-97078131D01*
X192494449Y-97078131D02*
X192637306Y-96982893D01*
X192637306Y-96982893D02*
X192827782Y-96935274D01*
X192827782Y-96935274D02*
X193208734Y-96935274D01*
X193208734Y-96935274D02*
X193303972Y-96982893D01*
X193303972Y-96982893D02*
X193351592Y-97030512D01*
X193351592Y-97030512D02*
X193399211Y-97125750D01*
X193399211Y-97125750D02*
X193399211Y-97316226D01*
X193399211Y-97316226D02*
X193351592Y-97411464D01*
X193351592Y-97411464D02*
X193303972Y-97459083D01*
X193303972Y-97459083D02*
X193208734Y-97506702D01*
X193208734Y-97506702D02*
X192970639Y-97506702D01*
X192970639Y-97506702D02*
X192875401Y-97459083D01*
X192875401Y-97459083D02*
X192827782Y-97411464D01*
X192827782Y-97411464D02*
X192780163Y-97316226D01*
X192780163Y-97316226D02*
X192780163Y-97125750D01*
X192780163Y-97125750D02*
X192827782Y-97030512D01*
X192827782Y-97030512D02*
X192875401Y-96982893D01*
X192875401Y-96982893D02*
X192970639Y-96935274D01*
X185619725Y-109722416D02*
X185619725Y-110436701D01*
X185619725Y-110436701D02*
X185667344Y-110579558D01*
X185667344Y-110579558D02*
X185762582Y-110674797D01*
X185762582Y-110674797D02*
X185905439Y-110722416D01*
X185905439Y-110722416D02*
X186000677Y-110722416D01*
X185143534Y-110722416D02*
X185143534Y-109722416D01*
X185143534Y-109722416D02*
X184762582Y-109722416D01*
X184762582Y-109722416D02*
X184667344Y-109770035D01*
X184667344Y-109770035D02*
X184619725Y-109817654D01*
X184619725Y-109817654D02*
X184572106Y-109912892D01*
X184572106Y-109912892D02*
X184572106Y-110055749D01*
X184572106Y-110055749D02*
X184619725Y-110150987D01*
X184619725Y-110150987D02*
X184667344Y-110198606D01*
X184667344Y-110198606D02*
X184762582Y-110246225D01*
X184762582Y-110246225D02*
X185143534Y-110246225D01*
X184000677Y-110150987D02*
X184095915Y-110103368D01*
X184095915Y-110103368D02*
X184143534Y-110055749D01*
X184143534Y-110055749D02*
X184191153Y-109960511D01*
X184191153Y-109960511D02*
X184191153Y-109912892D01*
X184191153Y-109912892D02*
X184143534Y-109817654D01*
X184143534Y-109817654D02*
X184095915Y-109770035D01*
X184095915Y-109770035D02*
X184000677Y-109722416D01*
X184000677Y-109722416D02*
X183810201Y-109722416D01*
X183810201Y-109722416D02*
X183714963Y-109770035D01*
X183714963Y-109770035D02*
X183667344Y-109817654D01*
X183667344Y-109817654D02*
X183619725Y-109912892D01*
X183619725Y-109912892D02*
X183619725Y-109960511D01*
X183619725Y-109960511D02*
X183667344Y-110055749D01*
X183667344Y-110055749D02*
X183714963Y-110103368D01*
X183714963Y-110103368D02*
X183810201Y-110150987D01*
X183810201Y-110150987D02*
X184000677Y-110150987D01*
X184000677Y-110150987D02*
X184095915Y-110198606D01*
X184095915Y-110198606D02*
X184143534Y-110246225D01*
X184143534Y-110246225D02*
X184191153Y-110341463D01*
X184191153Y-110341463D02*
X184191153Y-110531939D01*
X184191153Y-110531939D02*
X184143534Y-110627177D01*
X184143534Y-110627177D02*
X184095915Y-110674797D01*
X184095915Y-110674797D02*
X184000677Y-110722416D01*
X184000677Y-110722416D02*
X183810201Y-110722416D01*
X183810201Y-110722416D02*
X183714963Y-110674797D01*
X183714963Y-110674797D02*
X183667344Y-110627177D01*
X183667344Y-110627177D02*
X183619725Y-110531939D01*
X183619725Y-110531939D02*
X183619725Y-110341463D01*
X183619725Y-110341463D02*
X183667344Y-110246225D01*
X183667344Y-110246225D02*
X183714963Y-110198606D01*
X183714963Y-110198606D02*
X183810201Y-110150987D01*
X181239213Y-116078131D02*
X180763022Y-115744798D01*
X181239213Y-115506703D02*
X180239213Y-115506703D01*
X180239213Y-115506703D02*
X180239213Y-115887655D01*
X180239213Y-115887655D02*
X180286832Y-115982893D01*
X180286832Y-115982893D02*
X180334451Y-116030512D01*
X180334451Y-116030512D02*
X180429689Y-116078131D01*
X180429689Y-116078131D02*
X180572546Y-116078131D01*
X180572546Y-116078131D02*
X180667784Y-116030512D01*
X180667784Y-116030512D02*
X180715403Y-115982893D01*
X180715403Y-115982893D02*
X180763022Y-115887655D01*
X180763022Y-115887655D02*
X180763022Y-115506703D01*
X180239213Y-116411465D02*
X180239213Y-117030512D01*
X180239213Y-117030512D02*
X180620165Y-116697179D01*
X180620165Y-116697179D02*
X180620165Y-116840036D01*
X180620165Y-116840036D02*
X180667784Y-116935274D01*
X180667784Y-116935274D02*
X180715403Y-116982893D01*
X180715403Y-116982893D02*
X180810641Y-117030512D01*
X180810641Y-117030512D02*
X181048736Y-117030512D01*
X181048736Y-117030512D02*
X181143974Y-116982893D01*
X181143974Y-116982893D02*
X181191594Y-116935274D01*
X181191594Y-116935274D02*
X181239213Y-116840036D01*
X181239213Y-116840036D02*
X181239213Y-116554322D01*
X181239213Y-116554322D02*
X181191594Y-116459084D01*
X181191594Y-116459084D02*
X181143974Y-116411465D01*
X185619724Y-106322417D02*
X185619724Y-107036702D01*
X185619724Y-107036702D02*
X185667343Y-107179559D01*
X185667343Y-107179559D02*
X185762581Y-107274798D01*
X185762581Y-107274798D02*
X185905438Y-107322417D01*
X185905438Y-107322417D02*
X186000676Y-107322417D01*
X185143533Y-107322417D02*
X185143533Y-106322417D01*
X185143533Y-106322417D02*
X184762581Y-106322417D01*
X184762581Y-106322417D02*
X184667343Y-106370036D01*
X184667343Y-106370036D02*
X184619724Y-106417655D01*
X184619724Y-106417655D02*
X184572105Y-106512893D01*
X184572105Y-106512893D02*
X184572105Y-106655750D01*
X184572105Y-106655750D02*
X184619724Y-106750988D01*
X184619724Y-106750988D02*
X184667343Y-106798607D01*
X184667343Y-106798607D02*
X184762581Y-106846226D01*
X184762581Y-106846226D02*
X185143533Y-106846226D01*
X183714962Y-106655750D02*
X183714962Y-107322417D01*
X183953057Y-106274798D02*
X184191152Y-106989083D01*
X184191152Y-106989083D02*
X183572105Y-106989083D01*
X184489213Y-116078131D02*
X184013022Y-115744798D01*
X184489213Y-115506703D02*
X183489213Y-115506703D01*
X183489213Y-115506703D02*
X183489213Y-115887655D01*
X183489213Y-115887655D02*
X183536832Y-115982893D01*
X183536832Y-115982893D02*
X183584451Y-116030512D01*
X183584451Y-116030512D02*
X183679689Y-116078131D01*
X183679689Y-116078131D02*
X183822546Y-116078131D01*
X183822546Y-116078131D02*
X183917784Y-116030512D01*
X183917784Y-116030512D02*
X183965403Y-115982893D01*
X183965403Y-115982893D02*
X184013022Y-115887655D01*
X184013022Y-115887655D02*
X184013022Y-115506703D01*
X184489213Y-117030512D02*
X184489213Y-116459084D01*
X184489213Y-116744798D02*
X183489213Y-116744798D01*
X183489213Y-116744798D02*
X183632070Y-116649560D01*
X183632070Y-116649560D02*
X183727308Y-116554322D01*
X183727308Y-116554322D02*
X183774927Y-116459084D01*
X188149211Y-95030512D02*
X187149211Y-95030512D01*
X187149211Y-95030512D02*
X187149211Y-95268607D01*
X187149211Y-95268607D02*
X187196830Y-95411464D01*
X187196830Y-95411464D02*
X187292068Y-95506702D01*
X187292068Y-95506702D02*
X187387306Y-95554321D01*
X187387306Y-95554321D02*
X187577782Y-95601940D01*
X187577782Y-95601940D02*
X187720639Y-95601940D01*
X187720639Y-95601940D02*
X187911115Y-95554321D01*
X187911115Y-95554321D02*
X188006353Y-95506702D01*
X188006353Y-95506702D02*
X188101592Y-95411464D01*
X188101592Y-95411464D02*
X188149211Y-95268607D01*
X188149211Y-95268607D02*
X188149211Y-95030512D01*
X187244449Y-95982893D02*
X187196830Y-96030512D01*
X187196830Y-96030512D02*
X187149211Y-96125750D01*
X187149211Y-96125750D02*
X187149211Y-96363845D01*
X187149211Y-96363845D02*
X187196830Y-96459083D01*
X187196830Y-96459083D02*
X187244449Y-96506702D01*
X187244449Y-96506702D02*
X187339687Y-96554321D01*
X187339687Y-96554321D02*
X187434925Y-96554321D01*
X187434925Y-96554321D02*
X187577782Y-96506702D01*
X187577782Y-96506702D02*
X188149211Y-95935274D01*
X188149211Y-95935274D02*
X188149211Y-96554321D01*
X187482544Y-97411464D02*
X188149211Y-97411464D01*
X187101592Y-97173369D02*
X187815877Y-96935274D01*
X187815877Y-96935274D02*
X187815877Y-97554321D01*
D12*
%TO.C,G\u002A\u002A\u002A*%
G36*
X190666364Y-71213117D02*
G01*
X190835004Y-71310771D01*
X191002145Y-71407673D01*
X191165791Y-71502670D01*
X191323951Y-71594607D01*
X191474631Y-71682330D01*
X191548633Y-71725490D01*
X191615838Y-71764686D01*
X191745578Y-71840520D01*
X191861858Y-71908678D01*
X191962686Y-71968007D01*
X192046068Y-72017352D01*
X192110011Y-72055559D01*
X192152521Y-72081474D01*
X192171606Y-72093943D01*
X192201016Y-72123635D01*
X192238055Y-72172561D01*
X192270539Y-72226410D01*
X192318173Y-72317872D01*
X192318173Y-72421480D01*
X192318173Y-72552713D01*
X192318173Y-74052126D01*
X192318173Y-75786380D01*
X192270539Y-75877842D01*
X192242366Y-75925193D01*
X192226300Y-75946902D01*
X192205437Y-75975092D01*
X192171606Y-76009743D01*
X192162926Y-76015701D01*
X192128984Y-76036841D01*
X192072850Y-76070659D01*
X191996504Y-76116012D01*
X191901926Y-76171755D01*
X191791097Y-76236747D01*
X191665995Y-76309844D01*
X191528602Y-76389903D01*
X191380897Y-76475783D01*
X191224861Y-76566338D01*
X191062473Y-76660428D01*
X190895714Y-76756908D01*
X190726564Y-76854637D01*
X190557003Y-76952470D01*
X190389010Y-77049265D01*
X190224567Y-77143880D01*
X190065653Y-77235170D01*
X189914249Y-77321994D01*
X189772334Y-77403209D01*
X189641888Y-77477671D01*
X189524892Y-77544237D01*
X189423326Y-77601765D01*
X189339169Y-77649112D01*
X189274403Y-77685134D01*
X189231006Y-77708689D01*
X189210960Y-77718635D01*
X189204871Y-77720678D01*
X189142056Y-77732743D01*
X189066356Y-77736278D01*
X188991281Y-77731318D01*
X188930341Y-77717899D01*
X188921206Y-77713868D01*
X188885523Y-77695480D01*
X188827701Y-77664075D01*
X188749721Y-77620799D01*
X188653568Y-77566803D01*
X188541224Y-77503233D01*
X188414672Y-77431240D01*
X188275894Y-77351971D01*
X188126875Y-77266576D01*
X187969595Y-77176202D01*
X187806039Y-77081998D01*
X187638189Y-76985112D01*
X187628028Y-76979235D01*
X188976453Y-76979235D01*
X188976571Y-76980092D01*
X188990234Y-76994249D01*
X189019695Y-77012396D01*
X189022109Y-77013633D01*
X189054680Y-77028205D01*
X189074658Y-77033513D01*
X189077210Y-77032399D01*
X189100579Y-77019806D01*
X189146355Y-76994183D01*
X189212398Y-76956755D01*
X189296571Y-76908745D01*
X189396733Y-76851380D01*
X189510744Y-76785882D01*
X189636465Y-76713477D01*
X189771757Y-76635389D01*
X189914480Y-76552843D01*
X190742581Y-76073419D01*
X190747168Y-76010160D01*
X190751755Y-75946902D01*
X190650887Y-76003496D01*
X190626449Y-76017238D01*
X190543329Y-76064314D01*
X190446128Y-76119769D01*
X190337314Y-76182165D01*
X190219354Y-76250064D01*
X190094718Y-76322028D01*
X189965871Y-76396618D01*
X189835282Y-76472398D01*
X189705418Y-76547929D01*
X189578747Y-76621773D01*
X189457737Y-76692492D01*
X189344856Y-76758648D01*
X189242570Y-76818803D01*
X189153349Y-76871519D01*
X189079658Y-76915358D01*
X189023967Y-76948883D01*
X188988743Y-76970654D01*
X188976453Y-76979235D01*
X187628028Y-76979235D01*
X187468028Y-76886694D01*
X187297539Y-76787891D01*
X187128705Y-76689853D01*
X186963508Y-76593728D01*
X186803932Y-76500663D01*
X186651960Y-76411809D01*
X186592945Y-76377202D01*
X187935830Y-76377202D01*
X187938376Y-76380645D01*
X187960013Y-76396722D01*
X187998959Y-76421385D01*
X188049419Y-76450876D01*
X188163008Y-76515013D01*
X189456459Y-75767836D01*
X190749910Y-75020659D01*
X190749910Y-74884138D01*
X190749910Y-74747617D01*
X190700865Y-74773617D01*
X190677332Y-74786510D01*
X190628551Y-74813951D01*
X190559529Y-74853207D01*
X190472252Y-74903127D01*
X190368703Y-74962561D01*
X190250865Y-75030358D01*
X190120723Y-75105368D01*
X189980261Y-75186439D01*
X189831462Y-75272422D01*
X189676311Y-75362165D01*
X189516791Y-75454519D01*
X189354887Y-75548332D01*
X189192582Y-75642454D01*
X189031860Y-75735735D01*
X188874706Y-75827023D01*
X188723103Y-75915168D01*
X188579035Y-75999020D01*
X188444486Y-76077428D01*
X188321440Y-76149241D01*
X188211881Y-76213309D01*
X188117793Y-76268482D01*
X188041160Y-76313608D01*
X187983966Y-76347537D01*
X187948195Y-76369118D01*
X187935830Y-76377202D01*
X186592945Y-76377202D01*
X186509574Y-76328313D01*
X186378757Y-76251324D01*
X186261492Y-76181990D01*
X186159762Y-76121461D01*
X186075549Y-76070884D01*
X186010838Y-76031408D01*
X185967610Y-76004181D01*
X185947848Y-75990353D01*
X185927082Y-75969064D01*
X185884794Y-75914222D01*
X185852580Y-75858224D01*
X185817942Y-75781612D01*
X185817762Y-75702689D01*
X187380747Y-75702689D01*
X187381859Y-75761151D01*
X187386205Y-75872502D01*
X187429128Y-75806483D01*
X187461094Y-75766472D01*
X187509217Y-75718724D01*
X187561038Y-75676402D01*
X187576221Y-75666452D01*
X187617770Y-75640925D01*
X187681856Y-75602484D01*
X187766815Y-75552100D01*
X187870984Y-75490744D01*
X187992701Y-75419388D01*
X188130300Y-75339003D01*
X188282120Y-75250560D01*
X188446496Y-75155030D01*
X188621766Y-75053386D01*
X188806266Y-74946598D01*
X188998333Y-74835637D01*
X189196303Y-74721475D01*
X190742581Y-73830610D01*
X190746776Y-73688541D01*
X190747711Y-73649955D01*
X190748193Y-73596661D01*
X190747452Y-73560068D01*
X190745542Y-73546471D01*
X190745436Y-73546484D01*
X190730081Y-73554291D01*
X190691345Y-73575737D01*
X190631089Y-73609744D01*
X190551176Y-73655233D01*
X190453468Y-73711123D01*
X190339826Y-73776335D01*
X190212113Y-73849789D01*
X190072191Y-73930407D01*
X189921923Y-74017107D01*
X189763169Y-74108811D01*
X189597793Y-74204439D01*
X189427656Y-74302912D01*
X189254620Y-74403150D01*
X189080548Y-74504073D01*
X188907302Y-74604601D01*
X188736743Y-74703656D01*
X188570734Y-74800158D01*
X188411138Y-74893026D01*
X188259815Y-74981182D01*
X188118628Y-75063546D01*
X187989439Y-75139038D01*
X187874111Y-75206579D01*
X187774505Y-75265089D01*
X187692484Y-75313488D01*
X187629909Y-75350698D01*
X187588643Y-75375637D01*
X187570548Y-75387228D01*
X187528268Y-75424610D01*
X187480459Y-75475566D01*
X187436691Y-75529872D01*
X187402991Y-75580001D01*
X187385388Y-75618426D01*
X187384965Y-75620303D01*
X187381865Y-75652397D01*
X187380747Y-75702689D01*
X185817762Y-75702689D01*
X185814038Y-74074202D01*
X185813581Y-73885737D01*
X185812936Y-73637056D01*
X185812397Y-73414966D01*
X185812063Y-73217859D01*
X185812035Y-73044127D01*
X185812410Y-72892160D01*
X185813290Y-72760351D01*
X185814773Y-72647090D01*
X185816815Y-72557146D01*
X186470784Y-72557146D01*
X186474138Y-74049806D01*
X186477492Y-75542465D01*
X186539783Y-75579251D01*
X186602074Y-75616037D01*
X186602074Y-74544794D01*
X187378877Y-74544794D01*
X187378963Y-74572795D01*
X187379664Y-74625133D01*
X187380918Y-74661273D01*
X187382541Y-74674656D01*
X187389642Y-74666469D01*
X187409053Y-74639835D01*
X187435783Y-74601195D01*
X187456733Y-74573349D01*
X187505021Y-74520506D01*
X187554012Y-74477716D01*
X187563165Y-74471637D01*
X187598281Y-74450003D01*
X187656197Y-74415266D01*
X187735253Y-74368395D01*
X187833789Y-74310361D01*
X187950142Y-74242134D01*
X188082653Y-74164684D01*
X188229660Y-74078982D01*
X188389501Y-73985998D01*
X188560517Y-73886702D01*
X188741045Y-73782064D01*
X188929425Y-73673054D01*
X189123996Y-73560644D01*
X189238027Y-73494764D01*
X189428580Y-73384438D01*
X189611676Y-73278134D01*
X189626405Y-73269558D01*
X191543847Y-73269558D01*
X191543954Y-73449737D01*
X191544123Y-73596661D01*
X191544175Y-73642074D01*
X191544512Y-73844654D01*
X191544967Y-74055563D01*
X191546956Y-74884138D01*
X191548698Y-75610030D01*
X191603517Y-75578568D01*
X191658336Y-75547106D01*
X191658479Y-74049910D01*
X191658623Y-72552713D01*
X191605477Y-72521357D01*
X191591892Y-72513627D01*
X191561519Y-72498815D01*
X191546784Y-72495548D01*
X191546092Y-72509537D01*
X191545466Y-72551007D01*
X191544938Y-72618036D01*
X191544510Y-72708709D01*
X191544185Y-72821113D01*
X191543965Y-72953331D01*
X191543851Y-73103451D01*
X191543847Y-73269558D01*
X189626405Y-73269558D01*
X189785684Y-73176815D01*
X189948970Y-73081443D01*
X190099902Y-72992979D01*
X190236847Y-72912385D01*
X190358171Y-72840622D01*
X190462243Y-72778654D01*
X190547430Y-72727442D01*
X190612098Y-72687947D01*
X190654614Y-72661132D01*
X190673347Y-72647958D01*
X190675347Y-72646022D01*
X190720513Y-72585844D01*
X190743973Y-72512600D01*
X190747296Y-72421480D01*
X190742581Y-72344441D01*
X189188975Y-73240076D01*
X189033246Y-73329907D01*
X188840007Y-73441526D01*
X188654243Y-73548996D01*
X188477585Y-73651365D01*
X188311664Y-73747681D01*
X188158110Y-73836994D01*
X188018554Y-73918354D01*
X187894626Y-73990808D01*
X187787958Y-74053407D01*
X187700180Y-74105199D01*
X187632923Y-74145234D01*
X187587817Y-74172559D01*
X187566493Y-74186226D01*
X187527890Y-74219708D01*
X187479638Y-74271520D01*
X187438247Y-74325647D01*
X187437120Y-74327335D01*
X187409116Y-74370639D01*
X187391929Y-74404298D01*
X187382919Y-74438050D01*
X187379448Y-74481636D01*
X187378877Y-74544794D01*
X186602074Y-74544794D01*
X186602074Y-74320514D01*
X186602107Y-74136926D01*
X186602259Y-73929888D01*
X186602563Y-73748820D01*
X186603049Y-73591858D01*
X186603748Y-73457136D01*
X186604690Y-73342787D01*
X186605401Y-73286674D01*
X187380622Y-73286674D01*
X187381660Y-73353270D01*
X187386205Y-73475187D01*
X187411625Y-73432009D01*
X187418688Y-73420446D01*
X187436512Y-73394944D01*
X187458538Y-73369074D01*
X187486546Y-73341669D01*
X187522313Y-73311560D01*
X187567618Y-73277581D01*
X187624240Y-73238565D01*
X187693958Y-73193344D01*
X187778550Y-73140751D01*
X187879795Y-73079619D01*
X187999471Y-73008779D01*
X188139358Y-72927066D01*
X188301233Y-72833312D01*
X188486876Y-72726349D01*
X188505694Y-72715525D01*
X188668435Y-72621902D01*
X188834742Y-72526203D01*
X189000992Y-72430516D01*
X189163562Y-72336924D01*
X189318830Y-72247516D01*
X189463175Y-72164375D01*
X189592974Y-72089588D01*
X189704605Y-72025240D01*
X189794446Y-71973418D01*
X190224036Y-71725490D01*
X190098304Y-71653646D01*
X189972572Y-71581801D01*
X188723359Y-72301887D01*
X188638510Y-72350840D01*
X188464589Y-72451457D01*
X188298196Y-72548081D01*
X188141123Y-72639655D01*
X187995159Y-72725121D01*
X187862095Y-72803419D01*
X187743721Y-72873492D01*
X187641829Y-72934282D01*
X187558208Y-72984730D01*
X187494648Y-73023779D01*
X187452941Y-73050369D01*
X187434877Y-73063442D01*
X187407078Y-73103657D01*
X187386362Y-73168132D01*
X187385634Y-73173601D01*
X187382051Y-73222658D01*
X187380622Y-73286674D01*
X186605401Y-73286674D01*
X186605905Y-73246949D01*
X186607424Y-73167753D01*
X186609278Y-73103336D01*
X186611496Y-73051832D01*
X186614109Y-73011375D01*
X186617148Y-72980100D01*
X186620643Y-72956142D01*
X186624624Y-72937635D01*
X186627094Y-72928281D01*
X186678659Y-72785323D01*
X186752361Y-72650256D01*
X186843965Y-72529703D01*
X186949234Y-72430284D01*
X186959671Y-72422840D01*
X186997910Y-72398173D01*
X187058441Y-72360813D01*
X187139196Y-72311983D01*
X187238109Y-72252906D01*
X187353109Y-72184804D01*
X187482130Y-72108901D01*
X187623103Y-72026418D01*
X187773960Y-71938578D01*
X187932633Y-71846604D01*
X188097053Y-71751719D01*
X188197415Y-71693913D01*
X188355321Y-71602896D01*
X188504773Y-71516669D01*
X188643888Y-71436325D01*
X188770780Y-71362955D01*
X188883565Y-71297649D01*
X188980361Y-71241500D01*
X189059281Y-71195599D01*
X189118443Y-71161036D01*
X189155961Y-71138904D01*
X189169952Y-71130293D01*
X189170589Y-71126343D01*
X189156113Y-71110607D01*
X189124747Y-71090332D01*
X189069250Y-71059934D01*
X187770017Y-71808540D01*
X186470784Y-72557146D01*
X185816815Y-72557146D01*
X185816960Y-72550769D01*
X185819948Y-72469779D01*
X185823839Y-72402512D01*
X185828731Y-72347359D01*
X185834723Y-72302712D01*
X185841917Y-72266961D01*
X185850410Y-72238499D01*
X185860302Y-72215716D01*
X185871693Y-72197004D01*
X185884683Y-72180754D01*
X185899371Y-72165358D01*
X185915855Y-72149207D01*
X185934237Y-72130692D01*
X185941137Y-72123807D01*
X185957957Y-72108941D01*
X185980528Y-72091339D01*
X186010256Y-72070157D01*
X186048549Y-72044551D01*
X186096814Y-72013679D01*
X186156458Y-71976698D01*
X186228888Y-71932763D01*
X186315512Y-71881031D01*
X186417737Y-71820659D01*
X186536969Y-71750804D01*
X186674617Y-71670622D01*
X186832087Y-71579271D01*
X187010787Y-71475906D01*
X187212123Y-71359684D01*
X187437504Y-71229762D01*
X187490298Y-71199352D01*
X187678171Y-71091275D01*
X187859221Y-70987335D01*
X188031760Y-70888491D01*
X188194102Y-70795700D01*
X188344560Y-70709919D01*
X188481448Y-70632107D01*
X188603078Y-70563220D01*
X188707764Y-70504217D01*
X188793819Y-70456055D01*
X188859557Y-70419692D01*
X188903291Y-70396084D01*
X188923334Y-70386191D01*
X188986682Y-70370918D01*
X189077792Y-70365797D01*
X189169071Y-70376013D01*
X189247602Y-70400977D01*
X189251167Y-70402728D01*
X189282344Y-70419384D01*
X189335938Y-70449138D01*
X189409957Y-70490834D01*
X189502407Y-70543319D01*
X189611296Y-70605440D01*
X189734630Y-70676041D01*
X189870416Y-70753968D01*
X190016661Y-70838069D01*
X190171371Y-70927188D01*
X190332554Y-71020172D01*
X190498216Y-71115866D01*
X190516331Y-71126343D01*
X190666364Y-71213117D01*
G37*
D13*
%TO.C,S21*%
X152289591Y-127663498D02*
X152289591Y-130679598D01*
X152289591Y-127663498D02*
X166489592Y-127663498D01*
X152289591Y-141863498D02*
X152289591Y-133679599D01*
X155289591Y-127819599D02*
X155889591Y-127819598D01*
X157789591Y-127819598D02*
X160389591Y-127819598D01*
X159189591Y-132019598D02*
X161139591Y-132019598D01*
X166489591Y-131079598D02*
X166489591Y-141893498D01*
X166489591Y-141863498D02*
X152289591Y-141863498D01*
X166489592Y-127663498D02*
X166489589Y-128189598D01*
X153289591Y-129819598D02*
G75*
G02*
X155289591Y-127819598I1999999J1D01*
G01*
X157189591Y-134019598D02*
G75*
G02*
X159189591Y-132019598I1999997J3D01*
G01*
%TO.C,S10*%
X123713991Y-77656199D02*
X123713991Y-80672299D01*
X123713991Y-77656199D02*
X137913992Y-77656199D01*
X123713991Y-91856199D02*
X123713991Y-83672300D01*
X126713991Y-77812300D02*
X127313991Y-77812299D01*
X129213991Y-77812299D02*
X131813991Y-77812299D01*
X130613991Y-82012299D02*
X132563991Y-82012299D01*
X137913991Y-81072299D02*
X137913991Y-91886199D01*
X137913991Y-91856199D02*
X123713991Y-91856199D01*
X137913992Y-77656199D02*
X137913989Y-78182299D01*
X124713991Y-79812299D02*
G75*
G02*
X126713991Y-77812299I1999999J1D01*
G01*
X128613991Y-84012299D02*
G75*
G02*
X130613991Y-82012299I1999997J3D01*
G01*
%TO.C,S11*%
X142764392Y-84800098D02*
X142764392Y-87816198D01*
X142764392Y-84800098D02*
X156964393Y-84800098D01*
X142764392Y-99000098D02*
X142764392Y-90816199D01*
X145764392Y-84956199D02*
X146364392Y-84956198D01*
X148264392Y-84956198D02*
X150864392Y-84956198D01*
X149664392Y-89156198D02*
X151614392Y-89156198D01*
X156964392Y-88216198D02*
X156964392Y-99030098D01*
X156964392Y-99000098D02*
X142764392Y-99000098D01*
X156964393Y-84800098D02*
X156964390Y-85326198D01*
X143764392Y-86956198D02*
G75*
G02*
X145764392Y-84956198I1999999J1D01*
G01*
X147664392Y-91156198D02*
G75*
G02*
X149664392Y-89156198I1999997J3D01*
G01*
D10*
%TO.C,D23*%
X195172930Y-155738202D02*
X195846372Y-154868444D01*
X195193373Y-155058435D02*
X195509649Y-155303322D01*
X195509649Y-155303322D02*
X195739177Y-155986929D01*
X195739177Y-155986929D02*
X196228951Y-155354378D01*
X195984064Y-155670654D02*
X196379408Y-155976762D01*
X196228951Y-155354378D02*
X195509649Y-155303322D01*
D13*
%TO.C,S17*%
X142764392Y-103850498D02*
X142764392Y-106866598D01*
X142764392Y-103850498D02*
X156964393Y-103850498D01*
X142764392Y-118050498D02*
X142764392Y-109866599D01*
X145764392Y-104006599D02*
X146364392Y-104006598D01*
X148264392Y-104006598D02*
X150864392Y-104006598D01*
X149664392Y-108206598D02*
X151614392Y-108206598D01*
X156964392Y-107266598D02*
X156964392Y-118080498D01*
X156964392Y-118050498D02*
X142764392Y-118050498D01*
X156964393Y-103850498D02*
X156964390Y-104376598D01*
X143764392Y-106006598D02*
G75*
G02*
X145764392Y-104006598I1999999J1D01*
G01*
X147664392Y-110206598D02*
G75*
G02*
X149664392Y-108206598I1999997J3D01*
G01*
D10*
%TO.C,D4*%
X139939192Y-65411899D02*
X140339191Y-66011900D01*
X140339191Y-65411898D02*
X140339191Y-64911899D01*
X140339191Y-66011900D02*
X140739191Y-65411899D01*
X140339191Y-66411899D02*
X140339191Y-66011900D01*
X140739191Y-65411899D02*
X139939192Y-65411899D01*
X140889191Y-66011899D02*
X139789191Y-66011899D01*
%TO.C,D19*%
X130413993Y-127325698D02*
X130813992Y-127925699D01*
X130813992Y-127325697D02*
X130813992Y-126825698D01*
X130813992Y-127925699D02*
X131213992Y-127325698D01*
X130813992Y-128325698D02*
X130813992Y-127925699D01*
X131213992Y-127325698D02*
X130413993Y-127325698D01*
X131363992Y-127925698D02*
X130263992Y-127925698D01*
%TO.C,D8*%
X101838393Y-96368797D02*
X102238392Y-96968798D01*
X102238392Y-96368796D02*
X102238392Y-95868797D01*
X102238392Y-96968798D02*
X102638392Y-96368797D01*
X102238392Y-97368797D02*
X102238392Y-96968798D01*
X102638392Y-96368797D02*
X101838393Y-96368797D01*
X102788392Y-96968797D02*
X101688392Y-96968797D01*
D13*
%TO.C,S19*%
X114188791Y-120519598D02*
X114188791Y-123535698D01*
X114188791Y-120519598D02*
X128388792Y-120519598D01*
X114188791Y-134719598D02*
X114188791Y-126535699D01*
X117188791Y-120675699D02*
X117788791Y-120675698D01*
X119688791Y-120675698D02*
X122288791Y-120675698D01*
X121088791Y-124875698D02*
X123038791Y-124875698D01*
X128388791Y-123935698D02*
X128388791Y-134749598D01*
X128388791Y-134719598D02*
X114188791Y-134719598D01*
X128388792Y-120519598D02*
X128388789Y-121045698D01*
X115188791Y-122675698D02*
G75*
G02*
X117188791Y-120675698I1999999J1D01*
G01*
X119088791Y-126875698D02*
G75*
G02*
X121088791Y-124875698I1999997J3D01*
G01*
%TO.C,S3*%
X104663591Y-63368398D02*
X104663591Y-66384498D01*
X104663591Y-63368398D02*
X118863592Y-63368398D01*
X104663591Y-77568398D02*
X104663591Y-69384499D01*
X107663591Y-63524499D02*
X108263591Y-63524498D01*
X110163591Y-63524498D02*
X112763591Y-63524498D01*
X111563591Y-67724498D02*
X113513591Y-67724498D01*
X118863591Y-66784498D02*
X118863591Y-77598398D01*
X118863591Y-77568398D02*
X104663591Y-77568398D01*
X118863592Y-63368398D02*
X118863589Y-63894498D01*
X105663591Y-65524498D02*
G75*
G02*
X107663591Y-63524498I1999999J1D01*
G01*
X109563591Y-69724498D02*
G75*
G02*
X111563591Y-67724498I1999997J3D01*
G01*
%TO.C,S1*%
X66562792Y-72893596D02*
X66562792Y-75909696D01*
X66562792Y-72893596D02*
X80762793Y-72893596D01*
X66562792Y-87093596D02*
X66562792Y-78909697D01*
X69562792Y-73049697D02*
X70162792Y-73049696D01*
X72062792Y-73049696D02*
X74662792Y-73049696D01*
X73462792Y-77249696D02*
X75412792Y-77249696D01*
X80762792Y-76309696D02*
X80762792Y-87123596D01*
X80762792Y-87093596D02*
X66562792Y-87093596D01*
X80762793Y-72893596D02*
X80762790Y-73419696D01*
X67562792Y-75049696D02*
G75*
G02*
X69562792Y-73049696I1999999J1D01*
G01*
X71462792Y-79249696D02*
G75*
G02*
X73462792Y-77249696I1999997J3D01*
G01*
D10*
%TO.C,D14*%
X101838392Y-115419198D02*
X102238391Y-116019199D01*
X102238391Y-115419197D02*
X102238391Y-114919198D01*
X102238391Y-116019199D02*
X102638391Y-115419198D01*
X102238391Y-116419198D02*
X102238391Y-116019199D01*
X102638391Y-115419198D02*
X101838392Y-115419198D01*
X102788391Y-116019198D02*
X101688391Y-116019198D01*
%TO.C,D5*%
X158989592Y-72555798D02*
X159389591Y-73155799D01*
X159389591Y-72555797D02*
X159389591Y-72055798D01*
X159389591Y-73155799D02*
X159789591Y-72555798D01*
X159389591Y-73555798D02*
X159389591Y-73155799D01*
X159789591Y-72555798D02*
X158989592Y-72555798D01*
X159939591Y-73155798D02*
X158839591Y-73155798D01*
%TO.C,D11*%
X158989592Y-91606198D02*
X159389591Y-92206199D01*
X159389591Y-91606197D02*
X159389591Y-91106198D01*
X159389591Y-92206199D02*
X159789591Y-91606198D01*
X159389591Y-92606198D02*
X159389591Y-92206199D01*
X159789591Y-91606198D02*
X158989592Y-91606198D01*
X159939591Y-92206198D02*
X158839591Y-92206198D01*
%TO.C,D13*%
X82787993Y-117800498D02*
X83187992Y-118400499D01*
X83187992Y-117800497D02*
X83187992Y-117300498D01*
X83187992Y-118400499D02*
X83587992Y-117800498D01*
X83187992Y-118800498D02*
X83187992Y-118400499D01*
X83587992Y-117800498D02*
X82787993Y-117800498D01*
X83737992Y-118400498D02*
X82637992Y-118400498D01*
%TO.C,D20*%
X149464393Y-129706998D02*
X149864392Y-130306999D01*
X149864392Y-129706997D02*
X149864392Y-129206998D01*
X149864392Y-130306999D02*
X150264392Y-129706998D01*
X149864392Y-130706998D02*
X149864392Y-130306999D01*
X150264392Y-129706998D02*
X149464393Y-129706998D01*
X150414392Y-130306998D02*
X149314392Y-130306998D01*
%TO.C,D2*%
X101838393Y-77318399D02*
X102238392Y-77918400D01*
X102238392Y-77318398D02*
X102238392Y-76818399D01*
X102238392Y-77918400D02*
X102638392Y-77318399D01*
X102238392Y-78318399D02*
X102238392Y-77918400D01*
X102638392Y-77318399D02*
X101838393Y-77318399D01*
X102788392Y-77918399D02*
X101688392Y-77918399D01*
D13*
%TO.C,S8*%
X85613192Y-89562699D02*
X85613192Y-92578799D01*
X85613192Y-89562699D02*
X99813193Y-89562699D01*
X85613192Y-103762699D02*
X85613192Y-95578800D01*
X88613192Y-89718800D02*
X89213192Y-89718799D01*
X91113192Y-89718799D02*
X93713192Y-89718799D01*
X92513192Y-93918799D02*
X94463192Y-93918799D01*
X99813192Y-92978799D02*
X99813192Y-103792699D01*
X99813192Y-103762699D02*
X85613192Y-103762699D01*
X99813193Y-89562699D02*
X99813190Y-90088799D01*
X86613192Y-91718799D02*
G75*
G02*
X88613192Y-89718799I1999999J1D01*
G01*
X90513192Y-95918799D02*
G75*
G02*
X92513192Y-93918799I1999997J3D01*
G01*
D10*
%TO.C,D9*%
X120888792Y-89224899D02*
X121288791Y-89824900D01*
X121288791Y-89224898D02*
X121288791Y-88724899D01*
X121288791Y-89824900D02*
X121688791Y-89224899D01*
X121288791Y-90224899D02*
X121288791Y-89824900D01*
X121688791Y-89224899D02*
X120888792Y-89224899D01*
X121838791Y-89824899D02*
X120738791Y-89824899D01*
%TO.C,D3*%
X120888793Y-66601398D02*
X121288792Y-67201399D01*
X121288792Y-66601397D02*
X121288792Y-66101398D01*
X121288792Y-67201399D02*
X121688792Y-66601398D01*
X121288792Y-67601398D02*
X121288792Y-67201399D01*
X121688792Y-66601398D02*
X120888793Y-66601398D01*
X121838792Y-67201398D02*
X120738792Y-67201398D01*
D13*
%TO.C,S5*%
X142764393Y-65749698D02*
X142764393Y-68765798D01*
X142764393Y-65749698D02*
X156964394Y-65749698D01*
X142764393Y-79949698D02*
X142764393Y-71765799D01*
X145764393Y-65905799D02*
X146364393Y-65905798D01*
X148264393Y-65905798D02*
X150864393Y-65905798D01*
X149664393Y-70105798D02*
X151614393Y-70105798D01*
X156964393Y-69165798D02*
X156964393Y-79979698D01*
X156964393Y-79949698D02*
X142764393Y-79949698D01*
X156964394Y-65749698D02*
X156964391Y-66275798D01*
X143764393Y-67905798D02*
G75*
G02*
X145764393Y-65905798I1999999J1D01*
G01*
X147664393Y-72105798D02*
G75*
G02*
X149664393Y-70105798I1999997J3D01*
G01*
%TO.C,S6*%
X161814792Y-70512298D02*
X161814792Y-73528398D01*
X161814792Y-70512298D02*
X176014793Y-70512298D01*
X161814792Y-84712298D02*
X161814792Y-76528399D01*
X164814792Y-70668399D02*
X165414792Y-70668398D01*
X167314792Y-70668398D02*
X169914792Y-70668398D01*
X168714792Y-74868398D02*
X170664792Y-74868398D01*
X176014792Y-73928398D02*
X176014792Y-84742298D01*
X176014792Y-84712298D02*
X161814792Y-84712298D01*
X176014793Y-70512298D02*
X176014790Y-71038398D01*
X162814792Y-72668398D02*
G75*
G02*
X164814792Y-70668398I1999999J1D01*
G01*
X166714792Y-76868398D02*
G75*
G02*
X168714792Y-74868398I1999997J3D01*
G01*
%TO.C,S18*%
X161814792Y-108613098D02*
X161814792Y-111629198D01*
X161814792Y-108613098D02*
X176014793Y-108613098D01*
X161814792Y-122813098D02*
X161814792Y-114629199D01*
X164814792Y-108769199D02*
X165414792Y-108769198D01*
X167314792Y-108769198D02*
X169914792Y-108769198D01*
X168714792Y-112969198D02*
X170664792Y-112969198D01*
X176014792Y-112029198D02*
X176014792Y-122843098D01*
X176014792Y-122813098D02*
X161814792Y-122813098D01*
X176014793Y-108613098D02*
X176014790Y-109139198D01*
X162814792Y-110769198D02*
G75*
G02*
X164814792Y-108769198I1999999J1D01*
G01*
X166714792Y-114969198D02*
G75*
G02*
X168714792Y-112969198I1999997J3D01*
G01*
%TO.C,S20*%
X133239192Y-122900898D02*
X133239192Y-125916998D01*
X133239192Y-122900898D02*
X147439193Y-122900898D01*
X133239192Y-137100898D02*
X133239192Y-128916999D01*
X136239192Y-123056999D02*
X136839192Y-123056998D01*
X138739192Y-123056998D02*
X141339192Y-123056998D01*
X140139192Y-127256998D02*
X142089192Y-127256998D01*
X147439192Y-126316998D02*
X147439192Y-137130898D01*
X147439192Y-137100898D02*
X133239192Y-137100898D01*
X147439193Y-122900898D02*
X147439190Y-123426998D01*
X134239192Y-125056998D02*
G75*
G02*
X136239192Y-123056998I1999999J1D01*
G01*
X138139192Y-129256998D02*
G75*
G02*
X140139192Y-127256998I1999997J3D01*
G01*
%TO.C,S13*%
X66562792Y-110994398D02*
X66562792Y-114010498D01*
X66562792Y-110994398D02*
X80762793Y-110994398D01*
X66562792Y-125194398D02*
X66562792Y-117010499D01*
X69562792Y-111150499D02*
X70162792Y-111150498D01*
X72062792Y-111150498D02*
X74662792Y-111150498D01*
X73462792Y-115350498D02*
X75412792Y-115350498D01*
X80762792Y-114410498D02*
X80762792Y-125224398D01*
X80762792Y-125194398D02*
X66562792Y-125194398D01*
X80762793Y-110994398D02*
X80762790Y-111520498D01*
X67562792Y-113150498D02*
G75*
G02*
X69562792Y-111150498I1999999J1D01*
G01*
X71462792Y-117350498D02*
G75*
G02*
X73462792Y-115350498I1999997J3D01*
G01*
D10*
%TO.C,D22*%
X178515191Y-144882948D02*
X178873164Y-145061429D01*
X178627756Y-145553642D02*
X179118574Y-144569216D01*
X178873164Y-145061429D02*
X179231646Y-145687121D01*
X179231646Y-145687121D02*
X179588605Y-144971171D01*
X179410126Y-145329148D02*
X179857593Y-145552246D01*
X179588605Y-144971171D02*
X178873164Y-145061429D01*
D13*
%TO.C,S9*%
X104663592Y-82418798D02*
X104663592Y-85434898D01*
X104663592Y-82418798D02*
X118863593Y-82418798D01*
X104663592Y-96618798D02*
X104663592Y-88434899D01*
X107663592Y-82574899D02*
X108263592Y-82574898D01*
X110163592Y-82574898D02*
X112763592Y-82574898D01*
X111563592Y-86774898D02*
X113513592Y-86774898D01*
X118863592Y-85834898D02*
X118863592Y-96648798D01*
X118863592Y-96618798D02*
X104663592Y-96618798D01*
X118863593Y-82418798D02*
X118863590Y-82944898D01*
X105663592Y-84574898D02*
G75*
G02*
X107663592Y-82574898I1999999J1D01*
G01*
X109563592Y-88774898D02*
G75*
G02*
X111563592Y-86774898I1999997J3D01*
G01*
D10*
%TO.C,D12*%
X178039994Y-96368798D02*
X178439993Y-96968799D01*
X178439993Y-96368797D02*
X178439993Y-95868798D01*
X178439993Y-96968799D02*
X178839993Y-96368798D01*
X178439993Y-97368798D02*
X178439993Y-96968799D01*
X178839993Y-96368798D02*
X178039994Y-96368798D01*
X178989993Y-96968798D02*
X177889993Y-96968798D01*
%TO.C,D15*%
X120888795Y-108275297D02*
X121288794Y-108875298D01*
X121288794Y-108275296D02*
X121288794Y-107775297D01*
X121288794Y-108875298D02*
X121688794Y-108275297D01*
X121288794Y-109275297D02*
X121288794Y-108875298D01*
X121688794Y-108275297D02*
X120888795Y-108275297D01*
X121838794Y-108875297D02*
X120738794Y-108875297D01*
D13*
%TO.C,S22*%
X174294765Y-138942915D02*
X177941942Y-131627812D01*
X180630774Y-126234847D02*
X179284997Y-128934059D01*
X180630774Y-126234847D02*
X193338842Y-132570856D01*
X183245926Y-127713142D02*
X183747089Y-127963011D01*
X184862139Y-133212036D02*
X186625160Y-134091045D01*
X185510110Y-128842020D02*
X187810091Y-129988750D01*
X187002832Y-145278925D02*
X174294765Y-138942915D01*
X191819048Y-135619092D02*
X187002832Y-145278925D01*
X193338842Y-132570856D02*
X193113021Y-133023782D01*
X180563662Y-128610613D02*
G75*
G02*
X183245926Y-127713140I1789868J-892394D01*
G01*
X182179875Y-134109509D02*
G75*
G02*
X184862139Y-133212036I1789868J-892394D01*
G01*
%TO.C,S2*%
X85613191Y-70512297D02*
X85613191Y-73528397D01*
X85613191Y-70512297D02*
X99813192Y-70512297D01*
X85613191Y-84712297D02*
X85613191Y-76528398D01*
X88613191Y-70668398D02*
X89213191Y-70668397D01*
X91113191Y-70668397D02*
X93713191Y-70668397D01*
X92513191Y-74868397D02*
X94463191Y-74868397D01*
X99813191Y-73928397D02*
X99813191Y-84742297D01*
X99813191Y-84712297D02*
X85613191Y-84712297D01*
X99813192Y-70512297D02*
X99813189Y-71038397D01*
X86613191Y-72668397D02*
G75*
G02*
X88613191Y-70668397I1999999J1D01*
G01*
X90513191Y-76868397D02*
G75*
G02*
X92513191Y-74868397I1999997J3D01*
G01*
%TO.C,S4*%
X123713993Y-58605799D02*
X123713993Y-61621899D01*
X123713993Y-58605799D02*
X137913994Y-58605799D01*
X123713993Y-72805799D02*
X123713993Y-64621900D01*
X126713993Y-58761900D02*
X127313993Y-58761899D01*
X129213993Y-58761899D02*
X131813993Y-58761899D01*
X130613993Y-62961899D02*
X132563993Y-62961899D01*
X137913993Y-62021899D02*
X137913993Y-72835799D01*
X137913993Y-72805799D02*
X123713993Y-72805799D01*
X137913994Y-58605799D02*
X137913991Y-59131899D01*
X124713993Y-60761899D02*
G75*
G02*
X126713993Y-58761899I1999999J1D01*
G01*
X128613993Y-64961899D02*
G75*
G02*
X130613993Y-62961899I1999997J3D01*
G01*
D10*
%TO.C,D10*%
X139939193Y-84462298D02*
X140339192Y-85062299D01*
X140339192Y-84462297D02*
X140339192Y-83962298D01*
X140339192Y-85062299D02*
X140739192Y-84462298D01*
X140339192Y-85462298D02*
X140339192Y-85062299D01*
X140739192Y-84462298D02*
X139939193Y-84462298D01*
X140889192Y-85062298D02*
X139789192Y-85062298D01*
D13*
%TO.C,S14*%
X85613193Y-108613099D02*
X85613193Y-111629199D01*
X85613193Y-108613099D02*
X99813194Y-108613099D01*
X85613193Y-122813099D02*
X85613193Y-114629200D01*
X88613193Y-108769200D02*
X89213193Y-108769199D01*
X91113193Y-108769199D02*
X93713193Y-108769199D01*
X92513193Y-112969199D02*
X94463193Y-112969199D01*
X99813193Y-112029199D02*
X99813193Y-122843099D01*
X99813193Y-122813099D02*
X85613193Y-122813099D01*
X99813194Y-108613099D02*
X99813191Y-109139199D01*
X86613193Y-110769199D02*
G75*
G02*
X88613193Y-108769199I1999999J1D01*
G01*
X90513193Y-114969199D02*
G75*
G02*
X92513193Y-112969199I1999997J3D01*
G01*
%TO.C,S7*%
X66562791Y-91943998D02*
X66562791Y-94960098D01*
X66562791Y-91943998D02*
X80762792Y-91943998D01*
X66562791Y-106143998D02*
X66562791Y-97960099D01*
X69562791Y-92100099D02*
X70162791Y-92100098D01*
X72062791Y-92100098D02*
X74662791Y-92100098D01*
X73462791Y-96300098D02*
X75412791Y-96300098D01*
X80762791Y-95360098D02*
X80762791Y-106173998D01*
X80762791Y-106143998D02*
X66562791Y-106143998D01*
X80762792Y-91943998D02*
X80762789Y-92470098D01*
X67562791Y-94100098D02*
G75*
G02*
X69562791Y-92100098I1999999J1D01*
G01*
X71462791Y-98300098D02*
G75*
G02*
X73462791Y-96300098I1999997J3D01*
G01*
D10*
%TO.C,D1*%
X82787993Y-79699699D02*
X83187992Y-80299700D01*
X83187992Y-79699698D02*
X83187992Y-79199699D01*
X83187992Y-80299700D02*
X83587992Y-79699699D01*
X83187992Y-80699699D02*
X83187992Y-80299700D01*
X83587992Y-79699699D02*
X82787993Y-79699699D01*
X83737992Y-80299699D02*
X82637992Y-80299699D01*
D13*
%TO.C,S15*%
X104663591Y-101469197D02*
X104663591Y-104485297D01*
X104663591Y-101469197D02*
X118863592Y-101469197D01*
X104663591Y-115669197D02*
X104663591Y-107485298D01*
X107663591Y-101625298D02*
X108263591Y-101625297D01*
X110163591Y-101625297D02*
X112763591Y-101625297D01*
X111563591Y-105825297D02*
X113513591Y-105825297D01*
X118863591Y-104885297D02*
X118863591Y-115699197D01*
X118863591Y-115669197D02*
X104663591Y-115669197D01*
X118863592Y-101469197D02*
X118863589Y-101995297D01*
X105663591Y-103625297D02*
G75*
G02*
X107663591Y-101625297I1999999J1D01*
G01*
X109563591Y-107825297D02*
G75*
G02*
X111563591Y-105825297I1999997J3D01*
G01*
D10*
%TO.C,D18*%
X178039992Y-115419198D02*
X178439991Y-116019199D01*
X178439991Y-115419197D02*
X178439991Y-114919198D01*
X178439991Y-116019199D02*
X178839991Y-115419198D01*
X178439991Y-116419198D02*
X178439991Y-116019199D01*
X178839991Y-115419198D02*
X178039992Y-115419198D01*
X178989991Y-116019198D02*
X177889991Y-116019198D01*
D13*
%TO.C,S23*%
X192260618Y-148556567D02*
X197208231Y-142050127D01*
X200855794Y-137253339D02*
X199030165Y-139654161D01*
X200855794Y-137253339D02*
X212159021Y-145848514D01*
X203149312Y-139193478D02*
X203595073Y-139532441D01*
X203563846Y-157151742D02*
X192260618Y-148556567D01*
X203711485Y-144897332D02*
X205279609Y-146089761D01*
X205163197Y-140724870D02*
X207208923Y-142280476D01*
X210097329Y-148559775D02*
X203563846Y-157151742D01*
X212159021Y-145848514D02*
X211852682Y-146251370D01*
X200346720Y-139574892D02*
G75*
G02*
X203149312Y-139193477I1592003J-1210587D01*
G01*
X200908893Y-145278748D02*
G75*
G02*
X203711485Y-144897331I1592004J-1210584D01*
G01*
%TO.C,S12*%
X161814792Y-89562698D02*
X161814792Y-92578798D01*
X161814792Y-89562698D02*
X176014793Y-89562698D01*
X161814792Y-103762698D02*
X161814792Y-95578799D01*
X164814792Y-89718799D02*
X165414792Y-89718798D01*
X167314792Y-89718798D02*
X169914792Y-89718798D01*
X168714792Y-93918798D02*
X170664792Y-93918798D01*
X176014792Y-92978798D02*
X176014792Y-103792698D01*
X176014792Y-103762698D02*
X161814792Y-103762698D01*
X176014793Y-89562698D02*
X176014790Y-90088798D01*
X162814792Y-91718798D02*
G75*
G02*
X164814792Y-89718798I1999999J1D01*
G01*
X166714792Y-95918798D02*
G75*
G02*
X168714792Y-93918798I1999997J3D01*
G01*
D10*
%TO.C,D6*%
X178039994Y-77318398D02*
X178439993Y-77918399D01*
X178439993Y-77318397D02*
X178439993Y-76818398D01*
X178439993Y-77918399D02*
X178839993Y-77318398D01*
X178439993Y-78318398D02*
X178439993Y-77918399D01*
X178839993Y-77318398D02*
X178039994Y-77318398D01*
X178989993Y-77918398D02*
X177889993Y-77918398D01*
%TO.C,D21*%
X168514792Y-134469597D02*
X168914791Y-135069598D01*
X168914791Y-134469596D02*
X168914791Y-133969597D01*
X168914791Y-135069598D02*
X169314791Y-134469597D01*
X168914791Y-135469597D02*
X168914791Y-135069598D01*
X169314791Y-134469597D02*
X168514792Y-134469597D01*
X169464791Y-135069597D02*
X168364791Y-135069597D01*
%TO.C,D17*%
X158989593Y-110656598D02*
X159389592Y-111256599D01*
X159389592Y-110656597D02*
X159389592Y-110156598D01*
X159389592Y-111256599D02*
X159789592Y-110656598D01*
X159389592Y-111656598D02*
X159389592Y-111256599D01*
X159789592Y-110656598D02*
X158989593Y-110656598D01*
X159939592Y-111256598D02*
X158839592Y-111256598D01*
%TO.C,D7*%
X82787994Y-98750097D02*
X83187993Y-99350098D01*
X83187993Y-98750096D02*
X83187993Y-98250097D01*
X83187993Y-99350098D02*
X83587993Y-98750097D01*
X83187993Y-99750097D02*
X83187993Y-99350098D01*
X83587993Y-98750097D02*
X82787994Y-98750097D01*
X83737993Y-99350097D02*
X82637993Y-99350097D01*
D13*
%TO.C,S16*%
X123713992Y-96706599D02*
X123713992Y-99722699D01*
X123713992Y-96706599D02*
X137913993Y-96706599D01*
X123713992Y-110906599D02*
X123713992Y-102722700D01*
X126713992Y-96862700D02*
X127313992Y-96862699D01*
X129213992Y-96862699D02*
X131813992Y-96862699D01*
X130613992Y-101062699D02*
X132563992Y-101062699D01*
X137913992Y-100122699D02*
X137913992Y-110936599D01*
X137913992Y-110906599D02*
X123713992Y-110906599D01*
X137913993Y-96706599D02*
X137913990Y-97232699D01*
X124713992Y-98862699D02*
G75*
G02*
X126713992Y-96862699I1999999J1D01*
G01*
X128613992Y-103062699D02*
G75*
G02*
X130613992Y-101062699I1999997J3D01*
G01*
D10*
%TO.C,D16*%
X139939193Y-103512698D02*
X140339192Y-104112699D01*
X140339192Y-103512697D02*
X140339192Y-103012698D01*
X140339192Y-104112699D02*
X140739192Y-103512698D01*
X140339192Y-104512698D02*
X140339192Y-104112699D01*
X140739192Y-103512698D02*
X139939193Y-103512698D01*
X140889192Y-104112698D02*
X139789192Y-104112698D01*
D13*
%TO.C,JP7*%
X179586392Y-107467598D02*
X179586392Y-109467597D01*
X179586392Y-109467597D02*
X182386392Y-109467596D01*
X182386392Y-107467597D02*
X179586392Y-107467598D01*
X182386392Y-109467596D02*
X182386392Y-107467597D01*
%TO.C,JP3*%
X179586392Y-104067599D02*
X179586392Y-106067598D01*
X179586392Y-106067598D02*
X182386392Y-106067597D01*
X182386392Y-104067598D02*
X179586392Y-104067599D01*
X182386392Y-106067597D02*
X182386392Y-104067598D01*
%TO.C,D26*%
X189979393Y-98704798D02*
X189979393Y-94644798D01*
X192249393Y-94644798D02*
X192249393Y-98704798D01*
X192249393Y-98704798D02*
X189979393Y-98704798D01*
%TO.C,JP8*%
X183386392Y-107467598D02*
X183386392Y-109467597D01*
X183386392Y-109467597D02*
X186186392Y-109467596D01*
X186186392Y-107467597D02*
X183386392Y-107467598D01*
X186186392Y-109467596D02*
X186186392Y-107467597D01*
%TO.C,R3*%
X181204393Y-115517734D02*
X181204393Y-116971862D01*
X183024393Y-115517734D02*
X183024393Y-116971862D01*
%TO.C,JP4*%
X183386391Y-104067599D02*
X183386391Y-106067598D01*
X183386391Y-106067598D02*
X186186391Y-106067597D01*
X186186391Y-104067598D02*
X183386391Y-104067599D01*
X186186391Y-106067597D02*
X186186391Y-104067598D01*
%TO.C,R1*%
X184954393Y-115517734D02*
X184954393Y-116971862D01*
X186774393Y-115517734D02*
X186774393Y-116971862D01*
%TO.C,D24*%
X184729393Y-98704798D02*
X184729393Y-94644798D01*
X186999393Y-94644798D02*
X186999393Y-98704798D01*
X186999393Y-98704798D02*
X184729393Y-98704798D01*
%TD*%
M02*
