M48
; DRILL file {KiCad 9.0.2} date 2025-07-01T22:27:41-1000
; FORMAT={-:-/ absolute / metric / decimal}
; #@! TF.CreationDate,2025-07-01T22:27:41-10:00
; #@! TF.GenerationSoftware,Kicad,Pcbnew,9.0.2
; #@! TF.FileFunction,Plated,1,2,PTH
FMAT,2
METRIC
; #@! TA.AperFunction,Plated,PTH,ViaDrill
T1C0.300
; #@! TA.AperFunction,Plated,PTH,ComponentDrill
T2C0.400
; #@! TA.AperFunction,Plated,PTH,ComponentDrill
T3C0.800
; #@! TA.AperFunction,Plated,PTH,ComponentDrill
T4C0.950
; #@! TA.AperFunction,Plated,PTH,ComponentDrill
T5C1.000
; #@! TA.AperFunction,Plated,PTH,ComponentDrill
T6C2.300
; #@! TA.AperFunction,Plated,PTH,ComponentDrill
T7C3.050
%
G90
G05
T1
X169.134Y-80.315
X180.261Y-105.068
X180.261Y-108.468
X182.886Y-104.268
X182.886Y-107.768
X182.886Y-105.868
X182.886Y-109.168
X185.611Y-105.068
X185.611Y-108.468
X185.864Y-94.757
X189.314Y-88.175
X191.114Y-94.757
X191.494Y-73.135
T2
X186.234Y-69.575
X186.234Y-72.115
X186.234Y-74.655
X186.234Y-77.195
X186.234Y-79.735
X186.234Y-82.275
X186.234Y-84.815
X186.234Y-87.355
X186.234Y-89.895
X192.034Y-69.575
X192.034Y-72.115
X192.034Y-74.655
X192.034Y-77.195
X192.034Y-79.735
X192.034Y-82.275
X192.034Y-84.815
X192.034Y-87.355
X192.034Y-89.895
T3
X83.188Y-76.14
X83.188Y-76.14
X83.188Y-83.76
X83.188Y-83.76
X83.188Y-114.24
X83.188Y-114.24
X83.188Y-121.86
X83.188Y-121.86
X83.188Y-95.19
X83.188Y-95.19
X83.188Y-102.81
X83.188Y-102.81
X102.238Y-111.859
X102.238Y-111.859
X102.238Y-119.479
X102.238Y-119.479
X102.238Y-73.758
X102.238Y-73.758
X102.238Y-81.378
X102.238Y-81.378
X102.238Y-92.809
X102.238Y-92.809
X102.238Y-100.429
X102.238Y-100.429
X121.289Y-85.665
X121.289Y-85.665
X121.289Y-93.285
X121.289Y-93.285
X121.289Y-63.041
X121.289Y-63.041
X121.289Y-70.661
X121.289Y-70.661
X121.289Y-104.715
X121.289Y-104.715
X121.289Y-112.335
X121.289Y-112.335
X130.814Y-123.766
X130.814Y-123.766
X130.814Y-131.386
X130.814Y-131.386
X140.339Y-61.852
X140.339Y-61.852
X140.339Y-69.472
X140.339Y-69.472
X140.339Y-80.902
X140.339Y-80.902
X140.339Y-88.522
X140.339Y-88.522
X140.339Y-99.953
X140.339Y-99.953
X140.339Y-107.573
X140.339Y-107.573
X149.864Y-126.147
X149.864Y-126.147
X149.864Y-133.767
X149.864Y-133.767
X159.39Y-68.996
X159.39Y-68.996
X159.39Y-76.616
X159.39Y-76.616
X159.39Y-88.046
X159.39Y-88.046
X159.39Y-95.666
X159.39Y-95.666
X159.39Y-107.097
X159.39Y-107.097
X159.39Y-114.717
X159.39Y-114.717
X168.915Y-130.91
X168.915Y-130.91
X168.915Y-138.53
X168.915Y-138.53
X175.777Y-143.518
X175.777Y-143.518
X178.44Y-111.859
X178.44Y-111.859
X178.44Y-119.479
X178.44Y-119.479
X178.44Y-73.758
X178.44Y-73.758
X178.44Y-81.378
X178.44Y-81.378
X178.44Y-92.809
X178.44Y-92.809
X178.44Y-100.429
X178.44Y-100.429
X182.596Y-146.918
X182.596Y-146.918
X192.774Y-153.185
X192.774Y-153.185
X198.799Y-157.85
X198.799Y-157.85
T4
X189.826Y-111.318
X189.826Y-106.818
X189.826Y-109.318
X189.826Y-113.818
T5
X181.514Y-69.575
X181.514Y-72.115
X181.514Y-74.655
X181.514Y-77.195
X181.514Y-79.735
X181.514Y-82.275
X181.514Y-84.815
X181.514Y-87.355
X181.514Y-89.895
X196.754Y-69.575
X196.754Y-72.115
X196.754Y-74.655
X196.754Y-77.195
X196.754Y-79.735
X196.754Y-82.275
X196.754Y-84.815
X196.754Y-87.355
X196.754Y-89.895
T6
X192.536Y-103.748
X192.536Y-116.888
T7
X69.853Y-96.46
X69.853Y-77.41
X69.853Y-115.51
X71.123Y-93.92
X71.123Y-74.87
X71.123Y-112.97
X76.203Y-93.92
X76.203Y-74.87
X76.203Y-112.97
X77.473Y-96.46
X77.473Y-77.41
X77.473Y-115.51
X88.903Y-75.028
X88.903Y-94.079
X88.903Y-113.129
X90.173Y-72.488
X90.173Y-91.539
X90.173Y-110.589
X95.253Y-72.488
X95.253Y-91.539
X95.253Y-110.589
X96.523Y-75.028
X96.523Y-94.079
X96.523Y-113.129
X107.954Y-67.884
X107.954Y-105.985
X107.954Y-86.935
X109.224Y-65.344
X109.224Y-103.445
X109.224Y-84.395
X114.304Y-65.344
X114.304Y-103.445
X114.304Y-84.395
X115.574Y-67.884
X115.574Y-105.985
X115.574Y-86.935
X117.479Y-125.036
X118.749Y-122.496
X123.829Y-122.496
X125.099Y-125.036
X127.004Y-82.172
X127.004Y-101.223
X127.004Y-63.122
X128.274Y-79.632
X128.274Y-98.683
X128.274Y-60.582
X133.354Y-79.632
X133.354Y-98.683
X133.354Y-60.582
X134.624Y-82.172
X134.624Y-101.223
X134.624Y-63.122
X136.529Y-127.417
X137.799Y-124.877
X142.879Y-124.877
X144.149Y-127.417
X146.054Y-89.316
X146.054Y-108.367
X146.054Y-70.266
X147.324Y-86.776
X147.324Y-105.827
X147.324Y-67.726
X152.404Y-86.776
X152.404Y-105.827
X152.404Y-67.726
X153.674Y-89.316
X153.674Y-108.367
X153.674Y-70.266
X155.58Y-132.18
X156.85Y-129.64
X161.93Y-129.64
X163.2Y-132.18
X165.105Y-75.028
X165.105Y-94.079
X165.105Y-113.129
X166.375Y-72.488
X166.375Y-91.539
X166.375Y-110.589
X171.455Y-72.488
X171.455Y-91.539
X171.455Y-110.589
X172.725Y-75.028
X172.725Y-94.079
X172.725Y-113.129
X181.56Y-131.744
X183.83Y-130.038
X188.376Y-132.305
X188.379Y-135.144
X200.741Y-142.84
X203.289Y-141.586
X206.807Y-147.452
X207.333Y-144.661
M30
