%TF.GenerationSoftware,KiCad,Pcbnew,9.0.2*%
%TF.CreationDate,2025-07-01T22:27:43-10:00*%
%TF.ProjectId,jug,6a75672e-6b69-4636-9164-5f7063625858,rev?*%
%TF.SameCoordinates,Original*%
%TF.FileFunction,Paste,Bot*%
%TF.FilePolarity,Positive*%
%FSLAX46Y46*%
G04 Gerber Fmt 4.6, Leading zero omitted, Abs format (unit mm)*
G04 Created by KiCad (PCBNEW 9.0.2) date 2025-07-01 22:27:43*
%MOMM*%
%LPD*%
G01*
G04 APERTURE LIST*
G04 Aperture macros list*
%AMRoundRect*
0 Rectangle with rounded corners*
0 $1 Rounding radius*
0 $2 $3 $4 $5 $6 $7 $8 $9 X,Y pos of 4 corners*
0 Add a 4 corners polygon primitive as box body*
4,1,4,$2,$3,$4,$5,$6,$7,$8,$9,$2,$3,0*
0 Add four circle primitives for the rounded corners*
1,1,$1+$1,$2,$3*
1,1,$1+$1,$4,$5*
1,1,$1+$1,$6,$7*
1,1,$1+$1,$8,$9*
0 Add four rect primitives between the rounded corners*
20,1,$1+$1,$2,$3,$4,$5,0*
20,1,$1+$1,$4,$5,$6,$7,0*
20,1,$1+$1,$6,$7,$8,$9,0*
20,1,$1+$1,$8,$9,$2,$3,0*%
G04 Aperture macros list end*
%ADD10RoundRect,0.250000X-1.025000X-1.000000X1.025000X-1.000000X1.025000X1.000000X-1.025000X1.000000X0*%
%ADD11RoundRect,0.250000X-1.363506X-0.437582X0.471110X-1.352287X1.363506X0.437582X-0.471110X1.352287X0*%
%ADD12RoundRect,0.250000X-1.421196X-0.175576X0.210608X-1.416428X1.421196X0.175576X-0.210608X1.416428X0*%
%ADD13RoundRect,0.250001X0.624999X-0.462499X0.624999X0.462499X-0.624999X0.462499X-0.624999X-0.462499X0*%
%ADD14RoundRect,0.250000X-0.625000X0.400000X-0.625000X-0.400000X0.625000X-0.400000X0.625000X0.400000X0*%
G04 APERTURE END LIST*
D10*
%TO.C,S21*%
X152304591Y-132179598D03*
X165231591Y-129639598D03*
%TD*%
%TO.C,S10*%
X123728991Y-82172299D03*
X136655991Y-79632299D03*
%TD*%
%TO.C,S11*%
X142779392Y-89316198D03*
X155706392Y-86776198D03*
%TD*%
%TO.C,S17*%
X142779392Y-108366598D03*
X155706392Y-105826598D03*
%TD*%
%TO.C,S19*%
X114203791Y-125035698D03*
X127130791Y-122495698D03*
%TD*%
%TO.C,S3*%
X104678591Y-67884498D03*
X117605591Y-65344498D03*
%TD*%
%TO.C,S1*%
X66577792Y-77409696D03*
X79504792Y-74869696D03*
%TD*%
%TO.C,S8*%
X85628192Y-94078799D03*
X98555192Y-91538799D03*
%TD*%
%TO.C,S5*%
X142779393Y-70265798D03*
X155706393Y-67725798D03*
%TD*%
%TO.C,S6*%
X161829792Y-75028398D03*
X174756792Y-72488398D03*
%TD*%
%TO.C,S18*%
X161829792Y-113129198D03*
X174756792Y-110589198D03*
%TD*%
%TO.C,S20*%
X133254192Y-127416998D03*
X146181192Y-124876998D03*
%TD*%
%TO.C,S13*%
X66577792Y-115510498D03*
X79504792Y-112970498D03*
%TD*%
%TO.C,S9*%
X104678592Y-86934898D03*
X117605592Y-84394898D03*
%TD*%
D11*
%TO.C,S22*%
X178629124Y-130283153D03*
X191331283Y-133778019D03*
%TD*%
D10*
%TO.C,S2*%
X85628191Y-75028397D03*
X98555191Y-72488397D03*
%TD*%
%TO.C,S4*%
X123728993Y-63121899D03*
X136655993Y-60581899D03*
%TD*%
%TO.C,S14*%
X85628193Y-113129199D03*
X98555193Y-110589199D03*
%TD*%
%TO.C,S7*%
X66577791Y-96460098D03*
X79504791Y-93920098D03*
%TD*%
%TO.C,S15*%
X104678591Y-105985297D03*
X117605591Y-103445297D03*
%TD*%
D12*
%TO.C,S23*%
X198134165Y-140857243D03*
X209961529Y-146660033D03*
%TD*%
D10*
%TO.C,S12*%
X161829792Y-94078798D03*
X174756792Y-91538798D03*
%TD*%
%TO.C,S16*%
X123728992Y-101222699D03*
X136655992Y-98682699D03*
%TD*%
D13*
%TO.C,D26*%
X191114393Y-97732298D03*
X191114393Y-94757298D03*
%TD*%
D14*
%TO.C,R3*%
X182114393Y-114694797D03*
X182114393Y-117794799D03*
%TD*%
%TO.C,R1*%
X185864393Y-114694797D03*
X185864393Y-117794799D03*
%TD*%
D13*
%TO.C,D24*%
X185864393Y-97732298D03*
X185864393Y-94757298D03*
%TD*%
M02*
