%TF.GenerationSoftware,KiCad,Pcbnew,9.0.2*%
%TF.CreationDate,2025-06-30T19:49:53-10:00*%
%TF.ProjectId,jug,6a75672e-6b69-4636-9164-5f7063625858,rev?*%
%TF.SameCoordinates,Original*%
%TF.FileFunction,Legend,Bot*%
%TF.FilePolarity,Positive*%
%FSLAX46Y46*%
G04 Gerber Fmt 4.6, Leading zero omitted, Abs format (unit mm)*
G04 Created by KiCad (PCBNEW 9.0.2) date 2025-06-30 19:49:53*
%MOMM*%
%LPD*%
G01*
G04 APERTURE LIST*
%ADD10C,0.150000*%
%ADD11C,0.120000*%
%ADD12C,0.100000*%
G04 APERTURE END LIST*
D10*
X176961218Y-74081114D02*
X175961218Y-74081114D01*
X175961218Y-74081114D02*
X175961218Y-74319209D01*
X175961218Y-74319209D02*
X176008837Y-74462066D01*
X176008837Y-74462066D02*
X176104075Y-74557304D01*
X176104075Y-74557304D02*
X176199313Y-74604923D01*
X176199313Y-74604923D02*
X176389789Y-74652542D01*
X176389789Y-74652542D02*
X176532646Y-74652542D01*
X176532646Y-74652542D02*
X176723122Y-74604923D01*
X176723122Y-74604923D02*
X176818360Y-74557304D01*
X176818360Y-74557304D02*
X176913599Y-74462066D01*
X176913599Y-74462066D02*
X176961218Y-74319209D01*
X176961218Y-74319209D02*
X176961218Y-74081114D01*
X176056456Y-75033495D02*
X176008837Y-75081114D01*
X176008837Y-75081114D02*
X175961218Y-75176352D01*
X175961218Y-75176352D02*
X175961218Y-75414447D01*
X175961218Y-75414447D02*
X176008837Y-75509685D01*
X176008837Y-75509685D02*
X176056456Y-75557304D01*
X176056456Y-75557304D02*
X176151694Y-75604923D01*
X176151694Y-75604923D02*
X176246932Y-75604923D01*
X176246932Y-75604923D02*
X176389789Y-75557304D01*
X176389789Y-75557304D02*
X176961218Y-74985876D01*
X176961218Y-74985876D02*
X176961218Y-75604923D01*
X176294551Y-76462066D02*
X176961218Y-76462066D01*
X175913599Y-76223971D02*
X176627884Y-75985876D01*
X176627884Y-75985876D02*
X176627884Y-76604923D01*
X180761218Y-74068614D02*
X179761218Y-74068614D01*
X179761218Y-74068614D02*
X179761218Y-74306709D01*
X179761218Y-74306709D02*
X179808837Y-74449566D01*
X179808837Y-74449566D02*
X179904075Y-74544804D01*
X179904075Y-74544804D02*
X179999313Y-74592423D01*
X179999313Y-74592423D02*
X180189789Y-74640042D01*
X180189789Y-74640042D02*
X180332646Y-74640042D01*
X180332646Y-74640042D02*
X180523122Y-74592423D01*
X180523122Y-74592423D02*
X180618360Y-74544804D01*
X180618360Y-74544804D02*
X180713599Y-74449566D01*
X180713599Y-74449566D02*
X180761218Y-74306709D01*
X180761218Y-74306709D02*
X180761218Y-74068614D01*
X179856456Y-75020995D02*
X179808837Y-75068614D01*
X179808837Y-75068614D02*
X179761218Y-75163852D01*
X179761218Y-75163852D02*
X179761218Y-75401947D01*
X179761218Y-75401947D02*
X179808837Y-75497185D01*
X179808837Y-75497185D02*
X179856456Y-75544804D01*
X179856456Y-75544804D02*
X179951694Y-75592423D01*
X179951694Y-75592423D02*
X180046932Y-75592423D01*
X180046932Y-75592423D02*
X180189789Y-75544804D01*
X180189789Y-75544804D02*
X180761218Y-74973376D01*
X180761218Y-74973376D02*
X180761218Y-75592423D01*
X179761218Y-76497185D02*
X179761218Y-76020995D01*
X179761218Y-76020995D02*
X180237408Y-75973376D01*
X180237408Y-75973376D02*
X180189789Y-76020995D01*
X180189789Y-76020995D02*
X180142170Y-76116233D01*
X180142170Y-76116233D02*
X180142170Y-76354328D01*
X180142170Y-76354328D02*
X180189789Y-76449566D01*
X180189789Y-76449566D02*
X180237408Y-76497185D01*
X180237408Y-76497185D02*
X180332646Y-76544804D01*
X180332646Y-76544804D02*
X180570741Y-76544804D01*
X180570741Y-76544804D02*
X180665979Y-76497185D01*
X180665979Y-76497185D02*
X180713599Y-76449566D01*
X180713599Y-76449566D02*
X180761218Y-76354328D01*
X180761218Y-76354328D02*
X180761218Y-76116233D01*
X180761218Y-76116233D02*
X180713599Y-76020995D01*
X180713599Y-76020995D02*
X180665979Y-75973376D01*
X178633333Y-66854819D02*
X178633333Y-67569104D01*
X178633333Y-67569104D02*
X178680952Y-67711961D01*
X178680952Y-67711961D02*
X178776190Y-67807200D01*
X178776190Y-67807200D02*
X178919047Y-67854819D01*
X178919047Y-67854819D02*
X179014285Y-67854819D01*
X178157142Y-67854819D02*
X178157142Y-66854819D01*
X178157142Y-66854819D02*
X177776190Y-66854819D01*
X177776190Y-66854819D02*
X177680952Y-66902438D01*
X177680952Y-66902438D02*
X177633333Y-66950057D01*
X177633333Y-66950057D02*
X177585714Y-67045295D01*
X177585714Y-67045295D02*
X177585714Y-67188152D01*
X177585714Y-67188152D02*
X177633333Y-67283390D01*
X177633333Y-67283390D02*
X177680952Y-67331009D01*
X177680952Y-67331009D02*
X177776190Y-67378628D01*
X177776190Y-67378628D02*
X178157142Y-67378628D01*
X176728571Y-67188152D02*
X176728571Y-67854819D01*
X176966666Y-66807200D02*
X177204761Y-67521485D01*
X177204761Y-67521485D02*
X176585714Y-67521485D01*
X174833333Y-70254819D02*
X174833333Y-70969104D01*
X174833333Y-70969104D02*
X174880952Y-71111961D01*
X174880952Y-71111961D02*
X174976190Y-71207200D01*
X174976190Y-71207200D02*
X175119047Y-71254819D01*
X175119047Y-71254819D02*
X175214285Y-71254819D01*
X174357142Y-71254819D02*
X174357142Y-70254819D01*
X174357142Y-70254819D02*
X173976190Y-70254819D01*
X173976190Y-70254819D02*
X173880952Y-70302438D01*
X173880952Y-70302438D02*
X173833333Y-70350057D01*
X173833333Y-70350057D02*
X173785714Y-70445295D01*
X173785714Y-70445295D02*
X173785714Y-70588152D01*
X173785714Y-70588152D02*
X173833333Y-70683390D01*
X173833333Y-70683390D02*
X173880952Y-70731009D01*
X173880952Y-70731009D02*
X173976190Y-70778628D01*
X173976190Y-70778628D02*
X174357142Y-70778628D01*
X173452380Y-70254819D02*
X172785714Y-70254819D01*
X172785714Y-70254819D02*
X173214285Y-71254819D01*
X178633333Y-70254819D02*
X178633333Y-70969104D01*
X178633333Y-70969104D02*
X178680952Y-71111961D01*
X178680952Y-71111961D02*
X178776190Y-71207200D01*
X178776190Y-71207200D02*
X178919047Y-71254819D01*
X178919047Y-71254819D02*
X179014285Y-71254819D01*
X178157142Y-71254819D02*
X178157142Y-70254819D01*
X178157142Y-70254819D02*
X177776190Y-70254819D01*
X177776190Y-70254819D02*
X177680952Y-70302438D01*
X177680952Y-70302438D02*
X177633333Y-70350057D01*
X177633333Y-70350057D02*
X177585714Y-70445295D01*
X177585714Y-70445295D02*
X177585714Y-70588152D01*
X177585714Y-70588152D02*
X177633333Y-70683390D01*
X177633333Y-70683390D02*
X177680952Y-70731009D01*
X177680952Y-70731009D02*
X177776190Y-70778628D01*
X177776190Y-70778628D02*
X178157142Y-70778628D01*
X177014285Y-70683390D02*
X177109523Y-70635771D01*
X177109523Y-70635771D02*
X177157142Y-70588152D01*
X177157142Y-70588152D02*
X177204761Y-70492914D01*
X177204761Y-70492914D02*
X177204761Y-70445295D01*
X177204761Y-70445295D02*
X177157142Y-70350057D01*
X177157142Y-70350057D02*
X177109523Y-70302438D01*
X177109523Y-70302438D02*
X177014285Y-70254819D01*
X177014285Y-70254819D02*
X176823809Y-70254819D01*
X176823809Y-70254819D02*
X176728571Y-70302438D01*
X176728571Y-70302438D02*
X176680952Y-70350057D01*
X176680952Y-70350057D02*
X176633333Y-70445295D01*
X176633333Y-70445295D02*
X176633333Y-70492914D01*
X176633333Y-70492914D02*
X176680952Y-70588152D01*
X176680952Y-70588152D02*
X176728571Y-70635771D01*
X176728571Y-70635771D02*
X176823809Y-70683390D01*
X176823809Y-70683390D02*
X177014285Y-70683390D01*
X177014285Y-70683390D02*
X177109523Y-70731009D01*
X177109523Y-70731009D02*
X177157142Y-70778628D01*
X177157142Y-70778628D02*
X177204761Y-70873866D01*
X177204761Y-70873866D02*
X177204761Y-71064342D01*
X177204761Y-71064342D02*
X177157142Y-71159580D01*
X177157142Y-71159580D02*
X177109523Y-71207200D01*
X177109523Y-71207200D02*
X177014285Y-71254819D01*
X177014285Y-71254819D02*
X176823809Y-71254819D01*
X176823809Y-71254819D02*
X176728571Y-71207200D01*
X176728571Y-71207200D02*
X176680952Y-71159580D01*
X176680952Y-71159580D02*
X176633333Y-71064342D01*
X176633333Y-71064342D02*
X176633333Y-70873866D01*
X176633333Y-70873866D02*
X176680952Y-70778628D01*
X176680952Y-70778628D02*
X176728571Y-70731009D01*
X176728571Y-70731009D02*
X176823809Y-70683390D01*
X174833333Y-66854819D02*
X174833333Y-67569104D01*
X174833333Y-67569104D02*
X174880952Y-67711961D01*
X174880952Y-67711961D02*
X174976190Y-67807200D01*
X174976190Y-67807200D02*
X175119047Y-67854819D01*
X175119047Y-67854819D02*
X175214285Y-67854819D01*
X174357142Y-67854819D02*
X174357142Y-66854819D01*
X174357142Y-66854819D02*
X173976190Y-66854819D01*
X173976190Y-66854819D02*
X173880952Y-66902438D01*
X173880952Y-66902438D02*
X173833333Y-66950057D01*
X173833333Y-66950057D02*
X173785714Y-67045295D01*
X173785714Y-67045295D02*
X173785714Y-67188152D01*
X173785714Y-67188152D02*
X173833333Y-67283390D01*
X173833333Y-67283390D02*
X173880952Y-67331009D01*
X173880952Y-67331009D02*
X173976190Y-67378628D01*
X173976190Y-67378628D02*
X174357142Y-67378628D01*
X173452380Y-66854819D02*
X172833333Y-66854819D01*
X172833333Y-66854819D02*
X173166666Y-67235771D01*
X173166666Y-67235771D02*
X173023809Y-67235771D01*
X173023809Y-67235771D02*
X172928571Y-67283390D01*
X172928571Y-67283390D02*
X172880952Y-67331009D01*
X172880952Y-67331009D02*
X172833333Y-67426247D01*
X172833333Y-67426247D02*
X172833333Y-67664342D01*
X172833333Y-67664342D02*
X172880952Y-67759580D01*
X172880952Y-67759580D02*
X172928571Y-67807200D01*
X172928571Y-67807200D02*
X173023809Y-67854819D01*
X173023809Y-67854819D02*
X173309523Y-67854819D01*
X173309523Y-67854819D02*
X173404761Y-67807200D01*
X173404761Y-67807200D02*
X173452380Y-67759580D01*
D11*
%TO.C,D24*%
X175811400Y-73695400D02*
X175811400Y-77755400D01*
X173541400Y-77755400D02*
X173541400Y-73695400D01*
X175811400Y-77755400D02*
X173541400Y-77755400D01*
%TO.C,S21*%
X145303200Y-88195900D02*
X145303200Y-91212000D01*
X145303200Y-88195900D02*
X159503200Y-88195900D01*
X145303200Y-102395900D02*
X145303200Y-94212000D01*
X148303200Y-88352001D02*
X148903200Y-88352000D01*
X150803200Y-88352000D02*
X153403200Y-88352000D01*
X152203200Y-92552000D02*
X154153200Y-92552000D01*
X159503200Y-88195900D02*
X159503200Y-88722000D01*
X159503200Y-91612000D02*
X159503200Y-102425900D01*
X159503200Y-102395900D02*
X145303200Y-102395900D01*
X146303200Y-90352000D02*
G75*
G02*
X148303200Y-88352000I1999999J1D01*
G01*
X150203200Y-94552000D02*
G75*
G02*
X152203200Y-92552000I1999999J1D01*
G01*
%TO.C,S1*%
X59576400Y-33426000D02*
X59576400Y-36442100D01*
X59576400Y-33426000D02*
X73776400Y-33426000D01*
X59576400Y-47626000D02*
X59576400Y-39442100D01*
X62576400Y-33582101D02*
X63176400Y-33582100D01*
X65076400Y-33582100D02*
X67676400Y-33582100D01*
X66476400Y-37782100D02*
X68426400Y-37782100D01*
X73776400Y-33426000D02*
X73776400Y-33952100D01*
X73776400Y-36842100D02*
X73776400Y-47656000D01*
X73776400Y-47626000D02*
X59576400Y-47626000D01*
X60576400Y-35582100D02*
G75*
G02*
X62576400Y-33582100I1999999J1D01*
G01*
X64476400Y-39782100D02*
G75*
G02*
X66476400Y-37782100I1999999J1D01*
G01*
%TO.C,S2*%
X78626800Y-31044700D02*
X78626800Y-34060800D01*
X78626800Y-31044700D02*
X92826800Y-31044700D01*
X78626800Y-45244700D02*
X78626800Y-37060800D01*
X81626800Y-31200801D02*
X82226800Y-31200800D01*
X84126800Y-31200800D02*
X86726800Y-31200800D01*
X85526800Y-35400800D02*
X87476800Y-35400800D01*
X92826800Y-31044700D02*
X92826800Y-31570800D01*
X92826800Y-34460800D02*
X92826800Y-45274700D01*
X92826800Y-45244700D02*
X78626800Y-45244700D01*
X79626800Y-33200800D02*
G75*
G02*
X81626800Y-31200800I1999999J1D01*
G01*
X83526800Y-37400800D02*
G75*
G02*
X85526800Y-35400800I1999999J1D01*
G01*
%TO.C,S3*%
X97677200Y-23900800D02*
X97677200Y-26916900D01*
X97677200Y-23900800D02*
X111877200Y-23900800D01*
X97677200Y-38100800D02*
X97677200Y-29916900D01*
X100677200Y-24056901D02*
X101277200Y-24056900D01*
X103177200Y-24056900D02*
X105777200Y-24056900D01*
X104577200Y-28256900D02*
X106527200Y-28256900D01*
X111877200Y-23900800D02*
X111877200Y-24426900D01*
X111877200Y-27316900D02*
X111877200Y-38130800D01*
X111877200Y-38100800D02*
X97677200Y-38100800D01*
X98677200Y-26056900D02*
G75*
G02*
X100677200Y-24056900I1999999J1D01*
G01*
X102577200Y-30256900D02*
G75*
G02*
X104577200Y-28256900I1999999J1D01*
G01*
%TO.C,S4*%
X116727600Y-19138200D02*
X116727600Y-22154300D01*
X116727600Y-19138200D02*
X130927600Y-19138200D01*
X116727600Y-33338200D02*
X116727600Y-25154300D01*
X119727600Y-19294301D02*
X120327600Y-19294300D01*
X122227600Y-19294300D02*
X124827600Y-19294300D01*
X123627600Y-23494300D02*
X125577600Y-23494300D01*
X130927600Y-19138200D02*
X130927600Y-19664300D01*
X130927600Y-22554300D02*
X130927600Y-33368200D01*
X130927600Y-33338200D02*
X116727600Y-33338200D01*
X117727600Y-21294300D02*
G75*
G02*
X119727600Y-19294300I1999999J1D01*
G01*
X121627600Y-25494300D02*
G75*
G02*
X123627600Y-23494300I1999999J1D01*
G01*
%TO.C,S5*%
X135778000Y-26282100D02*
X135778000Y-29298200D01*
X135778000Y-26282100D02*
X149978000Y-26282100D01*
X135778000Y-40482100D02*
X135778000Y-32298200D01*
X138778000Y-26438201D02*
X139378000Y-26438200D01*
X141278000Y-26438200D02*
X143878000Y-26438200D01*
X142678000Y-30638200D02*
X144628000Y-30638200D01*
X149978000Y-26282100D02*
X149978000Y-26808200D01*
X149978000Y-29698200D02*
X149978000Y-40512100D01*
X149978000Y-40482100D02*
X135778000Y-40482100D01*
X136778000Y-28438200D02*
G75*
G02*
X138778000Y-26438200I1999999J1D01*
G01*
X140678000Y-32638200D02*
G75*
G02*
X142678000Y-30638200I1999999J1D01*
G01*
%TO.C,S6*%
X154828400Y-31044700D02*
X154828400Y-34060800D01*
X154828400Y-31044700D02*
X169028400Y-31044700D01*
X154828400Y-45244700D02*
X154828400Y-37060800D01*
X157828400Y-31200801D02*
X158428400Y-31200800D01*
X160328400Y-31200800D02*
X162928400Y-31200800D01*
X161728400Y-35400800D02*
X163678400Y-35400800D01*
X169028400Y-31044700D02*
X169028400Y-31570800D01*
X169028400Y-34460800D02*
X169028400Y-45274700D01*
X169028400Y-45244700D02*
X154828400Y-45244700D01*
X155828400Y-33200800D02*
G75*
G02*
X157828400Y-31200800I1999999J1D01*
G01*
X159728400Y-37400800D02*
G75*
G02*
X161728400Y-35400800I1999999J1D01*
G01*
%TO.C,S7*%
X59576400Y-52476400D02*
X59576400Y-55492500D01*
X59576400Y-52476400D02*
X73776400Y-52476400D01*
X59576400Y-66676400D02*
X59576400Y-58492500D01*
X62576400Y-52632501D02*
X63176400Y-52632500D01*
X65076400Y-52632500D02*
X67676400Y-52632500D01*
X66476400Y-56832500D02*
X68426400Y-56832500D01*
X73776400Y-52476400D02*
X73776400Y-53002500D01*
X73776400Y-55892500D02*
X73776400Y-66706400D01*
X73776400Y-66676400D02*
X59576400Y-66676400D01*
X60576400Y-54632500D02*
G75*
G02*
X62576400Y-52632500I1999999J1D01*
G01*
X64476400Y-58832500D02*
G75*
G02*
X66476400Y-56832500I1999999J1D01*
G01*
%TO.C,S8*%
X78626800Y-50095100D02*
X78626800Y-53111200D01*
X78626800Y-50095100D02*
X92826800Y-50095100D01*
X78626800Y-64295100D02*
X78626800Y-56111200D01*
X81626800Y-50251201D02*
X82226800Y-50251200D01*
X84126800Y-50251200D02*
X86726800Y-50251200D01*
X85526800Y-54451200D02*
X87476800Y-54451200D01*
X92826800Y-50095100D02*
X92826800Y-50621200D01*
X92826800Y-53511200D02*
X92826800Y-64325100D01*
X92826800Y-64295100D02*
X78626800Y-64295100D01*
X79626800Y-52251200D02*
G75*
G02*
X81626800Y-50251200I1999999J1D01*
G01*
X83526800Y-56451200D02*
G75*
G02*
X85526800Y-54451200I1999999J1D01*
G01*
%TO.C,S9*%
X97677200Y-42951200D02*
X97677200Y-45967300D01*
X97677200Y-42951200D02*
X111877200Y-42951200D01*
X97677200Y-57151200D02*
X97677200Y-48967300D01*
X100677200Y-43107301D02*
X101277200Y-43107300D01*
X103177200Y-43107300D02*
X105777200Y-43107300D01*
X104577200Y-47307300D02*
X106527200Y-47307300D01*
X111877200Y-42951200D02*
X111877200Y-43477300D01*
X111877200Y-46367300D02*
X111877200Y-57181200D01*
X111877200Y-57151200D02*
X97677200Y-57151200D01*
X98677200Y-45107300D02*
G75*
G02*
X100677200Y-43107300I1999999J1D01*
G01*
X102577200Y-49307300D02*
G75*
G02*
X104577200Y-47307300I1999999J1D01*
G01*
%TO.C,S10*%
X116727600Y-38188600D02*
X116727600Y-41204700D01*
X116727600Y-38188600D02*
X130927600Y-38188600D01*
X116727600Y-52388600D02*
X116727600Y-44204700D01*
X119727600Y-38344701D02*
X120327600Y-38344700D01*
X122227600Y-38344700D02*
X124827600Y-38344700D01*
X123627600Y-42544700D02*
X125577600Y-42544700D01*
X130927600Y-38188600D02*
X130927600Y-38714700D01*
X130927600Y-41604700D02*
X130927600Y-52418600D01*
X130927600Y-52388600D02*
X116727600Y-52388600D01*
X117727600Y-40344700D02*
G75*
G02*
X119727600Y-38344700I1999999J1D01*
G01*
X121627600Y-44544700D02*
G75*
G02*
X123627600Y-42544700I1999999J1D01*
G01*
%TO.C,S11*%
X135778000Y-45332500D02*
X135778000Y-48348600D01*
X135778000Y-45332500D02*
X149978000Y-45332500D01*
X135778000Y-59532500D02*
X135778000Y-51348600D01*
X138778000Y-45488601D02*
X139378000Y-45488600D01*
X141278000Y-45488600D02*
X143878000Y-45488600D01*
X142678000Y-49688600D02*
X144628000Y-49688600D01*
X149978000Y-45332500D02*
X149978000Y-45858600D01*
X149978000Y-48748600D02*
X149978000Y-59562500D01*
X149978000Y-59532500D02*
X135778000Y-59532500D01*
X136778000Y-47488600D02*
G75*
G02*
X138778000Y-45488600I1999999J1D01*
G01*
X140678000Y-51688600D02*
G75*
G02*
X142678000Y-49688600I1999999J1D01*
G01*
%TO.C,S12*%
X154828400Y-50095100D02*
X154828400Y-53111200D01*
X154828400Y-50095100D02*
X169028400Y-50095100D01*
X154828400Y-64295100D02*
X154828400Y-56111200D01*
X157828400Y-50251201D02*
X158428400Y-50251200D01*
X160328400Y-50251200D02*
X162928400Y-50251200D01*
X161728400Y-54451200D02*
X163678400Y-54451200D01*
X169028400Y-50095100D02*
X169028400Y-50621200D01*
X169028400Y-53511200D02*
X169028400Y-64325100D01*
X169028400Y-64295100D02*
X154828400Y-64295100D01*
X155828400Y-52251200D02*
G75*
G02*
X157828400Y-50251200I1999999J1D01*
G01*
X159728400Y-56451200D02*
G75*
G02*
X161728400Y-54451200I1999999J1D01*
G01*
%TO.C,S13*%
X59576400Y-71526800D02*
X59576400Y-74542900D01*
X59576400Y-71526800D02*
X73776400Y-71526800D01*
X59576400Y-85726800D02*
X59576400Y-77542900D01*
X62576400Y-71682901D02*
X63176400Y-71682900D01*
X65076400Y-71682900D02*
X67676400Y-71682900D01*
X66476400Y-75882900D02*
X68426400Y-75882900D01*
X73776400Y-71526800D02*
X73776400Y-72052900D01*
X73776400Y-74942900D02*
X73776400Y-85756800D01*
X73776400Y-85726800D02*
X59576400Y-85726800D01*
X60576400Y-73682900D02*
G75*
G02*
X62576400Y-71682900I1999999J1D01*
G01*
X64476400Y-77882900D02*
G75*
G02*
X66476400Y-75882900I1999999J1D01*
G01*
%TO.C,S14*%
X78626800Y-69145500D02*
X78626800Y-72161600D01*
X78626800Y-69145500D02*
X92826800Y-69145500D01*
X78626800Y-83345500D02*
X78626800Y-75161600D01*
X81626800Y-69301601D02*
X82226800Y-69301600D01*
X84126800Y-69301600D02*
X86726800Y-69301600D01*
X85526800Y-73501600D02*
X87476800Y-73501600D01*
X92826800Y-69145500D02*
X92826800Y-69671600D01*
X92826800Y-72561600D02*
X92826800Y-83375500D01*
X92826800Y-83345500D02*
X78626800Y-83345500D01*
X79626800Y-71301600D02*
G75*
G02*
X81626800Y-69301600I1999999J1D01*
G01*
X83526800Y-75501600D02*
G75*
G02*
X85526800Y-73501600I1999999J1D01*
G01*
%TO.C,S15*%
X97677200Y-62001600D02*
X97677200Y-65017700D01*
X97677200Y-62001600D02*
X111877200Y-62001600D01*
X97677200Y-76201600D02*
X97677200Y-68017700D01*
X100677200Y-62157701D02*
X101277200Y-62157700D01*
X103177200Y-62157700D02*
X105777200Y-62157700D01*
X104577200Y-66357700D02*
X106527200Y-66357700D01*
X111877200Y-62001600D02*
X111877200Y-62527700D01*
X111877200Y-65417700D02*
X111877200Y-76231600D01*
X111877200Y-76201600D02*
X97677200Y-76201600D01*
X98677200Y-64157700D02*
G75*
G02*
X100677200Y-62157700I1999999J1D01*
G01*
X102577200Y-68357700D02*
G75*
G02*
X104577200Y-66357700I1999999J1D01*
G01*
%TO.C,S16*%
X116727600Y-57239000D02*
X116727600Y-60255100D01*
X116727600Y-57239000D02*
X130927600Y-57239000D01*
X116727600Y-71439000D02*
X116727600Y-63255100D01*
X119727600Y-57395101D02*
X120327600Y-57395100D01*
X122227600Y-57395100D02*
X124827600Y-57395100D01*
X123627600Y-61595100D02*
X125577600Y-61595100D01*
X130927600Y-57239000D02*
X130927600Y-57765100D01*
X130927600Y-60655100D02*
X130927600Y-71469000D01*
X130927600Y-71439000D02*
X116727600Y-71439000D01*
X117727600Y-59395100D02*
G75*
G02*
X119727600Y-57395100I1999999J1D01*
G01*
X121627600Y-63595100D02*
G75*
G02*
X123627600Y-61595100I1999999J1D01*
G01*
%TO.C,S17*%
X135778000Y-64382900D02*
X135778000Y-67399000D01*
X135778000Y-64382900D02*
X149978000Y-64382900D01*
X135778000Y-78582900D02*
X135778000Y-70399000D01*
X138778000Y-64539001D02*
X139378000Y-64539000D01*
X141278000Y-64539000D02*
X143878000Y-64539000D01*
X142678000Y-68739000D02*
X144628000Y-68739000D01*
X149978000Y-64382900D02*
X149978000Y-64909000D01*
X149978000Y-67799000D02*
X149978000Y-78612900D01*
X149978000Y-78582900D02*
X135778000Y-78582900D01*
X136778000Y-66539000D02*
G75*
G02*
X138778000Y-64539000I1999999J1D01*
G01*
X140678000Y-70739000D02*
G75*
G02*
X142678000Y-68739000I1999999J1D01*
G01*
%TO.C,S18*%
X154828400Y-69145500D02*
X154828400Y-72161600D01*
X154828400Y-69145500D02*
X169028400Y-69145500D01*
X154828400Y-83345500D02*
X154828400Y-75161600D01*
X157828400Y-69301601D02*
X158428400Y-69301600D01*
X160328400Y-69301600D02*
X162928400Y-69301600D01*
X161728400Y-73501600D02*
X163678400Y-73501600D01*
X169028400Y-69145500D02*
X169028400Y-69671600D01*
X169028400Y-72561600D02*
X169028400Y-83375500D01*
X169028400Y-83345500D02*
X154828400Y-83345500D01*
X155828400Y-71301600D02*
G75*
G02*
X157828400Y-69301600I1999999J1D01*
G01*
X159728400Y-75501600D02*
G75*
G02*
X161728400Y-73501600I1999999J1D01*
G01*
%TO.C,S19*%
X107202400Y-81052000D02*
X107202400Y-84068100D01*
X107202400Y-81052000D02*
X121402400Y-81052000D01*
X107202400Y-95252000D02*
X107202400Y-87068100D01*
X110202400Y-81208101D02*
X110802400Y-81208100D01*
X112702400Y-81208100D02*
X115302400Y-81208100D01*
X114102400Y-85408100D02*
X116052400Y-85408100D01*
X121402400Y-81052000D02*
X121402400Y-81578100D01*
X121402400Y-84468100D02*
X121402400Y-95282000D01*
X121402400Y-95252000D02*
X107202400Y-95252000D01*
X108202400Y-83208100D02*
G75*
G02*
X110202400Y-81208100I1999999J1D01*
G01*
X112102400Y-87408100D02*
G75*
G02*
X114102400Y-85408100I1999999J1D01*
G01*
%TO.C,S20*%
X126252800Y-83433300D02*
X126252800Y-86449400D01*
X126252800Y-83433300D02*
X140452800Y-83433300D01*
X126252800Y-97633300D02*
X126252800Y-89449400D01*
X129252800Y-83589401D02*
X129852800Y-83589400D01*
X131752800Y-83589400D02*
X134352800Y-83589400D01*
X133152800Y-87789400D02*
X135102800Y-87789400D01*
X140452800Y-83433300D02*
X140452800Y-83959400D01*
X140452800Y-86849400D02*
X140452800Y-97663300D01*
X140452800Y-97633300D02*
X126252800Y-97633300D01*
X127252800Y-85589400D02*
G75*
G02*
X129252800Y-83589400I1999999J1D01*
G01*
X131152800Y-89789400D02*
G75*
G02*
X133152800Y-87789400I1999999J1D01*
G01*
%TO.C,S22*%
X173644382Y-86767249D02*
X172298605Y-89466461D01*
X173644382Y-86767249D02*
X186352450Y-93103258D01*
X167308373Y-99475317D02*
X170955550Y-92160213D01*
X176259534Y-88245543D02*
X176760697Y-88495413D01*
X178523718Y-89374422D02*
X180823699Y-90521151D01*
X177875747Y-93744438D02*
X179638768Y-94623447D01*
X186352450Y-93103258D02*
X186126630Y-93556184D01*
X184832656Y-96151494D02*
X180016441Y-105811326D01*
X180016441Y-105811326D02*
X167308373Y-99475317D01*
X173577270Y-89143015D02*
G75*
G02*
X176259534Y-88245542I1789868J-892394D01*
G01*
X175193483Y-94641911D02*
G75*
G02*
X177875747Y-93744438I1789868J-892394D01*
G01*
%TO.C,S23*%
X193869401Y-97785743D02*
X192043773Y-100186565D01*
X193869401Y-97785743D02*
X205172629Y-106380918D01*
X185274226Y-109088971D02*
X190221839Y-102582531D01*
X196162920Y-99725882D02*
X196608681Y-100064845D01*
X198176805Y-101257275D02*
X200222531Y-102812880D01*
X196725093Y-105429736D02*
X198293217Y-106622165D01*
X205172629Y-106380918D02*
X204866290Y-106783774D01*
X203110937Y-109092180D02*
X196577454Y-117684146D01*
X196577454Y-117684146D02*
X185274226Y-109088971D01*
X193360328Y-100107297D02*
G75*
G02*
X196162920Y-99725881I1592004J-1210586D01*
G01*
X193922501Y-105811152D02*
G75*
G02*
X196725093Y-105429736I1592004J-1210586D01*
G01*
D12*
%TO.C,D3*%
X113902400Y-27133800D02*
X114302400Y-27733801D01*
X114302400Y-27133799D02*
X114302400Y-26633800D01*
X114302400Y-27733801D02*
X114702400Y-27133800D01*
X114302400Y-28133800D02*
X114302400Y-27733801D01*
X114702400Y-27133800D02*
X113902400Y-27133800D01*
X114852400Y-27733800D02*
X113752400Y-27733800D01*
D11*
%TO.C,D25*%
X179611400Y-77742900D02*
X177341400Y-77742900D01*
X177341400Y-77742900D02*
X177341400Y-73682900D01*
X179611400Y-73682900D02*
X179611400Y-77742900D01*
D10*
%TO.C,U2*%
X174330000Y-28450000D02*
X174330000Y-61470000D01*
X174330000Y-28450000D02*
X192110000Y-28450000D01*
X192110000Y-28450000D02*
X192110000Y-61470000D01*
X192110000Y-61470000D02*
X174330000Y-61470000D01*
X192110000Y-61470000D02*
X174330000Y-61470000D01*
D11*
%TO.C,JP4*%
X176400000Y-66600000D02*
X179200000Y-66600000D01*
X176400000Y-64600000D02*
X176400000Y-66600000D01*
X179200000Y-66600000D02*
X179200000Y-64600000D01*
X179200000Y-64600000D02*
X176400000Y-64600000D01*
%TO.C,JP7*%
X175400000Y-68000000D02*
X172600000Y-68000000D01*
X175400000Y-70000000D02*
X175400000Y-68000000D01*
X172600000Y-68000000D02*
X172600000Y-70000000D01*
X172600000Y-70000000D02*
X175400000Y-70000000D01*
%TO.C,JP8*%
X179200000Y-68000000D02*
X176400000Y-68000000D01*
X179200000Y-70000000D02*
X179200000Y-68000000D01*
X176400000Y-68000000D02*
X176400000Y-70000000D01*
X176400000Y-70000000D02*
X179200000Y-70000000D01*
%TO.C,JP3*%
X172600000Y-66600000D02*
X175400000Y-66600000D01*
X172600000Y-64600000D02*
X172600000Y-66600000D01*
X175400000Y-66600000D02*
X175400000Y-64600000D01*
X175400000Y-64600000D02*
X172600000Y-64600000D01*
D12*
%TO.C,D16*%
X133902800Y-64645100D02*
X132802800Y-64645100D01*
X133752800Y-64045100D02*
X132952800Y-64045100D01*
X133352800Y-65045100D02*
X133352800Y-64645101D01*
X133352800Y-64645101D02*
X133752800Y-64045100D01*
X133352800Y-64045099D02*
X133352800Y-63545100D01*
X132952800Y-64045100D02*
X133352800Y-64645101D01*
%TO.C,D7*%
X76751600Y-59882500D02*
X75651600Y-59882500D01*
X76601600Y-59282500D02*
X75801600Y-59282500D01*
X76201600Y-60282500D02*
X76201600Y-59882501D01*
X76201600Y-59882501D02*
X76601600Y-59282500D01*
X76201600Y-59282499D02*
X76201600Y-58782500D01*
X75801600Y-59282500D02*
X76201600Y-59882501D01*
%TO.C,D17*%
X152953200Y-71789000D02*
X151853200Y-71789000D01*
X152803200Y-71189000D02*
X152003200Y-71189000D01*
X152403200Y-72189000D02*
X152403200Y-71789001D01*
X152403200Y-71789001D02*
X152803200Y-71189000D01*
X152403200Y-71188999D02*
X152403200Y-70689000D01*
X152003200Y-71189000D02*
X152403200Y-71789001D01*
%TO.C,D21*%
X162478400Y-95602000D02*
X161378400Y-95602000D01*
X162328400Y-95002000D02*
X161528400Y-95002000D01*
X161928400Y-96002000D02*
X161928400Y-95602001D01*
X161928400Y-95602001D02*
X162328400Y-95002000D01*
X161928400Y-95001999D02*
X161928400Y-94502000D01*
X161528400Y-95002000D02*
X161928400Y-95602001D01*
%TO.C,D6*%
X172003600Y-38450800D02*
X170903600Y-38450800D01*
X171853600Y-37850800D02*
X171053600Y-37850800D01*
X171453600Y-38850800D02*
X171453600Y-38450801D01*
X171453600Y-38450801D02*
X171853600Y-37850800D01*
X171453600Y-37850799D02*
X171453600Y-37350800D01*
X171053600Y-37850800D02*
X171453600Y-38450801D01*
%TO.C,D18*%
X172003600Y-76551600D02*
X170903600Y-76551600D01*
X171853600Y-75951600D02*
X171053600Y-75951600D01*
X171453600Y-76951600D02*
X171453600Y-76551601D01*
X171453600Y-76551601D02*
X171853600Y-75951600D01*
X171453600Y-75951599D02*
X171453600Y-75451600D01*
X171053600Y-75951600D02*
X171453600Y-76551601D01*
%TO.C,D1*%
X76751600Y-40832100D02*
X75651600Y-40832100D01*
X76601600Y-40232100D02*
X75801600Y-40232100D01*
X76201600Y-41232100D02*
X76201600Y-40832101D01*
X76201600Y-40832101D02*
X76601600Y-40232100D01*
X76201600Y-40232099D02*
X76201600Y-39732100D01*
X75801600Y-40232100D02*
X76201600Y-40832101D01*
%TO.C,D10*%
X133902800Y-45594700D02*
X132802800Y-45594700D01*
X133752800Y-44994700D02*
X132952800Y-44994700D01*
X133352800Y-45994700D02*
X133352800Y-45594701D01*
X133352800Y-45594701D02*
X133752800Y-44994700D01*
X133352800Y-44994699D02*
X133352800Y-44494700D01*
X132952800Y-44994700D02*
X133352800Y-45594701D01*
%TO.C,D15*%
X114852400Y-69407700D02*
X113752400Y-69407700D01*
X114702400Y-68807700D02*
X113902400Y-68807700D01*
X114302400Y-69807700D02*
X114302400Y-69407701D01*
X114302400Y-69407701D02*
X114702400Y-68807700D01*
X114302400Y-68807699D02*
X114302400Y-68307700D01*
X113902400Y-68807700D02*
X114302400Y-69407701D01*
%TO.C,D12*%
X172003600Y-57501200D02*
X170903600Y-57501200D01*
X171853600Y-56901200D02*
X171053600Y-56901200D01*
X171453600Y-57901200D02*
X171453600Y-57501201D01*
X171453600Y-57501201D02*
X171853600Y-56901200D01*
X171453600Y-56901199D02*
X171453600Y-56401200D01*
X171053600Y-56901200D02*
X171453600Y-57501201D01*
%TO.C,D22*%
X172602214Y-105503575D02*
X171886773Y-105593831D01*
X172423735Y-105861551D02*
X172871202Y-106084649D01*
X172245255Y-106219524D02*
X172602214Y-105503575D01*
X171886773Y-105593831D02*
X172245255Y-106219524D01*
X171641365Y-106086045D02*
X172132183Y-105101618D01*
X171528800Y-105415352D02*
X171886773Y-105593831D01*
%TO.C,D9*%
X114852400Y-50357300D02*
X113752400Y-50357300D01*
X114702400Y-49757300D02*
X113902400Y-49757300D01*
X114302400Y-50757300D02*
X114302400Y-50357301D01*
X114302400Y-50357301D02*
X114702400Y-49757300D01*
X114302400Y-49757299D02*
X114302400Y-49257300D01*
X113902400Y-49757300D02*
X114302400Y-50357301D01*
%TO.C,D2*%
X95802000Y-38450800D02*
X94702000Y-38450800D01*
X95652000Y-37850800D02*
X94852000Y-37850800D01*
X95252000Y-38850800D02*
X95252000Y-38450801D01*
X95252000Y-38450801D02*
X95652000Y-37850800D01*
X95252000Y-37850799D02*
X95252000Y-37350800D01*
X94852000Y-37850800D02*
X95252000Y-38450801D01*
%TO.C,D20*%
X143428000Y-90839400D02*
X142328000Y-90839400D01*
X143278000Y-90239400D02*
X142478000Y-90239400D01*
X142878000Y-91239400D02*
X142878000Y-90839401D01*
X142878000Y-90839401D02*
X143278000Y-90239400D01*
X142878000Y-90239399D02*
X142878000Y-89739400D01*
X142478000Y-90239400D02*
X142878000Y-90839401D01*
%TO.C,D13*%
X76751600Y-78932900D02*
X75651600Y-78932900D01*
X76601600Y-78332900D02*
X75801600Y-78332900D01*
X76201600Y-79332900D02*
X76201600Y-78932901D01*
X76201600Y-78932901D02*
X76601600Y-78332900D01*
X76201600Y-78332899D02*
X76201600Y-77832900D01*
X75801600Y-78332900D02*
X76201600Y-78932901D01*
%TO.C,D11*%
X152953200Y-52738600D02*
X151853200Y-52738600D01*
X152803200Y-52138600D02*
X152003200Y-52138600D01*
X152403200Y-53138600D02*
X152403200Y-52738601D01*
X152403200Y-52738601D02*
X152803200Y-52138600D01*
X152403200Y-52138599D02*
X152403200Y-51638600D01*
X152003200Y-52138600D02*
X152403200Y-52738601D01*
%TO.C,D5*%
X152953200Y-33688200D02*
X151853200Y-33688200D01*
X152803200Y-33088200D02*
X152003200Y-33088200D01*
X152403200Y-34088200D02*
X152403200Y-33688201D01*
X152403200Y-33688201D02*
X152803200Y-33088200D01*
X152403200Y-33088199D02*
X152403200Y-32588200D01*
X152003200Y-33088200D02*
X152403200Y-33688201D01*
%TO.C,D14*%
X95802000Y-76551600D02*
X94702000Y-76551600D01*
X95652000Y-75951600D02*
X94852000Y-75951600D01*
X95252000Y-76951600D02*
X95252000Y-76551601D01*
X95252000Y-76551601D02*
X95652000Y-75951600D01*
X95252000Y-75951599D02*
X95252000Y-75451600D01*
X94852000Y-75951600D02*
X95252000Y-76551601D01*
%TO.C,D8*%
X95802000Y-57501200D02*
X94702000Y-57501200D01*
X95652000Y-56901200D02*
X94852000Y-56901200D01*
X95252000Y-57901200D02*
X95252000Y-57501201D01*
X95252000Y-57501201D02*
X95652000Y-56901200D01*
X95252000Y-56901199D02*
X95252000Y-56401200D01*
X94852000Y-56901200D02*
X95252000Y-57501201D01*
%TO.C,D19*%
X124377600Y-88458100D02*
X123277600Y-88458100D01*
X124227600Y-87858100D02*
X123427600Y-87858100D01*
X123827600Y-88858100D02*
X123827600Y-88458101D01*
X123827600Y-88458101D02*
X124227600Y-87858100D01*
X123827600Y-87858099D02*
X123827600Y-87358100D01*
X123427600Y-87858100D02*
X123827600Y-88458101D01*
%TO.C,D4*%
X133902800Y-26544300D02*
X132802800Y-26544300D01*
X133752800Y-25944300D02*
X132952800Y-25944300D01*
X133352800Y-26944300D02*
X133352800Y-26544301D01*
X133352800Y-26544301D02*
X133752800Y-25944300D01*
X133352800Y-25944299D02*
X133352800Y-25444300D01*
X132952800Y-25944300D02*
X133352800Y-26544301D01*
%TO.C,D23*%
X189242560Y-115886780D02*
X188523258Y-115835724D01*
X188997673Y-116203056D02*
X189393017Y-116509164D01*
X188752786Y-116519331D02*
X189242560Y-115886780D01*
X188523258Y-115835724D02*
X188752786Y-116519331D01*
X188206983Y-115590838D02*
X188523258Y-115835724D01*
X188186539Y-116270604D02*
X188859979Y-115400846D01*
%TD*%
M02*
