%TF.GenerationSoftware,KiCad,Pcbnew,9.0.2*%
%TF.CreationDate,2025-06-30T19:49:53-10:00*%
%TF.ProjectId,jug,6a75672e-6b69-4636-9164-5f7063625858,rev?*%
%TF.SameCoordinates,Original*%
%TF.FileFunction,Profile,NP*%
%FSLAX46Y46*%
G04 Gerber Fmt 4.6, Leading zero omitted, Abs format (unit mm)*
G04 Created by KiCad (PCBNEW 9.0.2) date 2025-06-30 19:49:53*
%MOMM*%
%LPD*%
G01*
G04 APERTURE LIST*
%TA.AperFunction,Profile*%
%ADD10C,0.050000*%
%TD*%
G04 APERTURE END LIST*
D10*
X116297600Y-77948400D02*
G75*
G02*
X112297600Y-77948400I-2000000J0D01*
G01*
X112297600Y-77948400D02*
G75*
G02*
X116297600Y-77948400I2000000J0D01*
G01*
X116297600Y-35718000D02*
G75*
G02*
X112297600Y-35718000I-2000000J0D01*
G01*
X112297600Y-35718000D02*
G75*
G02*
X116297600Y-35718000I2000000J0D01*
G01*
X154403000Y-42863600D02*
G75*
G02*
X150403000Y-42863600I-2000000J0D01*
G01*
X150403000Y-42863600D02*
G75*
G02*
X154403000Y-42863600I2000000J0D01*
G01*
X150825000Y-83342000D02*
G75*
G02*
X146825000Y-83342000I-2000000J0D01*
G01*
X146825000Y-83342000D02*
G75*
G02*
X150825000Y-83342000I2000000J0D01*
G01*
X188519300Y-101214500D02*
G75*
G02*
X184519300Y-101214500I-2000000J0D01*
G01*
X184519300Y-101214500D02*
G75*
G02*
X188519300Y-101214500I2000000J0D01*
G01*
X78198400Y-67864200D02*
G75*
G02*
X74198400Y-67864200I-2000000J0D01*
G01*
X74198400Y-67864200D02*
G75*
G02*
X78198400Y-67864200I2000000J0D01*
G01*
X78198400Y-48814600D02*
G75*
G02*
X74198400Y-48814600I-2000000J0D01*
G01*
X74198400Y-48814600D02*
G75*
G02*
X78198400Y-48814600I2000000J0D01*
G01*
X57151200Y-30956900D02*
X57151200Y-88108100D01*
X142878000Y-104777200D02*
X161928400Y-104777200D01*
X114302400Y-16669100D02*
X57151200Y-30956900D01*
X76201600Y-88108100D02*
X104777200Y-97633300D01*
X171440000Y-28500000D02*
X133352800Y-16669100D01*
X194180000Y-124830000D02*
X179010000Y-113300000D01*
X133352800Y-16669100D02*
X114302400Y-16669100D01*
X192150000Y-87400000D02*
X192190000Y-28500000D01*
X57151200Y-88108100D02*
X76201600Y-88108100D01*
X194180000Y-124830000D02*
X211480000Y-102100000D01*
X161928400Y-104777200D02*
X179010000Y-113300000D01*
X192190000Y-28500000D02*
X171440000Y-28500000D01*
X211480000Y-102100000D02*
X192150000Y-87400000D01*
X104777200Y-97633300D02*
X142878000Y-104777200D01*
M02*
