M48
; DRILL file {KiCad 9.0.2} date 2025-06-30T19:49:48-1000
; FORMAT={-:-/ absolute / metric / decimal}
; #@! TF.CreationDate,2025-06-30T19:49:48-10:00
; #@! TF.GenerationSoftware,Kicad,Pcbnew,9.0.2
; #@! TF.FileFunction,NonPlated,1,2,NPTH
FMAT,2
METRIC
; #@! TA.AperFunction,NonPlated,NPTH,ComponentDrill
T1C1.750
; #@! TA.AperFunction,NonPlated,NPTH,ComponentDrill
T2C4.000
%
G90
G05
T1
X61.596Y-40.482
X61.596Y-59.532
X61.596Y-78.583
X71.756Y-40.482
X71.756Y-59.532
X71.756Y-78.583
X80.647Y-38.101
X80.647Y-57.151
X80.647Y-76.202
X90.807Y-38.101
X90.807Y-57.151
X90.807Y-76.202
X99.697Y-30.957
X99.697Y-50.007
X99.697Y-69.058
X109.222Y-88.108
X109.857Y-30.957
X109.857Y-50.007
X109.857Y-69.058
X118.748Y-26.194
X118.748Y-45.245
X118.748Y-64.295
X119.382Y-88.108
X128.273Y-90.489
X128.908Y-26.194
X128.908Y-45.245
X128.908Y-64.295
X137.798Y-33.338
X137.798Y-52.389
X137.798Y-71.439
X138.433Y-90.489
X147.323Y-95.252
X147.958Y-33.338
X147.958Y-52.389
X147.958Y-71.439
X156.848Y-38.101
X156.848Y-57.151
X156.848Y-76.202
X157.483Y-95.252
X167.008Y-38.101
X167.008Y-57.151
X167.008Y-76.202
X172.304Y-93.983
X181.396Y-98.517
X191.206Y-104.625
X199.294Y-110.775
T2
X66.676Y-40.482
X66.676Y-59.532
X66.676Y-78.583
X85.727Y-38.101
X85.727Y-57.151
X85.727Y-76.202
X104.777Y-30.957
X104.777Y-50.007
X104.777Y-69.058
X114.302Y-88.108
X123.828Y-26.194
X123.828Y-45.245
X123.828Y-64.295
X133.353Y-90.489
X142.878Y-33.338
X142.878Y-52.389
X142.878Y-71.439
X152.403Y-95.252
X161.928Y-38.101
X161.928Y-57.151
X161.928Y-76.202
X176.85Y-96.25
X195.25Y-107.7
M30
