M48
; DRILL file {KiCad 9.0.2} date 2025-06-30T19:49:48-1000
; FORMAT={-:-/ absolute / metric / decimal}
; #@! TF.CreationDate,2025-06-30T19:49:48-10:00
; #@! TF.GenerationSoftware,Kicad,Pcbnew,9.0.2
; #@! TF.FileFunction,Plated,1,2,PTH
FMAT,2
METRIC
; #@! TA.AperFunction,Plated,PTH,ViaDrill
T1C0.300
; #@! TA.AperFunction,Plated,PTH,ComponentDrill
T2C0.400
; #@! TA.AperFunction,Plated,PTH,ComponentDrill
T3C0.800
; #@! TA.AperFunction,Plated,PTH,ComponentDrill
T4C0.950
; #@! TA.AperFunction,Plated,PTH,ComponentDrill
T5C1.100
; #@! TA.AperFunction,Plated,PTH,ComponentDrill
T6C2.300
; #@! TA.AperFunction,Plated,PTH,ComponentDrill
T7C3.050
%
G90
G05
T1
X173.275Y-65.6
X173.275Y-69.0
X174.676Y-73.808
X175.9Y-64.8
X175.9Y-66.4
X175.9Y-68.3
X175.9Y-69.7
X178.476Y-73.795
X178.625Y-65.6
X178.625Y-69.0
X180.344Y-39.811
X181.743Y-39.873
X183.413Y-62.013
T2
X179.41Y-32.26
X179.41Y-34.8
X179.41Y-37.34
X179.41Y-39.88
X179.41Y-42.42
X179.41Y-44.96
X179.41Y-47.5
X179.41Y-50.04
X179.41Y-52.58
X179.41Y-55.12
X179.41Y-57.66
X179.41Y-60.2
X187.03Y-32.26
X187.03Y-34.8
X187.03Y-37.34
X187.03Y-39.88
X187.03Y-42.42
X187.03Y-44.96
X187.03Y-47.5
X187.03Y-50.04
X187.03Y-52.58
X187.03Y-55.12
X187.03Y-57.66
X187.03Y-60.2
T3
X76.202Y-36.672
X76.202Y-36.672
X76.202Y-44.292
X76.202Y-44.292
X76.202Y-55.722
X76.202Y-55.722
X76.202Y-63.342
X76.202Y-63.342
X76.202Y-74.773
X76.202Y-74.773
X76.202Y-82.393
X76.202Y-82.393
X95.252Y-34.291
X95.252Y-34.291
X95.252Y-41.911
X95.252Y-41.911
X95.252Y-53.341
X95.252Y-53.341
X95.252Y-60.961
X95.252Y-60.961
X95.252Y-72.392
X95.252Y-72.392
X95.252Y-80.012
X95.252Y-80.012
X114.302Y-23.574
X114.302Y-23.574
X114.302Y-31.194
X114.302Y-31.194
X114.302Y-46.197
X114.302Y-46.197
X114.302Y-53.817
X114.302Y-53.817
X114.302Y-65.248
X114.302Y-65.248
X114.302Y-72.868
X114.302Y-72.868
X123.828Y-84.298
X123.828Y-84.298
X123.828Y-91.918
X123.828Y-91.918
X133.353Y-22.384
X133.353Y-22.384
X133.353Y-30.004
X133.353Y-30.004
X133.353Y-41.435
X133.353Y-41.435
X133.353Y-49.055
X133.353Y-49.055
X133.353Y-60.485
X133.353Y-60.485
X133.353Y-68.105
X133.353Y-68.105
X142.878Y-86.679
X142.878Y-86.679
X142.878Y-94.299
X142.878Y-94.299
X152.403Y-29.528
X152.403Y-29.528
X152.403Y-37.148
X152.403Y-37.148
X152.403Y-48.579
X152.403Y-48.579
X152.403Y-56.199
X152.403Y-56.199
X152.403Y-67.629
X152.403Y-67.629
X152.403Y-75.249
X152.403Y-75.249
X161.928Y-91.442
X161.928Y-91.442
X161.928Y-99.062
X161.928Y-99.062
X168.79Y-104.05
X168.79Y-104.05
X171.454Y-34.291
X171.454Y-34.291
X171.454Y-41.911
X171.454Y-41.911
X171.454Y-53.341
X171.454Y-53.341
X171.454Y-60.961
X171.454Y-60.961
X171.454Y-72.392
X171.454Y-72.392
X171.454Y-80.012
X171.454Y-80.012
X175.61Y-107.45
X175.61Y-107.45
X185.787Y-113.717
X185.787Y-113.717
X191.813Y-118.383
X191.813Y-118.383
T4
X182.84Y-67.35
X182.84Y-69.85
X182.84Y-71.85
X182.84Y-74.35
T5
X175.6Y-32.26
X175.6Y-34.8
X175.6Y-37.34
X175.6Y-39.88
X175.6Y-42.42
X175.6Y-44.96
X175.6Y-47.5
X175.6Y-50.04
X175.6Y-52.58
X175.6Y-55.12
X175.6Y-57.66
X175.6Y-60.2
X190.84Y-32.26
X190.84Y-34.8
X190.84Y-37.34
X190.84Y-39.88
X190.84Y-42.42
X190.84Y-44.96
X190.84Y-47.5
X190.84Y-50.04
X190.84Y-52.58
X190.84Y-55.12
X190.84Y-57.66
X190.84Y-60.2
T6
X185.55Y-64.28
X185.55Y-77.42
T7
X62.866Y-37.942
X62.866Y-56.992
X62.866Y-76.043
X64.136Y-35.402
X64.136Y-54.453
X64.136Y-73.503
X69.216Y-35.402
X69.216Y-54.453
X69.216Y-73.503
X70.486Y-37.942
X70.486Y-56.992
X70.486Y-76.043
X81.917Y-35.561
X81.917Y-54.611
X81.917Y-73.662
X83.187Y-33.021
X83.187Y-52.071
X83.187Y-71.122
X88.267Y-33.021
X88.267Y-52.071
X88.267Y-71.122
X89.537Y-35.561
X89.537Y-54.611
X89.537Y-73.662
X100.967Y-28.417
X100.967Y-47.467
X100.967Y-66.518
X102.237Y-25.877
X102.237Y-44.927
X102.237Y-63.978
X107.317Y-25.877
X107.317Y-44.927
X107.317Y-63.978
X108.587Y-28.417
X108.587Y-47.467
X108.587Y-66.518
X110.492Y-85.568
X111.762Y-83.028
X116.842Y-83.028
X118.112Y-85.568
X120.018Y-23.654
X120.018Y-42.705
X120.018Y-61.755
X121.288Y-21.114
X121.288Y-40.165
X121.288Y-59.215
X126.368Y-21.114
X126.368Y-40.165
X126.368Y-59.215
X127.638Y-23.654
X127.638Y-42.705
X127.638Y-61.755
X129.543Y-87.949
X130.813Y-85.409
X135.893Y-85.409
X137.163Y-87.949
X139.068Y-30.798
X139.068Y-49.849
X139.068Y-68.899
X140.338Y-28.258
X140.338Y-47.309
X140.338Y-66.359
X145.418Y-28.258
X145.418Y-47.309
X145.418Y-66.359
X146.688Y-30.798
X146.688Y-49.849
X146.688Y-68.899
X148.593Y-92.712
X149.863Y-90.172
X154.943Y-90.172
X156.213Y-92.712
X158.118Y-35.561
X158.118Y-54.611
X158.118Y-73.662
X159.388Y-33.021
X159.388Y-52.071
X159.388Y-71.122
X164.468Y-33.021
X164.468Y-52.071
X164.468Y-71.122
X165.738Y-35.561
X165.738Y-54.611
X165.738Y-73.662
X174.574Y-92.277
X176.844Y-90.57
X181.39Y-92.837
X181.393Y-95.677
X193.755Y-103.372
X196.303Y-102.119
X199.82Y-107.984
X200.347Y-105.194
M30
