%TF.GenerationSoftware,KiCad,Pcbnew,9.0.2*%
%TF.CreationDate,2025-06-30T19:49:53-10:00*%
%TF.ProjectId,jug,6a75672e-6b69-4636-9164-5f7063625858,rev?*%
%TF.SameCoordinates,Original*%
%TF.FileFunction,Paste,Bot*%
%TF.FilePolarity,Positive*%
%FSLAX46Y46*%
G04 Gerber Fmt 4.6, Leading zero omitted, Abs format (unit mm)*
G04 Created by KiCad (PCBNEW 9.0.2) date 2025-06-30 19:49:53*
%MOMM*%
%LPD*%
G01*
G04 APERTURE LIST*
G04 Aperture macros list*
%AMRoundRect*
0 Rectangle with rounded corners*
0 $1 Rounding radius*
0 $2 $3 $4 $5 $6 $7 $8 $9 X,Y pos of 4 corners*
0 Add a 4 corners polygon primitive as box body*
4,1,4,$2,$3,$4,$5,$6,$7,$8,$9,$2,$3,0*
0 Add four circle primitives for the rounded corners*
1,1,$1+$1,$2,$3*
1,1,$1+$1,$4,$5*
1,1,$1+$1,$6,$7*
1,1,$1+$1,$8,$9*
0 Add four rect primitives between the rounded corners*
20,1,$1+$1,$2,$3,$4,$5,0*
20,1,$1+$1,$4,$5,$6,$7,0*
20,1,$1+$1,$6,$7,$8,$9,0*
20,1,$1+$1,$8,$9,$2,$3,0*%
G04 Aperture macros list end*
%ADD10RoundRect,0.250001X0.624999X-0.462499X0.624999X0.462499X-0.624999X0.462499X-0.624999X-0.462499X0*%
%ADD11RoundRect,0.250000X-1.025000X-1.000000X1.025000X-1.000000X1.025000X1.000000X-1.025000X1.000000X0*%
%ADD12RoundRect,0.250000X-1.363506X-0.437582X0.471110X-1.352287X1.363506X0.437582X-0.471110X1.352287X0*%
%ADD13RoundRect,0.250000X-1.421196X-0.175576X0.210608X-1.416428X1.421196X0.175576X-0.210608X1.416428X0*%
%ADD14C,1.600000*%
%ADD15R,1.600000X1.600000*%
G04 APERTURE END LIST*
D10*
%TO.C,D24*%
X174676400Y-73807900D03*
X174676400Y-76782900D03*
%TD*%
D11*
%TO.C,S21*%
X145318200Y-92712000D03*
X158245200Y-90172000D03*
%TD*%
%TO.C,S1*%
X59591400Y-37942100D03*
X72518400Y-35402100D03*
%TD*%
%TO.C,S2*%
X78641800Y-35560800D03*
X91568800Y-33020800D03*
%TD*%
%TO.C,S3*%
X97692200Y-28416900D03*
X110619200Y-25876900D03*
%TD*%
%TO.C,S4*%
X116742600Y-23654300D03*
X129669600Y-21114300D03*
%TD*%
%TO.C,S5*%
X135793000Y-30798200D03*
X148720000Y-28258200D03*
%TD*%
%TO.C,S6*%
X154843400Y-35560800D03*
X167770400Y-33020800D03*
%TD*%
%TO.C,S7*%
X59591400Y-56992500D03*
X72518400Y-54452500D03*
%TD*%
%TO.C,S8*%
X78641800Y-54611200D03*
X91568800Y-52071200D03*
%TD*%
%TO.C,S9*%
X97692200Y-47467300D03*
X110619200Y-44927300D03*
%TD*%
%TO.C,S10*%
X116742600Y-42704700D03*
X129669600Y-40164700D03*
%TD*%
%TO.C,S11*%
X135793000Y-49848600D03*
X148720000Y-47308600D03*
%TD*%
%TO.C,S12*%
X154843400Y-54611200D03*
X167770400Y-52071200D03*
%TD*%
%TO.C,S13*%
X59591400Y-76042900D03*
X72518400Y-73502900D03*
%TD*%
%TO.C,S14*%
X78641800Y-73661600D03*
X91568800Y-71121600D03*
%TD*%
%TO.C,S15*%
X97692200Y-66517700D03*
X110619200Y-63977700D03*
%TD*%
%TO.C,S16*%
X116742600Y-61755100D03*
X129669600Y-59215100D03*
%TD*%
%TO.C,S17*%
X135793000Y-68899000D03*
X148720000Y-66359000D03*
%TD*%
%TO.C,S18*%
X154843400Y-73661600D03*
X167770400Y-71121600D03*
%TD*%
%TO.C,S19*%
X107217400Y-85568100D03*
X120144400Y-83028100D03*
%TD*%
%TO.C,S20*%
X126267800Y-87949400D03*
X139194800Y-85409400D03*
%TD*%
D12*
%TO.C,S22*%
X171642732Y-90815555D03*
X184344891Y-94310421D03*
%TD*%
D13*
%TO.C,S23*%
X191147773Y-101389647D03*
X202975137Y-107192437D03*
%TD*%
D10*
%TO.C,D25*%
X178476400Y-76770400D03*
X178476400Y-73795400D03*
%TD*%
D14*
%TO.C,U2*%
X190840000Y-32260000D03*
X175600000Y-32260000D03*
D15*
X175600000Y-32260000D03*
D14*
X190840000Y-34800000D03*
X175600000Y-34800000D03*
X190840000Y-37340000D03*
X175600000Y-37340000D03*
X190840000Y-39880000D03*
X175600000Y-39880000D03*
X190840000Y-42420000D03*
X175600000Y-42420000D03*
X190840000Y-44960000D03*
X175600000Y-44960000D03*
X190840000Y-47500000D03*
X175600000Y-47500000D03*
X190840000Y-50040000D03*
X175600000Y-50040000D03*
X190840000Y-52580000D03*
X175600000Y-52580000D03*
X190840000Y-55120000D03*
X175600000Y-55120000D03*
X190840000Y-57660000D03*
X175600000Y-57660000D03*
X190840000Y-60200000D03*
X175600000Y-60200000D03*
%TD*%
M02*
