%TF.GenerationSoftware,KiCad,Pcbnew,9.0.2*%
%TF.CreationDate,2025-06-30T19:49:53-10:00*%
%TF.ProjectId,jug,6a75672e-6b69-4636-9164-5f7063625858,rev?*%
%TF.SameCoordinates,Original*%
%TF.FileFunction,Legend,Top*%
%TF.FilePolarity,Positive*%
%FSLAX46Y46*%
G04 Gerber Fmt 4.6, Leading zero omitted, Abs format (unit mm)*
G04 Created by KiCad (PCBNEW 9.0.2) date 2025-06-30 19:49:53*
%MOMM*%
%LPD*%
G01*
G04 APERTURE LIST*
%ADD10C,0.150000*%
%ADD11C,0.100000*%
%ADD12C,0.120000*%
G04 APERTURE END LIST*
D10*
X173301220Y-76509685D02*
X172301220Y-76509685D01*
X172301220Y-76509685D02*
X172301220Y-76271590D01*
X172301220Y-76271590D02*
X172348839Y-76128733D01*
X172348839Y-76128733D02*
X172444077Y-76033495D01*
X172444077Y-76033495D02*
X172539315Y-75985876D01*
X172539315Y-75985876D02*
X172729791Y-75938257D01*
X172729791Y-75938257D02*
X172872648Y-75938257D01*
X172872648Y-75938257D02*
X173063124Y-75985876D01*
X173063124Y-75985876D02*
X173158362Y-76033495D01*
X173158362Y-76033495D02*
X173253601Y-76128733D01*
X173253601Y-76128733D02*
X173301220Y-76271590D01*
X173301220Y-76271590D02*
X173301220Y-76509685D01*
X172396458Y-75557304D02*
X172348839Y-75509685D01*
X172348839Y-75509685D02*
X172301220Y-75414447D01*
X172301220Y-75414447D02*
X172301220Y-75176352D01*
X172301220Y-75176352D02*
X172348839Y-75081114D01*
X172348839Y-75081114D02*
X172396458Y-75033495D01*
X172396458Y-75033495D02*
X172491696Y-74985876D01*
X172491696Y-74985876D02*
X172586934Y-74985876D01*
X172586934Y-74985876D02*
X172729791Y-75033495D01*
X172729791Y-75033495D02*
X173301220Y-75604923D01*
X173301220Y-75604923D02*
X173301220Y-74985876D01*
X172301220Y-74128733D02*
X172301220Y-74319209D01*
X172301220Y-74319209D02*
X172348839Y-74414447D01*
X172348839Y-74414447D02*
X172396458Y-74462066D01*
X172396458Y-74462066D02*
X172539315Y-74557304D01*
X172539315Y-74557304D02*
X172729791Y-74604923D01*
X172729791Y-74604923D02*
X173110743Y-74604923D01*
X173110743Y-74604923D02*
X173205981Y-74557304D01*
X173205981Y-74557304D02*
X173253601Y-74509685D01*
X173253601Y-74509685D02*
X173301220Y-74414447D01*
X173301220Y-74414447D02*
X173301220Y-74223971D01*
X173301220Y-74223971D02*
X173253601Y-74128733D01*
X173253601Y-74128733D02*
X173205981Y-74081114D01*
X173205981Y-74081114D02*
X173110743Y-74033495D01*
X173110743Y-74033495D02*
X172872648Y-74033495D01*
X172872648Y-74033495D02*
X172777410Y-74081114D01*
X172777410Y-74081114D02*
X172729791Y-74128733D01*
X172729791Y-74128733D02*
X172682172Y-74223971D01*
X172682172Y-74223971D02*
X172682172Y-74414447D01*
X172682172Y-74414447D02*
X172729791Y-74509685D01*
X172729791Y-74509685D02*
X172777410Y-74557304D01*
X172777410Y-74557304D02*
X172872648Y-74604923D01*
X151165105Y-87659200D02*
X151307962Y-87706819D01*
X151307962Y-87706819D02*
X151546057Y-87706819D01*
X151546057Y-87706819D02*
X151641295Y-87659200D01*
X151641295Y-87659200D02*
X151688914Y-87611580D01*
X151688914Y-87611580D02*
X151736533Y-87516342D01*
X151736533Y-87516342D02*
X151736533Y-87421104D01*
X151736533Y-87421104D02*
X151688914Y-87325866D01*
X151688914Y-87325866D02*
X151641295Y-87278247D01*
X151641295Y-87278247D02*
X151546057Y-87230628D01*
X151546057Y-87230628D02*
X151355581Y-87183009D01*
X151355581Y-87183009D02*
X151260343Y-87135390D01*
X151260343Y-87135390D02*
X151212724Y-87087771D01*
X151212724Y-87087771D02*
X151165105Y-86992533D01*
X151165105Y-86992533D02*
X151165105Y-86897295D01*
X151165105Y-86897295D02*
X151212724Y-86802057D01*
X151212724Y-86802057D02*
X151260343Y-86754438D01*
X151260343Y-86754438D02*
X151355581Y-86706819D01*
X151355581Y-86706819D02*
X151593676Y-86706819D01*
X151593676Y-86706819D02*
X151736533Y-86754438D01*
X152117486Y-86802057D02*
X152165105Y-86754438D01*
X152165105Y-86754438D02*
X152260343Y-86706819D01*
X152260343Y-86706819D02*
X152498438Y-86706819D01*
X152498438Y-86706819D02*
X152593676Y-86754438D01*
X152593676Y-86754438D02*
X152641295Y-86802057D01*
X152641295Y-86802057D02*
X152688914Y-86897295D01*
X152688914Y-86897295D02*
X152688914Y-86992533D01*
X152688914Y-86992533D02*
X152641295Y-87135390D01*
X152641295Y-87135390D02*
X152069867Y-87706819D01*
X152069867Y-87706819D02*
X152688914Y-87706819D01*
X153641295Y-87706819D02*
X153069867Y-87706819D01*
X153355581Y-87706819D02*
X153355581Y-86706819D01*
X153355581Y-86706819D02*
X153260343Y-86849676D01*
X153260343Y-86849676D02*
X153165105Y-86944914D01*
X153165105Y-86944914D02*
X153069867Y-86992533D01*
X65914495Y-32889300D02*
X66057352Y-32936919D01*
X66057352Y-32936919D02*
X66295447Y-32936919D01*
X66295447Y-32936919D02*
X66390685Y-32889300D01*
X66390685Y-32889300D02*
X66438304Y-32841680D01*
X66438304Y-32841680D02*
X66485923Y-32746442D01*
X66485923Y-32746442D02*
X66485923Y-32651204D01*
X66485923Y-32651204D02*
X66438304Y-32555966D01*
X66438304Y-32555966D02*
X66390685Y-32508347D01*
X66390685Y-32508347D02*
X66295447Y-32460728D01*
X66295447Y-32460728D02*
X66104971Y-32413109D01*
X66104971Y-32413109D02*
X66009733Y-32365490D01*
X66009733Y-32365490D02*
X65962114Y-32317871D01*
X65962114Y-32317871D02*
X65914495Y-32222633D01*
X65914495Y-32222633D02*
X65914495Y-32127395D01*
X65914495Y-32127395D02*
X65962114Y-32032157D01*
X65962114Y-32032157D02*
X66009733Y-31984538D01*
X66009733Y-31984538D02*
X66104971Y-31936919D01*
X66104971Y-31936919D02*
X66343066Y-31936919D01*
X66343066Y-31936919D02*
X66485923Y-31984538D01*
X67438304Y-32936919D02*
X66866876Y-32936919D01*
X67152590Y-32936919D02*
X67152590Y-31936919D01*
X67152590Y-31936919D02*
X67057352Y-32079776D01*
X67057352Y-32079776D02*
X66962114Y-32175014D01*
X66962114Y-32175014D02*
X66866876Y-32222633D01*
X84964895Y-30508000D02*
X85107752Y-30555619D01*
X85107752Y-30555619D02*
X85345847Y-30555619D01*
X85345847Y-30555619D02*
X85441085Y-30508000D01*
X85441085Y-30508000D02*
X85488704Y-30460380D01*
X85488704Y-30460380D02*
X85536323Y-30365142D01*
X85536323Y-30365142D02*
X85536323Y-30269904D01*
X85536323Y-30269904D02*
X85488704Y-30174666D01*
X85488704Y-30174666D02*
X85441085Y-30127047D01*
X85441085Y-30127047D02*
X85345847Y-30079428D01*
X85345847Y-30079428D02*
X85155371Y-30031809D01*
X85155371Y-30031809D02*
X85060133Y-29984190D01*
X85060133Y-29984190D02*
X85012514Y-29936571D01*
X85012514Y-29936571D02*
X84964895Y-29841333D01*
X84964895Y-29841333D02*
X84964895Y-29746095D01*
X84964895Y-29746095D02*
X85012514Y-29650857D01*
X85012514Y-29650857D02*
X85060133Y-29603238D01*
X85060133Y-29603238D02*
X85155371Y-29555619D01*
X85155371Y-29555619D02*
X85393466Y-29555619D01*
X85393466Y-29555619D02*
X85536323Y-29603238D01*
X85917276Y-29650857D02*
X85964895Y-29603238D01*
X85964895Y-29603238D02*
X86060133Y-29555619D01*
X86060133Y-29555619D02*
X86298228Y-29555619D01*
X86298228Y-29555619D02*
X86393466Y-29603238D01*
X86393466Y-29603238D02*
X86441085Y-29650857D01*
X86441085Y-29650857D02*
X86488704Y-29746095D01*
X86488704Y-29746095D02*
X86488704Y-29841333D01*
X86488704Y-29841333D02*
X86441085Y-29984190D01*
X86441085Y-29984190D02*
X85869657Y-30555619D01*
X85869657Y-30555619D02*
X86488704Y-30555619D01*
X104015295Y-23364100D02*
X104158152Y-23411719D01*
X104158152Y-23411719D02*
X104396247Y-23411719D01*
X104396247Y-23411719D02*
X104491485Y-23364100D01*
X104491485Y-23364100D02*
X104539104Y-23316480D01*
X104539104Y-23316480D02*
X104586723Y-23221242D01*
X104586723Y-23221242D02*
X104586723Y-23126004D01*
X104586723Y-23126004D02*
X104539104Y-23030766D01*
X104539104Y-23030766D02*
X104491485Y-22983147D01*
X104491485Y-22983147D02*
X104396247Y-22935528D01*
X104396247Y-22935528D02*
X104205771Y-22887909D01*
X104205771Y-22887909D02*
X104110533Y-22840290D01*
X104110533Y-22840290D02*
X104062914Y-22792671D01*
X104062914Y-22792671D02*
X104015295Y-22697433D01*
X104015295Y-22697433D02*
X104015295Y-22602195D01*
X104015295Y-22602195D02*
X104062914Y-22506957D01*
X104062914Y-22506957D02*
X104110533Y-22459338D01*
X104110533Y-22459338D02*
X104205771Y-22411719D01*
X104205771Y-22411719D02*
X104443866Y-22411719D01*
X104443866Y-22411719D02*
X104586723Y-22459338D01*
X104920057Y-22411719D02*
X105539104Y-22411719D01*
X105539104Y-22411719D02*
X105205771Y-22792671D01*
X105205771Y-22792671D02*
X105348628Y-22792671D01*
X105348628Y-22792671D02*
X105443866Y-22840290D01*
X105443866Y-22840290D02*
X105491485Y-22887909D01*
X105491485Y-22887909D02*
X105539104Y-22983147D01*
X105539104Y-22983147D02*
X105539104Y-23221242D01*
X105539104Y-23221242D02*
X105491485Y-23316480D01*
X105491485Y-23316480D02*
X105443866Y-23364100D01*
X105443866Y-23364100D02*
X105348628Y-23411719D01*
X105348628Y-23411719D02*
X105062914Y-23411719D01*
X105062914Y-23411719D02*
X104967676Y-23364100D01*
X104967676Y-23364100D02*
X104920057Y-23316480D01*
X123065695Y-18601500D02*
X123208552Y-18649119D01*
X123208552Y-18649119D02*
X123446647Y-18649119D01*
X123446647Y-18649119D02*
X123541885Y-18601500D01*
X123541885Y-18601500D02*
X123589504Y-18553880D01*
X123589504Y-18553880D02*
X123637123Y-18458642D01*
X123637123Y-18458642D02*
X123637123Y-18363404D01*
X123637123Y-18363404D02*
X123589504Y-18268166D01*
X123589504Y-18268166D02*
X123541885Y-18220547D01*
X123541885Y-18220547D02*
X123446647Y-18172928D01*
X123446647Y-18172928D02*
X123256171Y-18125309D01*
X123256171Y-18125309D02*
X123160933Y-18077690D01*
X123160933Y-18077690D02*
X123113314Y-18030071D01*
X123113314Y-18030071D02*
X123065695Y-17934833D01*
X123065695Y-17934833D02*
X123065695Y-17839595D01*
X123065695Y-17839595D02*
X123113314Y-17744357D01*
X123113314Y-17744357D02*
X123160933Y-17696738D01*
X123160933Y-17696738D02*
X123256171Y-17649119D01*
X123256171Y-17649119D02*
X123494266Y-17649119D01*
X123494266Y-17649119D02*
X123637123Y-17696738D01*
X124494266Y-17982452D02*
X124494266Y-18649119D01*
X124256171Y-17601500D02*
X124018076Y-18315785D01*
X124018076Y-18315785D02*
X124637123Y-18315785D01*
X142116095Y-25745400D02*
X142258952Y-25793019D01*
X142258952Y-25793019D02*
X142497047Y-25793019D01*
X142497047Y-25793019D02*
X142592285Y-25745400D01*
X142592285Y-25745400D02*
X142639904Y-25697780D01*
X142639904Y-25697780D02*
X142687523Y-25602542D01*
X142687523Y-25602542D02*
X142687523Y-25507304D01*
X142687523Y-25507304D02*
X142639904Y-25412066D01*
X142639904Y-25412066D02*
X142592285Y-25364447D01*
X142592285Y-25364447D02*
X142497047Y-25316828D01*
X142497047Y-25316828D02*
X142306571Y-25269209D01*
X142306571Y-25269209D02*
X142211333Y-25221590D01*
X142211333Y-25221590D02*
X142163714Y-25173971D01*
X142163714Y-25173971D02*
X142116095Y-25078733D01*
X142116095Y-25078733D02*
X142116095Y-24983495D01*
X142116095Y-24983495D02*
X142163714Y-24888257D01*
X142163714Y-24888257D02*
X142211333Y-24840638D01*
X142211333Y-24840638D02*
X142306571Y-24793019D01*
X142306571Y-24793019D02*
X142544666Y-24793019D01*
X142544666Y-24793019D02*
X142687523Y-24840638D01*
X143592285Y-24793019D02*
X143116095Y-24793019D01*
X143116095Y-24793019D02*
X143068476Y-25269209D01*
X143068476Y-25269209D02*
X143116095Y-25221590D01*
X143116095Y-25221590D02*
X143211333Y-25173971D01*
X143211333Y-25173971D02*
X143449428Y-25173971D01*
X143449428Y-25173971D02*
X143544666Y-25221590D01*
X143544666Y-25221590D02*
X143592285Y-25269209D01*
X143592285Y-25269209D02*
X143639904Y-25364447D01*
X143639904Y-25364447D02*
X143639904Y-25602542D01*
X143639904Y-25602542D02*
X143592285Y-25697780D01*
X143592285Y-25697780D02*
X143544666Y-25745400D01*
X143544666Y-25745400D02*
X143449428Y-25793019D01*
X143449428Y-25793019D02*
X143211333Y-25793019D01*
X143211333Y-25793019D02*
X143116095Y-25745400D01*
X143116095Y-25745400D02*
X143068476Y-25697780D01*
X161166495Y-30508000D02*
X161309352Y-30555619D01*
X161309352Y-30555619D02*
X161547447Y-30555619D01*
X161547447Y-30555619D02*
X161642685Y-30508000D01*
X161642685Y-30508000D02*
X161690304Y-30460380D01*
X161690304Y-30460380D02*
X161737923Y-30365142D01*
X161737923Y-30365142D02*
X161737923Y-30269904D01*
X161737923Y-30269904D02*
X161690304Y-30174666D01*
X161690304Y-30174666D02*
X161642685Y-30127047D01*
X161642685Y-30127047D02*
X161547447Y-30079428D01*
X161547447Y-30079428D02*
X161356971Y-30031809D01*
X161356971Y-30031809D02*
X161261733Y-29984190D01*
X161261733Y-29984190D02*
X161214114Y-29936571D01*
X161214114Y-29936571D02*
X161166495Y-29841333D01*
X161166495Y-29841333D02*
X161166495Y-29746095D01*
X161166495Y-29746095D02*
X161214114Y-29650857D01*
X161214114Y-29650857D02*
X161261733Y-29603238D01*
X161261733Y-29603238D02*
X161356971Y-29555619D01*
X161356971Y-29555619D02*
X161595066Y-29555619D01*
X161595066Y-29555619D02*
X161737923Y-29603238D01*
X162595066Y-29555619D02*
X162404590Y-29555619D01*
X162404590Y-29555619D02*
X162309352Y-29603238D01*
X162309352Y-29603238D02*
X162261733Y-29650857D01*
X162261733Y-29650857D02*
X162166495Y-29793714D01*
X162166495Y-29793714D02*
X162118876Y-29984190D01*
X162118876Y-29984190D02*
X162118876Y-30365142D01*
X162118876Y-30365142D02*
X162166495Y-30460380D01*
X162166495Y-30460380D02*
X162214114Y-30508000D01*
X162214114Y-30508000D02*
X162309352Y-30555619D01*
X162309352Y-30555619D02*
X162499828Y-30555619D01*
X162499828Y-30555619D02*
X162595066Y-30508000D01*
X162595066Y-30508000D02*
X162642685Y-30460380D01*
X162642685Y-30460380D02*
X162690304Y-30365142D01*
X162690304Y-30365142D02*
X162690304Y-30127047D01*
X162690304Y-30127047D02*
X162642685Y-30031809D01*
X162642685Y-30031809D02*
X162595066Y-29984190D01*
X162595066Y-29984190D02*
X162499828Y-29936571D01*
X162499828Y-29936571D02*
X162309352Y-29936571D01*
X162309352Y-29936571D02*
X162214114Y-29984190D01*
X162214114Y-29984190D02*
X162166495Y-30031809D01*
X162166495Y-30031809D02*
X162118876Y-30127047D01*
X65914495Y-51939700D02*
X66057352Y-51987319D01*
X66057352Y-51987319D02*
X66295447Y-51987319D01*
X66295447Y-51987319D02*
X66390685Y-51939700D01*
X66390685Y-51939700D02*
X66438304Y-51892080D01*
X66438304Y-51892080D02*
X66485923Y-51796842D01*
X66485923Y-51796842D02*
X66485923Y-51701604D01*
X66485923Y-51701604D02*
X66438304Y-51606366D01*
X66438304Y-51606366D02*
X66390685Y-51558747D01*
X66390685Y-51558747D02*
X66295447Y-51511128D01*
X66295447Y-51511128D02*
X66104971Y-51463509D01*
X66104971Y-51463509D02*
X66009733Y-51415890D01*
X66009733Y-51415890D02*
X65962114Y-51368271D01*
X65962114Y-51368271D02*
X65914495Y-51273033D01*
X65914495Y-51273033D02*
X65914495Y-51177795D01*
X65914495Y-51177795D02*
X65962114Y-51082557D01*
X65962114Y-51082557D02*
X66009733Y-51034938D01*
X66009733Y-51034938D02*
X66104971Y-50987319D01*
X66104971Y-50987319D02*
X66343066Y-50987319D01*
X66343066Y-50987319D02*
X66485923Y-51034938D01*
X66819257Y-50987319D02*
X67485923Y-50987319D01*
X67485923Y-50987319D02*
X67057352Y-51987319D01*
X84964895Y-49558400D02*
X85107752Y-49606019D01*
X85107752Y-49606019D02*
X85345847Y-49606019D01*
X85345847Y-49606019D02*
X85441085Y-49558400D01*
X85441085Y-49558400D02*
X85488704Y-49510780D01*
X85488704Y-49510780D02*
X85536323Y-49415542D01*
X85536323Y-49415542D02*
X85536323Y-49320304D01*
X85536323Y-49320304D02*
X85488704Y-49225066D01*
X85488704Y-49225066D02*
X85441085Y-49177447D01*
X85441085Y-49177447D02*
X85345847Y-49129828D01*
X85345847Y-49129828D02*
X85155371Y-49082209D01*
X85155371Y-49082209D02*
X85060133Y-49034590D01*
X85060133Y-49034590D02*
X85012514Y-48986971D01*
X85012514Y-48986971D02*
X84964895Y-48891733D01*
X84964895Y-48891733D02*
X84964895Y-48796495D01*
X84964895Y-48796495D02*
X85012514Y-48701257D01*
X85012514Y-48701257D02*
X85060133Y-48653638D01*
X85060133Y-48653638D02*
X85155371Y-48606019D01*
X85155371Y-48606019D02*
X85393466Y-48606019D01*
X85393466Y-48606019D02*
X85536323Y-48653638D01*
X86107752Y-49034590D02*
X86012514Y-48986971D01*
X86012514Y-48986971D02*
X85964895Y-48939352D01*
X85964895Y-48939352D02*
X85917276Y-48844114D01*
X85917276Y-48844114D02*
X85917276Y-48796495D01*
X85917276Y-48796495D02*
X85964895Y-48701257D01*
X85964895Y-48701257D02*
X86012514Y-48653638D01*
X86012514Y-48653638D02*
X86107752Y-48606019D01*
X86107752Y-48606019D02*
X86298228Y-48606019D01*
X86298228Y-48606019D02*
X86393466Y-48653638D01*
X86393466Y-48653638D02*
X86441085Y-48701257D01*
X86441085Y-48701257D02*
X86488704Y-48796495D01*
X86488704Y-48796495D02*
X86488704Y-48844114D01*
X86488704Y-48844114D02*
X86441085Y-48939352D01*
X86441085Y-48939352D02*
X86393466Y-48986971D01*
X86393466Y-48986971D02*
X86298228Y-49034590D01*
X86298228Y-49034590D02*
X86107752Y-49034590D01*
X86107752Y-49034590D02*
X86012514Y-49082209D01*
X86012514Y-49082209D02*
X85964895Y-49129828D01*
X85964895Y-49129828D02*
X85917276Y-49225066D01*
X85917276Y-49225066D02*
X85917276Y-49415542D01*
X85917276Y-49415542D02*
X85964895Y-49510780D01*
X85964895Y-49510780D02*
X86012514Y-49558400D01*
X86012514Y-49558400D02*
X86107752Y-49606019D01*
X86107752Y-49606019D02*
X86298228Y-49606019D01*
X86298228Y-49606019D02*
X86393466Y-49558400D01*
X86393466Y-49558400D02*
X86441085Y-49510780D01*
X86441085Y-49510780D02*
X86488704Y-49415542D01*
X86488704Y-49415542D02*
X86488704Y-49225066D01*
X86488704Y-49225066D02*
X86441085Y-49129828D01*
X86441085Y-49129828D02*
X86393466Y-49082209D01*
X86393466Y-49082209D02*
X86298228Y-49034590D01*
X104015295Y-42414500D02*
X104158152Y-42462119D01*
X104158152Y-42462119D02*
X104396247Y-42462119D01*
X104396247Y-42462119D02*
X104491485Y-42414500D01*
X104491485Y-42414500D02*
X104539104Y-42366880D01*
X104539104Y-42366880D02*
X104586723Y-42271642D01*
X104586723Y-42271642D02*
X104586723Y-42176404D01*
X104586723Y-42176404D02*
X104539104Y-42081166D01*
X104539104Y-42081166D02*
X104491485Y-42033547D01*
X104491485Y-42033547D02*
X104396247Y-41985928D01*
X104396247Y-41985928D02*
X104205771Y-41938309D01*
X104205771Y-41938309D02*
X104110533Y-41890690D01*
X104110533Y-41890690D02*
X104062914Y-41843071D01*
X104062914Y-41843071D02*
X104015295Y-41747833D01*
X104015295Y-41747833D02*
X104015295Y-41652595D01*
X104015295Y-41652595D02*
X104062914Y-41557357D01*
X104062914Y-41557357D02*
X104110533Y-41509738D01*
X104110533Y-41509738D02*
X104205771Y-41462119D01*
X104205771Y-41462119D02*
X104443866Y-41462119D01*
X104443866Y-41462119D02*
X104586723Y-41509738D01*
X105062914Y-42462119D02*
X105253390Y-42462119D01*
X105253390Y-42462119D02*
X105348628Y-42414500D01*
X105348628Y-42414500D02*
X105396247Y-42366880D01*
X105396247Y-42366880D02*
X105491485Y-42224023D01*
X105491485Y-42224023D02*
X105539104Y-42033547D01*
X105539104Y-42033547D02*
X105539104Y-41652595D01*
X105539104Y-41652595D02*
X105491485Y-41557357D01*
X105491485Y-41557357D02*
X105443866Y-41509738D01*
X105443866Y-41509738D02*
X105348628Y-41462119D01*
X105348628Y-41462119D02*
X105158152Y-41462119D01*
X105158152Y-41462119D02*
X105062914Y-41509738D01*
X105062914Y-41509738D02*
X105015295Y-41557357D01*
X105015295Y-41557357D02*
X104967676Y-41652595D01*
X104967676Y-41652595D02*
X104967676Y-41890690D01*
X104967676Y-41890690D02*
X105015295Y-41985928D01*
X105015295Y-41985928D02*
X105062914Y-42033547D01*
X105062914Y-42033547D02*
X105158152Y-42081166D01*
X105158152Y-42081166D02*
X105348628Y-42081166D01*
X105348628Y-42081166D02*
X105443866Y-42033547D01*
X105443866Y-42033547D02*
X105491485Y-41985928D01*
X105491485Y-41985928D02*
X105539104Y-41890690D01*
X122589505Y-37651900D02*
X122732362Y-37699519D01*
X122732362Y-37699519D02*
X122970457Y-37699519D01*
X122970457Y-37699519D02*
X123065695Y-37651900D01*
X123065695Y-37651900D02*
X123113314Y-37604280D01*
X123113314Y-37604280D02*
X123160933Y-37509042D01*
X123160933Y-37509042D02*
X123160933Y-37413804D01*
X123160933Y-37413804D02*
X123113314Y-37318566D01*
X123113314Y-37318566D02*
X123065695Y-37270947D01*
X123065695Y-37270947D02*
X122970457Y-37223328D01*
X122970457Y-37223328D02*
X122779981Y-37175709D01*
X122779981Y-37175709D02*
X122684743Y-37128090D01*
X122684743Y-37128090D02*
X122637124Y-37080471D01*
X122637124Y-37080471D02*
X122589505Y-36985233D01*
X122589505Y-36985233D02*
X122589505Y-36889995D01*
X122589505Y-36889995D02*
X122637124Y-36794757D01*
X122637124Y-36794757D02*
X122684743Y-36747138D01*
X122684743Y-36747138D02*
X122779981Y-36699519D01*
X122779981Y-36699519D02*
X123018076Y-36699519D01*
X123018076Y-36699519D02*
X123160933Y-36747138D01*
X124113314Y-37699519D02*
X123541886Y-37699519D01*
X123827600Y-37699519D02*
X123827600Y-36699519D01*
X123827600Y-36699519D02*
X123732362Y-36842376D01*
X123732362Y-36842376D02*
X123637124Y-36937614D01*
X123637124Y-36937614D02*
X123541886Y-36985233D01*
X124732362Y-36699519D02*
X124827600Y-36699519D01*
X124827600Y-36699519D02*
X124922838Y-36747138D01*
X124922838Y-36747138D02*
X124970457Y-36794757D01*
X124970457Y-36794757D02*
X125018076Y-36889995D01*
X125018076Y-36889995D02*
X125065695Y-37080471D01*
X125065695Y-37080471D02*
X125065695Y-37318566D01*
X125065695Y-37318566D02*
X125018076Y-37509042D01*
X125018076Y-37509042D02*
X124970457Y-37604280D01*
X124970457Y-37604280D02*
X124922838Y-37651900D01*
X124922838Y-37651900D02*
X124827600Y-37699519D01*
X124827600Y-37699519D02*
X124732362Y-37699519D01*
X124732362Y-37699519D02*
X124637124Y-37651900D01*
X124637124Y-37651900D02*
X124589505Y-37604280D01*
X124589505Y-37604280D02*
X124541886Y-37509042D01*
X124541886Y-37509042D02*
X124494267Y-37318566D01*
X124494267Y-37318566D02*
X124494267Y-37080471D01*
X124494267Y-37080471D02*
X124541886Y-36889995D01*
X124541886Y-36889995D02*
X124589505Y-36794757D01*
X124589505Y-36794757D02*
X124637124Y-36747138D01*
X124637124Y-36747138D02*
X124732362Y-36699519D01*
X141639905Y-44795800D02*
X141782762Y-44843419D01*
X141782762Y-44843419D02*
X142020857Y-44843419D01*
X142020857Y-44843419D02*
X142116095Y-44795800D01*
X142116095Y-44795800D02*
X142163714Y-44748180D01*
X142163714Y-44748180D02*
X142211333Y-44652942D01*
X142211333Y-44652942D02*
X142211333Y-44557704D01*
X142211333Y-44557704D02*
X142163714Y-44462466D01*
X142163714Y-44462466D02*
X142116095Y-44414847D01*
X142116095Y-44414847D02*
X142020857Y-44367228D01*
X142020857Y-44367228D02*
X141830381Y-44319609D01*
X141830381Y-44319609D02*
X141735143Y-44271990D01*
X141735143Y-44271990D02*
X141687524Y-44224371D01*
X141687524Y-44224371D02*
X141639905Y-44129133D01*
X141639905Y-44129133D02*
X141639905Y-44033895D01*
X141639905Y-44033895D02*
X141687524Y-43938657D01*
X141687524Y-43938657D02*
X141735143Y-43891038D01*
X141735143Y-43891038D02*
X141830381Y-43843419D01*
X141830381Y-43843419D02*
X142068476Y-43843419D01*
X142068476Y-43843419D02*
X142211333Y-43891038D01*
X143163714Y-44843419D02*
X142592286Y-44843419D01*
X142878000Y-44843419D02*
X142878000Y-43843419D01*
X142878000Y-43843419D02*
X142782762Y-43986276D01*
X142782762Y-43986276D02*
X142687524Y-44081514D01*
X142687524Y-44081514D02*
X142592286Y-44129133D01*
X144116095Y-44843419D02*
X143544667Y-44843419D01*
X143830381Y-44843419D02*
X143830381Y-43843419D01*
X143830381Y-43843419D02*
X143735143Y-43986276D01*
X143735143Y-43986276D02*
X143639905Y-44081514D01*
X143639905Y-44081514D02*
X143544667Y-44129133D01*
X160690305Y-49558400D02*
X160833162Y-49606019D01*
X160833162Y-49606019D02*
X161071257Y-49606019D01*
X161071257Y-49606019D02*
X161166495Y-49558400D01*
X161166495Y-49558400D02*
X161214114Y-49510780D01*
X161214114Y-49510780D02*
X161261733Y-49415542D01*
X161261733Y-49415542D02*
X161261733Y-49320304D01*
X161261733Y-49320304D02*
X161214114Y-49225066D01*
X161214114Y-49225066D02*
X161166495Y-49177447D01*
X161166495Y-49177447D02*
X161071257Y-49129828D01*
X161071257Y-49129828D02*
X160880781Y-49082209D01*
X160880781Y-49082209D02*
X160785543Y-49034590D01*
X160785543Y-49034590D02*
X160737924Y-48986971D01*
X160737924Y-48986971D02*
X160690305Y-48891733D01*
X160690305Y-48891733D02*
X160690305Y-48796495D01*
X160690305Y-48796495D02*
X160737924Y-48701257D01*
X160737924Y-48701257D02*
X160785543Y-48653638D01*
X160785543Y-48653638D02*
X160880781Y-48606019D01*
X160880781Y-48606019D02*
X161118876Y-48606019D01*
X161118876Y-48606019D02*
X161261733Y-48653638D01*
X162214114Y-49606019D02*
X161642686Y-49606019D01*
X161928400Y-49606019D02*
X161928400Y-48606019D01*
X161928400Y-48606019D02*
X161833162Y-48748876D01*
X161833162Y-48748876D02*
X161737924Y-48844114D01*
X161737924Y-48844114D02*
X161642686Y-48891733D01*
X162595067Y-48701257D02*
X162642686Y-48653638D01*
X162642686Y-48653638D02*
X162737924Y-48606019D01*
X162737924Y-48606019D02*
X162976019Y-48606019D01*
X162976019Y-48606019D02*
X163071257Y-48653638D01*
X163071257Y-48653638D02*
X163118876Y-48701257D01*
X163118876Y-48701257D02*
X163166495Y-48796495D01*
X163166495Y-48796495D02*
X163166495Y-48891733D01*
X163166495Y-48891733D02*
X163118876Y-49034590D01*
X163118876Y-49034590D02*
X162547448Y-49606019D01*
X162547448Y-49606019D02*
X163166495Y-49606019D01*
X65438305Y-70990100D02*
X65581162Y-71037719D01*
X65581162Y-71037719D02*
X65819257Y-71037719D01*
X65819257Y-71037719D02*
X65914495Y-70990100D01*
X65914495Y-70990100D02*
X65962114Y-70942480D01*
X65962114Y-70942480D02*
X66009733Y-70847242D01*
X66009733Y-70847242D02*
X66009733Y-70752004D01*
X66009733Y-70752004D02*
X65962114Y-70656766D01*
X65962114Y-70656766D02*
X65914495Y-70609147D01*
X65914495Y-70609147D02*
X65819257Y-70561528D01*
X65819257Y-70561528D02*
X65628781Y-70513909D01*
X65628781Y-70513909D02*
X65533543Y-70466290D01*
X65533543Y-70466290D02*
X65485924Y-70418671D01*
X65485924Y-70418671D02*
X65438305Y-70323433D01*
X65438305Y-70323433D02*
X65438305Y-70228195D01*
X65438305Y-70228195D02*
X65485924Y-70132957D01*
X65485924Y-70132957D02*
X65533543Y-70085338D01*
X65533543Y-70085338D02*
X65628781Y-70037719D01*
X65628781Y-70037719D02*
X65866876Y-70037719D01*
X65866876Y-70037719D02*
X66009733Y-70085338D01*
X66962114Y-71037719D02*
X66390686Y-71037719D01*
X66676400Y-71037719D02*
X66676400Y-70037719D01*
X66676400Y-70037719D02*
X66581162Y-70180576D01*
X66581162Y-70180576D02*
X66485924Y-70275814D01*
X66485924Y-70275814D02*
X66390686Y-70323433D01*
X67295448Y-70037719D02*
X67914495Y-70037719D01*
X67914495Y-70037719D02*
X67581162Y-70418671D01*
X67581162Y-70418671D02*
X67724019Y-70418671D01*
X67724019Y-70418671D02*
X67819257Y-70466290D01*
X67819257Y-70466290D02*
X67866876Y-70513909D01*
X67866876Y-70513909D02*
X67914495Y-70609147D01*
X67914495Y-70609147D02*
X67914495Y-70847242D01*
X67914495Y-70847242D02*
X67866876Y-70942480D01*
X67866876Y-70942480D02*
X67819257Y-70990100D01*
X67819257Y-70990100D02*
X67724019Y-71037719D01*
X67724019Y-71037719D02*
X67438305Y-71037719D01*
X67438305Y-71037719D02*
X67343067Y-70990100D01*
X67343067Y-70990100D02*
X67295448Y-70942480D01*
X84488705Y-68608800D02*
X84631562Y-68656419D01*
X84631562Y-68656419D02*
X84869657Y-68656419D01*
X84869657Y-68656419D02*
X84964895Y-68608800D01*
X84964895Y-68608800D02*
X85012514Y-68561180D01*
X85012514Y-68561180D02*
X85060133Y-68465942D01*
X85060133Y-68465942D02*
X85060133Y-68370704D01*
X85060133Y-68370704D02*
X85012514Y-68275466D01*
X85012514Y-68275466D02*
X84964895Y-68227847D01*
X84964895Y-68227847D02*
X84869657Y-68180228D01*
X84869657Y-68180228D02*
X84679181Y-68132609D01*
X84679181Y-68132609D02*
X84583943Y-68084990D01*
X84583943Y-68084990D02*
X84536324Y-68037371D01*
X84536324Y-68037371D02*
X84488705Y-67942133D01*
X84488705Y-67942133D02*
X84488705Y-67846895D01*
X84488705Y-67846895D02*
X84536324Y-67751657D01*
X84536324Y-67751657D02*
X84583943Y-67704038D01*
X84583943Y-67704038D02*
X84679181Y-67656419D01*
X84679181Y-67656419D02*
X84917276Y-67656419D01*
X84917276Y-67656419D02*
X85060133Y-67704038D01*
X86012514Y-68656419D02*
X85441086Y-68656419D01*
X85726800Y-68656419D02*
X85726800Y-67656419D01*
X85726800Y-67656419D02*
X85631562Y-67799276D01*
X85631562Y-67799276D02*
X85536324Y-67894514D01*
X85536324Y-67894514D02*
X85441086Y-67942133D01*
X86869657Y-67989752D02*
X86869657Y-68656419D01*
X86631562Y-67608800D02*
X86393467Y-68323085D01*
X86393467Y-68323085D02*
X87012514Y-68323085D01*
X103539105Y-61464900D02*
X103681962Y-61512519D01*
X103681962Y-61512519D02*
X103920057Y-61512519D01*
X103920057Y-61512519D02*
X104015295Y-61464900D01*
X104015295Y-61464900D02*
X104062914Y-61417280D01*
X104062914Y-61417280D02*
X104110533Y-61322042D01*
X104110533Y-61322042D02*
X104110533Y-61226804D01*
X104110533Y-61226804D02*
X104062914Y-61131566D01*
X104062914Y-61131566D02*
X104015295Y-61083947D01*
X104015295Y-61083947D02*
X103920057Y-61036328D01*
X103920057Y-61036328D02*
X103729581Y-60988709D01*
X103729581Y-60988709D02*
X103634343Y-60941090D01*
X103634343Y-60941090D02*
X103586724Y-60893471D01*
X103586724Y-60893471D02*
X103539105Y-60798233D01*
X103539105Y-60798233D02*
X103539105Y-60702995D01*
X103539105Y-60702995D02*
X103586724Y-60607757D01*
X103586724Y-60607757D02*
X103634343Y-60560138D01*
X103634343Y-60560138D02*
X103729581Y-60512519D01*
X103729581Y-60512519D02*
X103967676Y-60512519D01*
X103967676Y-60512519D02*
X104110533Y-60560138D01*
X105062914Y-61512519D02*
X104491486Y-61512519D01*
X104777200Y-61512519D02*
X104777200Y-60512519D01*
X104777200Y-60512519D02*
X104681962Y-60655376D01*
X104681962Y-60655376D02*
X104586724Y-60750614D01*
X104586724Y-60750614D02*
X104491486Y-60798233D01*
X105967676Y-60512519D02*
X105491486Y-60512519D01*
X105491486Y-60512519D02*
X105443867Y-60988709D01*
X105443867Y-60988709D02*
X105491486Y-60941090D01*
X105491486Y-60941090D02*
X105586724Y-60893471D01*
X105586724Y-60893471D02*
X105824819Y-60893471D01*
X105824819Y-60893471D02*
X105920057Y-60941090D01*
X105920057Y-60941090D02*
X105967676Y-60988709D01*
X105967676Y-60988709D02*
X106015295Y-61083947D01*
X106015295Y-61083947D02*
X106015295Y-61322042D01*
X106015295Y-61322042D02*
X105967676Y-61417280D01*
X105967676Y-61417280D02*
X105920057Y-61464900D01*
X105920057Y-61464900D02*
X105824819Y-61512519D01*
X105824819Y-61512519D02*
X105586724Y-61512519D01*
X105586724Y-61512519D02*
X105491486Y-61464900D01*
X105491486Y-61464900D02*
X105443867Y-61417280D01*
X122589505Y-56702300D02*
X122732362Y-56749919D01*
X122732362Y-56749919D02*
X122970457Y-56749919D01*
X122970457Y-56749919D02*
X123065695Y-56702300D01*
X123065695Y-56702300D02*
X123113314Y-56654680D01*
X123113314Y-56654680D02*
X123160933Y-56559442D01*
X123160933Y-56559442D02*
X123160933Y-56464204D01*
X123160933Y-56464204D02*
X123113314Y-56368966D01*
X123113314Y-56368966D02*
X123065695Y-56321347D01*
X123065695Y-56321347D02*
X122970457Y-56273728D01*
X122970457Y-56273728D02*
X122779981Y-56226109D01*
X122779981Y-56226109D02*
X122684743Y-56178490D01*
X122684743Y-56178490D02*
X122637124Y-56130871D01*
X122637124Y-56130871D02*
X122589505Y-56035633D01*
X122589505Y-56035633D02*
X122589505Y-55940395D01*
X122589505Y-55940395D02*
X122637124Y-55845157D01*
X122637124Y-55845157D02*
X122684743Y-55797538D01*
X122684743Y-55797538D02*
X122779981Y-55749919D01*
X122779981Y-55749919D02*
X123018076Y-55749919D01*
X123018076Y-55749919D02*
X123160933Y-55797538D01*
X124113314Y-56749919D02*
X123541886Y-56749919D01*
X123827600Y-56749919D02*
X123827600Y-55749919D01*
X123827600Y-55749919D02*
X123732362Y-55892776D01*
X123732362Y-55892776D02*
X123637124Y-55988014D01*
X123637124Y-55988014D02*
X123541886Y-56035633D01*
X124970457Y-55749919D02*
X124779981Y-55749919D01*
X124779981Y-55749919D02*
X124684743Y-55797538D01*
X124684743Y-55797538D02*
X124637124Y-55845157D01*
X124637124Y-55845157D02*
X124541886Y-55988014D01*
X124541886Y-55988014D02*
X124494267Y-56178490D01*
X124494267Y-56178490D02*
X124494267Y-56559442D01*
X124494267Y-56559442D02*
X124541886Y-56654680D01*
X124541886Y-56654680D02*
X124589505Y-56702300D01*
X124589505Y-56702300D02*
X124684743Y-56749919D01*
X124684743Y-56749919D02*
X124875219Y-56749919D01*
X124875219Y-56749919D02*
X124970457Y-56702300D01*
X124970457Y-56702300D02*
X125018076Y-56654680D01*
X125018076Y-56654680D02*
X125065695Y-56559442D01*
X125065695Y-56559442D02*
X125065695Y-56321347D01*
X125065695Y-56321347D02*
X125018076Y-56226109D01*
X125018076Y-56226109D02*
X124970457Y-56178490D01*
X124970457Y-56178490D02*
X124875219Y-56130871D01*
X124875219Y-56130871D02*
X124684743Y-56130871D01*
X124684743Y-56130871D02*
X124589505Y-56178490D01*
X124589505Y-56178490D02*
X124541886Y-56226109D01*
X124541886Y-56226109D02*
X124494267Y-56321347D01*
X141639905Y-63846200D02*
X141782762Y-63893819D01*
X141782762Y-63893819D02*
X142020857Y-63893819D01*
X142020857Y-63893819D02*
X142116095Y-63846200D01*
X142116095Y-63846200D02*
X142163714Y-63798580D01*
X142163714Y-63798580D02*
X142211333Y-63703342D01*
X142211333Y-63703342D02*
X142211333Y-63608104D01*
X142211333Y-63608104D02*
X142163714Y-63512866D01*
X142163714Y-63512866D02*
X142116095Y-63465247D01*
X142116095Y-63465247D02*
X142020857Y-63417628D01*
X142020857Y-63417628D02*
X141830381Y-63370009D01*
X141830381Y-63370009D02*
X141735143Y-63322390D01*
X141735143Y-63322390D02*
X141687524Y-63274771D01*
X141687524Y-63274771D02*
X141639905Y-63179533D01*
X141639905Y-63179533D02*
X141639905Y-63084295D01*
X141639905Y-63084295D02*
X141687524Y-62989057D01*
X141687524Y-62989057D02*
X141735143Y-62941438D01*
X141735143Y-62941438D02*
X141830381Y-62893819D01*
X141830381Y-62893819D02*
X142068476Y-62893819D01*
X142068476Y-62893819D02*
X142211333Y-62941438D01*
X143163714Y-63893819D02*
X142592286Y-63893819D01*
X142878000Y-63893819D02*
X142878000Y-62893819D01*
X142878000Y-62893819D02*
X142782762Y-63036676D01*
X142782762Y-63036676D02*
X142687524Y-63131914D01*
X142687524Y-63131914D02*
X142592286Y-63179533D01*
X143497048Y-62893819D02*
X144163714Y-62893819D01*
X144163714Y-62893819D02*
X143735143Y-63893819D01*
X160690305Y-68608800D02*
X160833162Y-68656419D01*
X160833162Y-68656419D02*
X161071257Y-68656419D01*
X161071257Y-68656419D02*
X161166495Y-68608800D01*
X161166495Y-68608800D02*
X161214114Y-68561180D01*
X161214114Y-68561180D02*
X161261733Y-68465942D01*
X161261733Y-68465942D02*
X161261733Y-68370704D01*
X161261733Y-68370704D02*
X161214114Y-68275466D01*
X161214114Y-68275466D02*
X161166495Y-68227847D01*
X161166495Y-68227847D02*
X161071257Y-68180228D01*
X161071257Y-68180228D02*
X160880781Y-68132609D01*
X160880781Y-68132609D02*
X160785543Y-68084990D01*
X160785543Y-68084990D02*
X160737924Y-68037371D01*
X160737924Y-68037371D02*
X160690305Y-67942133D01*
X160690305Y-67942133D02*
X160690305Y-67846895D01*
X160690305Y-67846895D02*
X160737924Y-67751657D01*
X160737924Y-67751657D02*
X160785543Y-67704038D01*
X160785543Y-67704038D02*
X160880781Y-67656419D01*
X160880781Y-67656419D02*
X161118876Y-67656419D01*
X161118876Y-67656419D02*
X161261733Y-67704038D01*
X162214114Y-68656419D02*
X161642686Y-68656419D01*
X161928400Y-68656419D02*
X161928400Y-67656419D01*
X161928400Y-67656419D02*
X161833162Y-67799276D01*
X161833162Y-67799276D02*
X161737924Y-67894514D01*
X161737924Y-67894514D02*
X161642686Y-67942133D01*
X162785543Y-68084990D02*
X162690305Y-68037371D01*
X162690305Y-68037371D02*
X162642686Y-67989752D01*
X162642686Y-67989752D02*
X162595067Y-67894514D01*
X162595067Y-67894514D02*
X162595067Y-67846895D01*
X162595067Y-67846895D02*
X162642686Y-67751657D01*
X162642686Y-67751657D02*
X162690305Y-67704038D01*
X162690305Y-67704038D02*
X162785543Y-67656419D01*
X162785543Y-67656419D02*
X162976019Y-67656419D01*
X162976019Y-67656419D02*
X163071257Y-67704038D01*
X163071257Y-67704038D02*
X163118876Y-67751657D01*
X163118876Y-67751657D02*
X163166495Y-67846895D01*
X163166495Y-67846895D02*
X163166495Y-67894514D01*
X163166495Y-67894514D02*
X163118876Y-67989752D01*
X163118876Y-67989752D02*
X163071257Y-68037371D01*
X163071257Y-68037371D02*
X162976019Y-68084990D01*
X162976019Y-68084990D02*
X162785543Y-68084990D01*
X162785543Y-68084990D02*
X162690305Y-68132609D01*
X162690305Y-68132609D02*
X162642686Y-68180228D01*
X162642686Y-68180228D02*
X162595067Y-68275466D01*
X162595067Y-68275466D02*
X162595067Y-68465942D01*
X162595067Y-68465942D02*
X162642686Y-68561180D01*
X162642686Y-68561180D02*
X162690305Y-68608800D01*
X162690305Y-68608800D02*
X162785543Y-68656419D01*
X162785543Y-68656419D02*
X162976019Y-68656419D01*
X162976019Y-68656419D02*
X163071257Y-68608800D01*
X163071257Y-68608800D02*
X163118876Y-68561180D01*
X163118876Y-68561180D02*
X163166495Y-68465942D01*
X163166495Y-68465942D02*
X163166495Y-68275466D01*
X163166495Y-68275466D02*
X163118876Y-68180228D01*
X163118876Y-68180228D02*
X163071257Y-68132609D01*
X163071257Y-68132609D02*
X162976019Y-68084990D01*
X113064305Y-80515300D02*
X113207162Y-80562919D01*
X113207162Y-80562919D02*
X113445257Y-80562919D01*
X113445257Y-80562919D02*
X113540495Y-80515300D01*
X113540495Y-80515300D02*
X113588114Y-80467680D01*
X113588114Y-80467680D02*
X113635733Y-80372442D01*
X113635733Y-80372442D02*
X113635733Y-80277204D01*
X113635733Y-80277204D02*
X113588114Y-80181966D01*
X113588114Y-80181966D02*
X113540495Y-80134347D01*
X113540495Y-80134347D02*
X113445257Y-80086728D01*
X113445257Y-80086728D02*
X113254781Y-80039109D01*
X113254781Y-80039109D02*
X113159543Y-79991490D01*
X113159543Y-79991490D02*
X113111924Y-79943871D01*
X113111924Y-79943871D02*
X113064305Y-79848633D01*
X113064305Y-79848633D02*
X113064305Y-79753395D01*
X113064305Y-79753395D02*
X113111924Y-79658157D01*
X113111924Y-79658157D02*
X113159543Y-79610538D01*
X113159543Y-79610538D02*
X113254781Y-79562919D01*
X113254781Y-79562919D02*
X113492876Y-79562919D01*
X113492876Y-79562919D02*
X113635733Y-79610538D01*
X114588114Y-80562919D02*
X114016686Y-80562919D01*
X114302400Y-80562919D02*
X114302400Y-79562919D01*
X114302400Y-79562919D02*
X114207162Y-79705776D01*
X114207162Y-79705776D02*
X114111924Y-79801014D01*
X114111924Y-79801014D02*
X114016686Y-79848633D01*
X115064305Y-80562919D02*
X115254781Y-80562919D01*
X115254781Y-80562919D02*
X115350019Y-80515300D01*
X115350019Y-80515300D02*
X115397638Y-80467680D01*
X115397638Y-80467680D02*
X115492876Y-80324823D01*
X115492876Y-80324823D02*
X115540495Y-80134347D01*
X115540495Y-80134347D02*
X115540495Y-79753395D01*
X115540495Y-79753395D02*
X115492876Y-79658157D01*
X115492876Y-79658157D02*
X115445257Y-79610538D01*
X115445257Y-79610538D02*
X115350019Y-79562919D01*
X115350019Y-79562919D02*
X115159543Y-79562919D01*
X115159543Y-79562919D02*
X115064305Y-79610538D01*
X115064305Y-79610538D02*
X115016686Y-79658157D01*
X115016686Y-79658157D02*
X114969067Y-79753395D01*
X114969067Y-79753395D02*
X114969067Y-79991490D01*
X114969067Y-79991490D02*
X115016686Y-80086728D01*
X115016686Y-80086728D02*
X115064305Y-80134347D01*
X115064305Y-80134347D02*
X115159543Y-80181966D01*
X115159543Y-80181966D02*
X115350019Y-80181966D01*
X115350019Y-80181966D02*
X115445257Y-80134347D01*
X115445257Y-80134347D02*
X115492876Y-80086728D01*
X115492876Y-80086728D02*
X115540495Y-79991490D01*
X132114705Y-82896600D02*
X132257562Y-82944219D01*
X132257562Y-82944219D02*
X132495657Y-82944219D01*
X132495657Y-82944219D02*
X132590895Y-82896600D01*
X132590895Y-82896600D02*
X132638514Y-82848980D01*
X132638514Y-82848980D02*
X132686133Y-82753742D01*
X132686133Y-82753742D02*
X132686133Y-82658504D01*
X132686133Y-82658504D02*
X132638514Y-82563266D01*
X132638514Y-82563266D02*
X132590895Y-82515647D01*
X132590895Y-82515647D02*
X132495657Y-82468028D01*
X132495657Y-82468028D02*
X132305181Y-82420409D01*
X132305181Y-82420409D02*
X132209943Y-82372790D01*
X132209943Y-82372790D02*
X132162324Y-82325171D01*
X132162324Y-82325171D02*
X132114705Y-82229933D01*
X132114705Y-82229933D02*
X132114705Y-82134695D01*
X132114705Y-82134695D02*
X132162324Y-82039457D01*
X132162324Y-82039457D02*
X132209943Y-81991838D01*
X132209943Y-81991838D02*
X132305181Y-81944219D01*
X132305181Y-81944219D02*
X132543276Y-81944219D01*
X132543276Y-81944219D02*
X132686133Y-81991838D01*
X133067086Y-82039457D02*
X133114705Y-81991838D01*
X133114705Y-81991838D02*
X133209943Y-81944219D01*
X133209943Y-81944219D02*
X133448038Y-81944219D01*
X133448038Y-81944219D02*
X133543276Y-81991838D01*
X133543276Y-81991838D02*
X133590895Y-82039457D01*
X133590895Y-82039457D02*
X133638514Y-82134695D01*
X133638514Y-82134695D02*
X133638514Y-82229933D01*
X133638514Y-82229933D02*
X133590895Y-82372790D01*
X133590895Y-82372790D02*
X133019467Y-82944219D01*
X133019467Y-82944219D02*
X133638514Y-82944219D01*
X134257562Y-81944219D02*
X134352800Y-81944219D01*
X134352800Y-81944219D02*
X134448038Y-81991838D01*
X134448038Y-81991838D02*
X134495657Y-82039457D01*
X134495657Y-82039457D02*
X134543276Y-82134695D01*
X134543276Y-82134695D02*
X134590895Y-82325171D01*
X134590895Y-82325171D02*
X134590895Y-82563266D01*
X134590895Y-82563266D02*
X134543276Y-82753742D01*
X134543276Y-82753742D02*
X134495657Y-82848980D01*
X134495657Y-82848980D02*
X134448038Y-82896600D01*
X134448038Y-82896600D02*
X134352800Y-82944219D01*
X134352800Y-82944219D02*
X134257562Y-82944219D01*
X134257562Y-82944219D02*
X134162324Y-82896600D01*
X134162324Y-82896600D02*
X134114705Y-82848980D01*
X134114705Y-82848980D02*
X134067086Y-82753742D01*
X134067086Y-82753742D02*
X134019467Y-82563266D01*
X134019467Y-82563266D02*
X134019467Y-82325171D01*
X134019467Y-82325171D02*
X134067086Y-82134695D01*
X134067086Y-82134695D02*
X134114705Y-82039457D01*
X134114705Y-82039457D02*
X134162324Y-81991838D01*
X134162324Y-81991838D02*
X134257562Y-81944219D01*
D11*
X179277836Y-88605746D02*
X179384436Y-88712105D01*
X179384436Y-88712105D02*
X179597516Y-88818342D01*
X179597516Y-88818342D02*
X179703995Y-88818222D01*
X179703995Y-88818222D02*
X179767859Y-88796853D01*
X179767859Y-88796853D02*
X179852970Y-88732869D01*
X179852970Y-88732869D02*
X179895465Y-88647637D01*
X179895465Y-88647637D02*
X179895344Y-88541158D01*
X179895344Y-88541158D02*
X179873975Y-88477294D01*
X179873975Y-88477294D02*
X179809991Y-88392183D01*
X179809991Y-88392183D02*
X179660775Y-88264577D01*
X179660775Y-88264577D02*
X179596791Y-88179466D01*
X179596791Y-88179466D02*
X179575422Y-88115603D01*
X179575422Y-88115603D02*
X179575301Y-88009123D01*
X179575301Y-88009123D02*
X179617796Y-87923892D01*
X179617796Y-87923892D02*
X179702907Y-87859907D01*
X179702907Y-87859907D02*
X179766771Y-87838539D01*
X179766771Y-87838539D02*
X179873250Y-87838418D01*
X179873250Y-87838418D02*
X180086330Y-87944656D01*
X180086330Y-87944656D02*
X180192930Y-88051014D01*
X180512610Y-88263610D02*
X180576473Y-88242242D01*
X180576473Y-88242242D02*
X180682953Y-88242121D01*
X180682953Y-88242121D02*
X180896032Y-88348358D01*
X180896032Y-88348358D02*
X180960017Y-88433469D01*
X180960017Y-88433469D02*
X180981385Y-88497333D01*
X180981385Y-88497333D02*
X180981506Y-88603812D01*
X180981506Y-88603812D02*
X180939011Y-88689044D01*
X180939011Y-88689044D02*
X180832652Y-88795644D01*
X180832652Y-88795644D02*
X180066291Y-89052065D01*
X180066291Y-89052065D02*
X180620298Y-89328283D01*
X181364928Y-88688560D02*
X181428792Y-88667192D01*
X181428792Y-88667192D02*
X181535271Y-88667071D01*
X181535271Y-88667071D02*
X181748351Y-88773309D01*
X181748351Y-88773309D02*
X181812335Y-88858420D01*
X181812335Y-88858420D02*
X181833703Y-88922283D01*
X181833703Y-88922283D02*
X181833824Y-89028762D01*
X181833824Y-89028762D02*
X181791329Y-89113994D01*
X181791329Y-89113994D02*
X181684971Y-89220595D01*
X181684971Y-89220595D02*
X180918610Y-89477015D01*
X180918610Y-89477015D02*
X181472617Y-89753233D01*
X199061066Y-100642751D02*
X199145957Y-100767126D01*
X199145957Y-100767126D02*
X199335481Y-100911244D01*
X199335481Y-100911244D02*
X199440115Y-100930986D01*
X199440115Y-100930986D02*
X199506843Y-100921905D01*
X199506843Y-100921905D02*
X199602395Y-100874918D01*
X199602395Y-100874918D02*
X199660042Y-100799109D01*
X199660042Y-100799109D02*
X199679784Y-100694476D01*
X199679784Y-100694476D02*
X199670703Y-100627747D01*
X199670703Y-100627747D02*
X199623717Y-100532195D01*
X199623717Y-100532195D02*
X199500921Y-100378996D01*
X199500921Y-100378996D02*
X199453935Y-100283444D01*
X199453935Y-100283444D02*
X199444853Y-100216716D01*
X199444853Y-100216716D02*
X199464595Y-100112083D01*
X199464595Y-100112083D02*
X199522242Y-100036273D01*
X199522242Y-100036273D02*
X199617794Y-99989287D01*
X199617794Y-99989287D02*
X199684523Y-99980206D01*
X199684523Y-99980206D02*
X199789156Y-99999948D01*
X199789156Y-99999948D02*
X199978680Y-100144065D01*
X199978680Y-100144065D02*
X200063571Y-100268441D01*
X200337987Y-100536934D02*
X200404715Y-100527853D01*
X200404715Y-100527853D02*
X200509348Y-100547595D01*
X200509348Y-100547595D02*
X200698873Y-100691712D01*
X200698873Y-100691712D02*
X200745859Y-100787264D01*
X200745859Y-100787264D02*
X200754940Y-100853993D01*
X200754940Y-100853993D02*
X200735198Y-100958626D01*
X200735198Y-100958626D02*
X200677551Y-101034436D01*
X200677551Y-101034436D02*
X200553175Y-101119327D01*
X200553175Y-101119327D02*
X199752435Y-101228303D01*
X199752435Y-101228303D02*
X200245198Y-101603008D01*
X201115826Y-101008771D02*
X201608589Y-101383477D01*
X201608589Y-101383477D02*
X201112667Y-101484951D01*
X201112667Y-101484951D02*
X201226382Y-101571422D01*
X201226382Y-101571422D02*
X201273368Y-101666974D01*
X201273368Y-101666974D02*
X201282449Y-101733702D01*
X201282449Y-101733702D02*
X201262707Y-101838335D01*
X201262707Y-101838335D02*
X201118589Y-102027859D01*
X201118589Y-102027859D02*
X201023037Y-102074846D01*
X201023037Y-102074846D02*
X200956309Y-102083927D01*
X200956309Y-102083927D02*
X200851676Y-102064185D01*
X200851676Y-102064185D02*
X200624247Y-101891244D01*
X200624247Y-101891244D02*
X200577260Y-101795692D01*
X200577260Y-101795692D02*
X200568179Y-101728963D01*
D10*
X177101220Y-76497185D02*
X176101220Y-76497185D01*
X176101220Y-76497185D02*
X176101220Y-76259090D01*
X176101220Y-76259090D02*
X176148839Y-76116233D01*
X176148839Y-76116233D02*
X176244077Y-76020995D01*
X176244077Y-76020995D02*
X176339315Y-75973376D01*
X176339315Y-75973376D02*
X176529791Y-75925757D01*
X176529791Y-75925757D02*
X176672648Y-75925757D01*
X176672648Y-75925757D02*
X176863124Y-75973376D01*
X176863124Y-75973376D02*
X176958362Y-76020995D01*
X176958362Y-76020995D02*
X177053601Y-76116233D01*
X177053601Y-76116233D02*
X177101220Y-76259090D01*
X177101220Y-76259090D02*
X177101220Y-76497185D01*
X176196458Y-75544804D02*
X176148839Y-75497185D01*
X176148839Y-75497185D02*
X176101220Y-75401947D01*
X176101220Y-75401947D02*
X176101220Y-75163852D01*
X176101220Y-75163852D02*
X176148839Y-75068614D01*
X176148839Y-75068614D02*
X176196458Y-75020995D01*
X176196458Y-75020995D02*
X176291696Y-74973376D01*
X176291696Y-74973376D02*
X176386934Y-74973376D01*
X176386934Y-74973376D02*
X176529791Y-75020995D01*
X176529791Y-75020995D02*
X177101220Y-75592423D01*
X177101220Y-75592423D02*
X177101220Y-74973376D01*
X176101220Y-74640042D02*
X176101220Y-73973376D01*
X176101220Y-73973376D02*
X177101220Y-74401947D01*
X173166666Y-66654819D02*
X173166666Y-67369104D01*
X173166666Y-67369104D02*
X173119047Y-67511961D01*
X173119047Y-67511961D02*
X173023809Y-67607200D01*
X173023809Y-67607200D02*
X172880952Y-67654819D01*
X172880952Y-67654819D02*
X172785714Y-67654819D01*
X173642857Y-67654819D02*
X173642857Y-66654819D01*
X173642857Y-66654819D02*
X174023809Y-66654819D01*
X174023809Y-66654819D02*
X174119047Y-66702438D01*
X174119047Y-66702438D02*
X174166666Y-66750057D01*
X174166666Y-66750057D02*
X174214285Y-66845295D01*
X174214285Y-66845295D02*
X174214285Y-66988152D01*
X174214285Y-66988152D02*
X174166666Y-67083390D01*
X174166666Y-67083390D02*
X174119047Y-67131009D01*
X174119047Y-67131009D02*
X174023809Y-67178628D01*
X174023809Y-67178628D02*
X173642857Y-67178628D01*
X175119047Y-66654819D02*
X174642857Y-66654819D01*
X174642857Y-66654819D02*
X174595238Y-67131009D01*
X174595238Y-67131009D02*
X174642857Y-67083390D01*
X174642857Y-67083390D02*
X174738095Y-67035771D01*
X174738095Y-67035771D02*
X174976190Y-67035771D01*
X174976190Y-67035771D02*
X175071428Y-67083390D01*
X175071428Y-67083390D02*
X175119047Y-67131009D01*
X175119047Y-67131009D02*
X175166666Y-67226247D01*
X175166666Y-67226247D02*
X175166666Y-67464342D01*
X175166666Y-67464342D02*
X175119047Y-67559580D01*
X175119047Y-67559580D02*
X175071428Y-67607200D01*
X175071428Y-67607200D02*
X174976190Y-67654819D01*
X174976190Y-67654819D02*
X174738095Y-67654819D01*
X174738095Y-67654819D02*
X174642857Y-67607200D01*
X174642857Y-67607200D02*
X174595238Y-67559580D01*
X176966666Y-66654819D02*
X176966666Y-67369104D01*
X176966666Y-67369104D02*
X176919047Y-67511961D01*
X176919047Y-67511961D02*
X176823809Y-67607200D01*
X176823809Y-67607200D02*
X176680952Y-67654819D01*
X176680952Y-67654819D02*
X176585714Y-67654819D01*
X177442857Y-67654819D02*
X177442857Y-66654819D01*
X177442857Y-66654819D02*
X177823809Y-66654819D01*
X177823809Y-66654819D02*
X177919047Y-66702438D01*
X177919047Y-66702438D02*
X177966666Y-66750057D01*
X177966666Y-66750057D02*
X178014285Y-66845295D01*
X178014285Y-66845295D02*
X178014285Y-66988152D01*
X178014285Y-66988152D02*
X177966666Y-67083390D01*
X177966666Y-67083390D02*
X177919047Y-67131009D01*
X177919047Y-67131009D02*
X177823809Y-67178628D01*
X177823809Y-67178628D02*
X177442857Y-67178628D01*
X178871428Y-66654819D02*
X178680952Y-66654819D01*
X178680952Y-66654819D02*
X178585714Y-66702438D01*
X178585714Y-66702438D02*
X178538095Y-66750057D01*
X178538095Y-66750057D02*
X178442857Y-66892914D01*
X178442857Y-66892914D02*
X178395238Y-67083390D01*
X178395238Y-67083390D02*
X178395238Y-67464342D01*
X178395238Y-67464342D02*
X178442857Y-67559580D01*
X178442857Y-67559580D02*
X178490476Y-67607200D01*
X178490476Y-67607200D02*
X178585714Y-67654819D01*
X178585714Y-67654819D02*
X178776190Y-67654819D01*
X178776190Y-67654819D02*
X178871428Y-67607200D01*
X178871428Y-67607200D02*
X178919047Y-67559580D01*
X178919047Y-67559580D02*
X178966666Y-67464342D01*
X178966666Y-67464342D02*
X178966666Y-67226247D01*
X178966666Y-67226247D02*
X178919047Y-67131009D01*
X178919047Y-67131009D02*
X178871428Y-67083390D01*
X178871428Y-67083390D02*
X178776190Y-67035771D01*
X178776190Y-67035771D02*
X178585714Y-67035771D01*
X178585714Y-67035771D02*
X178490476Y-67083390D01*
X178490476Y-67083390D02*
X178442857Y-67131009D01*
X178442857Y-67131009D02*
X178395238Y-67226247D01*
X176966666Y-63254819D02*
X176966666Y-63969104D01*
X176966666Y-63969104D02*
X176919047Y-64111961D01*
X176919047Y-64111961D02*
X176823809Y-64207200D01*
X176823809Y-64207200D02*
X176680952Y-64254819D01*
X176680952Y-64254819D02*
X176585714Y-64254819D01*
X177442857Y-64254819D02*
X177442857Y-63254819D01*
X177442857Y-63254819D02*
X177823809Y-63254819D01*
X177823809Y-63254819D02*
X177919047Y-63302438D01*
X177919047Y-63302438D02*
X177966666Y-63350057D01*
X177966666Y-63350057D02*
X178014285Y-63445295D01*
X178014285Y-63445295D02*
X178014285Y-63588152D01*
X178014285Y-63588152D02*
X177966666Y-63683390D01*
X177966666Y-63683390D02*
X177919047Y-63731009D01*
X177919047Y-63731009D02*
X177823809Y-63778628D01*
X177823809Y-63778628D02*
X177442857Y-63778628D01*
X178395238Y-63350057D02*
X178442857Y-63302438D01*
X178442857Y-63302438D02*
X178538095Y-63254819D01*
X178538095Y-63254819D02*
X178776190Y-63254819D01*
X178776190Y-63254819D02*
X178871428Y-63302438D01*
X178871428Y-63302438D02*
X178919047Y-63350057D01*
X178919047Y-63350057D02*
X178966666Y-63445295D01*
X178966666Y-63445295D02*
X178966666Y-63540533D01*
X178966666Y-63540533D02*
X178919047Y-63683390D01*
X178919047Y-63683390D02*
X178347619Y-64254819D01*
X178347619Y-64254819D02*
X178966666Y-64254819D01*
X179104819Y-71183333D02*
X179819104Y-71183333D01*
X179819104Y-71183333D02*
X179961961Y-71230952D01*
X179961961Y-71230952D02*
X180057200Y-71326190D01*
X180057200Y-71326190D02*
X180104819Y-71469047D01*
X180104819Y-71469047D02*
X180104819Y-71564285D01*
X180104819Y-70183333D02*
X180104819Y-70754761D01*
X180104819Y-70469047D02*
X179104819Y-70469047D01*
X179104819Y-70469047D02*
X179247676Y-70564285D01*
X179247676Y-70564285D02*
X179342914Y-70659523D01*
X179342914Y-70659523D02*
X179390533Y-70754761D01*
X173166666Y-63254819D02*
X173166666Y-63969104D01*
X173166666Y-63969104D02*
X173119047Y-64111961D01*
X173119047Y-64111961D02*
X173023809Y-64207200D01*
X173023809Y-64207200D02*
X172880952Y-64254819D01*
X172880952Y-64254819D02*
X172785714Y-64254819D01*
X173642857Y-64254819D02*
X173642857Y-63254819D01*
X173642857Y-63254819D02*
X174023809Y-63254819D01*
X174023809Y-63254819D02*
X174119047Y-63302438D01*
X174119047Y-63302438D02*
X174166666Y-63350057D01*
X174166666Y-63350057D02*
X174214285Y-63445295D01*
X174214285Y-63445295D02*
X174214285Y-63588152D01*
X174214285Y-63588152D02*
X174166666Y-63683390D01*
X174166666Y-63683390D02*
X174119047Y-63731009D01*
X174119047Y-63731009D02*
X174023809Y-63778628D01*
X174023809Y-63778628D02*
X173642857Y-63778628D01*
X175166666Y-64254819D02*
X174595238Y-64254819D01*
X174880952Y-64254819D02*
X174880952Y-63254819D01*
X174880952Y-63254819D02*
X174785714Y-63397676D01*
X174785714Y-63397676D02*
X174690476Y-63492914D01*
X174690476Y-63492914D02*
X174595238Y-63540533D01*
D12*
%TO.C,D26*%
X173541400Y-73695400D02*
X173541400Y-77755400D01*
X175811400Y-77755400D02*
X175811400Y-73695400D01*
X173541400Y-77755400D02*
X175811400Y-77755400D01*
%TO.C,S21*%
X145303200Y-88152000D02*
X145303200Y-88742000D01*
X145303200Y-91612000D02*
X145303200Y-102352000D01*
X145303200Y-102352000D02*
X159503200Y-102352000D01*
X152603200Y-92552000D02*
X150633200Y-92552000D01*
X153933200Y-88352000D02*
X151403200Y-88352000D01*
X156503200Y-88352000D02*
X155913200Y-88352000D01*
X159503200Y-88152000D02*
X145303200Y-88152000D01*
X159503200Y-88152000D02*
X159503200Y-91212000D01*
X159503200Y-102352000D02*
X159503200Y-94212000D01*
X152603200Y-92552000D02*
G75*
G02*
X154603200Y-94552000I1J-1999999D01*
G01*
X156503200Y-88352000D02*
G75*
G02*
X158503200Y-90352000I0J-2000000D01*
G01*
%TO.C,S1*%
X59576400Y-33382100D02*
X59576400Y-33972100D01*
X59576400Y-36842100D02*
X59576400Y-47582100D01*
X59576400Y-47582100D02*
X73776400Y-47582100D01*
X66876400Y-37782100D02*
X64906400Y-37782100D01*
X68206400Y-33582100D02*
X65676400Y-33582100D01*
X70776400Y-33582100D02*
X70186400Y-33582100D01*
X73776400Y-33382100D02*
X59576400Y-33382100D01*
X73776400Y-33382100D02*
X73776400Y-36442100D01*
X73776400Y-47582100D02*
X73776400Y-39442100D01*
X66876400Y-37782100D02*
G75*
G02*
X68876400Y-39782100I1J-1999999D01*
G01*
X70776400Y-33582100D02*
G75*
G02*
X72776400Y-35582100I0J-2000000D01*
G01*
%TO.C,S2*%
X78626800Y-31000800D02*
X78626800Y-31590800D01*
X78626800Y-34460800D02*
X78626800Y-45200800D01*
X78626800Y-45200800D02*
X92826800Y-45200800D01*
X85926800Y-35400800D02*
X83956800Y-35400800D01*
X87256800Y-31200800D02*
X84726800Y-31200800D01*
X89826800Y-31200800D02*
X89236800Y-31200800D01*
X92826800Y-31000800D02*
X78626800Y-31000800D01*
X92826800Y-31000800D02*
X92826800Y-34060800D01*
X92826800Y-45200800D02*
X92826800Y-37060800D01*
X85926800Y-35400800D02*
G75*
G02*
X87926800Y-37400800I1J-1999999D01*
G01*
X89826800Y-31200800D02*
G75*
G02*
X91826800Y-33200800I0J-2000000D01*
G01*
%TO.C,S3*%
X97677200Y-23856900D02*
X97677200Y-24446900D01*
X97677200Y-27316900D02*
X97677200Y-38056900D01*
X97677200Y-38056900D02*
X111877200Y-38056900D01*
X104977200Y-28256900D02*
X103007200Y-28256900D01*
X106307200Y-24056900D02*
X103777200Y-24056900D01*
X108877200Y-24056900D02*
X108287200Y-24056900D01*
X111877200Y-23856900D02*
X97677200Y-23856900D01*
X111877200Y-23856900D02*
X111877200Y-26916900D01*
X111877200Y-38056900D02*
X111877200Y-29916900D01*
X104977200Y-28256900D02*
G75*
G02*
X106977200Y-30256900I1J-1999999D01*
G01*
X108877200Y-24056900D02*
G75*
G02*
X110877200Y-26056900I0J-2000000D01*
G01*
%TO.C,S4*%
X116727600Y-19094300D02*
X116727600Y-19684300D01*
X116727600Y-22554300D02*
X116727600Y-33294300D01*
X116727600Y-33294300D02*
X130927600Y-33294300D01*
X124027600Y-23494300D02*
X122057600Y-23494300D01*
X125357600Y-19294300D02*
X122827600Y-19294300D01*
X127927600Y-19294300D02*
X127337600Y-19294300D01*
X130927600Y-19094300D02*
X116727600Y-19094300D01*
X130927600Y-19094300D02*
X130927600Y-22154300D01*
X130927600Y-33294300D02*
X130927600Y-25154300D01*
X124027600Y-23494300D02*
G75*
G02*
X126027600Y-25494300I1J-1999999D01*
G01*
X127927600Y-19294300D02*
G75*
G02*
X129927600Y-21294300I0J-2000000D01*
G01*
%TO.C,S5*%
X135778000Y-26238200D02*
X135778000Y-26828200D01*
X135778000Y-29698200D02*
X135778000Y-40438200D01*
X135778000Y-40438200D02*
X149978000Y-40438200D01*
X143078000Y-30638200D02*
X141108000Y-30638200D01*
X144408000Y-26438200D02*
X141878000Y-26438200D01*
X146978000Y-26438200D02*
X146388000Y-26438200D01*
X149978000Y-26238200D02*
X135778000Y-26238200D01*
X149978000Y-26238200D02*
X149978000Y-29298200D01*
X149978000Y-40438200D02*
X149978000Y-32298200D01*
X143078000Y-30638200D02*
G75*
G02*
X145078000Y-32638200I1J-1999999D01*
G01*
X146978000Y-26438200D02*
G75*
G02*
X148978000Y-28438200I0J-2000000D01*
G01*
%TO.C,S6*%
X154828400Y-31000800D02*
X154828400Y-31590800D01*
X154828400Y-34460800D02*
X154828400Y-45200800D01*
X154828400Y-45200800D02*
X169028400Y-45200800D01*
X162128400Y-35400800D02*
X160158400Y-35400800D01*
X163458400Y-31200800D02*
X160928400Y-31200800D01*
X166028400Y-31200800D02*
X165438400Y-31200800D01*
X169028400Y-31000800D02*
X154828400Y-31000800D01*
X169028400Y-31000800D02*
X169028400Y-34060800D01*
X169028400Y-45200800D02*
X169028400Y-37060800D01*
X162128400Y-35400800D02*
G75*
G02*
X164128400Y-37400800I1J-1999999D01*
G01*
X166028400Y-31200800D02*
G75*
G02*
X168028400Y-33200800I0J-2000000D01*
G01*
%TO.C,S7*%
X59576400Y-52432500D02*
X59576400Y-53022500D01*
X59576400Y-55892500D02*
X59576400Y-66632500D01*
X59576400Y-66632500D02*
X73776400Y-66632500D01*
X66876400Y-56832500D02*
X64906400Y-56832500D01*
X68206400Y-52632500D02*
X65676400Y-52632500D01*
X70776400Y-52632500D02*
X70186400Y-52632500D01*
X73776400Y-52432500D02*
X59576400Y-52432500D01*
X73776400Y-52432500D02*
X73776400Y-55492500D01*
X73776400Y-66632500D02*
X73776400Y-58492500D01*
X66876400Y-56832500D02*
G75*
G02*
X68876400Y-58832500I1J-1999999D01*
G01*
X70776400Y-52632500D02*
G75*
G02*
X72776400Y-54632500I0J-2000000D01*
G01*
%TO.C,S8*%
X78626800Y-50051200D02*
X78626800Y-50641200D01*
X78626800Y-53511200D02*
X78626800Y-64251200D01*
X78626800Y-64251200D02*
X92826800Y-64251200D01*
X85926800Y-54451200D02*
X83956800Y-54451200D01*
X87256800Y-50251200D02*
X84726800Y-50251200D01*
X89826800Y-50251200D02*
X89236800Y-50251200D01*
X92826800Y-50051200D02*
X78626800Y-50051200D01*
X92826800Y-50051200D02*
X92826800Y-53111200D01*
X92826800Y-64251200D02*
X92826800Y-56111200D01*
X85926800Y-54451200D02*
G75*
G02*
X87926800Y-56451200I1J-1999999D01*
G01*
X89826800Y-50251200D02*
G75*
G02*
X91826800Y-52251200I0J-2000000D01*
G01*
%TO.C,S9*%
X97677200Y-42907300D02*
X97677200Y-43497300D01*
X97677200Y-46367300D02*
X97677200Y-57107300D01*
X97677200Y-57107300D02*
X111877200Y-57107300D01*
X104977200Y-47307300D02*
X103007200Y-47307300D01*
X106307200Y-43107300D02*
X103777200Y-43107300D01*
X108877200Y-43107300D02*
X108287200Y-43107300D01*
X111877200Y-42907300D02*
X97677200Y-42907300D01*
X111877200Y-42907300D02*
X111877200Y-45967300D01*
X111877200Y-57107300D02*
X111877200Y-48967300D01*
X104977200Y-47307300D02*
G75*
G02*
X106977200Y-49307300I1J-1999999D01*
G01*
X108877200Y-43107300D02*
G75*
G02*
X110877200Y-45107300I0J-2000000D01*
G01*
%TO.C,S10*%
X116727600Y-38144700D02*
X116727600Y-38734700D01*
X116727600Y-41604700D02*
X116727600Y-52344700D01*
X116727600Y-52344700D02*
X130927600Y-52344700D01*
X124027600Y-42544700D02*
X122057600Y-42544700D01*
X125357600Y-38344700D02*
X122827600Y-38344700D01*
X127927600Y-38344700D02*
X127337600Y-38344700D01*
X130927600Y-38144700D02*
X116727600Y-38144700D01*
X130927600Y-38144700D02*
X130927600Y-41204700D01*
X130927600Y-52344700D02*
X130927600Y-44204700D01*
X124027600Y-42544700D02*
G75*
G02*
X126027600Y-44544700I1J-1999999D01*
G01*
X127927600Y-38344700D02*
G75*
G02*
X129927600Y-40344700I0J-2000000D01*
G01*
%TO.C,S11*%
X135778000Y-45288600D02*
X135778000Y-45878600D01*
X135778000Y-48748600D02*
X135778000Y-59488600D01*
X135778000Y-59488600D02*
X149978000Y-59488600D01*
X143078000Y-49688600D02*
X141108000Y-49688600D01*
X144408000Y-45488600D02*
X141878000Y-45488600D01*
X146978000Y-45488600D02*
X146388000Y-45488600D01*
X149978000Y-45288600D02*
X135778000Y-45288600D01*
X149978000Y-45288600D02*
X149978000Y-48348600D01*
X149978000Y-59488600D02*
X149978000Y-51348600D01*
X143078000Y-49688600D02*
G75*
G02*
X145078000Y-51688600I1J-1999999D01*
G01*
X146978000Y-45488600D02*
G75*
G02*
X148978000Y-47488600I0J-2000000D01*
G01*
%TO.C,S12*%
X154828400Y-50051200D02*
X154828400Y-50641200D01*
X154828400Y-53511200D02*
X154828400Y-64251200D01*
X154828400Y-64251200D02*
X169028400Y-64251200D01*
X162128400Y-54451200D02*
X160158400Y-54451200D01*
X163458400Y-50251200D02*
X160928400Y-50251200D01*
X166028400Y-50251200D02*
X165438400Y-50251200D01*
X169028400Y-50051200D02*
X154828400Y-50051200D01*
X169028400Y-50051200D02*
X169028400Y-53111200D01*
X169028400Y-64251200D02*
X169028400Y-56111200D01*
X162128400Y-54451200D02*
G75*
G02*
X164128400Y-56451200I1J-1999999D01*
G01*
X166028400Y-50251200D02*
G75*
G02*
X168028400Y-52251200I0J-2000000D01*
G01*
%TO.C,S13*%
X59576400Y-71482900D02*
X59576400Y-72072900D01*
X59576400Y-74942900D02*
X59576400Y-85682900D01*
X59576400Y-85682900D02*
X73776400Y-85682900D01*
X66876400Y-75882900D02*
X64906400Y-75882900D01*
X68206400Y-71682900D02*
X65676400Y-71682900D01*
X70776400Y-71682900D02*
X70186400Y-71682900D01*
X73776400Y-71482900D02*
X59576400Y-71482900D01*
X73776400Y-71482900D02*
X73776400Y-74542900D01*
X73776400Y-85682900D02*
X73776400Y-77542900D01*
X66876400Y-75882900D02*
G75*
G02*
X68876400Y-77882900I1J-1999999D01*
G01*
X70776400Y-71682900D02*
G75*
G02*
X72776400Y-73682900I0J-2000000D01*
G01*
%TO.C,S14*%
X78626800Y-69101600D02*
X78626800Y-69691600D01*
X78626800Y-72561600D02*
X78626800Y-83301600D01*
X78626800Y-83301600D02*
X92826800Y-83301600D01*
X85926800Y-73501600D02*
X83956800Y-73501600D01*
X87256800Y-69301600D02*
X84726800Y-69301600D01*
X89826800Y-69301600D02*
X89236800Y-69301600D01*
X92826800Y-69101600D02*
X78626800Y-69101600D01*
X92826800Y-69101600D02*
X92826800Y-72161600D01*
X92826800Y-83301600D02*
X92826800Y-75161600D01*
X85926800Y-73501600D02*
G75*
G02*
X87926800Y-75501600I1J-1999999D01*
G01*
X89826800Y-69301600D02*
G75*
G02*
X91826800Y-71301600I0J-2000000D01*
G01*
%TO.C,S15*%
X97677200Y-61957700D02*
X97677200Y-62547700D01*
X97677200Y-65417700D02*
X97677200Y-76157700D01*
X97677200Y-76157700D02*
X111877200Y-76157700D01*
X104977200Y-66357700D02*
X103007200Y-66357700D01*
X106307200Y-62157700D02*
X103777200Y-62157700D01*
X108877200Y-62157700D02*
X108287200Y-62157700D01*
X111877200Y-61957700D02*
X97677200Y-61957700D01*
X111877200Y-61957700D02*
X111877200Y-65017700D01*
X111877200Y-76157700D02*
X111877200Y-68017700D01*
X104977200Y-66357700D02*
G75*
G02*
X106977200Y-68357700I1J-1999999D01*
G01*
X108877200Y-62157700D02*
G75*
G02*
X110877200Y-64157700I0J-2000000D01*
G01*
%TO.C,S16*%
X116727600Y-57195100D02*
X116727600Y-57785100D01*
X116727600Y-60655100D02*
X116727600Y-71395100D01*
X116727600Y-71395100D02*
X130927600Y-71395100D01*
X124027600Y-61595100D02*
X122057600Y-61595100D01*
X125357600Y-57395100D02*
X122827600Y-57395100D01*
X127927600Y-57395100D02*
X127337600Y-57395100D01*
X130927600Y-57195100D02*
X116727600Y-57195100D01*
X130927600Y-57195100D02*
X130927600Y-60255100D01*
X130927600Y-71395100D02*
X130927600Y-63255100D01*
X124027600Y-61595100D02*
G75*
G02*
X126027600Y-63595100I1J-1999999D01*
G01*
X127927600Y-57395100D02*
G75*
G02*
X129927600Y-59395100I0J-2000000D01*
G01*
%TO.C,S17*%
X135778000Y-64339000D02*
X135778000Y-64929000D01*
X135778000Y-67799000D02*
X135778000Y-78539000D01*
X135778000Y-78539000D02*
X149978000Y-78539000D01*
X143078000Y-68739000D02*
X141108000Y-68739000D01*
X144408000Y-64539000D02*
X141878000Y-64539000D01*
X146978000Y-64539000D02*
X146388000Y-64539000D01*
X149978000Y-64339000D02*
X135778000Y-64339000D01*
X149978000Y-64339000D02*
X149978000Y-67399000D01*
X149978000Y-78539000D02*
X149978000Y-70399000D01*
X143078000Y-68739000D02*
G75*
G02*
X145078000Y-70739000I1J-1999999D01*
G01*
X146978000Y-64539000D02*
G75*
G02*
X148978000Y-66539000I0J-2000000D01*
G01*
%TO.C,S18*%
X154828400Y-69101600D02*
X154828400Y-69691600D01*
X154828400Y-72561600D02*
X154828400Y-83301600D01*
X154828400Y-83301600D02*
X169028400Y-83301600D01*
X162128400Y-73501600D02*
X160158400Y-73501600D01*
X163458400Y-69301600D02*
X160928400Y-69301600D01*
X166028400Y-69301600D02*
X165438400Y-69301600D01*
X169028400Y-69101600D02*
X154828400Y-69101600D01*
X169028400Y-69101600D02*
X169028400Y-72161600D01*
X169028400Y-83301600D02*
X169028400Y-75161600D01*
X162128400Y-73501600D02*
G75*
G02*
X164128400Y-75501600I1J-1999999D01*
G01*
X166028400Y-69301600D02*
G75*
G02*
X168028400Y-71301600I0J-2000000D01*
G01*
%TO.C,S19*%
X107202400Y-81008100D02*
X107202400Y-81598100D01*
X107202400Y-84468100D02*
X107202400Y-95208100D01*
X107202400Y-95208100D02*
X121402400Y-95208100D01*
X114502400Y-85408100D02*
X112532400Y-85408100D01*
X115832400Y-81208100D02*
X113302400Y-81208100D01*
X118402400Y-81208100D02*
X117812400Y-81208100D01*
X121402400Y-81008100D02*
X107202400Y-81008100D01*
X121402400Y-81008100D02*
X121402400Y-84068100D01*
X121402400Y-95208100D02*
X121402400Y-87068100D01*
X114502400Y-85408100D02*
G75*
G02*
X116502400Y-87408100I1J-1999999D01*
G01*
X118402400Y-81208100D02*
G75*
G02*
X120402400Y-83208100I0J-2000000D01*
G01*
%TO.C,S20*%
X126252800Y-83389400D02*
X126252800Y-83979400D01*
X126252800Y-86849400D02*
X126252800Y-97589400D01*
X126252800Y-97589400D02*
X140452800Y-97589400D01*
X133552800Y-87789400D02*
X131582800Y-87789400D01*
X134882800Y-83589400D02*
X132352800Y-83589400D01*
X137452800Y-83589400D02*
X136862800Y-83589400D01*
X140452800Y-83389400D02*
X126252800Y-83389400D01*
X140452800Y-83389400D02*
X140452800Y-86449400D01*
X140452800Y-97589400D02*
X140452800Y-89449400D01*
X133552800Y-87789400D02*
G75*
G02*
X135552800Y-89789400I1J-1999999D01*
G01*
X137452800Y-83589400D02*
G75*
G02*
X139452800Y-85589400I0J-2000000D01*
G01*
%TO.C,S22*%
X173663971Y-86727962D02*
X173414100Y-87229125D01*
X172115664Y-89833384D02*
X167327962Y-99436029D01*
X167327962Y-99436029D02*
X180036029Y-105772038D01*
X178233721Y-93922917D02*
X176479650Y-93048369D01*
X181333812Y-90775483D02*
X179033831Y-89628755D01*
X183597996Y-91904364D02*
X183105782Y-91658955D01*
X186372038Y-93063971D02*
X173663971Y-86727962D01*
X186372038Y-93063971D02*
X185006673Y-95802470D01*
X180036029Y-105772038D02*
X183668080Y-98487273D01*
X178233721Y-93922917D02*
G75*
G02*
X179131194Y-96605181I-892394J-1789868D01*
G01*
X183597996Y-91904364D02*
G75*
G02*
X184495469Y-94586628I-892396J-1789869D01*
G01*
%TO.C,S23*%
X193895973Y-97750798D02*
X193557008Y-98196560D01*
X191795603Y-100512925D02*
X185300798Y-109054027D01*
X185300798Y-109054027D02*
X196604027Y-117649202D01*
X197043494Y-105671853D02*
X195483330Y-104485477D01*
X200676252Y-103157898D02*
X198630527Y-101602292D01*
X202690137Y-104689292D02*
X202252336Y-104356380D01*
X205199202Y-106345973D02*
X193895973Y-97750798D01*
X205199202Y-106345973D02*
X203347002Y-108781739D01*
X196604027Y-117649202D02*
X201531120Y-111169745D01*
X197043494Y-105671853D02*
G75*
G02*
X197424910Y-108474445I-1210586J-1592004D01*
G01*
X202690137Y-104689292D02*
G75*
G02*
X203071553Y-107491884I-1210588J-1592004D01*
G01*
D11*
%TO.C,D3*%
X113752400Y-27733800D02*
X114852400Y-27733800D01*
X113902400Y-27133800D02*
X114702400Y-27133800D01*
X114302400Y-27133799D02*
X114302400Y-26633800D01*
X114302400Y-27733801D02*
X113902400Y-27133800D01*
X114302400Y-28133800D02*
X114302400Y-27733801D01*
X114702400Y-27133800D02*
X114302400Y-27733801D01*
D12*
%TO.C,D27*%
X177341400Y-77742900D02*
X179611400Y-77742900D01*
X179611400Y-77742900D02*
X179611400Y-73682900D01*
X177341400Y-73682900D02*
X177341400Y-77742900D01*
D10*
%TO.C,U2*%
X174330000Y-28450000D02*
X174330000Y-61470000D01*
X174330000Y-28450000D02*
X192110000Y-28450000D01*
X192110000Y-28450000D02*
X192110000Y-61470000D01*
X192110000Y-61470000D02*
X174330000Y-61470000D01*
X192110000Y-61470000D02*
X174330000Y-61470000D01*
D12*
%TO.C,JP5*%
X175400000Y-70000000D02*
X172600000Y-70000000D01*
X175400000Y-68000000D02*
X175400000Y-70000000D01*
X172600000Y-70000000D02*
X172600000Y-68000000D01*
X172600000Y-68000000D02*
X175400000Y-68000000D01*
%TO.C,JP6*%
X179200000Y-70000000D02*
X176400000Y-70000000D01*
X179200000Y-68000000D02*
X179200000Y-70000000D01*
X176400000Y-70000000D02*
X176400000Y-68000000D01*
X176400000Y-68000000D02*
X179200000Y-68000000D01*
%TO.C,JP2*%
X176400000Y-64600000D02*
X179200000Y-64600000D01*
X176400000Y-66600000D02*
X176400000Y-64600000D01*
X179200000Y-64600000D02*
X179200000Y-66600000D01*
X179200000Y-66600000D02*
X176400000Y-66600000D01*
%TO.C,J1*%
X195940000Y-78160000D02*
X195940000Y-63540000D01*
X195940000Y-63540000D02*
X195420000Y-63540000D01*
X195420000Y-78160000D02*
X195940000Y-78160000D01*
X195420000Y-77510000D02*
X195420000Y-78160000D01*
X195420000Y-77510000D02*
X187310000Y-77510000D01*
X195420000Y-63540000D02*
X195420000Y-64190000D01*
X187310000Y-64190000D02*
X195420000Y-64190000D01*
X180460000Y-64190000D02*
X183790000Y-64190001D01*
X180459999Y-77510000D02*
X183790000Y-77510000D01*
X180459999Y-77510000D02*
X180460000Y-64190000D01*
X180239999Y-75250000D02*
X180239999Y-73450000D01*
%TO.C,JP1*%
X172600000Y-64600000D02*
X175400000Y-64600000D01*
X172600000Y-66600000D02*
X172600000Y-64600000D01*
X175400000Y-64600000D02*
X175400000Y-66600000D01*
X175400000Y-66600000D02*
X172600000Y-66600000D01*
D11*
%TO.C,D16*%
X133752800Y-64045100D02*
X133352800Y-64645101D01*
X133352800Y-65045100D02*
X133352800Y-64645101D01*
X133352800Y-64645101D02*
X132952800Y-64045100D01*
X133352800Y-64045099D02*
X133352800Y-63545100D01*
X132952800Y-64045100D02*
X133752800Y-64045100D01*
X132802800Y-64645100D02*
X133902800Y-64645100D01*
%TO.C,D7*%
X76601600Y-59282500D02*
X76201600Y-59882501D01*
X76201600Y-60282500D02*
X76201600Y-59882501D01*
X76201600Y-59882501D02*
X75801600Y-59282500D01*
X76201600Y-59282499D02*
X76201600Y-58782500D01*
X75801600Y-59282500D02*
X76601600Y-59282500D01*
X75651600Y-59882500D02*
X76751600Y-59882500D01*
%TO.C,D17*%
X152803200Y-71189000D02*
X152403200Y-71789001D01*
X152403200Y-72189000D02*
X152403200Y-71789001D01*
X152403200Y-71789001D02*
X152003200Y-71189000D01*
X152403200Y-71188999D02*
X152403200Y-70689000D01*
X152003200Y-71189000D02*
X152803200Y-71189000D01*
X151853200Y-71789000D02*
X152953200Y-71789000D01*
%TO.C,D21*%
X162328400Y-95002000D02*
X161928400Y-95602001D01*
X161928400Y-96002000D02*
X161928400Y-95602001D01*
X161928400Y-95602001D02*
X161528400Y-95002000D01*
X161928400Y-95001999D02*
X161928400Y-94502000D01*
X161528400Y-95002000D02*
X162328400Y-95002000D01*
X161378400Y-95602000D02*
X162478400Y-95602000D01*
%TO.C,D6*%
X171853600Y-37850800D02*
X171453600Y-38450801D01*
X171453600Y-38850800D02*
X171453600Y-38450801D01*
X171453600Y-38450801D02*
X171053600Y-37850800D01*
X171453600Y-37850799D02*
X171453600Y-37350800D01*
X171053600Y-37850800D02*
X171853600Y-37850800D01*
X170903600Y-38450800D02*
X172003600Y-38450800D01*
%TO.C,D18*%
X171853600Y-75951600D02*
X171453600Y-76551601D01*
X171453600Y-76951600D02*
X171453600Y-76551601D01*
X171453600Y-76551601D02*
X171053600Y-75951600D01*
X171453600Y-75951599D02*
X171453600Y-75451600D01*
X171053600Y-75951600D02*
X171853600Y-75951600D01*
X170903600Y-76551600D02*
X172003600Y-76551600D01*
%TO.C,D1*%
X76601600Y-40232100D02*
X76201600Y-40832101D01*
X76201600Y-41232100D02*
X76201600Y-40832101D01*
X76201600Y-40832101D02*
X75801600Y-40232100D01*
X76201600Y-40232099D02*
X76201600Y-39732100D01*
X75801600Y-40232100D02*
X76601600Y-40232100D01*
X75651600Y-40832100D02*
X76751600Y-40832100D01*
%TO.C,D10*%
X133752800Y-44994700D02*
X133352800Y-45594701D01*
X133352800Y-45994700D02*
X133352800Y-45594701D01*
X133352800Y-45594701D02*
X132952800Y-44994700D01*
X133352800Y-44994699D02*
X133352800Y-44494700D01*
X132952800Y-44994700D02*
X133752800Y-44994700D01*
X132802800Y-45594700D02*
X133902800Y-45594700D01*
%TO.C,D15*%
X114702400Y-68807700D02*
X114302400Y-69407701D01*
X114302400Y-69807700D02*
X114302400Y-69407701D01*
X114302400Y-69407701D02*
X113902400Y-68807700D01*
X114302400Y-68807699D02*
X114302400Y-68307700D01*
X113902400Y-68807700D02*
X114702400Y-68807700D01*
X113752400Y-69407700D02*
X114852400Y-69407700D01*
%TO.C,D12*%
X171853600Y-56901200D02*
X171453600Y-57501201D01*
X171453600Y-57901200D02*
X171453600Y-57501201D01*
X171453600Y-57501201D02*
X171053600Y-56901200D01*
X171453600Y-56901199D02*
X171453600Y-56401200D01*
X171053600Y-56901200D02*
X171853600Y-56901200D01*
X170903600Y-57501200D02*
X172003600Y-57501200D01*
%TO.C,D22*%
X172602214Y-105503575D02*
X172245255Y-106219524D01*
X172423735Y-105861551D02*
X172871202Y-106084649D01*
X172245255Y-106219524D02*
X171886773Y-105593831D01*
X172132183Y-105101618D02*
X171641365Y-106086045D01*
X171886773Y-105593831D02*
X172602214Y-105503575D01*
X171528800Y-105415352D02*
X171886773Y-105593831D01*
%TO.C,D9*%
X114702400Y-49757300D02*
X114302400Y-50357301D01*
X114302400Y-50757300D02*
X114302400Y-50357301D01*
X114302400Y-50357301D02*
X113902400Y-49757300D01*
X114302400Y-49757299D02*
X114302400Y-49257300D01*
X113902400Y-49757300D02*
X114702400Y-49757300D01*
X113752400Y-50357300D02*
X114852400Y-50357300D01*
%TO.C,D2*%
X95652000Y-37850800D02*
X95252000Y-38450801D01*
X95252000Y-38850800D02*
X95252000Y-38450801D01*
X95252000Y-38450801D02*
X94852000Y-37850800D01*
X95252000Y-37850799D02*
X95252000Y-37350800D01*
X94852000Y-37850800D02*
X95652000Y-37850800D01*
X94702000Y-38450800D02*
X95802000Y-38450800D01*
%TO.C,D20*%
X143278000Y-90239400D02*
X142878000Y-90839401D01*
X142878000Y-91239400D02*
X142878000Y-90839401D01*
X142878000Y-90839401D02*
X142478000Y-90239400D01*
X142878000Y-90239399D02*
X142878000Y-89739400D01*
X142478000Y-90239400D02*
X143278000Y-90239400D01*
X142328000Y-90839400D02*
X143428000Y-90839400D01*
%TO.C,D13*%
X76601600Y-78332900D02*
X76201600Y-78932901D01*
X76201600Y-79332900D02*
X76201600Y-78932901D01*
X76201600Y-78932901D02*
X75801600Y-78332900D01*
X76201600Y-78332899D02*
X76201600Y-77832900D01*
X75801600Y-78332900D02*
X76601600Y-78332900D01*
X75651600Y-78932900D02*
X76751600Y-78932900D01*
%TO.C,D11*%
X152803200Y-52138600D02*
X152403200Y-52738601D01*
X152403200Y-53138600D02*
X152403200Y-52738601D01*
X152403200Y-52738601D02*
X152003200Y-52138600D01*
X152403200Y-52138599D02*
X152403200Y-51638600D01*
X152003200Y-52138600D02*
X152803200Y-52138600D01*
X151853200Y-52738600D02*
X152953200Y-52738600D01*
%TO.C,D5*%
X152803200Y-33088200D02*
X152403200Y-33688201D01*
X152403200Y-34088200D02*
X152403200Y-33688201D01*
X152403200Y-33688201D02*
X152003200Y-33088200D01*
X152403200Y-33088199D02*
X152403200Y-32588200D01*
X152003200Y-33088200D02*
X152803200Y-33088200D01*
X151853200Y-33688200D02*
X152953200Y-33688200D01*
%TO.C,D14*%
X95652000Y-75951600D02*
X95252000Y-76551601D01*
X95252000Y-76951600D02*
X95252000Y-76551601D01*
X95252000Y-76551601D02*
X94852000Y-75951600D01*
X95252000Y-75951599D02*
X95252000Y-75451600D01*
X94852000Y-75951600D02*
X95652000Y-75951600D01*
X94702000Y-76551600D02*
X95802000Y-76551600D01*
%TO.C,D8*%
X95652000Y-56901200D02*
X95252000Y-57501201D01*
X95252000Y-57901200D02*
X95252000Y-57501201D01*
X95252000Y-57501201D02*
X94852000Y-56901200D01*
X95252000Y-56901199D02*
X95252000Y-56401200D01*
X94852000Y-56901200D02*
X95652000Y-56901200D01*
X94702000Y-57501200D02*
X95802000Y-57501200D01*
%TO.C,D19*%
X124227600Y-87858100D02*
X123827600Y-88458101D01*
X123827600Y-88858100D02*
X123827600Y-88458101D01*
X123827600Y-88458101D02*
X123427600Y-87858100D01*
X123827600Y-87858099D02*
X123827600Y-87358100D01*
X123427600Y-87858100D02*
X124227600Y-87858100D01*
X123277600Y-88458100D02*
X124377600Y-88458100D01*
%TO.C,D4*%
X133752800Y-25944300D02*
X133352800Y-26544301D01*
X133352800Y-26944300D02*
X133352800Y-26544301D01*
X133352800Y-26544301D02*
X132952800Y-25944300D01*
X133352800Y-25944299D02*
X133352800Y-25444300D01*
X132952800Y-25944300D02*
X133752800Y-25944300D01*
X132802800Y-26544300D02*
X133902800Y-26544300D01*
%TO.C,D23*%
X189242560Y-115886780D02*
X188752786Y-116519331D01*
X188997673Y-116203056D02*
X189393017Y-116509164D01*
X188859979Y-115400846D02*
X188186539Y-116270604D01*
X188752786Y-116519331D02*
X188523258Y-115835724D01*
X188523258Y-115835724D02*
X189242560Y-115886780D01*
X188206983Y-115590838D02*
X188523258Y-115835724D01*
%TD*%
M02*
